<?xml version="1.0" encoding="UTF-8" standalone="no"?>
<!DOCTYPE svg PUBLIC "-//W3C//DTD SVG 1.1//EN"
 "http://www.w3.org/Graphics/SVG/1.1/DTD/svg11.dtd">
<!-- Generated by graphviz version 2.38.0 (20140413.2041)
 -->
<!-- Title: 磯野家 家系図 Pages: 1 -->
<svg width="877pt" height="504pt"
 viewBox="0.00 0.00 877.00 504.16" xmlns="http://www.w3.org/2000/svg" xmlns:xlink="http://www.w3.org/1999/xlink">
<g id="graph0" class="graph" transform="scale(1 1) rotate(0) translate(4 500.16)">
<title>磯野家 家系図</title>
<polygon fill="white" stroke="none" points="-4,4 -4,-500.16 873,-500.16 873,4 -4,4"/>
<!-- Isono_Mokuzu -->
<g id="node1" class="node"><title>Isono_Mokuzu</title>
<polygon fill="none" stroke="black" points="267.5,-449.66 267.5,-495.66 412.5,-495.66 412.5,-449.66 267.5,-449.66"/>
<text text-anchor="middle" x="340" y="-480.46" font-family="Sans" font-size="14.00">磯野 藻屑 源素太皆</text>
<polyline fill="none" stroke="black" points="267.5,-472.66 412.5,-472.66 "/>
<text text-anchor="start" x="275.5" y="-457.46" font-family="Sans" font-size="14.00">磯野家のご先祖</text>
</g>
<!-- f0_c1 -->
<g id="node17" class="node"><title>f0_c1</title>
<ellipse fill="black" stroke="black" cx="340" cy="-412.8" rx="0.36" ry="0.36"/>
</g>
<!-- Isono_Mokuzu&#45;&#45;f0_c1 -->
<g id="edge10" class="edge"><title>Isono_Mokuzu&#45;&#45;f0_c1</title>
<path fill="none" stroke="black" d="M340,-449.345C340,-434.113 340,-416.475 340,-413.302"/>
</g>
<!-- Fuguta_Haha -->
<g id="node2" class="node"><title>Fuguta_Haha</title>
<polygon fill="none" stroke="black" points="0,-314.94 0,-360.94 100,-360.94 100,-314.94 0,-314.94"/>
<text text-anchor="middle" x="50" y="-345.74" font-family="Sans" font-size="14.00">フグ田</text>
<polyline fill="none" stroke="black" points="0,-337.94 100,-337.94 "/>
<text text-anchor="start" x="8" y="-322.74" font-family="Sans" font-size="14.00">住所: 大阪府</text>
</g>
<!-- Isono_Umihei -->
<g id="node3" class="node"><title>Isono_Umihei</title>
<polygon fill="none" stroke="black" points="118,-299.94 118,-375.94 254,-375.94 254,-299.94 118,-299.94"/>
<text text-anchor="middle" x="186" y="-360.74" font-family="Sans" font-size="14.00">磯野 海平</text>
<polyline fill="none" stroke="black" points="118,-352.94 254,-352.94 "/>
<text text-anchor="start" x="126" y="-337.74" font-family="Sans" font-size="14.00">長男</text>
<text text-anchor="start" x="126" y="-322.74" font-family="Sans" font-size="14.00">住所: 福岡県</text>
<text text-anchor="start" x="126" y="-307.74" font-family="Sans" font-size="14.00">出生: 1895.09.14</text>
</g>
<!-- Fuguta_Haha&#45;&#45;Isono_Umihei -->
<!-- f1_c -->
<g id="node19" class="node"><title>f1_c</title>
<ellipse fill="black" stroke="black" cx="90" cy="-263.08" rx="0.36" ry="0.36"/>
</g>
<!-- Fuguta_Haha&#45;&#45;f1_c -->
<g id="edge14" class="edge"><title>Fuguta_Haha&#45;&#45;f1_c</title>
<path fill="none" stroke="black" d="M90,-314.664C90,-294.749 90,-268.565 90,-263.83"/>
</g>
<!-- Isono_Namihei -->
<g id="node4" class="node"><title>Isono_Namihei</title>
<polygon fill="none" stroke="black" points="272,-299.94 272,-375.94 408,-375.94 408,-299.94 272,-299.94"/>
<text text-anchor="middle" x="340" y="-360.74" font-family="Sans" font-size="14.00">磯野 波平</text>
<polyline fill="none" stroke="black" points="272,-352.94 408,-352.94 "/>
<text text-anchor="start" x="280" y="-337.74" font-family="Sans" font-size="14.00">次男</text>
<text text-anchor="start" x="280" y="-322.74" font-family="Sans" font-size="14.00">住所: 東京都</text>
<text text-anchor="start" x="280" y="-307.74" font-family="Sans" font-size="14.00">出生: 1895.09.14</text>
</g>
<!-- Isono_Umihei&#45;&#45;Isono_Namihei -->
<!-- Namino_Nagie -->
<g id="node6" class="node"><title>Namino_Nagie</title>
<polygon fill="none" stroke="black" points="562,-307.44 562,-368.44 662,-368.44 662,-307.44 562,-307.44"/>
<text text-anchor="middle" x="612" y="-353.24" font-family="Sans" font-size="14.00">波野 なぎえ</text>
<polyline fill="none" stroke="black" points="562,-345.44 662,-345.44 "/>
<text text-anchor="start" x="570" y="-330.24" font-family="Sans" font-size="14.00">長女</text>
<text text-anchor="start" x="570" y="-315.24" font-family="Sans" font-size="14.00">住所: 福岡県</text>
</g>
<!-- Isono_Namihei&#45;&#45;Namino_Nagie -->
<!-- f2_p -->
<g id="node20" class="node"><title>f2_p</title>
<ellipse fill="black" stroke="black" cx="426" cy="-337.94" rx="0.36" ry="0.36"/>
</g>
<!-- Isono_Namihei&#45;&#45;f2_p -->
<g id="edge16" class="edge"><title>Isono_Namihei&#45;&#45;f2_p</title>
<path fill="none" stroke="black" stroke-width="2" d="M408.181,-337C417.966,-337 425.065,-337 425.915,-337"/>
</g>
<!-- Isono_Fune -->
<g id="node5" class="node"><title>Isono_Fune</title>
<polygon fill="none" stroke="black" points="444,-299.94 444,-375.94 544,-375.94 544,-299.94 444,-299.94"/>
<text text-anchor="middle" x="494" y="-360.74" font-family="Sans" font-size="14.00">磯野 フネ</text>
<polyline fill="none" stroke="black" points="444,-352.94 544,-352.94 "/>
<text text-anchor="start" x="452" y="-337.74" font-family="Sans" font-size="14.00">波平の妻</text>
<text text-anchor="start" x="452" y="-322.74" font-family="Sans" font-size="14.00">住所: 東京都</text>
<text text-anchor="start" x="452" y="-307.74" font-family="Sans" font-size="14.00">出生: 1901.</text>
</g>
<!-- f3_p -->
<g id="node24" class="node"><title>f3_p</title>
<ellipse fill="black" stroke="black" cx="680" cy="-337.94" rx="0.36" ry="0.36"/>
</g>
<!-- Namino_Nagie&#45;&#45;f3_p -->
<g id="edge24" class="edge"><title>Namino_Nagie&#45;&#45;f3_p</title>
<path fill="none" stroke="black" stroke-width="2" d="M662.134,-337C671.689,-337 679.031,-337 679.911,-337"/>
</g>
<!-- Namino_NagieOtto -->
<g id="node7" class="node"><title>Namino_NagieOtto</title>
<polygon fill="none" stroke="black" points="698.5,-314.94 698.5,-360.94 789.5,-360.94 789.5,-314.94 698.5,-314.94"/>
<text text-anchor="middle" x="744" y="-345.74" font-family="Sans" font-size="14.00">波野</text>
<polyline fill="none" stroke="black" points="698.5,-337.94 789.5,-337.94 "/>
<text text-anchor="start" x="706.5" y="-322.74" font-family="Sans" font-size="14.00">なぎえの夫</text>
</g>
<!-- Fuguta_Masuo -->
<g id="node8" class="node"><title>Fuguta_Masuo</title>
<polygon fill="none" stroke="black" points="74.5,-150.22 74.5,-226.22 185.5,-226.22 185.5,-150.22 74.5,-150.22"/>
<text text-anchor="middle" x="130" y="-211.02" font-family="Sans" font-size="14.00">フグ田 マスオ</text>
<polyline fill="none" stroke="black" points="74.5,-203.22 185.5,-203.22 "/>
<text text-anchor="start" x="82.5" y="-188.02" font-family="Sans" font-size="14.00">次男</text>
<text text-anchor="start" x="82.5" y="-173.02" font-family="Sans" font-size="14.00">住所: 東京都</text>
<text text-anchor="start" x="82.5" y="-158.02" font-family="Sans" font-size="14.00">出生: 1917.</text>
</g>
<!-- Fuguta_Sazae -->
<g id="node9" class="node"><title>Fuguta_Sazae</title>
<polygon fill="none" stroke="black" points="222,-150.22 222,-226.22 358,-226.22 358,-150.22 222,-150.22"/>
<text text-anchor="middle" x="290" y="-211.02" font-family="Sans" font-size="14.00">フグ田 サザエ</text>
<polyline fill="none" stroke="black" points="222,-203.22 358,-203.22 "/>
<text text-anchor="start" x="230" y="-188.02" font-family="Sans" font-size="14.00">長女</text>
<text text-anchor="start" x="230" y="-173.02" font-family="Sans" font-size="14.00">住所: 東京都</text>
<text text-anchor="start" x="230" y="-158.02" font-family="Sans" font-size="14.00">出生: 1922.11.22</text>
</g>
<!-- Fuguta_Masuo&#45;&#45;Fuguta_Sazae -->
<!-- f4_p -->
<g id="node26" class="node"><title>f4_p</title>
<ellipse fill="black" stroke="black" cx="204" cy="-188.22" rx="0.36" ry="0.36"/>
</g>
<!-- Fuguta_Masuo&#45;&#45;f4_p -->
<g id="edge28" class="edge"><title>Fuguta_Masuo&#45;&#45;f4_p</title>
<path fill="none" stroke="black" stroke-width="2" d="M185.708,-188C194.907,-188 202.013,-188 203.645,-188"/>
</g>
<!-- Isono_Katsuo -->
<g id="node10" class="node"><title>Isono_Katsuo</title>
<polygon fill="none" stroke="black" points="376,-150.22 376,-226.22 476,-226.22 476,-150.22 376,-150.22"/>
<text text-anchor="middle" x="426" y="-211.02" font-family="Sans" font-size="14.00">磯野 カツオ</text>
<polyline fill="none" stroke="black" points="376,-203.22 476,-203.22 "/>
<text text-anchor="start" x="384" y="-188.02" font-family="Sans" font-size="14.00">長男</text>
<text text-anchor="start" x="384" y="-173.02" font-family="Sans" font-size="14.00">住所: 東京都</text>
<text text-anchor="start" x="384" y="-158.02" font-family="Sans" font-size="14.00">出生: 1938.</text>
</g>
<!-- Fuguta_Sazae&#45;&#45;Isono_Katsuo -->
<!-- Isono_Wakame -->
<g id="node11" class="node"><title>Isono_Wakame</title>
<polygon fill="none" stroke="black" points="494,-150.22 494,-226.22 594,-226.22 594,-150.22 494,-150.22"/>
<text text-anchor="middle" x="544" y="-211.02" font-family="Sans" font-size="14.00">磯野 ワカメ</text>
<polyline fill="none" stroke="black" points="494,-203.22 594,-203.22 "/>
<text text-anchor="start" x="502" y="-188.02" font-family="Sans" font-size="14.00">次女</text>
<text text-anchor="start" x="502" y="-173.02" font-family="Sans" font-size="14.00">住所: 東京都</text>
<text text-anchor="start" x="502" y="-158.02" font-family="Sans" font-size="14.00">出生: 1942.</text>
</g>
<!-- Isono_Katsuo&#45;&#45;Isono_Wakame -->
<!-- Namino_Norisuke -->
<g id="node12" class="node"><title>Namino_Norisuke</title>
<polygon fill="none" stroke="black" points="615.5,-157.72 615.5,-218.72 726.5,-218.72 726.5,-157.72 615.5,-157.72"/>
<text text-anchor="middle" x="671" y="-203.52" font-family="Sans" font-size="14.00">波野 ノリスケ</text>
<polyline fill="none" stroke="black" points="615.5,-195.72 726.5,-195.72 "/>
<text text-anchor="start" x="623.5" y="-180.52" font-family="Sans" font-size="14.00">三男</text>
<text text-anchor="start" x="623.5" y="-165.52" font-family="Sans" font-size="14.00">住所: 東京都</text>
</g>
<!-- Isono_Wakame&#45;&#45;Namino_Norisuke -->
<!-- f5_p -->
<g id="node28" class="node"><title>f5_p</title>
<ellipse fill="black" stroke="black" cx="745" cy="-188.22" rx="0.36" ry="0.36"/>
</g>
<!-- Namino_Norisuke&#45;&#45;f5_p -->
<g id="edge32" class="edge"><title>Namino_Norisuke&#45;&#45;f5_p</title>
<path fill="none" stroke="black" stroke-width="2" d="M726.708,-188C735.907,-188 743.013,-188 744.645,-188"/>
</g>
<!-- Namino_Taiko -->
<g id="node13" class="node"><title>Namino_Taiko</title>
<polygon fill="none" stroke="black" points="763,-157.72 763,-218.72 869,-218.72 869,-157.72 763,-157.72"/>
<text text-anchor="middle" x="816" y="-203.52" font-family="Sans" font-size="14.00">波野 タイ子</text>
<polyline fill="none" stroke="black" points="763,-195.72 869,-195.72 "/>
<text text-anchor="start" x="771" y="-180.52" font-family="Sans" font-size="14.00">ノリスケの妻</text>
<text text-anchor="start" x="771" y="-165.52" font-family="Sans" font-size="14.00">住所: 東京都</text>
</g>
<!-- Fuguta_Tarao -->
<g id="node14" class="node"><title>Fuguta_Tarao</title>
<polygon fill="none" stroke="black" points="145,-0.5 145,-76.5 263,-76.5 263,-0.5 145,-0.5"/>
<text text-anchor="middle" x="204" y="-61.3" font-family="Sans" font-size="14.00">フグ田 タラオ</text>
<polyline fill="none" stroke="black" points="145,-53.5 263,-53.5 "/>
<text text-anchor="start" x="153" y="-38.3" font-family="Sans" font-size="14.00">長男</text>
<text text-anchor="start" x="153" y="-23.3" font-family="Sans" font-size="14.00">住所: 東京都</text>
<text text-anchor="start" x="153" y="-8.3" font-family="Sans" font-size="14.00">出生: 1947.10.</text>
</g>
<!-- Namino_Ikura -->
<g id="node15" class="node"><title>Namino_Ikura</title>
<polygon fill="none" stroke="black" points="695,-8 695,-69 795,-69 795,-8 695,-8"/>
<text text-anchor="middle" x="745" y="-53.8" font-family="Sans" font-size="14.00">波野 イクラ</text>
<polyline fill="none" stroke="black" points="695,-46 795,-46 "/>
<text text-anchor="start" x="703" y="-30.8" font-family="Sans" font-size="14.00">長男</text>
<text text-anchor="start" x="703" y="-15.8" font-family="Sans" font-size="14.00">住所: 東京都</text>
</g>
<!-- f0_c0 -->
<g id="node16" class="node"><title>f0_c0</title>
<ellipse fill="black" stroke="black" cx="254" cy="-412.8" rx="0.36" ry="0.36"/>
</g>
<!-- f0_c0&#45;&#45;Isono_Umihei -->
<g id="edge11" class="edge"><title>f0_c0&#45;&#45;Isono_Umihei</title>
<path fill="none" stroke="black" d="M253.5,-412.746C253.5,-411.648 253.5,-394.063 253.5,-376.22"/>
</g>
<!-- f0_c0&#45;&#45;f0_c1 -->
<g id="edge8" class="edge"><title>f0_c0&#45;&#45;f0_c1</title>
<path fill="none" stroke="black" d="M254.062,-412C256.626,-412 337.416,-412 339.94,-412"/>
</g>
<!-- f0_c1&#45;&#45;Isono_Namihei -->
<g id="edge12" class="edge"><title>f0_c1&#45;&#45;Isono_Namihei</title>
<path fill="none" stroke="black" d="M340,-412.322C340,-409.333 340,-392.803 340,-376.083"/>
</g>
<!-- f0_c2 -->
<g id="node18" class="node"><title>f0_c2</title>
<ellipse fill="black" stroke="black" cx="485" cy="-412.8" rx="0.36" ry="0.36"/>
</g>
<!-- f0_c1&#45;&#45;f0_c2 -->
<g id="edge9" class="edge"><title>f0_c1&#45;&#45;f0_c2</title>
<path fill="none" stroke="black" d="M340.105,-412C344.427,-412 480.642,-412 484.898,-412"/>
</g>
<!-- f0_c2&#45;&#45;Namino_Nagie -->
<g id="edge13" class="edge"><title>f0_c2&#45;&#45;Namino_Nagie</title>
<path fill="none" stroke="black" d="M485.092,-412C488.938,-412 612,-412 612,-412 612,-412 612,-388.891 612,-368.491"/>
</g>
<!-- f1_c&#45;&#45;Fuguta_Masuo -->
<g id="edge15" class="edge"><title>f1_c&#45;&#45;Fuguta_Masuo</title>
<path fill="none" stroke="black" d="M90,-262.602C90,-259.613 90,-243.083 90,-226.363"/>
</g>
<!-- f2_p&#45;&#45;Isono_Fune -->
<g id="edge17" class="edge"><title>f2_p&#45;&#45;Isono_Fune</title>
<path fill="none" stroke="black" stroke-width="2" d="M426.049,-337C426.717,-337 434.094,-337 443.761,-337"/>
</g>
<!-- f2_c1 -->
<g id="node22" class="node"><title>f2_c1</title>
<ellipse fill="black" stroke="black" cx="426" cy="-263.08" rx="0.36" ry="0.36"/>
</g>
<!-- f2_p&#45;&#45;f2_c1 -->
<g id="edge20" class="edge"><title>f2_p&#45;&#45;f2_c1</title>
<path fill="none" stroke="black" d="M426,-337.462C426,-331.385 426,-269.32 426,-263.515"/>
</g>
<!-- f2_c0 -->
<g id="node21" class="node"><title>f2_c0</title>
<ellipse fill="black" stroke="black" cx="348" cy="-263.08" rx="0.36" ry="0.36"/>
</g>
<!-- f2_c0&#45;&#45;Fuguta_Sazae -->
<g id="edge21" class="edge"><title>f2_c0&#45;&#45;Fuguta_Sazae</title>
<path fill="none" stroke="black" d="M348,-262.602C348,-259.613 348,-243.083 348,-226.363"/>
</g>
<!-- f2_c0&#45;&#45;f2_c1 -->
<g id="edge18" class="edge"><title>f2_c0&#45;&#45;f2_c1</title>
<path fill="none" stroke="black" d="M348.498,-263C354.83,-263 419.498,-263 425.547,-263"/>
</g>
<!-- f2_c1&#45;&#45;Isono_Katsuo -->
<g id="edge22" class="edge"><title>f2_c1&#45;&#45;Isono_Katsuo</title>
<path fill="none" stroke="black" d="M426,-262.602C426,-259.613 426,-243.083 426,-226.363"/>
</g>
<!-- f2_c2 -->
<g id="node23" class="node"><title>f2_c2</title>
<ellipse fill="black" stroke="black" cx="495" cy="-263.08" rx="0.36" ry="0.36"/>
</g>
<!-- f2_c1&#45;&#45;f2_c2 -->
<g id="edge19" class="edge"><title>f2_c1&#45;&#45;f2_c2</title>
<path fill="none" stroke="black" d="M426.441,-263C432.042,-263 489.248,-263 494.599,-263"/>
</g>
<!-- f2_c2&#45;&#45;Isono_Wakame -->
<g id="edge23" class="edge"><title>f2_c2&#45;&#45;Isono_Wakame</title>
<path fill="none" stroke="black" d="M495,-262.602C495,-259.613 495,-243.083 495,-226.363"/>
</g>
<!-- f3_p&#45;&#45;Namino_NagieOtto -->
<g id="edge25" class="edge"><title>f3_p&#45;&#45;Namino_NagieOtto</title>
<path fill="none" stroke="black" stroke-width="2" d="M680.046,-337C680.713,-337 688.478,-337 698.383,-337"/>
</g>
<!-- f3_c -->
<g id="node25" class="node"><title>f3_c</title>
<ellipse fill="black" stroke="black" cx="677" cy="-263.08" rx="0.36" ry="0.36"/>
</g>
<!-- f3_p&#45;&#45;f3_c -->
<g id="edge26" class="edge"><title>f3_p&#45;&#45;f3_c</title>
<path fill="none" stroke="black" d="M680,-337.461C680,-331.079 680,-263 680,-263 680,-263 678.313,-263 677.469,-263"/>
</g>
<!-- f3_c&#45;&#45;Namino_Norisuke -->
<g id="edge27" class="edge"><title>f3_c&#45;&#45;Namino_Norisuke</title>
<path fill="none" stroke="black" d="M677,-262.602C677,-259.165 677,-237.819 677,-218.871"/>
</g>
<!-- f4_p&#45;&#45;Fuguta_Sazae -->
<g id="edge29" class="edge"><title>f4_p&#45;&#45;Fuguta_Sazae</title>
<path fill="none" stroke="black" stroke-width="2" d="M204.549,-188C206.437,-188 213.032,-188 221.78,-188"/>
</g>
<!-- f4_c -->
<g id="node27" class="node"><title>f4_c</title>
<ellipse fill="black" stroke="black" cx="204" cy="-113.36" rx="0.36" ry="0.36"/>
</g>
<!-- f4_p&#45;&#45;f4_c -->
<g id="edge30" class="edge"><title>f4_p&#45;&#45;f4_c</title>
<path fill="none" stroke="black" d="M204,-187.742C204,-181.665 204,-119.6 204,-113.795"/>
</g>
<!-- f4_c&#45;&#45;Fuguta_Tarao -->
<g id="edge31" class="edge"><title>f4_c&#45;&#45;Fuguta_Tarao</title>
<path fill="none" stroke="black" d="M204,-112.882C204,-109.893 204,-93.3629 204,-76.6427"/>
</g>
<!-- f5_p&#45;&#45;Namino_Taiko -->
<g id="edge33" class="edge"><title>f5_p&#45;&#45;Namino_Taiko</title>
<path fill="none" stroke="black" stroke-width="2" d="M745.453,-188C747.225,-188 754.014,-188 762.727,-188"/>
</g>
<!-- f5_c -->
<g id="node29" class="node"><title>f5_c</title>
<ellipse fill="black" stroke="black" cx="745" cy="-113.36" rx="0.36" ry="0.36"/>
</g>
<!-- f5_p&#45;&#45;f5_c -->
<g id="edge34" class="edge"><title>f5_p&#45;&#45;f5_c</title>
<path fill="none" stroke="black" d="M745,-187.742C745,-181.665 745,-119.6 745,-113.795"/>
</g>
<!-- f5_c&#45;&#45;Namino_Ikura -->
<g id="edge35" class="edge"><title>f5_c&#45;&#45;Namino_Ikura</title>
<path fill="none" stroke="black" d="M745,-112.882C745,-109.445 745,-88.0991 745,-69.1509"/>
</g>
</g>
</svg>
