<?xml version="1.0" encoding="UTF-8" standalone="no"?>
<!DOCTYPE svg PUBLIC "-//W3C//DTD SVG 1.1//EN"
 "http://www.w3.org/Graphics/SVG/1.1/DTD/svg11.dtd">
<!-- Generated by graphviz version 2.38.0 (20140413.2041)
 -->
<!-- Title: 磯野家 家系図 Pages: 1 -->
<svg width="761pt" height="579pt"
 viewBox="0.00 0.00 761.16 578.50" xmlns="http://www.w3.org/2000/svg" xmlns:xlink="http://www.w3.org/1999/xlink">
<g id="graph0" class="graph" transform="scale(1 1) rotate(0) translate(4 574.5)">
<title>磯野家 家系図</title>
<polygon fill="white" stroke="none" points="-4,4 -4,-574.5 757.16,-574.5 757.16,4 -4,4"/>
<!-- Isono_Mokuzu -->
<g id="node1" class="node"><title>Isono_Mokuzu</title>
<polygon fill="none" stroke="black" points="0,-349 0,-395 145,-395 145,-349 0,-349"/>
<text text-anchor="middle" x="72.5" y="-379.8" font-family="Sans" font-size="14.00">磯野 藻屑 源素太皆</text>
<polyline fill="none" stroke="black" points="0,-372 145,-372 "/>
<text text-anchor="start" x="8" y="-356.8" font-family="Sans" font-size="14.00">磯野家のご先祖</text>
</g>
<!-- f0_c1 -->
<g id="node17" class="node"><title>f0_c1</title>
<ellipse fill="black" stroke="black" cx="181.36" cy="-372" rx="0.36" ry="0.36"/>
</g>
<!-- Isono_Mokuzu&#45;&#45;f0_c1 -->
<g id="edge10" class="edge"><title>Isono_Mokuzu&#45;&#45;f0_c1</title>
<path fill="none" stroke="black" d="M145.111,-372C163.208,-372 178.275,-372 180.941,-372"/>
</g>
<!-- Fuguta_Haha -->
<g id="node2" class="node"><title>Fuguta_Haha</title>
<polygon fill="none" stroke="black" points="235.72,-524 235.72,-570 335.72,-570 335.72,-524 235.72,-524"/>
<text text-anchor="middle" x="285.72" y="-554.8" font-family="Sans" font-size="14.00">フグ田</text>
<polyline fill="none" stroke="black" points="235.72,-547 335.72,-547 "/>
<text text-anchor="start" x="243.72" y="-531.8" font-family="Sans" font-size="14.00">住所: 大阪府</text>
</g>
<!-- Isono_Umihei -->
<g id="node3" class="node"><title>Isono_Umihei</title>
<polygon fill="none" stroke="black" points="217.72,-429 217.72,-505 353.72,-505 353.72,-429 217.72,-429"/>
<text text-anchor="middle" x="285.72" y="-489.8" font-family="Sans" font-size="14.00">磯野 海平</text>
<polyline fill="none" stroke="black" points="217.72,-482 353.72,-482 "/>
<text text-anchor="start" x="225.72" y="-466.8" font-family="Sans" font-size="14.00">長男</text>
<text text-anchor="start" x="225.72" y="-451.8" font-family="Sans" font-size="14.00">住所: 福岡県</text>
<text text-anchor="start" x="225.72" y="-436.8" font-family="Sans" font-size="14.00">出生: 1895.09.14</text>
</g>
<!-- Fuguta_Haha&#45;&#45;Isono_Umihei -->
<!-- f1_c -->
<g id="node19" class="node"><title>f1_c</title>
<ellipse fill="black" stroke="black" cx="390.08" cy="-535" rx="0.36" ry="0.36"/>
</g>
<!-- Fuguta_Haha&#45;&#45;f1_c -->
<g id="edge14" class="edge"><title>Fuguta_Haha&#45;&#45;f1_c</title>
<path fill="none" stroke="black" d="M335.76,-535C360.033,-535 384.924,-535 389.377,-535"/>
</g>
<!-- Isono_Namihei -->
<g id="node4" class="node"><title>Isono_Namihei</title>
<polygon fill="none" stroke="black" points="217.72,-334 217.72,-410 353.72,-410 353.72,-334 217.72,-334"/>
<text text-anchor="middle" x="285.72" y="-394.8" font-family="Sans" font-size="14.00">磯野 波平</text>
<polyline fill="none" stroke="black" points="217.72,-387 353.72,-387 "/>
<text text-anchor="start" x="225.72" y="-371.8" font-family="Sans" font-size="14.00">次男</text>
<text text-anchor="start" x="225.72" y="-356.8" font-family="Sans" font-size="14.00">住所: 東京都</text>
<text text-anchor="start" x="225.72" y="-341.8" font-family="Sans" font-size="14.00">出生: 1895.09.14</text>
</g>
<!-- Isono_Umihei&#45;&#45;Isono_Namihei -->
<!-- Namino_Nagie -->
<g id="node6" class="node"><title>Namino_Nagie</title>
<polygon fill="none" stroke="black" points="235.72,-139.5 235.72,-200.5 335.72,-200.5 335.72,-139.5 235.72,-139.5"/>
<text text-anchor="middle" x="285.72" y="-185.3" font-family="Sans" font-size="14.00">波野 なぎえ</text>
<polyline fill="none" stroke="black" points="235.72,-177.5 335.72,-177.5 "/>
<text text-anchor="start" x="243.72" y="-162.3" font-family="Sans" font-size="14.00">長女</text>
<text text-anchor="start" x="243.72" y="-147.3" font-family="Sans" font-size="14.00">住所: 福岡県</text>
</g>
<!-- Isono_Namihei&#45;&#45;Namino_Nagie -->
<!-- f2_p -->
<g id="node20" class="node"><title>f2_p</title>
<ellipse fill="black" stroke="black" cx="285.72" cy="-315" rx="0.36" ry="0.36"/>
</g>
<!-- Isono_Namihei&#45;&#45;f2_p -->
<g id="edge16" class="edge"><title>Isono_Namihei&#45;&#45;f2_p</title>
<path fill="none" stroke="black" stroke-width="2" d="M286.16,-333.98C286.16,-324.178 286.16,-316.073 286.16,-315.098"/>
</g>
<!-- Isono_Fune -->
<g id="node5" class="node"><title>Isono_Fune</title>
<polygon fill="none" stroke="black" points="235.72,-220 235.72,-296 335.72,-296 335.72,-220 235.72,-220"/>
<text text-anchor="middle" x="285.72" y="-280.8" font-family="Sans" font-size="14.00">磯野 フネ</text>
<polyline fill="none" stroke="black" points="235.72,-273 335.72,-273 "/>
<text text-anchor="start" x="243.72" y="-257.8" font-family="Sans" font-size="14.00">波平の妻</text>
<text text-anchor="start" x="243.72" y="-242.8" font-family="Sans" font-size="14.00">住所: 東京都</text>
<text text-anchor="start" x="243.72" y="-227.8" font-family="Sans" font-size="14.00">出生: 1901.</text>
</g>
<!-- f3_p -->
<g id="node24" class="node"><title>f3_p</title>
<ellipse fill="black" stroke="black" cx="285.72" cy="-121" rx="0.36" ry="0.36"/>
</g>
<!-- Namino_Nagie&#45;&#45;f3_p -->
<g id="edge24" class="edge"><title>Namino_Nagie&#45;&#45;f3_p</title>
<path fill="none" stroke="black" stroke-width="2" d="M286.16,-139.246C286.16,-130.016 286.16,-122.056 286.16,-121.097"/>
</g>
<!-- Namino_NagieOtto -->
<g id="node7" class="node"><title>Namino_NagieOtto</title>
<polygon fill="none" stroke="black" points="240.22,-56 240.22,-102 331.22,-102 331.22,-56 240.22,-56"/>
<text text-anchor="middle" x="285.72" y="-86.8" font-family="Sans" font-size="14.00">波野</text>
<polyline fill="none" stroke="black" points="240.22,-79 331.22,-79 "/>
<text text-anchor="start" x="248.22" y="-63.8" font-family="Sans" font-size="14.00">なぎえの夫</text>
</g>
<!-- Fuguta_Masuo -->
<g id="node8" class="node"><title>Fuguta_Masuo</title>
<polygon fill="none" stroke="black" points="438.94,-486 438.94,-562 549.94,-562 549.94,-486 438.94,-486"/>
<text text-anchor="middle" x="494.44" y="-546.8" font-family="Sans" font-size="14.00">フグ田 マスオ</text>
<polyline fill="none" stroke="black" points="438.94,-539 549.94,-539 "/>
<text text-anchor="start" x="446.94" y="-523.8" font-family="Sans" font-size="14.00">次男</text>
<text text-anchor="start" x="446.94" y="-508.8" font-family="Sans" font-size="14.00">住所: 東京都</text>
<text text-anchor="start" x="446.94" y="-493.8" font-family="Sans" font-size="14.00">出生: 1917.</text>
</g>
<!-- Fuguta_Sazae -->
<g id="node9" class="node"><title>Fuguta_Sazae</title>
<polygon fill="none" stroke="black" points="426.44,-372 426.44,-448 562.44,-448 562.44,-372 426.44,-372"/>
<text text-anchor="middle" x="494.44" y="-432.8" font-family="Sans" font-size="14.00">フグ田 サザエ</text>
<polyline fill="none" stroke="black" points="426.44,-425 562.44,-425 "/>
<text text-anchor="start" x="434.44" y="-409.8" font-family="Sans" font-size="14.00">長女</text>
<text text-anchor="start" x="434.44" y="-394.8" font-family="Sans" font-size="14.00">住所: 東京都</text>
<text text-anchor="start" x="434.44" y="-379.8" font-family="Sans" font-size="14.00">出生: 1922.11.22</text>
</g>
<!-- Fuguta_Masuo&#45;&#45;Fuguta_Sazae -->
<!-- f4_p -->
<g id="node26" class="node"><title>f4_p</title>
<ellipse fill="black" stroke="black" cx="494.44" cy="-467" rx="0.36" ry="0.36"/>
</g>
<!-- Fuguta_Masuo&#45;&#45;f4_p -->
<g id="edge28" class="edge"><title>Fuguta_Masuo&#45;&#45;f4_p</title>
<path fill="none" stroke="black" stroke-width="2" d="M495.16,-485.98C495.16,-476.178 495.16,-468.073 495.16,-467.098"/>
</g>
<!-- Isono_Katsuo -->
<g id="node10" class="node"><title>Isono_Katsuo</title>
<polygon fill="none" stroke="black" points="444.44,-277 444.44,-353 544.44,-353 544.44,-277 444.44,-277"/>
<text text-anchor="middle" x="494.44" y="-337.8" font-family="Sans" font-size="14.00">磯野 カツオ</text>
<polyline fill="none" stroke="black" points="444.44,-330 544.44,-330 "/>
<text text-anchor="start" x="452.44" y="-314.8" font-family="Sans" font-size="14.00">長男</text>
<text text-anchor="start" x="452.44" y="-299.8" font-family="Sans" font-size="14.00">住所: 東京都</text>
<text text-anchor="start" x="452.44" y="-284.8" font-family="Sans" font-size="14.00">出生: 1938.</text>
</g>
<!-- Fuguta_Sazae&#45;&#45;Isono_Katsuo -->
<!-- Isono_Wakame -->
<g id="node11" class="node"><title>Isono_Wakame</title>
<polygon fill="none" stroke="black" points="444.44,-182 444.44,-258 544.44,-258 544.44,-182 444.44,-182"/>
<text text-anchor="middle" x="494.44" y="-242.8" font-family="Sans" font-size="14.00">磯野 ワカメ</text>
<polyline fill="none" stroke="black" points="444.44,-235 544.44,-235 "/>
<text text-anchor="start" x="452.44" y="-219.8" font-family="Sans" font-size="14.00">次女</text>
<text text-anchor="start" x="452.44" y="-204.8" font-family="Sans" font-size="14.00">住所: 東京都</text>
<text text-anchor="start" x="452.44" y="-189.8" font-family="Sans" font-size="14.00">出生: 1942.</text>
</g>
<!-- Isono_Katsuo&#45;&#45;Isono_Wakame -->
<!-- Namino_Norisuke -->
<g id="node12" class="node"><title>Namino_Norisuke</title>
<polygon fill="none" stroke="black" points="438.94,-98.5 438.94,-159.5 549.94,-159.5 549.94,-98.5 438.94,-98.5"/>
<text text-anchor="middle" x="494.44" y="-144.3" font-family="Sans" font-size="14.00">波野 ノリスケ</text>
<polyline fill="none" stroke="black" points="438.94,-136.5 549.94,-136.5 "/>
<text text-anchor="start" x="446.94" y="-121.3" font-family="Sans" font-size="14.00">三男</text>
<text text-anchor="start" x="446.94" y="-106.3" font-family="Sans" font-size="14.00">住所: 東京都</text>
</g>
<!-- Isono_Wakame&#45;&#45;Namino_Norisuke -->
<!-- f5_p -->
<g id="node28" class="node"><title>f5_p</title>
<ellipse fill="black" stroke="black" cx="494.44" cy="-80" rx="0.36" ry="0.36"/>
</g>
<!-- Namino_Norisuke&#45;&#45;f5_p -->
<g id="edge32" class="edge"><title>Namino_Norisuke&#45;&#45;f5_p</title>
<path fill="none" stroke="black" stroke-width="2" d="M495.16,-98.2458C495.16,-89.0162 495.16,-81.0558 495.16,-80.0968"/>
</g>
<!-- Namino_Taiko -->
<g id="node13" class="node"><title>Namino_Taiko</title>
<polygon fill="none" stroke="black" points="441.44,-0.5 441.44,-61.5 547.44,-61.5 547.44,-0.5 441.44,-0.5"/>
<text text-anchor="middle" x="494.44" y="-46.3" font-family="Sans" font-size="14.00">波野 タイ子</text>
<polyline fill="none" stroke="black" points="441.44,-38.5 547.44,-38.5 "/>
<text text-anchor="start" x="449.44" y="-23.3" font-family="Sans" font-size="14.00">ノリスケの妻</text>
<text text-anchor="start" x="449.44" y="-8.3" font-family="Sans" font-size="14.00">住所: 東京都</text>
</g>
<!-- Fuguta_Tarao -->
<g id="node14" class="node"><title>Fuguta_Tarao</title>
<polygon fill="none" stroke="black" points="635.16,-429 635.16,-505 753.16,-505 753.16,-429 635.16,-429"/>
<text text-anchor="middle" x="694.16" y="-489.8" font-family="Sans" font-size="14.00">フグ田 タラオ</text>
<polyline fill="none" stroke="black" points="635.16,-482 753.16,-482 "/>
<text text-anchor="start" x="643.16" y="-466.8" font-family="Sans" font-size="14.00">長男</text>
<text text-anchor="start" x="643.16" y="-451.8" font-family="Sans" font-size="14.00">住所: 東京都</text>
<text text-anchor="start" x="643.16" y="-436.8" font-family="Sans" font-size="14.00">出生: 1947.10.</text>
</g>
<!-- Namino_Ikura -->
<g id="node15" class="node"><title>Namino_Ikura</title>
<polygon fill="none" stroke="black" points="644.16,-49.5 644.16,-110.5 744.16,-110.5 744.16,-49.5 644.16,-49.5"/>
<text text-anchor="middle" x="694.16" y="-95.3" font-family="Sans" font-size="14.00">波野 イクラ</text>
<polyline fill="none" stroke="black" points="644.16,-87.5 744.16,-87.5 "/>
<text text-anchor="start" x="652.16" y="-72.3" font-family="Sans" font-size="14.00">長男</text>
<text text-anchor="start" x="652.16" y="-57.3" font-family="Sans" font-size="14.00">住所: 東京都</text>
</g>
<!-- f0_c0 -->
<g id="node16" class="node"><title>f0_c0</title>
<ellipse fill="black" stroke="black" cx="181.36" cy="-429" rx="0.36" ry="0.36"/>
</g>
<!-- f0_c0&#45;&#45;Isono_Umihei -->
<g id="edge11" class="edge"><title>f0_c0&#45;&#45;Isono_Umihei</title>
<path fill="none" stroke="black" d="M181.659,-429.25C183.967,-429.25 199.321,-429.25 217.558,-429.25"/>
</g>
<!-- f0_c0&#45;&#45;f0_c1 -->
<g id="edge8" class="edge"><title>f0_c0&#45;&#45;f0_c1</title>
<path fill="none" stroke="black" d="M182.16,-428.836C182.16,-425.598 182.16,-375.294 182.16,-372.154"/>
</g>
<!-- f0_c1&#45;&#45;Isono_Namihei -->
<g id="edge12" class="edge"><title>f0_c1&#45;&#45;Isono_Namihei</title>
<path fill="none" stroke="black" d="M182.026,-372C185.29,-372 200.138,-372 217.622,-372"/>
</g>
<!-- f0_c2 -->
<g id="node18" class="node"><title>f0_c2</title>
<ellipse fill="black" stroke="black" cx="181.36" cy="-262" rx="0.36" ry="0.36"/>
</g>
<!-- f0_c1&#45;&#45;f0_c2 -->
<g id="edge9" class="edge"><title>f0_c1&#45;&#45;f0_c2</title>
<path fill="none" stroke="black" d="M182.16,-371.92C182.16,-368.641 182.16,-265.306 182.16,-262.077"/>
</g>
<!-- f0_c2&#45;&#45;Namino_Nagie -->
<g id="edge13" class="edge"><title>f0_c2&#45;&#45;Namino_Nagie</title>
<path fill="none" stroke="black" d="M182.16,-261.933C182.16,-259.147 182.16,-170 182.16,-170 182.16,-170 209.071,-170 235.457,-170"/>
</g>
<!-- f1_c&#45;&#45;Fuguta_Masuo -->
<g id="edge15" class="edge"><title>f1_c&#45;&#45;Fuguta_Masuo</title>
<path fill="none" stroke="black" d="M390.746,-535C394.774,-535 416.442,-535 438.937,-535"/>
</g>
<!-- f2_p&#45;&#45;Isono_Fune -->
<g id="edge17" class="edge"><title>f2_p&#45;&#45;Isono_Fune</title>
<path fill="none" stroke="black" stroke-width="2" d="M286.16,-314.836C286.16,-313.609 286.16,-305.62 286.16,-296"/>
</g>
<!-- f2_c1 -->
<g id="node22" class="node"><title>f2_c1</title>
<ellipse fill="black" stroke="black" cx="390.08" cy="-315" rx="0.36" ry="0.36"/>
</g>
<!-- f2_p&#45;&#45;f2_c1 -->
<g id="edge20" class="edge"><title>f2_p&#45;&#45;f2_c1</title>
<path fill="none" stroke="black" d="M286.386,-315C294.858,-315 381.381,-315 389.474,-315"/>
</g>
<!-- f2_c0 -->
<g id="node21" class="node"><title>f2_c0</title>
<ellipse fill="black" stroke="black" cx="390.08" cy="-372" rx="0.36" ry="0.36"/>
</g>
<!-- f2_c0&#45;&#45;Fuguta_Sazae -->
<g id="edge21" class="edge"><title>f2_c0&#45;&#45;Fuguta_Sazae</title>
<path fill="none" stroke="black" d="M390.379,-372.25C392.687,-372.25 408.041,-372.25 426.278,-372.25"/>
</g>
<!-- f2_c0&#45;&#45;f2_c1 -->
<g id="edge18" class="edge"><title>f2_c0&#45;&#45;f2_c1</title>
<path fill="none" stroke="black" d="M390.16,-371.36C390.16,-365.489 390.16,-321.091 390.16,-315.564"/>
</g>
<!-- f2_c1&#45;&#45;Isono_Katsuo -->
<g id="edge22" class="edge"><title>f2_c1&#45;&#45;Isono_Katsuo</title>
<path fill="none" stroke="black" d="M390.746,-315C395.086,-315 419.91,-315 444.18,-315"/>
</g>
<!-- f2_c2 -->
<g id="node23" class="node"><title>f2_c2</title>
<ellipse fill="black" stroke="black" cx="390.08" cy="-258" rx="0.36" ry="0.36"/>
</g>
<!-- f2_c1&#45;&#45;f2_c2 -->
<g id="edge19" class="edge"><title>f2_c1&#45;&#45;f2_c2</title>
<path fill="none" stroke="black" d="M390.16,-314.36C390.16,-308.489 390.16,-264.091 390.16,-258.564"/>
</g>
<!-- f2_c2&#45;&#45;Isono_Wakame -->
<g id="edge23" class="edge"><title>f2_c2&#45;&#45;Isono_Wakame</title>
<path fill="none" stroke="black" d="M390.379,-257.75C393.428,-257.75 419.252,-257.75 444.409,-257.75"/>
</g>
<!-- f3_p&#45;&#45;Namino_NagieOtto -->
<g id="edge25" class="edge"><title>f3_p&#45;&#45;Namino_NagieOtto</title>
<path fill="none" stroke="black" stroke-width="2" d="M286.16,-120.88C286.16,-119.782 286.16,-111.358 286.16,-102.349"/>
</g>
<!-- f3_c -->
<g id="node25" class="node"><title>f3_c</title>
<ellipse fill="black" stroke="black" cx="390.08" cy="-124" rx="0.36" ry="0.36"/>
</g>
<!-- f3_p&#45;&#45;f3_c -->
<g id="edge26" class="edge"><title>f3_p&#45;&#45;f3_c</title>
<path fill="none" stroke="black" d="M286.387,-121C295.282,-121 390.16,-121 390.16,-121 390.16,-121 390.16,-122.688 390.16,-123.531"/>
</g>
<!-- f3_c&#45;&#45;Namino_Norisuke -->
<g id="edge27" class="edge"><title>f3_c&#45;&#45;Namino_Norisuke</title>
<path fill="none" stroke="black" d="M390.746,-124C394.774,-124 416.442,-124 438.937,-124"/>
</g>
<!-- f4_p&#45;&#45;Fuguta_Sazae -->
<g id="edge29" class="edge"><title>f4_p&#45;&#45;Fuguta_Sazae</title>
<path fill="none" stroke="black" stroke-width="2" d="M495.16,-466.836C495.16,-465.609 495.16,-457.62 495.16,-448"/>
</g>
<!-- f4_c -->
<g id="node27" class="node"><title>f4_c</title>
<ellipse fill="black" stroke="black" cx="598.8" cy="-467" rx="0.36" ry="0.36"/>
</g>
<!-- f4_p&#45;&#45;f4_c -->
<g id="edge30" class="edge"><title>f4_p&#45;&#45;f4_c</title>
<path fill="none" stroke="black" d="M495.106,-467C503.578,-467 590.101,-467 598.194,-467"/>
</g>
<!-- f4_c&#45;&#45;Fuguta_Tarao -->
<g id="edge31" class="edge"><title>f4_c&#45;&#45;Fuguta_Tarao</title>
<path fill="none" stroke="black" d="M599.409,-467C602.581,-467 617.733,-467 635.022,-467"/>
</g>
<!-- f5_p&#45;&#45;Namino_Taiko -->
<g id="edge33" class="edge"><title>f5_p&#45;&#45;Namino_Taiko</title>
<path fill="none" stroke="black" stroke-width="2" d="M495.16,-79.8594C495.16,-78.7143 495.16,-70.7251 495.16,-61.5276"/>
</g>
<!-- f5_c -->
<g id="node29" class="node"><title>f5_c</title>
<ellipse fill="black" stroke="black" cx="598.8" cy="-80" rx="0.36" ry="0.36"/>
</g>
<!-- f5_p&#45;&#45;f5_c -->
<g id="edge34" class="edge"><title>f5_p&#45;&#45;f5_c</title>
<path fill="none" stroke="black" d="M495.106,-80C503.578,-80 590.101,-80 598.194,-80"/>
</g>
<!-- f5_c&#45;&#45;Namino_Ikura -->
<g id="edge35" class="edge"><title>f5_c&#45;&#45;Namino_Ikura</title>
<path fill="none" stroke="black" d="M599.409,-80C603.121,-80 623.231,-80 643.975,-80"/>
</g>
</g>
</svg>
