<?xml version="1.0" encoding="UTF-8" standalone="no"?>
<!DOCTYPE svg PUBLIC "-//W3C//DTD SVG 1.1//EN"
 "http://www.w3.org/Graphics/SVG/1.1/DTD/svg11.dtd">
<!-- Generated by graphviz version 2.26.0 (20091210.2329)
 -->
<!-- Title: 磯野家 家系図 Pages: 1 -->
<svg width="873pt" height="558pt"
 viewBox="0.00 0.00 873.00 558.00" xmlns="http://www.w3.org/2000/svg" xmlns:xlink="http://www.w3.org/1999/xlink">
<g id="graph1" class="graph" transform="scale(1 1) rotate(0) translate(4 554)">
<title>磯野家 家系図</title>
<polygon fill="white" stroke="white" points="-4,5 -4,-554 870,-554 870,5 -4,5"/>
<!-- Isono_Mokuzu -->
<g id="node1" class="node"><title>Isono_Mokuzu</title>
<polygon fill="none" stroke="black" points="192,-491 192,-549 332,-549 332,-491 192,-491"/>
<text text-anchor="middle" x="262" y="-532.4" font-family="Sans" font-size="14.00">磯野 藻屑 源素太皆</text>
<polyline fill="none" stroke="black" points="192,-520 332,-520 "/>
<text text-anchor="start" x="200" y="-503.4" font-family="Sans" font-size="14.00">磯野家のご先祖</text>
</g>
<!-- f0_c -->
<g id="node21" class="node"><title>f0_c</title>
<ellipse fill="black" stroke="black" cx="262" cy="-453" rx="0.36" ry="0.36"/>
</g>
<!-- Isono_Mokuzu&#45;&#45;f0_c -->
<g id="edge18" class="edge"><title>Isono_Mokuzu&#45;&#45;f0_c</title>
<path fill="none" stroke="black" d="M262,-490.808C262,-474.445 262,-456.689 262,-453.503"/>
</g>
<!-- Fuguta_Haha -->
<g id="node2" class="node"><title>Fuguta_Haha</title>
<polygon fill="none" stroke="black" points="4.5,-336 4.5,-394 101.5,-394 101.5,-336 4.5,-336"/>
<text text-anchor="middle" x="53" y="-377.4" font-family="Sans" font-size="14.00">フグ田</text>
<polyline fill="none" stroke="black" points="4.5,-365 101.5,-365 "/>
<text text-anchor="start" x="12.5" y="-348.4" font-family="Sans" font-size="14.00">住所: 大阪府</text>
</g>
<!-- Isono_Umihei -->
<g id="node3" class="node"><title>Isono_Umihei</title>
<polygon fill="none" stroke="black" points="119,-315 119,-415 253,-415 253,-315 119,-315"/>
<text text-anchor="middle" x="186" y="-398.4" font-family="Sans" font-size="14.00">磯野 海平</text>
<polyline fill="none" stroke="black" points="119,-386 253,-386 "/>
<text text-anchor="start" x="127" y="-369.4" font-family="Sans" font-size="14.00">長男</text>
<text text-anchor="start" x="127" y="-348.4" font-family="Sans" font-size="14.00">住所: 福岡県</text>
<text text-anchor="start" x="127" y="-327.4" font-family="Sans" font-size="14.00">出生: 1895.09.14</text>
</g>
<!-- Fuguta_Haha&#45;&#45;Isono_Umihei -->
<!-- Fuguta_Masuo -->
<g id="node8" class="node"><title>Fuguta_Masuo</title>
<polygon fill="none" stroke="black" points="-0.5,-139 -0.5,-239 106.5,-239 106.5,-139 -0.5,-139"/>
<text text-anchor="middle" x="53" y="-222.4" font-family="Sans" font-size="14.00">フグ田 マスオ</text>
<polyline fill="none" stroke="black" points="-0.5,-210 106.5,-210 "/>
<text text-anchor="start" x="7.5" y="-193.4" font-family="Sans" font-size="14.00">次男</text>
<text text-anchor="start" x="7.5" y="-172.4" font-family="Sans" font-size="14.00">住所: 東京都</text>
<text text-anchor="start" x="7.5" y="-151.4" font-family="Sans" font-size="14.00">出生: 1917.</text>
</g>
<!-- Fuguta_Haha&#45;&#45;Fuguta_Masuo -->
<g id="edge26" class="edge"><title>Fuguta_Haha&#45;&#45;Fuguta_Masuo</title>
<path fill="none" stroke="black" d="M53,-335.937C53,-309.673 53,-270.447 53,-239.129"/>
</g>
<!-- Isono_Namihei -->
<g id="node4" class="node"><title>Isono_Namihei</title>
<polygon fill="none" stroke="black" points="271,-315 271,-415 405,-415 405,-315 271,-315"/>
<text text-anchor="middle" x="338" y="-398.4" font-family="Sans" font-size="14.00">磯野 波平</text>
<polyline fill="none" stroke="black" points="271,-386 405,-386 "/>
<text text-anchor="start" x="279" y="-369.4" font-family="Sans" font-size="14.00">次男</text>
<text text-anchor="start" x="279" y="-348.4" font-family="Sans" font-size="14.00">住所: 東京都</text>
<text text-anchor="start" x="279" y="-327.4" font-family="Sans" font-size="14.00">出生: 1895.09.14</text>
</g>
<!-- Isono_Umihei&#45;&#45;Isono_Namihei -->
<!-- Namino_Nagie -->
<g id="node6" class="node"><title>Namino_Nagie</title>
<polygon fill="none" stroke="black" points="554.5,-325.5 554.5,-404.5 651.5,-404.5 651.5,-325.5 554.5,-325.5"/>
<text text-anchor="middle" x="603" y="-387.9" font-family="Sans" font-size="14.00">波野 なぎえ</text>
<polyline fill="none" stroke="black" points="554.5,-375.5 651.5,-375.5 "/>
<text text-anchor="start" x="562.5" y="-358.9" font-family="Sans" font-size="14.00">長女</text>
<text text-anchor="start" x="562.5" y="-337.9" font-family="Sans" font-size="14.00">住所: 福岡県</text>
</g>
<!-- Isono_Namihei&#45;&#45;Namino_Nagie -->
<!-- f2_p -->
<g id="node31" class="node"><title>f2_p</title>
<ellipse fill="black" stroke="black" cx="423" cy="-365" rx="0.36" ry="0.36"/>
</g>
<!-- Isono_Namihei&#45;&#45;f2_p -->
<g id="edge29" class="edge"><title>Isono_Namihei&#45;&#45;f2_p</title>
<path fill="none" stroke="black" stroke-width="2" d="M405.07,-365C410.86,-365 416.65,-365 422.44,-365"/>
</g>
<!-- Isono_Fune -->
<g id="node5" class="node"><title>Isono_Fune</title>
<polygon fill="none" stroke="black" points="440.5,-315 440.5,-415 537.5,-415 537.5,-315 440.5,-315"/>
<text text-anchor="middle" x="489" y="-398.4" font-family="Sans" font-size="14.00">磯野 フネ</text>
<polyline fill="none" stroke="black" points="440.5,-386 537.5,-386 "/>
<text text-anchor="start" x="448.5" y="-369.4" font-family="Sans" font-size="14.00">波平の妻</text>
<text text-anchor="start" x="448.5" y="-348.4" font-family="Sans" font-size="14.00">住所: 東京都</text>
<text text-anchor="start" x="448.5" y="-327.4" font-family="Sans" font-size="14.00">出生: 1901.</text>
</g>
<!-- f3_p -->
<g id="node44" class="node"><title>f3_p</title>
<ellipse fill="black" stroke="black" cx="674" cy="-365" rx="0.36" ry="0.36"/>
</g>
<!-- Namino_Nagie&#45;&#45;f3_p -->
<g id="edge46" class="edge"><title>Namino_Nagie&#45;&#45;f3_p</title>
<path fill="none" stroke="black" stroke-width="2" d="M651.535,-365C658.789,-365 666.044,-365 673.298,-365"/>
</g>
<!-- Namino_NagieOtto -->
<g id="node7" class="node"><title>Namino_NagieOtto</title>
<polygon fill="none" stroke="black" points="692,-336 692,-394 780,-394 780,-336 692,-336"/>
<text text-anchor="middle" x="736" y="-377.4" font-family="Sans" font-size="14.00">波野</text>
<polyline fill="none" stroke="black" points="692,-365 780,-365 "/>
<text text-anchor="start" x="700" y="-348.4" font-family="Sans" font-size="14.00">なぎえの夫</text>
</g>
<!-- Fuguta_Sazae -->
<g id="node9" class="node"><title>Fuguta_Sazae</title>
<polygon fill="none" stroke="black" points="141.5,-139 141.5,-239 278.5,-239 278.5,-139 141.5,-139"/>
<text text-anchor="middle" x="210" y="-222.4" font-family="Sans" font-size="14.00">フグ田 サザエ</text>
<polyline fill="none" stroke="black" points="141.5,-210 278.5,-210 "/>
<text text-anchor="start" x="149.5" y="-193.4" font-family="Sans" font-size="14.00">長女</text>
<text text-anchor="start" x="149.5" y="-172.4" font-family="Sans" font-size="14.00">住所: 東京都</text>
<text text-anchor="start" x="149.5" y="-151.4" font-family="Sans" font-size="14.00">出生: 1922.11.22</text>
</g>
<!-- Fuguta_Masuo&#45;&#45;Fuguta_Sazae -->
<!-- f4_p -->
<g id="node48" class="node"><title>f4_p</title>
<ellipse fill="black" stroke="black" cx="124" cy="-189" rx="0.36" ry="0.36"/>
</g>
<!-- Fuguta_Masuo&#45;&#45;f4_p -->
<g id="edge52" class="edge"><title>Fuguta_Masuo&#45;&#45;f4_p</title>
<path fill="none" stroke="black" stroke-width="2" d="M106.527,-189C112.17,-189 117.812,-189 123.454,-189"/>
</g>
<!-- Isono_Katsuo -->
<g id="node10" class="node"><title>Isono_Katsuo</title>
<polygon fill="none" stroke="black" points="392.5,-139 392.5,-239 489.5,-239 489.5,-139 392.5,-139"/>
<text text-anchor="middle" x="441" y="-222.4" font-family="Sans" font-size="14.00">磯野 カツオ</text>
<polyline fill="none" stroke="black" points="392.5,-210 489.5,-210 "/>
<text text-anchor="start" x="400.5" y="-193.4" font-family="Sans" font-size="14.00">長男</text>
<text text-anchor="start" x="400.5" y="-172.4" font-family="Sans" font-size="14.00">住所: 東京都</text>
<text text-anchor="start" x="400.5" y="-151.4" font-family="Sans" font-size="14.00">出生: 1938.</text>
</g>
<!-- Fuguta_Sazae&#45;&#45;Isono_Katsuo -->
<!-- Isono_Wakame -->
<g id="node11" class="node"><title>Isono_Wakame</title>
<polygon fill="none" stroke="black" points="506.5,-139 506.5,-239 603.5,-239 603.5,-139 506.5,-139"/>
<text text-anchor="middle" x="555" y="-222.4" font-family="Sans" font-size="14.00">磯野 ワカメ</text>
<polyline fill="none" stroke="black" points="506.5,-210 603.5,-210 "/>
<text text-anchor="start" x="514.5" y="-193.4" font-family="Sans" font-size="14.00">次女</text>
<text text-anchor="start" x="514.5" y="-172.4" font-family="Sans" font-size="14.00">住所: 東京都</text>
<text text-anchor="start" x="514.5" y="-151.4" font-family="Sans" font-size="14.00">出生: 1942.</text>
</g>
<!-- Isono_Katsuo&#45;&#45;Isono_Wakame -->
<!-- Namino_Norisuke -->
<g id="node12" class="node"><title>Namino_Norisuke</title>
<polygon fill="none" stroke="black" points="620.5,-149.5 620.5,-228.5 727.5,-228.5 727.5,-149.5 620.5,-149.5"/>
<text text-anchor="middle" x="674" y="-211.9" font-family="Sans" font-size="14.00">波野 ノリスケ</text>
<polyline fill="none" stroke="black" points="620.5,-199.5 727.5,-199.5 "/>
<text text-anchor="start" x="628.5" y="-182.9" font-family="Sans" font-size="14.00">三男</text>
<text text-anchor="start" x="628.5" y="-161.9" font-family="Sans" font-size="14.00">住所: 東京都</text>
</g>
<!-- Isono_Wakame&#45;&#45;Namino_Norisuke -->
<!-- f5_p -->
<g id="node52" class="node"><title>f5_p</title>
<ellipse fill="black" stroke="black" cx="745" cy="-189" rx="0.36" ry="0.36"/>
</g>
<!-- Namino_Norisuke&#45;&#45;f5_p -->
<g id="edge58" class="edge"><title>Namino_Norisuke&#45;&#45;f5_p</title>
<path fill="none" stroke="black" stroke-width="2" d="M727.527,-189C733.17,-189 738.812,-189 744.454,-189"/>
</g>
<!-- Namino_Taiko -->
<g id="node13" class="node"><title>Namino_Taiko</title>
<polygon fill="none" stroke="black" points="763,-149.5 763,-228.5 865,-228.5 865,-149.5 763,-149.5"/>
<text text-anchor="middle" x="814" y="-211.9" font-family="Sans" font-size="14.00">波野 タイ子</text>
<polyline fill="none" stroke="black" points="763,-199.5 865,-199.5 "/>
<text text-anchor="start" x="771" y="-182.9" font-family="Sans" font-size="14.00">ノリスケの妻</text>
<text text-anchor="start" x="771" y="-161.9" font-family="Sans" font-size="14.00">住所: 東京都</text>
</g>
<!-- Fuguta_Tarao -->
<g id="node14" class="node"><title>Fuguta_Tarao</title>
<polygon fill="none" stroke="black" points="65,-1 65,-101 183,-101 183,-1 65,-1"/>
<text text-anchor="middle" x="124" y="-84.4" font-family="Sans" font-size="14.00">フグ田 タラオ</text>
<polyline fill="none" stroke="black" points="65,-72 183,-72 "/>
<text text-anchor="start" x="73" y="-55.4" font-family="Sans" font-size="14.00">長男</text>
<text text-anchor="start" x="73" y="-34.4" font-family="Sans" font-size="14.00">住所: 東京都</text>
<text text-anchor="start" x="73" y="-13.4" font-family="Sans" font-size="14.00">出生: 1947.10.</text>
</g>
<!-- Namino_Ikura -->
<g id="node15" class="node"><title>Namino_Ikura</title>
<polygon fill="none" stroke="black" points="696.5,-11.5 696.5,-90.5 793.5,-90.5 793.5,-11.5 696.5,-11.5"/>
<text text-anchor="middle" x="745" y="-73.9" font-family="Sans" font-size="14.00">波野 イクラ</text>
<polyline fill="none" stroke="black" points="696.5,-61.5 793.5,-61.5 "/>
<text text-anchor="start" x="704.5" y="-44.9" font-family="Sans" font-size="14.00">長男</text>
<text text-anchor="start" x="704.5" y="-23.9" font-family="Sans" font-size="14.00">住所: 東京都</text>
</g>
<!-- f0_c0 -->
<g id="node20" class="node"><title>f0_c0</title>
<ellipse fill="black" stroke="black" cx="186" cy="-453" rx="0.36" ry="0.36"/>
</g>
<!-- f0_c0&#45;&#45;Isono_Umihei -->
<g id="edge20" class="edge"><title>f0_c0&#45;&#45;Isono_Umihei</title>
<path fill="none" stroke="black" d="M186,-452.438C186,-449.247 186,-432.922 186,-415.225"/>
</g>
<!-- f0_c0&#45;&#45;f0_c -->
<g id="edge14" class="edge"><title>f0_c0&#45;&#45;f0_c</title>
<path fill="none" stroke="black" d="M186.594,-453C211.533,-453 236.472,-453 261.411,-453"/>
</g>
<!-- f0_c1 -->
<g id="node22" class="node"><title>f0_c1</title>
<ellipse fill="black" stroke="black" cx="338" cy="-453" rx="0.36" ry="0.36"/>
</g>
<!-- f0_c&#45;&#45;f0_c1 -->
<g id="edge15" class="edge"><title>f0_c&#45;&#45;f0_c1</title>
<path fill="none" stroke="black" d="M262.594,-453C287.533,-453 312.472,-453 337.411,-453"/>
</g>
<!-- f0_c1&#45;&#45;Isono_Namihei -->
<g id="edge22" class="edge"><title>f0_c1&#45;&#45;Isono_Namihei</title>
<path fill="none" stroke="black" d="M338,-452.438C338,-449.247 338,-432.922 338,-415.225"/>
</g>
<!-- f0_c2 -->
<g id="node23" class="node"><title>f0_c2</title>
<ellipse fill="black" stroke="black" cx="603" cy="-453" rx="0.36" ry="0.36"/>
</g>
<!-- f0_c1&#45;&#45;f0_c2 -->
<g id="edge16" class="edge"><title>f0_c1&#45;&#45;f0_c2</title>
<path fill="none" stroke="black" d="M338.518,-453C426.506,-453 514.495,-453 602.483,-453"/>
</g>
<!-- f0_c2&#45;&#45;Namino_Nagie -->
<g id="edge24" class="edge"><title>f0_c2&#45;&#45;Namino_Nagie</title>
<path fill="none" stroke="black" d="M603,-452.438C603,-448.632 603,-426.144 603,-404.929"/>
</g>
<!-- f2_p&#45;&#45;Isono_Fune -->
<g id="edge30" class="edge"><title>f2_p&#45;&#45;Isono_Fune</title>
<path fill="none" stroke="black" stroke-width="2" d="M423.516,-365C429.143,-365 434.771,-365 440.398,-365"/>
</g>
<!-- f2_c -->
<g id="node33" class="node"><title>f2_c</title>
<ellipse fill="black" stroke="black" cx="423" cy="-277" rx="0.36" ry="0.36"/>
</g>
<!-- f2_p&#45;&#45;f2_c -->
<g id="edge37" class="edge"><title>f2_p&#45;&#45;f2_c</title>
<path fill="none" stroke="black" d="M423,-364.438C423,-357.295 423,-284.336 423,-277.511"/>
</g>
<!-- f2_c0 -->
<g id="node32" class="node"><title>f2_c0</title>
<ellipse fill="black" stroke="black" cx="210" cy="-277" rx="0.36" ry="0.36"/>
</g>
<!-- f2_c0&#45;&#45;Fuguta_Sazae -->
<g id="edge39" class="edge"><title>f2_c0&#45;&#45;Fuguta_Sazae</title>
<path fill="none" stroke="black" d="M210,-276.438C210,-273.247 210,-256.922 210,-239.225"/>
</g>
<!-- f2_c0&#45;&#45;f2_c -->
<g id="edge33" class="edge"><title>f2_c0&#45;&#45;f2_c</title>
<path fill="none" stroke="black" d="M210.416,-277C281.139,-277 351.862,-277 422.585,-277"/>
</g>
<!-- f2_c1 -->
<g id="node34" class="node"><title>f2_c1</title>
<ellipse fill="black" stroke="black" cx="441" cy="-277" rx="0.36" ry="0.36"/>
</g>
<!-- f2_c&#45;&#45;f2_c1 -->
<g id="edge34" class="edge"><title>f2_c&#45;&#45;f2_c1</title>
<path fill="none" stroke="black" d="M423.562,-277C429.193,-277 434.824,-277 440.455,-277"/>
</g>
<!-- f2_c1&#45;&#45;Isono_Katsuo -->
<g id="edge41" class="edge"><title>f2_c1&#45;&#45;Isono_Katsuo</title>
<path fill="none" stroke="black" d="M441,-276.438C441,-273.247 441,-256.922 441,-239.225"/>
</g>
<!-- f2_c2 -->
<g id="node35" class="node"><title>f2_c2</title>
<ellipse fill="black" stroke="black" cx="555" cy="-277" rx="0.36" ry="0.36"/>
</g>
<!-- f2_c1&#45;&#45;f2_c2 -->
<g id="edge35" class="edge"><title>f2_c1&#45;&#45;f2_c2</title>
<path fill="none" stroke="black" d="M441.445,-277C479.149,-277 516.853,-277 554.556,-277"/>
</g>
<!-- f2_c2&#45;&#45;Isono_Wakame -->
<g id="edge43" class="edge"><title>f2_c2&#45;&#45;Isono_Wakame</title>
<path fill="none" stroke="black" d="M555,-276.438C555,-273.247 555,-256.922 555,-239.225"/>
</g>
<!-- f3_p&#45;&#45;Namino_NagieOtto -->
<g id="edge47" class="edge"><title>f3_p&#45;&#45;Namino_NagieOtto</title>
<path fill="none" stroke="black" stroke-width="2" d="M674.484,-365C680.251,-365 686.019,-365 691.786,-365"/>
</g>
<!-- f3_p&#45;&#45;Namino_Norisuke -->
<g id="edge49" class="edge"><title>f3_p&#45;&#45;Namino_Norisuke</title>
<path fill="none" stroke="black" d="M674,-364.495C674,-357.458 674,-278.474 674,-228.896"/>
</g>
<!-- f4_p&#45;&#45;Fuguta_Sazae -->
<g id="edge53" class="edge"><title>f4_p&#45;&#45;Fuguta_Sazae</title>
<path fill="none" stroke="black" stroke-width="2" d="M124.672,-189C130.227,-189 135.782,-189 141.338,-189"/>
</g>
<!-- f4_p&#45;&#45;Fuguta_Tarao -->
<g id="edge55" class="edge"><title>f4_p&#45;&#45;Fuguta_Tarao</title>
<path fill="none" stroke="black" d="M124,-188.604C124,-183.925 124,-138.665 124,-101.309"/>
</g>
<!-- f5_p&#45;&#45;Namino_Taiko -->
<g id="edge59" class="edge"><title>f5_p&#45;&#45;Namino_Taiko</title>
<path fill="none" stroke="black" stroke-width="2" d="M745.539,-189C751.333,-189 757.128,-189 762.922,-189"/>
</g>
<!-- f5_p&#45;&#45;Namino_Ikura -->
<g id="edge61" class="edge"><title>f5_p&#45;&#45;Namino_Ikura</title>
<path fill="none" stroke="black" d="M745,-188.604C745,-183.466 745,-129.406 745,-90.603"/>
</g>
</g>
</svg>
