<?xml version="1.0" encoding="UTF-8" standalone="no"?>
<!DOCTYPE svg PUBLIC "-//W3C//DTD SVG 1.1//EN"
 "http://www.w3.org/Graphics/SVG/1.1/DTD/svg11.dtd">
<!-- Generated by graphviz version 2.38.0 (20140413.2041)
 -->
<!-- Title: 磯野家 家系図 Pages: 1 -->
<svg width="859pt" height="504pt"
 viewBox="0.00 0.00 858.50 504.16" xmlns="http://www.w3.org/2000/svg" xmlns:xlink="http://www.w3.org/1999/xlink">
<g id="graph0" class="graph" transform="scale(1 1) rotate(0) translate(4 500.16)">
<title>磯野家 家系図</title>
<polygon fill="white" stroke="none" points="-4,4 -4,-500.16 854.5,-500.16 854.5,4 -4,4"/>
<!-- Isono_Mokuzu -->
<g id="node1" class="node"><title>Isono_Mokuzu</title>
<polygon fill="khaki" stroke="blue" points="266,-449.66 266,-495.66 405,-495.66 405,-449.66 266,-449.66"/>
<text text-anchor="middle" x="335.5" y="-480.46" font-family="Sans" font-size="14.00">磯野 藻屑 源素太皆</text>
<polyline fill="none" stroke="blue" points="266,-472.66 405,-472.66 "/>
<text text-anchor="start" x="274" y="-457.46" font-family="Sans" font-size="14.00">磯野家のご先祖</text>
</g>
<!-- f0_c1 -->
<g id="node17" class="node"><title>f0_c1</title>
<ellipse fill="black" stroke="black" cx="335.5" cy="-412.8" rx="0.36" ry="0.36"/>
</g>
<!-- Isono_Mokuzu&#45;&#45;f0_c1 -->
<g id="edge10" class="edge"><title>Isono_Mokuzu&#45;&#45;f0_c1</title>
<path fill="none" stroke="black" d="M335.5,-449.345C335.5,-434.113 335.5,-416.475 335.5,-413.302"/>
</g>
<!-- Fuguta_Haha -->
<g id="node2" class="node"><title>Fuguta_Haha</title>
<polygon fill="pink" stroke="black" points="0,-314.94 0,-360.94 97,-360.94 97,-314.94 0,-314.94"/>
<text text-anchor="middle" x="48.5" y="-345.74" font-family="Sans" font-size="14.00">フグ田</text>
<polyline fill="none" stroke="black" points="0,-337.94 97,-337.94 "/>
<text text-anchor="start" x="8" y="-322.74" font-family="Sans" font-size="14.00">住所: 大阪府</text>
</g>
<!-- Isono_Umihei -->
<g id="node3" class="node"><title>Isono_Umihei</title>
<polygon fill="lightblue" stroke="blue" points="115,-299.94 115,-375.94 250,-375.94 250,-299.94 115,-299.94"/>
<text text-anchor="middle" x="182.5" y="-360.74" font-family="Sans" font-size="14.00">磯野 海平</text>
<polyline fill="none" stroke="blue" points="115,-352.94 250,-352.94 "/>
<text text-anchor="start" x="123" y="-337.74" font-family="Sans" font-size="14.00">長男</text>
<text text-anchor="start" x="123" y="-322.74" font-family="Sans" font-size="14.00">住所: 福岡県</text>
<text text-anchor="start" x="123" y="-307.74" font-family="Sans" font-size="14.00">出生: 1895.09.14</text>
</g>
<!-- Fuguta_Haha&#45;&#45;Isono_Umihei -->
<!-- f1_c -->
<g id="node19" class="node"><title>f1_c</title>
<ellipse fill="black" stroke="black" cx="89.5" cy="-263.08" rx="0.36" ry="0.36"/>
</g>
<!-- Fuguta_Haha&#45;&#45;f1_c -->
<g id="edge14" class="edge"><title>Fuguta_Haha&#45;&#45;f1_c</title>
<path fill="none" stroke="black" d="M89.5,-314.664C89.5,-294.749 89.5,-268.565 89.5,-263.83"/>
</g>
<!-- Isono_Namihei -->
<g id="node4" class="node"><title>Isono_Namihei</title>
<polygon fill="lightblue" stroke="blue" points="268,-299.94 268,-375.94 403,-375.94 403,-299.94 268,-299.94"/>
<text text-anchor="middle" x="335.5" y="-360.74" font-family="Sans" font-size="14.00">磯野 波平</text>
<polyline fill="none" stroke="blue" points="268,-352.94 403,-352.94 "/>
<text text-anchor="start" x="276" y="-337.74" font-family="Sans" font-size="14.00">次男</text>
<text text-anchor="start" x="276" y="-322.74" font-family="Sans" font-size="14.00">住所: 東京都</text>
<text text-anchor="start" x="276" y="-307.74" font-family="Sans" font-size="14.00">出生: 1895.09.14</text>
</g>
<!-- Isono_Umihei&#45;&#45;Isono_Namihei -->
<!-- Namino_Nagie -->
<g id="node6" class="node"><title>Namino_Nagie</title>
<polygon fill="pink" stroke="red" points="555,-307.44 555,-368.44 652,-368.44 652,-307.44 555,-307.44"/>
<text text-anchor="middle" x="603.5" y="-353.24" font-family="Sans" font-size="14.00">波野 なぎえ</text>
<polyline fill="none" stroke="red" points="555,-345.44 652,-345.44 "/>
<text text-anchor="start" x="563" y="-330.24" font-family="Sans" font-size="14.00">長女</text>
<text text-anchor="start" x="563" y="-315.24" font-family="Sans" font-size="14.00">住所: 福岡県</text>
</g>
<!-- Isono_Namihei&#45;&#45;Namino_Nagie -->
<!-- f2_p -->
<g id="node20" class="node"><title>f2_p</title>
<ellipse fill="black" stroke="black" cx="421.5" cy="-337.94" rx="0.36" ry="0.36"/>
</g>
<!-- Isono_Namihei&#45;&#45;f2_p -->
<g id="edge16" class="edge"><title>Isono_Namihei&#45;&#45;f2_p</title>
<path fill="none" stroke="black" stroke-width="2" d="M403.262,-337C413.254,-337 420.541,-337 421.412,-337"/>
</g>
<!-- Isono_Fune -->
<g id="node5" class="node"><title>Isono_Fune</title>
<polygon fill="pink" stroke="red" points="440,-299.94 440,-375.94 537,-375.94 537,-299.94 440,-299.94"/>
<text text-anchor="middle" x="488.5" y="-360.74" font-family="Sans" font-size="14.00">磯野 フネ</text>
<polyline fill="none" stroke="red" points="440,-352.94 537,-352.94 "/>
<text text-anchor="start" x="448" y="-337.74" font-family="Sans" font-size="14.00">波平の妻</text>
<text text-anchor="start" x="448" y="-322.74" font-family="Sans" font-size="14.00">住所: 東京都</text>
<text text-anchor="start" x="448" y="-307.74" font-family="Sans" font-size="14.00">出生: 1901.</text>
</g>
<!-- f3_p -->
<g id="node24" class="node"><title>f3_p</title>
<ellipse fill="black" stroke="black" cx="670.5" cy="-337.94" rx="0.36" ry="0.36"/>
</g>
<!-- Namino_Nagie&#45;&#45;f3_p -->
<g id="edge24" class="edge"><title>Namino_Nagie&#45;&#45;f3_p</title>
<path fill="none" stroke="black" stroke-width="2" d="M652.192,-337C661.934,-337 669.501,-337 670.409,-337"/>
</g>
<!-- Namino_NagieOtto -->
<g id="node7" class="node"><title>Namino_NagieOtto</title>
<polygon fill="none" stroke="black" points="688.5,-314.94 688.5,-360.94 776.5,-360.94 776.5,-314.94 688.5,-314.94"/>
<text text-anchor="middle" x="732.5" y="-345.74" font-family="Sans" font-size="14.00">波野</text>
<polyline fill="none" stroke="black" points="688.5,-337.94 776.5,-337.94 "/>
<text text-anchor="start" x="696.5" y="-322.74" font-family="Sans" font-size="14.00">なぎえの夫</text>
</g>
<!-- Fuguta_Masuo -->
<g id="node8" class="node"><title>Fuguta_Masuo</title>
<polygon fill="lightblue" stroke="blue" points="77.5,-150.22 77.5,-226.22 183.5,-226.22 183.5,-150.22 77.5,-150.22"/>
<text text-anchor="middle" x="130.5" y="-211.02" font-family="Sans" font-size="14.00">フグ田 マスオ</text>
<polyline fill="none" stroke="blue" points="77.5,-203.22 183.5,-203.22 "/>
<text text-anchor="start" x="85.5" y="-188.02" font-family="Sans" font-size="14.00">次男</text>
<text text-anchor="start" x="85.5" y="-173.02" font-family="Sans" font-size="14.00">住所: 東京都</text>
<text text-anchor="start" x="85.5" y="-158.02" font-family="Sans" font-size="14.00">出生: 1917.</text>
</g>
<!-- Fuguta_Sazae -->
<g id="node9" class="node"><title>Fuguta_Sazae</title>
<polygon fill="yellow" stroke="red" points="220,-150.22 220,-226.22 355,-226.22 355,-150.22 220,-150.22"/>
<text text-anchor="middle" x="287.5" y="-211.02" font-family="Sans" font-size="14.00">フグ田 サザエ</text>
<polyline fill="none" stroke="red" points="220,-203.22 355,-203.22 "/>
<text text-anchor="start" x="228" y="-188.02" font-family="Sans" font-size="14.00">長女</text>
<text text-anchor="start" x="228" y="-173.02" font-family="Sans" font-size="14.00">住所: 東京都</text>
<text text-anchor="start" x="228" y="-158.02" font-family="Sans" font-size="14.00">出生: 1922.11.22</text>
</g>
<!-- Fuguta_Masuo&#45;&#45;Fuguta_Sazae -->
<!-- f4_p -->
<g id="node26" class="node"><title>f4_p</title>
<ellipse fill="black" stroke="black" cx="201.5" cy="-188.22" rx="0.36" ry="0.36"/>
</g>
<!-- Fuguta_Masuo&#45;&#45;f4_p -->
<g id="edge28" class="edge"><title>Fuguta_Masuo&#45;&#45;f4_p</title>
<path fill="none" stroke="black" stroke-width="2" d="M183.584,-188C192.572,-188 199.548,-188 201.151,-188"/>
</g>
<!-- Isono_Katsuo -->
<g id="node10" class="node"><title>Isono_Katsuo</title>
<polygon fill="palegreen" stroke="blue" points="373,-150.22 373,-226.22 470,-226.22 470,-150.22 373,-150.22"/>
<text text-anchor="middle" x="421.5" y="-211.02" font-family="Sans" font-size="14.00">磯野 カツオ</text>
<polyline fill="none" stroke="blue" points="373,-203.22 470,-203.22 "/>
<text text-anchor="start" x="381" y="-188.02" font-family="Sans" font-size="14.00">長男</text>
<text text-anchor="start" x="381" y="-173.02" font-family="Sans" font-size="14.00">住所: 東京都</text>
<text text-anchor="start" x="381" y="-158.02" font-family="Sans" font-size="14.00">出生: 1938.</text>
</g>
<!-- Fuguta_Sazae&#45;&#45;Isono_Katsuo -->
<!-- Isono_Wakame -->
<g id="node11" class="node"><title>Isono_Wakame</title>
<polygon fill="palegreen" stroke="red" points="488,-150.22 488,-226.22 585,-226.22 585,-150.22 488,-150.22"/>
<text text-anchor="middle" x="536.5" y="-211.02" font-family="Sans" font-size="14.00">磯野 ワカメ</text>
<polyline fill="none" stroke="red" points="488,-203.22 585,-203.22 "/>
<text text-anchor="start" x="496" y="-188.02" font-family="Sans" font-size="14.00">次女</text>
<text text-anchor="start" x="496" y="-173.02" font-family="Sans" font-size="14.00">住所: 東京都</text>
<text text-anchor="start" x="496" y="-158.02" font-family="Sans" font-size="14.00">出生: 1942.</text>
</g>
<!-- Isono_Katsuo&#45;&#45;Isono_Wakame -->
<!-- Namino_Norisuke -->
<g id="node12" class="node"><title>Namino_Norisuke</title>
<polygon fill="lightblue" stroke="blue" points="606.5,-157.72 606.5,-218.72 712.5,-218.72 712.5,-157.72 606.5,-157.72"/>
<text text-anchor="middle" x="659.5" y="-203.52" font-family="Sans" font-size="14.00">波野 ノリスケ</text>
<polyline fill="none" stroke="blue" points="606.5,-195.72 712.5,-195.72 "/>
<text text-anchor="start" x="614.5" y="-180.52" font-family="Sans" font-size="14.00">三男</text>
<text text-anchor="start" x="614.5" y="-165.52" font-family="Sans" font-size="14.00">住所: 東京都</text>
</g>
<!-- Isono_Wakame&#45;&#45;Namino_Norisuke -->
<!-- f5_p -->
<g id="node28" class="node"><title>f5_p</title>
<ellipse fill="black" stroke="black" cx="730.5" cy="-188.22" rx="0.36" ry="0.36"/>
</g>
<!-- Namino_Norisuke&#45;&#45;f5_p -->
<g id="edge32" class="edge"><title>Namino_Norisuke&#45;&#45;f5_p</title>
<path fill="none" stroke="black" stroke-width="2" d="M712.584,-188C721.572,-188 728.548,-188 730.151,-188"/>
</g>
<!-- Namino_Taiko -->
<g id="node13" class="node"><title>Namino_Taiko</title>
<polygon fill="pink" stroke="red" points="748.5,-157.72 748.5,-218.72 850.5,-218.72 850.5,-157.72 748.5,-157.72"/>
<text text-anchor="middle" x="799.5" y="-203.52" font-family="Sans" font-size="14.00">波野 タイ子</text>
<polyline fill="none" stroke="red" points="748.5,-195.72 850.5,-195.72 "/>
<text text-anchor="start" x="756.5" y="-180.52" font-family="Sans" font-size="14.00">ノリスケの妻</text>
<text text-anchor="start" x="756.5" y="-165.52" font-family="Sans" font-size="14.00">住所: 東京都</text>
</g>
<!-- Fuguta_Tarao -->
<g id="node14" class="node"><title>Fuguta_Tarao</title>
<polygon fill="lightblue" stroke="blue" points="143,-0.5 143,-76.5 260,-76.5 260,-0.5 143,-0.5"/>
<text text-anchor="middle" x="201.5" y="-61.3" font-family="Sans" font-size="14.00">フグ田 タラオ</text>
<polyline fill="none" stroke="blue" points="143,-53.5 260,-53.5 "/>
<text text-anchor="start" x="151" y="-38.3" font-family="Sans" font-size="14.00">長男</text>
<text text-anchor="start" x="151" y="-23.3" font-family="Sans" font-size="14.00">住所: 東京都</text>
<text text-anchor="start" x="151" y="-8.3" font-family="Sans" font-size="14.00">出生: 1947.10.</text>
</g>
<!-- Namino_Ikura -->
<g id="node15" class="node"><title>Namino_Ikura</title>
<polygon fill="lightblue" stroke="blue" points="682,-8 682,-69 779,-69 779,-8 682,-8"/>
<text text-anchor="middle" x="730.5" y="-53.8" font-family="Sans" font-size="14.00">波野 イクラ</text>
<polyline fill="none" stroke="blue" points="682,-46 779,-46 "/>
<text text-anchor="start" x="690" y="-30.8" font-family="Sans" font-size="14.00">長男</text>
<text text-anchor="start" x="690" y="-15.8" font-family="Sans" font-size="14.00">住所: 東京都</text>
</g>
<!-- f0_c0 -->
<g id="node16" class="node"><title>f0_c0</title>
<ellipse fill="black" stroke="black" cx="249.5" cy="-412.8" rx="0.36" ry="0.36"/>
</g>
<!-- f0_c0&#45;&#45;Isono_Umihei -->
<g id="edge11" class="edge"><title>f0_c0&#45;&#45;Isono_Umihei</title>
<path fill="none" stroke="black" d="M249.25,-412.322C249.25,-409.333 249.25,-392.803 249.25,-376.083"/>
</g>
<!-- f0_c0&#45;&#45;f0_c1 -->
<g id="edge8" class="edge"><title>f0_c0&#45;&#45;f0_c1</title>
<path fill="none" stroke="black" d="M249.562,-412C252.126,-412 332.916,-412 335.44,-412"/>
</g>
<!-- f0_c1&#45;&#45;Isono_Namihei -->
<g id="edge12" class="edge"><title>f0_c1&#45;&#45;Isono_Namihei</title>
<path fill="none" stroke="black" d="M335.5,-412.322C335.5,-409.333 335.5,-392.803 335.5,-376.083"/>
</g>
<!-- f0_c2 -->
<g id="node18" class="node"><title>f0_c2</title>
<ellipse fill="black" stroke="black" cx="478.5" cy="-412.8" rx="0.36" ry="0.36"/>
</g>
<!-- f0_c1&#45;&#45;f0_c2 -->
<g id="edge9" class="edge"><title>f0_c1&#45;&#45;f0_c2</title>
<path fill="none" stroke="black" d="M335.604,-412C339.866,-412 474.203,-412 478.4,-412"/>
</g>
<!-- f0_c2&#45;&#45;Namino_Nagie -->
<g id="edge13" class="edge"><title>f0_c2&#45;&#45;Namino_Nagie</title>
<path fill="none" stroke="black" d="M478.591,-412C482.376,-412 603.5,-412 603.5,-412 603.5,-412 603.5,-388.891 603.5,-368.491"/>
</g>
<!-- f1_c&#45;&#45;Fuguta_Masuo -->
<g id="edge15" class="edge"><title>f1_c&#45;&#45;Fuguta_Masuo</title>
<path fill="none" stroke="black" d="M89.5,-262.602C89.5,-259.613 89.5,-243.083 89.5,-226.363"/>
</g>
<!-- f2_p&#45;&#45;Isono_Fune -->
<g id="edge17" class="edge"><title>f2_p&#45;&#45;Isono_Fune</title>
<path fill="none" stroke="black" stroke-width="2" d="M421.549,-337C422.222,-337 429.83,-337 439.692,-337"/>
</g>
<!-- f2_c1 -->
<g id="node22" class="node"><title>f2_c1</title>
<ellipse fill="black" stroke="black" cx="421.5" cy="-263.08" rx="0.36" ry="0.36"/>
</g>
<!-- f2_p&#45;&#45;f2_c1 -->
<g id="edge20" class="edge"><title>f2_p&#45;&#45;f2_c1</title>
<path fill="none" stroke="black" d="M421.5,-337.462C421.5,-331.385 421.5,-269.32 421.5,-263.515"/>
</g>
<!-- f2_c0 -->
<g id="node21" class="node"><title>f2_c0</title>
<ellipse fill="black" stroke="black" cx="344.5" cy="-263.08" rx="0.36" ry="0.36"/>
</g>
<!-- f2_c0&#45;&#45;Fuguta_Sazae -->
<g id="edge21" class="edge"><title>f2_c0&#45;&#45;Fuguta_Sazae</title>
<path fill="none" stroke="black" d="M344.5,-262.602C344.5,-259.613 344.5,-243.083 344.5,-226.363"/>
</g>
<!-- f2_c0&#45;&#45;f2_c1 -->
<g id="edge18" class="edge"><title>f2_c0&#45;&#45;f2_c1</title>
<path fill="none" stroke="black" d="M344.992,-263C351.242,-263 415.081,-263 421.053,-263"/>
</g>
<!-- f2_c1&#45;&#45;Isono_Katsuo -->
<g id="edge22" class="edge"><title>f2_c1&#45;&#45;Isono_Katsuo</title>
<path fill="none" stroke="black" d="M421.5,-262.602C421.5,-259.613 421.5,-243.083 421.5,-226.363"/>
</g>
<!-- f2_c2 -->
<g id="node23" class="node"><title>f2_c2</title>
<ellipse fill="black" stroke="black" cx="488.5" cy="-263.08" rx="0.36" ry="0.36"/>
</g>
<!-- f2_c1&#45;&#45;f2_c2 -->
<g id="edge19" class="edge"><title>f2_c1&#45;&#45;f2_c2</title>
<path fill="none" stroke="black" d="M421.928,-263C427.367,-263 482.915,-263 488.111,-263"/>
</g>
<!-- f2_c2&#45;&#45;Isono_Wakame -->
<g id="edge23" class="edge"><title>f2_c2&#45;&#45;Isono_Wakame</title>
<path fill="none" stroke="black" d="M488.75,-262.602C488.75,-259.613 488.75,-243.083 488.75,-226.363"/>
</g>
<!-- f3_p&#45;&#45;Namino_NagieOtto -->
<g id="edge25" class="edge"><title>f3_p&#45;&#45;Namino_NagieOtto</title>
<path fill="none" stroke="black" stroke-width="2" d="M670.545,-337C671.19,-337 678.713,-337 688.308,-337"/>
</g>
<!-- f3_c -->
<g id="node25" class="node"><title>f3_c</title>
<ellipse fill="black" stroke="black" cx="666.5" cy="-263.08" rx="0.36" ry="0.36"/>
</g>
<!-- f3_p&#45;&#45;f3_c -->
<g id="edge26" class="edge"><title>f3_p&#45;&#45;f3_c</title>
<path fill="none" stroke="black" d="M670.5,-337.461C670.5,-331.079 670.5,-263 670.5,-263 670.5,-263 668.25,-263 667.125,-263"/>
</g>
<!-- f3_c&#45;&#45;Namino_Norisuke -->
<g id="edge27" class="edge"><title>f3_c&#45;&#45;Namino_Norisuke</title>
<path fill="none" stroke="black" d="M666.5,-262.602C666.5,-259.165 666.5,-237.819 666.5,-218.871"/>
</g>
<!-- f4_p&#45;&#45;Fuguta_Sazae -->
<g id="edge29" class="edge"><title>f4_p&#45;&#45;Fuguta_Sazae</title>
<path fill="none" stroke="black" stroke-width="2" d="M202.049,-188C203.966,-188 210.733,-188 219.679,-188"/>
</g>
<!-- f4_c -->
<g id="node27" class="node"><title>f4_c</title>
<ellipse fill="black" stroke="black" cx="201.5" cy="-113.36" rx="0.36" ry="0.36"/>
</g>
<!-- f4_p&#45;&#45;f4_c -->
<g id="edge30" class="edge"><title>f4_p&#45;&#45;f4_c</title>
<path fill="none" stroke="black" d="M201.5,-187.742C201.5,-181.665 201.5,-119.6 201.5,-113.795"/>
</g>
<!-- f4_c&#45;&#45;Fuguta_Tarao -->
<g id="edge31" class="edge"><title>f4_c&#45;&#45;Fuguta_Tarao</title>
<path fill="none" stroke="black" d="M201.5,-112.882C201.5,-109.893 201.5,-93.3629 201.5,-76.6427"/>
</g>
<!-- f5_p&#45;&#45;Namino_Taiko -->
<g id="edge33" class="edge"><title>f5_p&#45;&#45;Namino_Taiko</title>
<path fill="none" stroke="black" stroke-width="2" d="M730.941,-188C732.708,-188 739.615,-188 748.409,-188"/>
</g>
<!-- f5_c -->
<g id="node29" class="node"><title>f5_c</title>
<ellipse fill="black" stroke="black" cx="730.5" cy="-113.36" rx="0.36" ry="0.36"/>
</g>
<!-- f5_p&#45;&#45;f5_c -->
<g id="edge34" class="edge"><title>f5_p&#45;&#45;f5_c</title>
<path fill="none" stroke="black" d="M730.5,-187.742C730.5,-181.665 730.5,-119.6 730.5,-113.795"/>
</g>
<!-- f5_c&#45;&#45;Namino_Ikura -->
<g id="edge35" class="edge"><title>f5_c&#45;&#45;Namino_Ikura</title>
<path fill="none" stroke="black" d="M730.5,-112.882C730.5,-109.445 730.5,-88.0991 730.5,-69.1509"/>
</g>
</g>
</svg>
