<?xml version="1.0" encoding="UTF-8" standalone="no"?>
<!DOCTYPE svg PUBLIC "-//W3C//DTD SVG 1.1//EN"
 "http://www.w3.org/Graphics/SVG/1.1/DTD/svg11.dtd">
<!-- Generated by graphviz version 2.38.0 (20140413.2041)
 -->
<!-- Title: 磯野家 家系図 Pages: 1 -->
<svg width="886pt" height="468pt"
 viewBox="0.00 0.00 886.00 467.72" xmlns="http://www.w3.org/2000/svg" xmlns:xlink="http://www.w3.org/1999/xlink">
<g id="graph0" class="graph" transform="scale(1 1) rotate(0) translate(4 463.72)">
<title>磯野家 家系図</title>
<polygon fill="white" stroke="none" points="-4,4 -4,-463.72 882,-463.72 882,4 -4,4"/>
<!-- Isono_Mokuzu -->
<g id="node1" class="node"><title>Isono_Mokuzu</title>
<polygon fill="none" stroke="black" points="219.5,-413.22 219.5,-459.22 364.5,-459.22 364.5,-413.22 219.5,-413.22"/>
<text text-anchor="middle" x="292" y="-444.02" font-family="Sans" font-size="14.00">磯野 藻屑 源素太皆</text>
<polyline fill="none" stroke="black" points="219.5,-436.22 364.5,-436.22 "/>
<text text-anchor="start" x="227.5" y="-421.02" font-family="Sans" font-size="14.00">磯野家のご先祖</text>
</g>
<!-- f0_c -->
<g id="node17" class="node"><title>f0_c</title>
<ellipse fill="black" stroke="black" cx="292" cy="-376.36" rx="0.36" ry="0.36"/>
</g>
<!-- Isono_Mokuzu&#45;&#45;f0_c -->
<g id="edge11" class="edge"><title>Isono_Mokuzu&#45;&#45;f0_c</title>
<path fill="none" stroke="black" d="M292,-413.104C292,-397.055 292,-377.955 292,-376.777"/>
</g>
<!-- Fuguta_Haha -->
<g id="node2" class="node"><title>Fuguta_Haha</title>
<polygon fill="none" stroke="black" points="0,-278.5 0,-324.5 100,-324.5 100,-278.5 0,-278.5"/>
<text text-anchor="middle" x="50" y="-309.3" font-family="Sans" font-size="14.00">フグ田</text>
<polyline fill="none" stroke="black" points="0,-301.5 100,-301.5 "/>
<text text-anchor="start" x="8" y="-286.3" font-family="Sans" font-size="14.00">住所: 大阪府</text>
</g>
<!-- Isono_Umihei -->
<g id="node3" class="node"><title>Isono_Umihei</title>
<polygon fill="none" stroke="black" points="118,-263.5 118,-339.5 254,-339.5 254,-263.5 118,-263.5"/>
<text text-anchor="middle" x="186" y="-324.3" font-family="Sans" font-size="14.00">磯野 海平</text>
<polyline fill="none" stroke="black" points="118,-316.5 254,-316.5 "/>
<text text-anchor="start" x="126" y="-301.3" font-family="Sans" font-size="14.00">長男</text>
<text text-anchor="start" x="126" y="-286.3" font-family="Sans" font-size="14.00">住所: 福岡県</text>
<text text-anchor="start" x="126" y="-271.3" font-family="Sans" font-size="14.00">出生: 1895.09.14</text>
</g>
<!-- Fuguta_Haha&#45;&#45;Isono_Umihei -->
<!-- Fuguta_Masuo -->
<g id="node8" class="node"><title>Fuguta_Masuo</title>
<polygon fill="none" stroke="black" points="86.5,-113.5 86.5,-189.5 197.5,-189.5 197.5,-113.5 86.5,-113.5"/>
<text text-anchor="middle" x="142" y="-174.3" font-family="Sans" font-size="14.00">フグ田 マスオ</text>
<polyline fill="none" stroke="black" points="86.5,-166.5 197.5,-166.5 "/>
<text text-anchor="start" x="94.5" y="-151.3" font-family="Sans" font-size="14.00">次男</text>
<text text-anchor="start" x="94.5" y="-136.3" font-family="Sans" font-size="14.00">住所: 東京都</text>
<text text-anchor="start" x="94.5" y="-121.3" font-family="Sans" font-size="14.00">出生: 1917.</text>
</g>
<!-- Fuguta_Haha&#45;&#45;Fuguta_Masuo -->
<g id="edge15" class="edge"><title>Fuguta_Haha&#45;&#45;Fuguta_Masuo</title>
<path fill="none" stroke="black" d="M63.7733,-278.343C78.3101,-254.958 101.476,-217.691 118.832,-189.77"/>
</g>
<!-- Isono_Namihei -->
<g id="node4" class="node"><title>Isono_Namihei</title>
<polygon fill="none" stroke="black" points="272,-263.5 272,-339.5 408,-339.5 408,-263.5 272,-263.5"/>
<text text-anchor="middle" x="340" y="-324.3" font-family="Sans" font-size="14.00">磯野 波平</text>
<polyline fill="none" stroke="black" points="272,-316.5 408,-316.5 "/>
<text text-anchor="start" x="280" y="-301.3" font-family="Sans" font-size="14.00">次男</text>
<text text-anchor="start" x="280" y="-286.3" font-family="Sans" font-size="14.00">住所: 東京都</text>
<text text-anchor="start" x="280" y="-271.3" font-family="Sans" font-size="14.00">出生: 1895.09.14</text>
</g>
<!-- Isono_Umihei&#45;&#45;Isono_Namihei -->
<!-- Namino_Nagie -->
<g id="node6" class="node"><title>Namino_Nagie</title>
<polygon fill="none" stroke="black" points="562,-271 562,-332 662,-332 662,-271 562,-271"/>
<text text-anchor="middle" x="612" y="-316.8" font-family="Sans" font-size="14.00">波野 なぎえ</text>
<polyline fill="none" stroke="black" points="562,-309 662,-309 "/>
<text text-anchor="start" x="570" y="-293.8" font-family="Sans" font-size="14.00">長女</text>
<text text-anchor="start" x="570" y="-278.8" font-family="Sans" font-size="14.00">住所: 福岡県</text>
</g>
<!-- Isono_Namihei&#45;&#45;Namino_Nagie -->
<!-- f2_p -->
<g id="node20" class="node"><title>f2_p</title>
<ellipse fill="black" stroke="black" cx="426" cy="-301.5" rx="0.36" ry="0.36"/>
</g>
<!-- Isono_Namihei&#45;&#45;f2_p -->
<g id="edge16" class="edge"><title>Isono_Namihei&#45;&#45;f2_p</title>
<path fill="none" stroke="black" stroke-width="2" d="M408.195,-301.5C413.945,-301.5 419.694,-301.5 425.444,-301.5"/>
</g>
<!-- Isono_Fune -->
<g id="node5" class="node"><title>Isono_Fune</title>
<polygon fill="none" stroke="black" points="444,-263.5 444,-339.5 544,-339.5 544,-263.5 444,-263.5"/>
<text text-anchor="middle" x="494" y="-324.3" font-family="Sans" font-size="14.00">磯野 フネ</text>
<polyline fill="none" stroke="black" points="444,-316.5 544,-316.5 "/>
<text text-anchor="start" x="452" y="-301.3" font-family="Sans" font-size="14.00">波平の妻</text>
<text text-anchor="start" x="452" y="-286.3" font-family="Sans" font-size="14.00">住所: 東京都</text>
<text text-anchor="start" x="452" y="-271.3" font-family="Sans" font-size="14.00">出生: 1901.</text>
</g>
<!-- f3_p -->
<g id="node25" class="node"><title>f3_p</title>
<ellipse fill="black" stroke="black" cx="680" cy="-301.5" rx="0.36" ry="0.36"/>
</g>
<!-- Namino_Nagie&#45;&#45;f3_p -->
<g id="edge25" class="edge"><title>Namino_Nagie&#45;&#45;f3_p</title>
<path fill="none" stroke="black" stroke-width="2" d="M662.203,-301.5C667.95,-301.5 673.697,-301.5 679.444,-301.5"/>
</g>
<!-- Namino_NagieOtto -->
<g id="node7" class="node"><title>Namino_NagieOtto</title>
<polygon fill="none" stroke="black" points="698.5,-278.5 698.5,-324.5 789.5,-324.5 789.5,-278.5 698.5,-278.5"/>
<text text-anchor="middle" x="744" y="-309.3" font-family="Sans" font-size="14.00">波野</text>
<polyline fill="none" stroke="black" points="698.5,-301.5 789.5,-301.5 "/>
<text text-anchor="start" x="706.5" y="-286.3" font-family="Sans" font-size="14.00">なぎえの夫</text>
</g>
<!-- Fuguta_Sazae -->
<g id="node9" class="node"><title>Fuguta_Sazae</title>
<polygon fill="none" stroke="black" points="234,-113.5 234,-189.5 370,-189.5 370,-113.5 234,-113.5"/>
<text text-anchor="middle" x="302" y="-174.3" font-family="Sans" font-size="14.00">フグ田 サザエ</text>
<polyline fill="none" stroke="black" points="234,-166.5 370,-166.5 "/>
<text text-anchor="start" x="242" y="-151.3" font-family="Sans" font-size="14.00">長女</text>
<text text-anchor="start" x="242" y="-136.3" font-family="Sans" font-size="14.00">住所: 東京都</text>
<text text-anchor="start" x="242" y="-121.3" font-family="Sans" font-size="14.00">出生: 1922.11.22</text>
</g>
<!-- Fuguta_Masuo&#45;&#45;Fuguta_Sazae -->
<!-- f4_p -->
<g id="node26" class="node"><title>f4_p</title>
<ellipse fill="black" stroke="black" cx="216" cy="-151.5" rx="0.36" ry="0.36"/>
</g>
<!-- Fuguta_Masuo&#45;&#45;f4_p -->
<g id="edge28" class="edge"><title>Fuguta_Masuo&#45;&#45;f4_p</title>
<path fill="none" stroke="black" stroke-width="2" d="M197.789,-151.5C203.67,-151.5 209.55,-151.5 215.431,-151.5"/>
</g>
<!-- Isono_Katsuo -->
<g id="node10" class="node"><title>Isono_Katsuo</title>
<polygon fill="none" stroke="black" points="388,-113.5 388,-189.5 488,-189.5 488,-113.5 388,-113.5"/>
<text text-anchor="middle" x="438" y="-174.3" font-family="Sans" font-size="14.00">磯野 カツオ</text>
<polyline fill="none" stroke="black" points="388,-166.5 488,-166.5 "/>
<text text-anchor="start" x="396" y="-151.3" font-family="Sans" font-size="14.00">長男</text>
<text text-anchor="start" x="396" y="-136.3" font-family="Sans" font-size="14.00">住所: 東京都</text>
<text text-anchor="start" x="396" y="-121.3" font-family="Sans" font-size="14.00">出生: 1938.</text>
</g>
<!-- Fuguta_Sazae&#45;&#45;Isono_Katsuo -->
<!-- Isono_Wakame -->
<g id="node11" class="node"><title>Isono_Wakame</title>
<polygon fill="none" stroke="black" points="506,-113.5 506,-189.5 606,-189.5 606,-113.5 506,-113.5"/>
<text text-anchor="middle" x="556" y="-174.3" font-family="Sans" font-size="14.00">磯野 ワカメ</text>
<polyline fill="none" stroke="black" points="506,-166.5 606,-166.5 "/>
<text text-anchor="start" x="514" y="-151.3" font-family="Sans" font-size="14.00">次女</text>
<text text-anchor="start" x="514" y="-136.3" font-family="Sans" font-size="14.00">住所: 東京都</text>
<text text-anchor="start" x="514" y="-121.3" font-family="Sans" font-size="14.00">出生: 1942.</text>
</g>
<!-- Isono_Katsuo&#45;&#45;Isono_Wakame -->
<!-- Namino_Norisuke -->
<g id="node12" class="node"><title>Namino_Norisuke</title>
<polygon fill="none" stroke="black" points="624.5,-121 624.5,-182 735.5,-182 735.5,-121 624.5,-121"/>
<text text-anchor="middle" x="680" y="-166.8" font-family="Sans" font-size="14.00">波野 ノリスケ</text>
<polyline fill="none" stroke="black" points="624.5,-159 735.5,-159 "/>
<text text-anchor="start" x="632.5" y="-143.8" font-family="Sans" font-size="14.00">三男</text>
<text text-anchor="start" x="632.5" y="-128.8" font-family="Sans" font-size="14.00">住所: 東京都</text>
</g>
<!-- Isono_Wakame&#45;&#45;Namino_Norisuke -->
<!-- f5_p -->
<g id="node27" class="node"><title>f5_p</title>
<ellipse fill="black" stroke="black" cx="754" cy="-151.5" rx="0.36" ry="0.36"/>
</g>
<!-- Namino_Norisuke&#45;&#45;f5_p -->
<g id="edge31" class="edge"><title>Namino_Norisuke&#45;&#45;f5_p</title>
<path fill="none" stroke="black" stroke-width="2" d="M735.789,-151.5C741.67,-151.5 747.55,-151.5 753.431,-151.5"/>
</g>
<!-- Namino_Taiko -->
<g id="node13" class="node"><title>Namino_Taiko</title>
<polygon fill="none" stroke="black" points="772,-121 772,-182 878,-182 878,-121 772,-121"/>
<text text-anchor="middle" x="825" y="-166.8" font-family="Sans" font-size="14.00">波野 タイ子</text>
<polyline fill="none" stroke="black" points="772,-159 878,-159 "/>
<text text-anchor="start" x="780" y="-143.8" font-family="Sans" font-size="14.00">ノリスケの妻</text>
<text text-anchor="start" x="780" y="-128.8" font-family="Sans" font-size="14.00">住所: 東京都</text>
</g>
<!-- Fuguta_Tarao -->
<g id="node14" class="node"><title>Fuguta_Tarao</title>
<polygon fill="none" stroke="black" points="157,-0.5 157,-76.5 275,-76.5 275,-0.5 157,-0.5"/>
<text text-anchor="middle" x="216" y="-61.3" font-family="Sans" font-size="14.00">フグ田 タラオ</text>
<polyline fill="none" stroke="black" points="157,-53.5 275,-53.5 "/>
<text text-anchor="start" x="165" y="-38.3" font-family="Sans" font-size="14.00">長男</text>
<text text-anchor="start" x="165" y="-23.3" font-family="Sans" font-size="14.00">住所: 東京都</text>
<text text-anchor="start" x="165" y="-8.3" font-family="Sans" font-size="14.00">出生: 1947.10.</text>
</g>
<!-- Namino_Ikura -->
<g id="node15" class="node"><title>Namino_Ikura</title>
<polygon fill="none" stroke="black" points="704,-8 704,-69 804,-69 804,-8 704,-8"/>
<text text-anchor="middle" x="754" y="-53.8" font-family="Sans" font-size="14.00">波野 イクラ</text>
<polyline fill="none" stroke="black" points="704,-46 804,-46 "/>
<text text-anchor="start" x="712" y="-30.8" font-family="Sans" font-size="14.00">長男</text>
<text text-anchor="start" x="712" y="-15.8" font-family="Sans" font-size="14.00">住所: 東京都</text>
</g>
<!-- f0_c0 -->
<g id="node16" class="node"><title>f0_c0</title>
<ellipse fill="black" stroke="black" cx="215" cy="-376.36" rx="0.36" ry="0.36"/>
</g>
<!-- f0_c0&#45;&#45;Isono_Umihei -->
<g id="edge12" class="edge"><title>f0_c0&#45;&#45;Isono_Umihei</title>
<path fill="none" stroke="black" d="M214.979,-375.947C214.55,-374.86 207.631,-357.323 200.662,-339.66"/>
</g>
<!-- f0_c0&#45;&#45;f0_c -->
<g id="edge8" class="edge"><title>f0_c0&#45;&#45;f0_c</title>
<path fill="none" stroke="black" d="M215.602,-376.36C240.869,-376.36 266.136,-376.36 291.403,-376.36"/>
</g>
<!-- f0_c1 -->
<g id="node18" class="node"><title>f0_c1</title>
<ellipse fill="black" stroke="black" cx="340" cy="-376.36" rx="0.36" ry="0.36"/>
</g>
<!-- f0_c&#45;&#45;f0_c1 -->
<g id="edge9" class="edge"><title>f0_c&#45;&#45;f0_c1</title>
<path fill="none" stroke="black" d="M292.375,-376.36C308.126,-376.36 323.877,-376.36 339.628,-376.36"/>
</g>
<!-- f0_c1&#45;&#45;Isono_Namihei -->
<g id="edge13" class="edge"><title>f0_c1&#45;&#45;Isono_Namihei</title>
<path fill="none" stroke="black" d="M340,-375.947C340,-374.86 340,-357.323 340,-339.66"/>
</g>
<!-- f0_c2 -->
<g id="node19" class="node"><title>f0_c2</title>
<ellipse fill="black" stroke="black" cx="485" cy="-376.36" rx="0.36" ry="0.36"/>
</g>
<!-- f0_c1&#45;&#45;f0_c2 -->
<g id="edge10" class="edge"><title>f0_c1&#45;&#45;f0_c2</title>
<path fill="none" stroke="black" d="M340.566,-376.36C388.523,-376.36 436.479,-376.36 484.436,-376.36"/>
</g>
<!-- f0_c2&#45;&#45;Namino_Nagie -->
<g id="edge14" class="edge"><title>f0_c2&#45;&#45;Namino_Nagie</title>
<path fill="none" stroke="black" d="M485.111,-375.946C487.394,-374.826 524.359,-356.648 553,-340 557.302,-337.499 561.74,-334.838 566.159,-332.131"/>
</g>
<!-- f2_p&#45;&#45;Isono_Fune -->
<g id="edge17" class="edge"><title>f2_p&#45;&#45;Isono_Fune</title>
<path fill="none" stroke="black" stroke-width="2" d="M426.531,-301.5C432.329,-301.5 438.127,-301.5 443.926,-301.5"/>
</g>
<!-- f2_c -->
<g id="node22" class="node"><title>f2_c</title>
<ellipse fill="black" stroke="black" cx="422" cy="-226.5" rx="0.36" ry="0.36"/>
</g>
<!-- f2_p&#45;&#45;f2_c -->
<g id="edge21" class="edge"><title>f2_p&#45;&#45;f2_c</title>
<path fill="none" stroke="black" d="M425.997,-300.447C425.878,-298.256 422.12,-229.209 422.003,-227.052"/>
</g>
<!-- f2_c0 -->
<g id="node21" class="node"><title>f2_c0</title>
<ellipse fill="black" stroke="black" cx="352" cy="-226.5" rx="0.36" ry="0.36"/>
</g>
<!-- f2_c0&#45;&#45;Fuguta_Sazae -->
<g id="edge22" class="edge"><title>f2_c0&#45;&#45;Fuguta_Sazae</title>
<path fill="none" stroke="black" d="M351.964,-225.947C351.224,-224.86 339.295,-207.323 327.279,-189.66"/>
</g>
<!-- f2_c0&#45;&#45;f2_c -->
<g id="edge18" class="edge"><title>f2_c0&#45;&#45;f2_c</title>
<path fill="none" stroke="black" d="M352.547,-226.5C375.517,-226.5 398.487,-226.5 421.457,-226.5"/>
</g>
<!-- f2_c1 -->
<g id="node23" class="node"><title>f2_c1</title>
<ellipse fill="black" stroke="black" cx="441" cy="-226.5" rx="0.36" ry="0.36"/>
</g>
<!-- f2_c&#45;&#45;f2_c1 -->
<g id="edge19" class="edge"><title>f2_c&#45;&#45;f2_c1</title>
<path fill="none" stroke="black" d="M422.594,-226.5C428.537,-226.5 434.481,-226.5 440.425,-226.5"/>
</g>
<!-- f2_c1&#45;&#45;Isono_Katsuo -->
<g id="edge23" class="edge"><title>f2_c1&#45;&#45;Isono_Katsuo</title>
<path fill="none" stroke="black" d="M440.998,-225.947C440.953,-224.86 440.238,-207.323 439.517,-189.66"/>
</g>
<!-- f2_c2 -->
<g id="node24" class="node"><title>f2_c2</title>
<ellipse fill="black" stroke="black" cx="507" cy="-226.5" rx="0.36" ry="0.36"/>
</g>
<!-- f2_c1&#45;&#45;f2_c2 -->
<g id="edge20" class="edge"><title>f2_c1&#45;&#45;f2_c2</title>
<path fill="none" stroke="black" d="M441.516,-226.5C463.173,-226.5 484.831,-226.5 506.488,-226.5"/>
</g>
<!-- f2_c2&#45;&#45;Isono_Wakame -->
<g id="edge24" class="edge"><title>f2_c2&#45;&#45;Isono_Wakame</title>
<path fill="none" stroke="black" d="M507.036,-225.947C507.76,-224.86 519.451,-207.323 531.226,-189.66"/>
</g>
<!-- f3_p&#45;&#45;Namino_NagieOtto -->
<g id="edge26" class="edge"><title>f3_p&#45;&#45;Namino_NagieOtto</title>
<path fill="none" stroke="black" stroke-width="2" d="M680.5,-301.5C686.453,-301.5 692.406,-301.5 698.359,-301.5"/>
</g>
<!-- f3_p&#45;&#45;Namino_Norisuke -->
<g id="edge27" class="edge"><title>f3_p&#45;&#45;Namino_Norisuke</title>
<path fill="none" stroke="black" d="M680,-300.393C680,-297.224 680,-224.606 680,-182.328"/>
</g>
<!-- f4_p&#45;&#45;Fuguta_Sazae -->
<g id="edge29" class="edge"><title>f4_p&#45;&#45;Fuguta_Sazae</title>
<path fill="none" stroke="black" stroke-width="2" d="M216.672,-151.5C222.338,-151.5 228.005,-151.5 233.671,-151.5"/>
</g>
<!-- f4_p&#45;&#45;Fuguta_Tarao -->
<g id="edge30" class="edge"><title>f4_p&#45;&#45;Fuguta_Tarao</title>
<path fill="none" stroke="black" d="M216,-150.42C216,-148.384 216,-108.151 216,-76.7219"/>
</g>
<!-- f5_p&#45;&#45;Namino_Taiko -->
<g id="edge32" class="edge"><title>f5_p&#45;&#45;Namino_Taiko</title>
<path fill="none" stroke="black" stroke-width="2" d="M754.555,-151.5C760.333,-151.5 766.112,-151.5 771.891,-151.5"/>
</g>
<!-- f5_p&#45;&#45;Namino_Ikura -->
<g id="edge33" class="edge"><title>f5_p&#45;&#45;Namino_Ikura</title>
<path fill="none" stroke="black" d="M754,-150.42C754,-148.214 754,-101.134 754,-69.0273"/>
</g>
</g>
</svg>
