<?xml version="1.0" encoding="UTF-8" standalone="no"?>
<!DOCTYPE svg PUBLIC "-//W3C//DTD SVG 1.1//EN"
 "http://www.w3.org/Graphics/SVG/1.1/DTD/svg11.dtd">
<!-- Generated by graphviz version 2.38.0 (20140413.2041)
 -->
<!-- Title: 磯野家 家系図 Pages: 1 -->
<svg width="752pt" height="579pt"
 viewBox="0.00 0.00 752.16 578.50" xmlns="http://www.w3.org/2000/svg" xmlns:xlink="http://www.w3.org/1999/xlink">
<g id="graph0" class="graph" transform="scale(1 1) rotate(0) translate(4 574.5)">
<title>磯野家 家系図</title>
<polygon fill="white" stroke="none" points="-4,4 -4,-574.5 748.16,-574.5 748.16,4 -4,4"/>
<!-- Isono_Mokuzu -->
<g id="node1" class="node"><title>Isono_Mokuzu</title>
<polygon fill="khaki" stroke="blue" points="0,-349 0,-395 139,-395 139,-349 0,-349"/>
<text text-anchor="middle" x="69.5" y="-379.8" font-family="Sans" font-size="14.00">磯野 藻屑 源素太皆</text>
<polyline fill="none" stroke="blue" points="0,-372 139,-372 "/>
<text text-anchor="start" x="8" y="-356.8" font-family="Sans" font-size="14.00">磯野家のご先祖</text>
</g>
<!-- f0_c1 -->
<g id="node17" class="node"><title>f0_c1</title>
<ellipse fill="black" stroke="black" cx="175.36" cy="-372" rx="0.36" ry="0.36"/>
</g>
<!-- Isono_Mokuzu&#45;&#45;f0_c1 -->
<g id="edge10" class="edge"><title>Isono_Mokuzu&#45;&#45;f0_c1</title>
<path fill="none" stroke="black" d="M139.225,-372C157.187,-372 172.27,-372 174.94,-372"/>
</g>
<!-- Fuguta_Haha -->
<g id="node2" class="node"><title>Fuguta_Haha</title>
<polygon fill="pink" stroke="black" points="230.72,-524 230.72,-570 327.72,-570 327.72,-524 230.72,-524"/>
<text text-anchor="middle" x="279.22" y="-554.8" font-family="Sans" font-size="14.00">フグ田</text>
<polyline fill="none" stroke="black" points="230.72,-547 327.72,-547 "/>
<text text-anchor="start" x="238.72" y="-531.8" font-family="Sans" font-size="14.00">住所: 大阪府</text>
</g>
<!-- Isono_Umihei -->
<g id="node3" class="node"><title>Isono_Umihei</title>
<polygon fill="lightblue" stroke="blue" points="211.72,-429 211.72,-505 346.72,-505 346.72,-429 211.72,-429"/>
<text text-anchor="middle" x="279.22" y="-489.8" font-family="Sans" font-size="14.00">磯野 海平</text>
<polyline fill="none" stroke="blue" points="211.72,-482 346.72,-482 "/>
<text text-anchor="start" x="219.72" y="-466.8" font-family="Sans" font-size="14.00">長男</text>
<text text-anchor="start" x="219.72" y="-451.8" font-family="Sans" font-size="14.00">住所: 福岡県</text>
<text text-anchor="start" x="219.72" y="-436.8" font-family="Sans" font-size="14.00">出生: 1895.09.14</text>
</g>
<!-- Fuguta_Haha&#45;&#45;Isono_Umihei -->
<!-- f1_c -->
<g id="node19" class="node"><title>f1_c</title>
<ellipse fill="black" stroke="black" cx="383.08" cy="-535" rx="0.36" ry="0.36"/>
</g>
<!-- Fuguta_Haha&#45;&#45;f1_c -->
<g id="edge14" class="edge"><title>Fuguta_Haha&#45;&#45;f1_c</title>
<path fill="none" stroke="black" d="M327.805,-535C352.302,-535 377.795,-535 382.36,-535"/>
</g>
<!-- Isono_Namihei -->
<g id="node4" class="node"><title>Isono_Namihei</title>
<polygon fill="lightblue" stroke="blue" points="211.72,-334 211.72,-410 346.72,-410 346.72,-334 211.72,-334"/>
<text text-anchor="middle" x="279.22" y="-394.8" font-family="Sans" font-size="14.00">磯野 波平</text>
<polyline fill="none" stroke="blue" points="211.72,-387 346.72,-387 "/>
<text text-anchor="start" x="219.72" y="-371.8" font-family="Sans" font-size="14.00">次男</text>
<text text-anchor="start" x="219.72" y="-356.8" font-family="Sans" font-size="14.00">住所: 東京都</text>
<text text-anchor="start" x="219.72" y="-341.8" font-family="Sans" font-size="14.00">出生: 1895.09.14</text>
</g>
<!-- Isono_Umihei&#45;&#45;Isono_Namihei -->
<!-- Namino_Nagie -->
<g id="node6" class="node"><title>Namino_Nagie</title>
<polygon fill="pink" stroke="red" points="230.72,-139.5 230.72,-200.5 327.72,-200.5 327.72,-139.5 230.72,-139.5"/>
<text text-anchor="middle" x="279.22" y="-185.3" font-family="Sans" font-size="14.00">波野 なぎえ</text>
<polyline fill="none" stroke="red" points="230.72,-177.5 327.72,-177.5 "/>
<text text-anchor="start" x="238.72" y="-162.3" font-family="Sans" font-size="14.00">長女</text>
<text text-anchor="start" x="238.72" y="-147.3" font-family="Sans" font-size="14.00">住所: 福岡県</text>
</g>
<!-- Isono_Namihei&#45;&#45;Namino_Nagie -->
<!-- f2_p -->
<g id="node20" class="node"><title>f2_p</title>
<ellipse fill="black" stroke="black" cx="279.22" cy="-315" rx="0.36" ry="0.36"/>
</g>
<!-- Isono_Namihei&#45;&#45;f2_p -->
<g id="edge16" class="edge"><title>Isono_Namihei&#45;&#45;f2_p</title>
<path fill="none" stroke="black" stroke-width="2" d="M280.16,-333.98C280.16,-324.178 280.16,-316.073 280.16,-315.098"/>
</g>
<!-- Isono_Fune -->
<g id="node5" class="node"><title>Isono_Fune</title>
<polygon fill="pink" stroke="red" points="230.72,-220 230.72,-296 327.72,-296 327.72,-220 230.72,-220"/>
<text text-anchor="middle" x="279.22" y="-280.8" font-family="Sans" font-size="14.00">磯野 フネ</text>
<polyline fill="none" stroke="red" points="230.72,-273 327.72,-273 "/>
<text text-anchor="start" x="238.72" y="-257.8" font-family="Sans" font-size="14.00">波平の妻</text>
<text text-anchor="start" x="238.72" y="-242.8" font-family="Sans" font-size="14.00">住所: 東京都</text>
<text text-anchor="start" x="238.72" y="-227.8" font-family="Sans" font-size="14.00">出生: 1901.</text>
</g>
<!-- f3_p -->
<g id="node24" class="node"><title>f3_p</title>
<ellipse fill="black" stroke="black" cx="279.22" cy="-121" rx="0.36" ry="0.36"/>
</g>
<!-- Namino_Nagie&#45;&#45;f3_p -->
<g id="edge24" class="edge"><title>Namino_Nagie&#45;&#45;f3_p</title>
<path fill="none" stroke="black" stroke-width="2" d="M280.16,-139.246C280.16,-130.016 280.16,-122.056 280.16,-121.097"/>
</g>
<!-- Namino_NagieOtto -->
<g id="node7" class="node"><title>Namino_NagieOtto</title>
<polygon fill="none" stroke="black" points="235.22,-56 235.22,-102 323.22,-102 323.22,-56 235.22,-56"/>
<text text-anchor="middle" x="279.22" y="-86.8" font-family="Sans" font-size="14.00">波野</text>
<polyline fill="none" stroke="black" points="235.22,-79 323.22,-79 "/>
<text text-anchor="start" x="243.22" y="-63.8" font-family="Sans" font-size="14.00">なぎえの夫</text>
</g>
<!-- Fuguta_Masuo -->
<g id="node8" class="node"><title>Fuguta_Masuo</title>
<polygon fill="lightblue" stroke="blue" points="433.94,-486 433.94,-562 539.94,-562 539.94,-486 433.94,-486"/>
<text text-anchor="middle" x="486.94" y="-546.8" font-family="Sans" font-size="14.00">フグ田 マスオ</text>
<polyline fill="none" stroke="blue" points="433.94,-539 539.94,-539 "/>
<text text-anchor="start" x="441.94" y="-523.8" font-family="Sans" font-size="14.00">次男</text>
<text text-anchor="start" x="441.94" y="-508.8" font-family="Sans" font-size="14.00">住所: 東京都</text>
<text text-anchor="start" x="441.94" y="-493.8" font-family="Sans" font-size="14.00">出生: 1917.</text>
</g>
<!-- Fuguta_Sazae -->
<g id="node9" class="node"><title>Fuguta_Sazae</title>
<polygon fill="yellow" stroke="red" points="419.44,-372 419.44,-448 554.44,-448 554.44,-372 419.44,-372"/>
<text text-anchor="middle" x="486.94" y="-432.8" font-family="Sans" font-size="14.00">フグ田 サザエ</text>
<polyline fill="none" stroke="red" points="419.44,-425 554.44,-425 "/>
<text text-anchor="start" x="427.44" y="-409.8" font-family="Sans" font-size="14.00">長女</text>
<text text-anchor="start" x="427.44" y="-394.8" font-family="Sans" font-size="14.00">住所: 東京都</text>
<text text-anchor="start" x="427.44" y="-379.8" font-family="Sans" font-size="14.00">出生: 1922.11.22</text>
</g>
<!-- Fuguta_Masuo&#45;&#45;Fuguta_Sazae -->
<!-- f4_p -->
<g id="node26" class="node"><title>f4_p</title>
<ellipse fill="black" stroke="black" cx="486.94" cy="-467" rx="0.36" ry="0.36"/>
</g>
<!-- Fuguta_Masuo&#45;&#45;f4_p -->
<g id="edge28" class="edge"><title>Fuguta_Masuo&#45;&#45;f4_p</title>
<path fill="none" stroke="black" stroke-width="2" d="M487.16,-485.98C487.16,-476.831 487.16,-469.161 487.16,-467.387"/>
</g>
<!-- Isono_Katsuo -->
<g id="node10" class="node"><title>Isono_Katsuo</title>
<polygon fill="palegreen" stroke="blue" points="438.44,-277 438.44,-353 535.44,-353 535.44,-277 438.44,-277"/>
<text text-anchor="middle" x="486.94" y="-337.8" font-family="Sans" font-size="14.00">磯野 カツオ</text>
<polyline fill="none" stroke="blue" points="438.44,-330 535.44,-330 "/>
<text text-anchor="start" x="446.44" y="-314.8" font-family="Sans" font-size="14.00">長男</text>
<text text-anchor="start" x="446.44" y="-299.8" font-family="Sans" font-size="14.00">住所: 東京都</text>
<text text-anchor="start" x="446.44" y="-284.8" font-family="Sans" font-size="14.00">出生: 1938.</text>
</g>
<!-- Fuguta_Sazae&#45;&#45;Isono_Katsuo -->
<!-- Isono_Wakame -->
<g id="node11" class="node"><title>Isono_Wakame</title>
<polygon fill="palegreen" stroke="red" points="438.44,-182 438.44,-258 535.44,-258 535.44,-182 438.44,-182"/>
<text text-anchor="middle" x="486.94" y="-242.8" font-family="Sans" font-size="14.00">磯野 ワカメ</text>
<polyline fill="none" stroke="red" points="438.44,-235 535.44,-235 "/>
<text text-anchor="start" x="446.44" y="-219.8" font-family="Sans" font-size="14.00">次女</text>
<text text-anchor="start" x="446.44" y="-204.8" font-family="Sans" font-size="14.00">住所: 東京都</text>
<text text-anchor="start" x="446.44" y="-189.8" font-family="Sans" font-size="14.00">出生: 1942.</text>
</g>
<!-- Isono_Katsuo&#45;&#45;Isono_Wakame -->
<!-- Namino_Norisuke -->
<g id="node12" class="node"><title>Namino_Norisuke</title>
<polygon fill="lightblue" stroke="blue" points="433.94,-98.5 433.94,-159.5 539.94,-159.5 539.94,-98.5 433.94,-98.5"/>
<text text-anchor="middle" x="486.94" y="-144.3" font-family="Sans" font-size="14.00">波野 ノリスケ</text>
<polyline fill="none" stroke="blue" points="433.94,-136.5 539.94,-136.5 "/>
<text text-anchor="start" x="441.94" y="-121.3" font-family="Sans" font-size="14.00">三男</text>
<text text-anchor="start" x="441.94" y="-106.3" font-family="Sans" font-size="14.00">住所: 東京都</text>
</g>
<!-- Isono_Wakame&#45;&#45;Namino_Norisuke -->
<!-- f5_p -->
<g id="node28" class="node"><title>f5_p</title>
<ellipse fill="black" stroke="black" cx="486.94" cy="-80" rx="0.36" ry="0.36"/>
</g>
<!-- Namino_Norisuke&#45;&#45;f5_p -->
<g id="edge32" class="edge"><title>Namino_Norisuke&#45;&#45;f5_p</title>
<path fill="none" stroke="black" stroke-width="2" d="M487.16,-98.2458C487.16,-89.6315 487.16,-82.1228 487.16,-80.3802"/>
</g>
<!-- Namino_Taiko -->
<g id="node13" class="node"><title>Namino_Taiko</title>
<polygon fill="pink" stroke="red" points="435.94,-0.5 435.94,-61.5 537.94,-61.5 537.94,-0.5 435.94,-0.5"/>
<text text-anchor="middle" x="486.94" y="-46.3" font-family="Sans" font-size="14.00">波野 タイ子</text>
<polyline fill="none" stroke="red" points="435.94,-38.5 537.94,-38.5 "/>
<text text-anchor="start" x="443.94" y="-23.3" font-family="Sans" font-size="14.00">ノリスケの妻</text>
<text text-anchor="start" x="443.94" y="-8.3" font-family="Sans" font-size="14.00">住所: 東京都</text>
</g>
<!-- Fuguta_Tarao -->
<g id="node14" class="node"><title>Fuguta_Tarao</title>
<polygon fill="lightblue" stroke="blue" points="627.16,-429 627.16,-505 744.16,-505 744.16,-429 627.16,-429"/>
<text text-anchor="middle" x="685.66" y="-489.8" font-family="Sans" font-size="14.00">フグ田 タラオ</text>
<polyline fill="none" stroke="blue" points="627.16,-482 744.16,-482 "/>
<text text-anchor="start" x="635.16" y="-466.8" font-family="Sans" font-size="14.00">長男</text>
<text text-anchor="start" x="635.16" y="-451.8" font-family="Sans" font-size="14.00">住所: 東京都</text>
<text text-anchor="start" x="635.16" y="-436.8" font-family="Sans" font-size="14.00">出生: 1947.10.</text>
</g>
<!-- Namino_Ikura -->
<g id="node15" class="node"><title>Namino_Ikura</title>
<polygon fill="lightblue" stroke="blue" points="637.16,-49.5 637.16,-110.5 734.16,-110.5 734.16,-49.5 637.16,-49.5"/>
<text text-anchor="middle" x="685.66" y="-95.3" font-family="Sans" font-size="14.00">波野 イクラ</text>
<polyline fill="none" stroke="blue" points="637.16,-87.5 734.16,-87.5 "/>
<text text-anchor="start" x="645.16" y="-72.3" font-family="Sans" font-size="14.00">長男</text>
<text text-anchor="start" x="645.16" y="-57.3" font-family="Sans" font-size="14.00">住所: 東京都</text>
</g>
<!-- f0_c0 -->
<g id="node16" class="node"><title>f0_c0</title>
<ellipse fill="black" stroke="black" cx="175.36" cy="-429" rx="0.36" ry="0.36"/>
</g>
<!-- f0_c0&#45;&#45;Isono_Umihei -->
<g id="edge11" class="edge"><title>f0_c0&#45;&#45;Isono_Umihei</title>
<path fill="none" stroke="black" d="M175.658,-429.25C177.966,-429.25 193.394,-429.25 211.667,-429.25"/>
</g>
<!-- f0_c0&#45;&#45;f0_c1 -->
<g id="edge8" class="edge"><title>f0_c0&#45;&#45;f0_c1</title>
<path fill="none" stroke="black" d="M176.16,-428.836C176.16,-425.598 176.16,-375.294 176.16,-372.154"/>
</g>
<!-- f0_c1&#45;&#45;Isono_Namihei -->
<g id="edge12" class="edge"><title>f0_c1&#45;&#45;Isono_Namihei</title>
<path fill="none" stroke="black" d="M176.023,-372C179.271,-372 194.048,-372 211.448,-372"/>
</g>
<!-- f0_c2 -->
<g id="node18" class="node"><title>f0_c2</title>
<ellipse fill="black" stroke="black" cx="175.36" cy="-262" rx="0.36" ry="0.36"/>
</g>
<!-- f0_c1&#45;&#45;f0_c2 -->
<g id="edge9" class="edge"><title>f0_c1&#45;&#45;f0_c2</title>
<path fill="none" stroke="black" d="M176.16,-371.92C176.16,-368.641 176.16,-265.306 176.16,-262.077"/>
</g>
<!-- f0_c2&#45;&#45;Namino_Nagie -->
<g id="edge13" class="edge"><title>f0_c2&#45;&#45;Namino_Nagie</title>
<path fill="none" stroke="black" d="M176.16,-261.933C176.16,-259.147 176.16,-170 176.16,-170 176.16,-170 203.977,-170 230.708,-170"/>
</g>
<!-- f1_c&#45;&#45;Fuguta_Masuo -->
<g id="edge15" class="edge"><title>f1_c&#45;&#45;Fuguta_Masuo</title>
<path fill="none" stroke="black" d="M383.743,-535C387.872,-535 410.633,-535 433.731,-535"/>
</g>
<!-- f2_p&#45;&#45;Isono_Fune -->
<g id="edge17" class="edge"><title>f2_p&#45;&#45;Isono_Fune</title>
<path fill="none" stroke="black" stroke-width="2" d="M280.16,-314.836C280.16,-313.609 280.16,-305.62 280.16,-296"/>
</g>
<!-- f2_c1 -->
<g id="node22" class="node"><title>f2_c1</title>
<ellipse fill="black" stroke="black" cx="383.08" cy="-315" rx="0.36" ry="0.36"/>
</g>
<!-- f2_p&#45;&#45;f2_c1 -->
<g id="edge20" class="edge"><title>f2_p&#45;&#45;f2_c1</title>
<path fill="none" stroke="black" d="M279.883,-315C288.314,-315 374.422,-315 382.477,-315"/>
</g>
<!-- f2_c0 -->
<g id="node21" class="node"><title>f2_c0</title>
<ellipse fill="black" stroke="black" cx="383.08" cy="-372" rx="0.36" ry="0.36"/>
</g>
<!-- f2_c0&#45;&#45;Fuguta_Sazae -->
<g id="edge21" class="edge"><title>f2_c0&#45;&#45;Fuguta_Sazae</title>
<path fill="none" stroke="black" d="M383.378,-372.25C385.686,-372.25 401.114,-372.25 419.387,-372.25"/>
</g>
<!-- f2_c0&#45;&#45;f2_c1 -->
<g id="edge18" class="edge"><title>f2_c0&#45;&#45;f2_c1</title>
<path fill="none" stroke="black" d="M383.16,-371.36C383.16,-365.489 383.16,-321.091 383.16,-315.564"/>
</g>
<!-- f2_c1&#45;&#45;Isono_Katsuo -->
<g id="edge22" class="edge"><title>f2_c1&#45;&#45;Isono_Katsuo</title>
<path fill="none" stroke="black" d="M383.743,-315C388.149,-315 413.764,-315 438.369,-315"/>
</g>
<!-- f2_c2 -->
<g id="node23" class="node"><title>f2_c2</title>
<ellipse fill="black" stroke="black" cx="383.08" cy="-258" rx="0.36" ry="0.36"/>
</g>
<!-- f2_c1&#45;&#45;f2_c2 -->
<g id="edge19" class="edge"><title>f2_c1&#45;&#45;f2_c2</title>
<path fill="none" stroke="black" d="M383.16,-314.36C383.16,-308.489 383.16,-264.091 383.16,-258.564"/>
</g>
<!-- f2_c2&#45;&#45;Isono_Wakame -->
<g id="edge23" class="edge"><title>f2_c2&#45;&#45;Isono_Wakame</title>
<path fill="none" stroke="black" d="M383.378,-257.75C386.46,-257.75 412.924,-257.75 438.327,-257.75"/>
</g>
<!-- f3_p&#45;&#45;Namino_NagieOtto -->
<g id="edge25" class="edge"><title>f3_p&#45;&#45;Namino_NagieOtto</title>
<path fill="none" stroke="black" stroke-width="2" d="M280.16,-120.88C280.16,-119.782 280.16,-111.358 280.16,-102.349"/>
</g>
<!-- f3_c -->
<g id="node25" class="node"><title>f3_c</title>
<ellipse fill="black" stroke="black" cx="383.08" cy="-124" rx="0.36" ry="0.36"/>
</g>
<!-- f3_p&#45;&#45;f3_c -->
<g id="edge26" class="edge"><title>f3_p&#45;&#45;f3_c</title>
<path fill="none" stroke="black" d="M279.884,-121C288.736,-121 383.16,-121 383.16,-121 383.16,-121 383.16,-122.688 383.16,-123.531"/>
</g>
<!-- f3_c&#45;&#45;Namino_Norisuke -->
<g id="edge27" class="edge"><title>f3_c&#45;&#45;Namino_Norisuke</title>
<path fill="none" stroke="black" d="M383.743,-124C387.872,-124 410.633,-124 433.731,-124"/>
</g>
<!-- f4_p&#45;&#45;Fuguta_Sazae -->
<g id="edge29" class="edge"><title>f4_p&#45;&#45;Fuguta_Sazae</title>
<path fill="none" stroke="black" stroke-width="2" d="M487.16,-466.36C487.16,-464.207 487.16,-456.875 487.16,-448.178"/>
</g>
<!-- f4_c -->
<g id="node27" class="node"><title>f4_c</title>
<ellipse fill="black" stroke="black" cx="590.8" cy="-467" rx="0.36" ry="0.36"/>
</g>
<!-- f4_p&#45;&#45;f4_c -->
<g id="edge30" class="edge"><title>f4_p&#45;&#45;f4_c</title>
<path fill="none" stroke="black" d="M487.603,-467C496.034,-467 582.142,-467 590.197,-467"/>
</g>
<!-- f4_c&#45;&#45;Fuguta_Tarao -->
<g id="edge31" class="edge"><title>f4_c&#45;&#45;Fuguta_Tarao</title>
<path fill="none" stroke="black" d="M591.406,-467C594.577,-467 609.785,-467 627.09,-467"/>
</g>
<!-- f5_p&#45;&#45;Namino_Taiko -->
<g id="edge33" class="edge"><title>f5_p&#45;&#45;Namino_Taiko</title>
<path fill="none" stroke="black" stroke-width="2" d="M487.16,-79.4497C487.16,-77.431 487.16,-70.113 487.16,-61.7542"/>
</g>
<!-- f5_c -->
<g id="node29" class="node"><title>f5_c</title>
<ellipse fill="black" stroke="black" cx="590.8" cy="-80" rx="0.36" ry="0.36"/>
</g>
<!-- f5_p&#45;&#45;f5_c -->
<g id="edge34" class="edge"><title>f5_p&#45;&#45;f5_c</title>
<path fill="none" stroke="black" d="M487.603,-80C496.034,-80 582.142,-80 590.197,-80"/>
</g>
<!-- f5_c&#45;&#45;Namino_Ikura -->
<g id="edge35" class="edge"><title>f5_c&#45;&#45;Namino_Ikura</title>
<path fill="none" stroke="black" d="M591.406,-80C595.177,-80 615.965,-80 637.062,-80"/>
</g>
</g>
</svg>
