<?xml version="1.0" encoding="UTF-8" standalone="no"?>
<!DOCTYPE svg PUBLIC "-//W3C//DTD SVG 1.1//EN"
 "http://www.w3.org/Graphics/SVG/1.1/DTD/svg11.dtd">
<!-- Generated by graphviz version 2.38.0 (20140413.2041)
 -->
<!-- Title: Joestars Pages: 1 -->
<svg width="1401pt" height="343pt"
 viewBox="0.00 0.00 1401.00 343.00" xmlns="http://www.w3.org/2000/svg" xmlns:xlink="http://www.w3.org/1999/xlink">
<g id="graph0" class="graph" transform="scale(1 1) rotate(0) translate(4 339)">
<title>Joestars</title>
<polygon fill="white" stroke="none" points="-4,4 -4,-339 1397,-339 1397,4 -4,4"/>
<!-- GeorgeI -->
<g id="node1" class="node"><title>GeorgeI</title>
<polygon fill="lightblue" stroke="blue" points="0,-223.5 0,-269.5 210,-269.5 210,-223.5 0,-223.5"/>
<text text-anchor="middle" x="105" y="-254.3" font-family="Sans" font-size="14.00">George Joestar I</text>
<polyline fill="none" stroke="blue" points="0,-246.5 210,-246.5 "/>
<text text-anchor="start" x="8" y="-231.3" font-family="Sans" font-size="14.00">ジョージ・ジョースター 1世</text>
</g>
<!-- f1_p -->
<g id="node18" class="node"><title>f1_p</title>
<ellipse fill="black" stroke="black" cx="105" cy="-204.5" rx="0.36" ry="0.36"/>
</g>
<!-- GeorgeI&#45;&#45;f1_p -->
<g id="edge7" class="edge"><title>GeorgeI&#45;&#45;f1_p</title>
<path fill="none" stroke="black" stroke-width="2" d="M105,-223.044C105,-214.626 105,-206.742 105,-204.902"/>
</g>
<!-- Mary -->
<g id="node2" class="node"><title>Mary</title>
<polygon fill="pink" stroke="red" points="67,-139.5 67,-185.5 143,-185.5 143,-139.5 67,-139.5"/>
<text text-anchor="middle" x="105" y="-170.3" font-family="Sans" font-size="14.00">Mary</text>
<polyline fill="none" stroke="red" points="67,-162.5 143,-162.5 "/>
<text text-anchor="start" x="75" y="-147.3" font-family="Sans" font-size="14.00">メアリー</text>
</g>
<!-- Dario -->
<g id="node3" class="node"><title>Dario</title>
<polygon fill="lightblue" stroke="blue" points="29.5,-288.5 29.5,-334.5 180.5,-334.5 180.5,-288.5 29.5,-288.5"/>
<text text-anchor="middle" x="105" y="-319.3" font-family="Sans" font-size="14.00">Dario Brando</text>
<polyline fill="none" stroke="blue" points="29.5,-311.5 180.5,-311.5 "/>
<text text-anchor="start" x="37.5" y="-296.3" font-family="Sans" font-size="14.00">ダリオ・ブランドー</text>
</g>
<!-- Dario&#45;&#45;GeorgeI -->
<!-- Dio -->
<g id="node6" class="node"><title>Dio</title>
<polygon fill="lightblue" stroke="blue" points="305.5,-235.5 305.5,-281.5 456.5,-281.5 456.5,-235.5 305.5,-235.5"/>
<text text-anchor="middle" x="381" y="-266.3" font-family="Sans" font-size="14.00">Dio</text>
<polyline fill="none" stroke="blue" points="305.5,-258.5 456.5,-258.5 "/>
<text text-anchor="start" x="313.5" y="-243.3" font-family="Sans" font-size="14.00">ディオ・ブランドー</text>
</g>
<!-- Dario&#45;&#45;Dio -->
<g id="edge6" class="edge"><title>Dario&#45;&#45;Dio</title>
<path fill="none" stroke="black" d="M131,-288.416C131,-281.636 131,-276 131,-276 131,-276 231.732,-276 305.313,-276"/>
</g>
<!-- Jonathan -->
<g id="node4" class="node"><title>Jonathan</title>
<polygon fill="lightblue" stroke="blue" points="283,-170.5 283,-216.5 479,-216.5 479,-170.5 283,-170.5"/>
<text text-anchor="middle" x="381" y="-201.3" font-family="Sans" font-size="14.00">Jonathan Joestar</text>
<polyline fill="none" stroke="blue" points="283,-193.5 479,-193.5 "/>
<text text-anchor="start" x="291" y="-178.3" font-family="Sans" font-size="14.00">ジョナサン・ジョースター</text>
</g>
<!-- f2_p -->
<g id="node22" class="node"><title>f2_p</title>
<ellipse fill="black" stroke="black" cx="381" cy="-151.5" rx="0.36" ry="0.36"/>
</g>
<!-- Jonathan&#45;&#45;f2_p -->
<g id="edge14" class="edge"><title>Jonathan&#45;&#45;f2_p</title>
<path fill="none" stroke="black" stroke-width="2" d="M381,-170.044C381,-161.626 381,-153.742 381,-151.902"/>
</g>
<!-- Erina -->
<g id="node5" class="node"><title>Erina</title>
<polygon fill="pink" stroke="red" points="298,-86.5 298,-132.5 464,-132.5 464,-86.5 298,-86.5"/>
<text text-anchor="middle" x="381" y="-117.3" font-family="Sans" font-size="14.00">Erina Pendleton</text>
<polyline fill="none" stroke="red" points="298,-109.5 464,-109.5 "/>
<text text-anchor="start" x="306" y="-94.3" font-family="Sans" font-size="14.00">エリナ・ペンドルトン</text>
</g>
<!-- Dio&#45;&#45;Jonathan -->
<!-- GeorgeII -->
<g id="node7" class="node"><title>GeorgeII</title>
<polygon fill="lightblue" stroke="blue" points="515,-128.5 515,-174.5 725,-174.5 725,-128.5 515,-128.5"/>
<text text-anchor="middle" x="620" y="-159.3" font-family="Sans" font-size="14.00">George Joestar II</text>
<polyline fill="none" stroke="blue" points="515,-151.5 725,-151.5 "/>
<text text-anchor="start" x="523" y="-136.3" font-family="Sans" font-size="14.00">ジョージ・ジョースター 2世</text>
</g>
<!-- f3_p -->
<g id="node23" class="node"><title>f3_p</title>
<ellipse fill="black" stroke="black" cx="620" cy="-109.5" rx="0.36" ry="0.36"/>
</g>
<!-- GeorgeII&#45;&#45;f3_p -->
<g id="edge17" class="edge"><title>GeorgeII&#45;&#45;f3_p</title>
<path fill="none" stroke="black" stroke-width="2" d="M620,-128.044C620,-119.626 620,-111.742 620,-109.902"/>
</g>
<!-- LisaLisa -->
<g id="node8" class="node"><title>LisaLisa</title>
<polygon fill="pink" stroke="red" points="582,-44.5 582,-90.5 658,-90.5 658,-44.5 582,-44.5"/>
<text text-anchor="middle" x="620" y="-75.3" font-family="Sans" font-size="14.00">Lisa Lisa</text>
<polyline fill="none" stroke="red" points="582,-67.5 658,-67.5 "/>
<text text-anchor="start" x="590" y="-52.3" font-family="Sans" font-size="14.00">リサリサ</text>
</g>
<!-- Joseph -->
<g id="node9" class="node"><title>Joseph</title>
<polygon fill="lightblue" stroke="blue" points="761,-86.5 761,-132.5 942,-132.5 942,-86.5 761,-86.5"/>
<text text-anchor="middle" x="851.5" y="-117.3" font-family="Sans" font-size="14.00">Joseph Joestar</text>
<polyline fill="none" stroke="blue" points="761,-109.5 942,-109.5 "/>
<text text-anchor="start" x="769" y="-94.3" font-family="Sans" font-size="14.00">ジョセフ・ジョースター</text>
</g>
<!-- SuziQ -->
<g id="node10" class="node"><title>SuziQ</title>
<polygon fill="pink" stroke="red" points="800,-2.5 800,-48.5 903,-48.5 903,-2.5 800,-2.5"/>
<text text-anchor="middle" x="851.5" y="-33.3" font-family="Sans" font-size="14.00">Suzi Q</text>
<polyline fill="none" stroke="red" points="800,-25.5 903,-25.5 "/>
<text text-anchor="start" x="808" y="-10.3" font-family="Sans" font-size="14.00">スージー・Q</text>
</g>
<!-- Joseph&#45;&#45;SuziQ -->
<!-- f5_p -->
<g id="node26" class="node"><title>f5_p</title>
<ellipse fill="black" stroke="black" cx="851.5" cy="-67.5" rx="0.36" ry="0.36"/>
</g>
<!-- Joseph&#45;&#45;f5_p -->
<g id="edge24" class="edge"><title>Joseph&#45;&#45;f5_p</title>
<path fill="none" stroke="black" stroke-width="2" d="M852,-86.0441C852,-77.0247 852,-68.6182 852,-67.6026"/>
</g>
<!-- Tomoko -->
<g id="node11" class="node"><title>Tomoko</title>
<polygon fill="pink" stroke="red" points="773,-170.5 773,-216.5 930,-216.5 930,-170.5 773,-170.5"/>
<text text-anchor="middle" x="851.5" y="-201.3" font-family="Sans" font-size="14.00">Tomoko Higashikata</text>
<polyline fill="none" stroke="red" points="773,-193.5 930,-193.5 "/>
<text text-anchor="start" x="781" y="-178.3" font-family="Sans" font-size="14.00">東方 朋子</text>
</g>
<!-- Tomoko&#45;&#45;Joseph -->
<!-- f4_p -->
<g id="node24" class="node"><title>f4_p</title>
<ellipse fill="black" stroke="black" cx="851.5" cy="-151.5" rx="0.36" ry="0.36"/>
</g>
<!-- Tomoko&#45;&#45;f4_p -->
<g id="edge20" class="edge"><title>Tomoko&#45;&#45;f4_p</title>
<path fill="none" stroke="black" stroke-width="2" d="M852,-170.044C852,-161.025 852,-152.618 852,-151.603"/>
</g>
<!-- Sadao -->
<g id="node12" class="node"><title>Sadao</title>
<polygon fill="lightblue" stroke="blue" points="978,-107.5 978,-153.5 1071,-153.5 1071,-107.5 978,-107.5"/>
<text text-anchor="middle" x="1024.5" y="-138.3" font-family="Sans" font-size="14.00">Sadao Kujo</text>
<polyline fill="none" stroke="blue" points="978,-130.5 1071,-130.5 "/>
<text text-anchor="start" x="986" y="-115.3" font-family="Sans" font-size="14.00">空条 貞夫</text>
</g>
<!-- f6_p -->
<g id="node27" class="node"><title>f6_p</title>
<ellipse fill="black" stroke="black" cx="1024.5" cy="-88.5" rx="0.36" ry="0.36"/>
</g>
<!-- Sadao&#45;&#45;f6_p -->
<g id="edge27" class="edge"><title>Sadao&#45;&#45;f6_p</title>
<path fill="none" stroke="black" stroke-width="2" d="M1025,-107.044C1025,-98.0247 1025,-89.6182 1025,-88.6026"/>
</g>
<!-- Holy -->
<g id="node13" class="node"><title>Holy</title>
<polygon fill="pink" stroke="red" points="994,-23.5 994,-69.5 1055,-69.5 1055,-23.5 994,-23.5"/>
<text text-anchor="middle" x="1024.5" y="-54.3" font-family="Sans" font-size="14.00">Holy</text>
<polyline fill="none" stroke="red" points="994,-46.5 1055,-46.5 "/>
<text text-anchor="start" x="1002" y="-31.3" font-family="Sans" font-size="14.00">ホリィ</text>
</g>
<!-- Jotaro -->
<g id="node14" class="node"><title>Jotaro</title>
<polygon fill="lightblue" stroke="blue" points="1132.5,-74.5 1132.5,-120.5 1228.5,-120.5 1228.5,-74.5 1132.5,-74.5"/>
<text text-anchor="middle" x="1180.5" y="-105.3" font-family="Sans" font-size="14.00">Jotaro Kujo</text>
<polyline fill="none" stroke="blue" points="1132.5,-97.5 1228.5,-97.5 "/>
<text text-anchor="start" x="1140.5" y="-82.3" font-family="Sans" font-size="14.00">空条 承太郎</text>
</g>
<!-- f7_p -->
<g id="node28" class="node"><title>f7_p</title>
<ellipse fill="black" stroke="black" cx="1180.5" cy="-55.5" rx="0.36" ry="0.36"/>
</g>
<!-- Jotaro&#45;&#45;f7_p -->
<g id="edge30" class="edge"><title>Jotaro&#45;&#45;f7_p</title>
<path fill="none" stroke="black" stroke-width="2" d="M1181,-74.0441C1181,-65.0247 1181,-56.6182 1181,-55.6026"/>
</g>
<!-- JotaroWife -->
<g id="node15" class="node"><title>JotaroWife</title>
<polygon fill="pink" stroke="red" points="1153.5,-0.5 1153.5,-36.5 1207.5,-36.5 1207.5,-0.5 1153.5,-0.5"/>
<text text-anchor="middle" x="1180.5" y="-14.8" font-family="Sans" font-size="14.00">?</text>
</g>
<!-- Jolyne -->
<g id="node16" class="node"><title>Jolyne</title>
<polygon fill="pink" stroke="red" points="1290,-32.5 1290,-78.5 1393,-78.5 1393,-32.5 1290,-32.5"/>
<text text-anchor="middle" x="1341.5" y="-63.3" font-family="Sans" font-size="14.00">Jolyne Cujoh</text>
<polyline fill="none" stroke="red" points="1290,-55.5 1393,-55.5 "/>
<text text-anchor="start" x="1298" y="-40.3" font-family="Sans" font-size="14.00">空条 徐倫</text>
</g>
<!-- Josuke -->
<g id="node17" class="node"><title>Josuke</title>
<polygon fill="lightblue" stroke="blue" points="1107,-144.5 1107,-190.5 1254,-190.5 1254,-144.5 1107,-144.5"/>
<text text-anchor="middle" x="1180.5" y="-175.3" font-family="Sans" font-size="14.00">Josuke Higashikata</text>
<polyline fill="none" stroke="blue" points="1107,-167.5 1254,-167.5 "/>
<text text-anchor="start" x="1115" y="-152.3" font-family="Sans" font-size="14.00">東方 仗助</text>
</g>
<!-- Josuke&#45;&#45;Jotaro -->
<!-- f1_p&#45;&#45;Mary -->
<g id="edge8" class="edge"><title>f1_p&#45;&#45;Mary</title>
<path fill="none" stroke="black" stroke-width="2" d="M105,-204.028C105,-202.046 105,-194.099 105,-185.681"/>
</g>
<!-- f1_c1 -->
<g id="node20" class="node"><title>f1_c1</title>
<ellipse fill="black" stroke="black" cx="246.5" cy="-212.5" rx="0.36" ry="0.36"/>
</g>
<!-- f1_p&#45;&#45;f1_c1 -->
<g id="edge11" class="edge"><title>f1_p&#45;&#45;f1_c1</title>
<path fill="none" stroke="black" d="M105.494,-204.5C108.574,-204.5 125,-204.5 125,-204.5 125,-204.5 125,-212.5 125,-212.5 125,-212.5 235.376,-212.5 245.724,-212.5"/>
</g>
<!-- f1_c0 -->
<g id="node19" class="node"><title>f1_c0</title>
<ellipse fill="black" stroke="black" cx="246.5" cy="-244.5" rx="0.36" ry="0.36"/>
</g>
<!-- f1_c0&#45;&#45;Dio -->
<g id="edge12" class="edge"><title>f1_c0&#45;&#45;Dio</title>
<path fill="none" stroke="black" d="M246.886,-244.5C250.368,-244.5 276.907,-244.5 305.469,-244.5"/>
</g>
<!-- f1_c0&#45;&#45;f1_c1 -->
<g id="edge9" class="edge"><title>f1_c0&#45;&#45;f1_c1</title>
<path fill="none" stroke="black" d="M247,-244.408C247,-242.59 247,-214.349 247,-212.586"/>
</g>
<!-- f1_c2 -->
<g id="node21" class="node"><title>f1_c2</title>
<ellipse fill="black" stroke="black" cx="246.5" cy="-193.5" rx="0.36" ry="0.36"/>
</g>
<!-- f1_c1&#45;&#45;f1_c2 -->
<g id="edge10" class="edge"><title>f1_c1&#45;&#45;f1_c2</title>
<path fill="none" stroke="black" d="M247,-212.445C247,-211.366 247,-194.598 247,-193.551"/>
</g>
<!-- f1_c2&#45;&#45;Jonathan -->
<g id="edge13" class="edge"><title>f1_c2&#45;&#45;Jonathan</title>
<path fill="none" stroke="black" d="M246.886,-193.5C249.413,-193.5 264.081,-193.5 282.853,-193.5"/>
</g>
<!-- f2_p&#45;&#45;Erina -->
<g id="edge15" class="edge"><title>f2_p&#45;&#45;Erina</title>
<path fill="none" stroke="black" stroke-width="2" d="M381,-151.028C381,-149.046 381,-141.099 381,-132.681"/>
</g>
<!-- f2_p&#45;&#45;GeorgeII -->
<g id="edge16" class="edge"><title>f2_p&#45;&#45;GeorgeII</title>
<path fill="none" stroke="black" d="M381.388,-151.5C387.043,-151.5 453.56,-151.5 514.927,-151.5"/>
</g>
<!-- f3_p&#45;&#45;LisaLisa -->
<g id="edge18" class="edge"><title>f3_p&#45;&#45;LisaLisa</title>
<path fill="none" stroke="black" stroke-width="2" d="M620,-109.028C620,-107.046 620,-99.0994 620,-90.6806"/>
</g>
<!-- f3_p&#45;&#45;Joseph -->
<g id="edge19" class="edge"><title>f3_p&#45;&#45;Joseph</title>
<path fill="none" stroke="black" d="M620.664,-109.5C628.249,-109.5 699.387,-109.5 760.711,-109.5"/>
</g>
<!-- f4_p&#45;&#45;Joseph -->
<g id="edge21" class="edge"><title>f4_p&#45;&#45;Joseph</title>
<path fill="none" stroke="black" stroke-width="2" d="M852,-151.38C852,-150.282 852,-141.858 852,-132.849"/>
</g>
<!-- f4_c -->
<g id="node25" class="node"><title>f4_c</title>
<ellipse fill="black" stroke="black" cx="1024.5" cy="-172.5" rx="0.36" ry="0.36"/>
</g>
<!-- f4_p&#45;&#45;f4_c -->
<g id="edge22" class="edge"><title>f4_p&#45;&#45;f4_c</title>
<path fill="none" stroke="black" d="M852.04,-151.5C859.236,-151.5 936,-151.5 936,-151.5 936,-151.5 936,-172.5 936,-172.5 936,-172.5 1016.4,-172.5 1023.93,-172.5"/>
</g>
<!-- f4_c&#45;&#45;Josuke -->
<g id="edge23" class="edge"><title>f4_c&#45;&#45;Josuke</title>
<path fill="none" stroke="black" d="M1024.95,-172.5C1029.54,-172.5 1068.72,-172.5 1106.6,-172.5"/>
</g>
<!-- f5_p&#45;&#45;SuziQ -->
<g id="edge25" class="edge"><title>f5_p&#45;&#45;SuziQ</title>
<path fill="none" stroke="black" stroke-width="2" d="M852,-67.3795C852,-66.2825 852,-57.8577 852,-48.8489"/>
</g>
<!-- f5_p&#45;&#45;Holy -->
<g id="edge26" class="edge"><title>f5_p&#45;&#45;Holy</title>
<path fill="none" stroke="black" d="M851.996,-67.5C859.329,-67.5 946.151,-67.5 993.746,-67.5"/>
</g>
<!-- f6_p&#45;&#45;Holy -->
<g id="edge28" class="edge"><title>f6_p&#45;&#45;Holy</title>
<path fill="none" stroke="black" stroke-width="2" d="M1025,-88.3795C1025,-87.2825 1025,-78.8577 1025,-69.8489"/>
</g>
<!-- f6_p&#45;&#45;Jotaro -->
<g id="edge29" class="edge"><title>f6_p&#45;&#45;Jotaro</title>
<path fill="none" stroke="black" d="M1024.95,-88.5C1030.61,-88.5 1088.89,-88.5 1132.46,-88.5"/>
</g>
<!-- f7_p&#45;&#45;JotaroWife -->
<g id="edge31" class="edge"><title>f7_p&#45;&#45;JotaroWife</title>
<path fill="none" stroke="black" stroke-width="2" d="M1181,-55.3939C1181,-54.3257 1181,-45.3715 1181,-36.5529"/>
</g>
<!-- f7_p&#45;&#45;Jolyne -->
<g id="edge32" class="edge"><title>f7_p&#45;&#45;Jolyne</title>
<path fill="none" stroke="black" d="M1180.96,-55.5C1186.72,-55.5 1245.07,-55.5 1289.78,-55.5"/>
</g>
</g>
</svg>
