<?xml version="1.0" encoding="UTF-8" standalone="no"?>
<!DOCTYPE svg PUBLIC "-//W3C//DTD SVG 1.1//EN"
 "http://www.w3.org/Graphics/SVG/1.1/DTD/svg11.dtd">
<!-- Generated by graphviz version 2.38.0 (20140413.2041)
 -->
<!-- Title: Joestars Pages: 1 -->
<svg width="856pt" height="590pt"
 viewBox="0.00 0.00 856.00 590.00" xmlns="http://www.w3.org/2000/svg" xmlns:xlink="http://www.w3.org/1999/xlink">
<g id="graph0" class="graph" transform="scale(1 1) rotate(0) translate(4 586)">
<title>Joestars</title>
<polygon fill="white" stroke="none" points="-4,4 -4,-586 852,-586 852,4 -4,4"/>
<!-- GeorgeI -->
<g id="node1" class="node"><title>GeorgeI</title>
<polygon fill="lightblue" stroke="blue" points="169.5,-535.5 169.5,-581.5 379.5,-581.5 379.5,-535.5 169.5,-535.5"/>
<text text-anchor="middle" x="274.5" y="-566.3" font-family="Sans" font-size="14.00">George Joestar I</text>
<polyline fill="none" stroke="blue" points="169.5,-558.5 379.5,-558.5 "/>
<text text-anchor="start" x="177.5" y="-543.3" font-family="Sans" font-size="14.00">ジョージ・ジョースター 1世</text>
</g>
<!-- f1_p -->
<g id="node18" class="node"><title>f1_p</title>
<ellipse fill="black" stroke="black" cx="397.5" cy="-558.5" rx="0.36" ry="0.36"/>
</g>
<!-- GeorgeI&#45;&#45;f1_p -->
<g id="edge7" class="edge"><title>GeorgeI&#45;&#45;f1_p</title>
<path fill="none" stroke="black" stroke-width="2" d="M379.615,-558C389.727,-558 396.598,-558 397.418,-558"/>
</g>
<!-- Mary -->
<g id="node2" class="node"><title>Mary</title>
<polygon fill="pink" stroke="red" points="415.5,-535.5 415.5,-581.5 491.5,-581.5 491.5,-535.5 415.5,-535.5"/>
<text text-anchor="middle" x="453.5" y="-566.3" font-family="Sans" font-size="14.00">Mary</text>
<polyline fill="none" stroke="red" points="415.5,-558.5 491.5,-558.5 "/>
<text text-anchor="start" x="423.5" y="-543.3" font-family="Sans" font-size="14.00">メアリー</text>
</g>
<!-- Dario -->
<g id="node3" class="node"><title>Dario</title>
<polygon fill="lightblue" stroke="blue" points="0,-535.5 0,-581.5 151,-581.5 151,-535.5 0,-535.5"/>
<text text-anchor="middle" x="75.5" y="-566.3" font-family="Sans" font-size="14.00">Dario Brando</text>
<polyline fill="none" stroke="blue" points="0,-558.5 151,-558.5 "/>
<text text-anchor="start" x="8" y="-543.3" font-family="Sans" font-size="14.00">ダリオ・ブランドー</text>
</g>
<!-- Dario&#45;&#45;GeorgeI -->
<!-- Dio -->
<g id="node6" class="node"><title>Dio</title>
<polygon fill="lightblue" stroke="blue" points="111,-415.5 111,-461.5 262,-461.5 262,-415.5 111,-415.5"/>
<text text-anchor="middle" x="186.5" y="-446.3" font-family="Sans" font-size="14.00">Dio</text>
<polyline fill="none" stroke="blue" points="111,-438.5 262,-438.5 "/>
<text text-anchor="start" x="119" y="-423.3" font-family="Sans" font-size="14.00">ディオ・ブランドー</text>
</g>
<!-- Dario&#45;&#45;Dio -->
<g id="edge6" class="edge"><title>Dario&#45;&#45;Dio</title>
<path fill="none" stroke="black" d="M131,-535.363C131,-514.114 131,-482.793 131,-461.566"/>
</g>
<!-- Jonathan -->
<g id="node4" class="node"><title>Jonathan</title>
<polygon fill="lightblue" stroke="blue" points="280.5,-415.5 280.5,-461.5 476.5,-461.5 476.5,-415.5 280.5,-415.5"/>
<text text-anchor="middle" x="378.5" y="-446.3" font-family="Sans" font-size="14.00">Jonathan Joestar</text>
<polyline fill="none" stroke="blue" points="280.5,-438.5 476.5,-438.5 "/>
<text text-anchor="start" x="288.5" y="-423.3" font-family="Sans" font-size="14.00">ジョナサン・ジョースター</text>
</g>
<!-- f2_p -->
<g id="node22" class="node"><title>f2_p</title>
<ellipse fill="black" stroke="black" cx="494.5" cy="-438.5" rx="0.36" ry="0.36"/>
</g>
<!-- Jonathan&#45;&#45;f2_p -->
<g id="edge14" class="edge"><title>Jonathan&#45;&#45;f2_p</title>
<path fill="none" stroke="black" stroke-width="2" d="M476.629,-438C486.692,-438 493.594,-438 494.417,-438"/>
</g>
<!-- Erina -->
<g id="node5" class="node"><title>Erina</title>
<polygon fill="pink" stroke="red" points="512.5,-415.5 512.5,-461.5 678.5,-461.5 678.5,-415.5 512.5,-415.5"/>
<text text-anchor="middle" x="595.5" y="-446.3" font-family="Sans" font-size="14.00">Erina Pendleton</text>
<polyline fill="none" stroke="red" points="512.5,-438.5 678.5,-438.5 "/>
<text text-anchor="start" x="520.5" y="-423.3" font-family="Sans" font-size="14.00">エリナ・ペンドルトン</text>
</g>
<!-- Dio&#45;&#45;Jonathan -->
<!-- GeorgeII -->
<g id="node7" class="node"><title>GeorgeII</title>
<polygon fill="lightblue" stroke="blue" points="389.5,-332.5 389.5,-378.5 599.5,-378.5 599.5,-332.5 389.5,-332.5"/>
<text text-anchor="middle" x="494.5" y="-363.3" font-family="Sans" font-size="14.00">George Joestar II</text>
<polyline fill="none" stroke="blue" points="389.5,-355.5 599.5,-355.5 "/>
<text text-anchor="start" x="397.5" y="-340.3" font-family="Sans" font-size="14.00">ジョージ・ジョースター 2世</text>
</g>
<!-- f3_p -->
<g id="node23" class="node"><title>f3_p</title>
<ellipse fill="black" stroke="black" cx="617.5" cy="-355.5" rx="0.36" ry="0.36"/>
</g>
<!-- GeorgeII&#45;&#45;f3_p -->
<g id="edge17" class="edge"><title>GeorgeII&#45;&#45;f3_p</title>
<path fill="none" stroke="black" stroke-width="2" d="M599.615,-355C609.727,-355 616.598,-355 617.418,-355"/>
</g>
<!-- LisaLisa -->
<g id="node8" class="node"><title>LisaLisa</title>
<polygon fill="pink" stroke="red" points="635.5,-332.5 635.5,-378.5 711.5,-378.5 711.5,-332.5 635.5,-332.5"/>
<text text-anchor="middle" x="673.5" y="-363.3" font-family="Sans" font-size="14.00">Lisa Lisa</text>
<polyline fill="none" stroke="red" points="635.5,-355.5 711.5,-355.5 "/>
<text text-anchor="start" x="643.5" y="-340.3" font-family="Sans" font-size="14.00">リサリサ</text>
</g>
<!-- Joseph -->
<g id="node9" class="node"><title>Joseph</title>
<polygon fill="lightblue" stroke="blue" points="527,-249.5 527,-295.5 708,-295.5 708,-249.5 527,-249.5"/>
<text text-anchor="middle" x="617.5" y="-280.3" font-family="Sans" font-size="14.00">Joseph Joestar</text>
<polyline fill="none" stroke="blue" points="527,-272.5 708,-272.5 "/>
<text text-anchor="start" x="535" y="-257.3" font-family="Sans" font-size="14.00">ジョセフ・ジョースター</text>
</g>
<!-- SuziQ -->
<g id="node10" class="node"><title>SuziQ</title>
<polygon fill="pink" stroke="red" points="745,-249.5 745,-295.5 848,-295.5 848,-249.5 745,-249.5"/>
<text text-anchor="middle" x="796.5" y="-280.3" font-family="Sans" font-size="14.00">Suzi Q</text>
<polyline fill="none" stroke="red" points="745,-272.5 848,-272.5 "/>
<text text-anchor="start" x="753" y="-257.3" font-family="Sans" font-size="14.00">スージー・Q</text>
</g>
<!-- Joseph&#45;&#45;SuziQ -->
<!-- f5_p -->
<g id="node26" class="node"><title>f5_p</title>
<ellipse fill="black" stroke="black" cx="726.5" cy="-272.5" rx="0.36" ry="0.36"/>
</g>
<!-- Joseph&#45;&#45;f5_p -->
<g id="edge24" class="edge"><title>Joseph&#45;&#45;f5_p</title>
<path fill="none" stroke="black" stroke-width="2" d="M708.01,-272C718.345,-272 725.553,-272 726.413,-272"/>
</g>
<!-- Tomoko -->
<g id="node11" class="node"><title>Tomoko</title>
<polygon fill="pink" stroke="red" points="333,-249.5 333,-295.5 490,-295.5 490,-249.5 333,-249.5"/>
<text text-anchor="middle" x="411.5" y="-280.3" font-family="Sans" font-size="14.00">Tomoko Higashikata</text>
<polyline fill="none" stroke="red" points="333,-272.5 490,-272.5 "/>
<text text-anchor="start" x="341" y="-257.3" font-family="Sans" font-size="14.00">東方 朋子</text>
</g>
<!-- Tomoko&#45;&#45;Joseph -->
<!-- f4_p -->
<g id="node24" class="node"><title>f4_p</title>
<ellipse fill="black" stroke="black" cx="508.5" cy="-272.5" rx="0.36" ry="0.36"/>
</g>
<!-- Tomoko&#45;&#45;f4_p -->
<g id="edge20" class="edge"><title>Tomoko&#45;&#45;f4_p</title>
<path fill="none" stroke="black" stroke-width="2" d="M490.255,-272C500.365,-272 507.554,-272 508.414,-272"/>
</g>
<!-- Sadao -->
<g id="node12" class="node"><title>Sadao</title>
<polygon fill="lightblue" stroke="blue" points="558,-166.5 558,-212.5 651,-212.5 651,-166.5 558,-166.5"/>
<text text-anchor="middle" x="604.5" y="-197.3" font-family="Sans" font-size="14.00">Sadao Kujo</text>
<polyline fill="none" stroke="blue" points="558,-189.5 651,-189.5 "/>
<text text-anchor="start" x="566" y="-174.3" font-family="Sans" font-size="14.00">空条 貞夫</text>
</g>
<!-- f6_p -->
<g id="node27" class="node"><title>f6_p</title>
<ellipse fill="black" stroke="black" cx="669.5" cy="-189.5" rx="0.36" ry="0.36"/>
</g>
<!-- Sadao&#45;&#45;f6_p -->
<g id="edge27" class="edge"><title>Sadao&#45;&#45;f6_p</title>
<path fill="none" stroke="black" stroke-width="2" d="M651.047,-189C660.815,-189 668.486,-189 669.407,-189"/>
</g>
<!-- Holy -->
<g id="node13" class="node"><title>Holy</title>
<polygon fill="pink" stroke="red" points="695,-166.5 695,-212.5 756,-212.5 756,-166.5 695,-166.5"/>
<text text-anchor="middle" x="725.5" y="-197.3" font-family="Sans" font-size="14.00">Holy</text>
<polyline fill="none" stroke="red" points="695,-189.5 756,-189.5 "/>
<text text-anchor="start" x="703" y="-174.3" font-family="Sans" font-size="14.00">ホリィ</text>
</g>
<!-- Jotaro -->
<g id="node14" class="node"><title>Jotaro</title>
<polygon fill="lightblue" stroke="blue" points="617.5,-83.5 617.5,-129.5 713.5,-129.5 713.5,-83.5 617.5,-83.5"/>
<text text-anchor="middle" x="665.5" y="-114.3" font-family="Sans" font-size="14.00">Jotaro Kujo</text>
<polyline fill="none" stroke="blue" points="617.5,-106.5 713.5,-106.5 "/>
<text text-anchor="start" x="625.5" y="-91.3" font-family="Sans" font-size="14.00">空条 承太郎</text>
</g>
<!-- f7_p -->
<g id="node28" class="node"><title>f7_p</title>
<ellipse fill="black" stroke="black" cx="731.5" cy="-106.5" rx="0.36" ry="0.36"/>
</g>
<!-- Jotaro&#45;&#45;f7_p -->
<g id="edge30" class="edge"><title>Jotaro&#45;&#45;f7_p</title>
<path fill="none" stroke="black" stroke-width="2" d="M713.813,-106C723.248,-106 730.538,-106 731.412,-106"/>
</g>
<!-- JotaroWife -->
<g id="node15" class="node"><title>JotaroWife</title>
<polygon fill="pink" stroke="red" points="749.5,-88.5 749.5,-124.5 803.5,-124.5 803.5,-88.5 749.5,-88.5"/>
<text text-anchor="middle" x="776.5" y="-102.8" font-family="Sans" font-size="14.00">?</text>
</g>
<!-- Jolyne -->
<g id="node16" class="node"><title>Jolyne</title>
<polygon fill="pink" stroke="red" points="680,-0.5 680,-46.5 783,-46.5 783,-0.5 680,-0.5"/>
<text text-anchor="middle" x="731.5" y="-31.3" font-family="Sans" font-size="14.00">Jolyne Cujoh</text>
<polyline fill="none" stroke="red" points="680,-23.5 783,-23.5 "/>
<text text-anchor="start" x="688" y="-8.3" font-family="Sans" font-size="14.00">空条 徐倫</text>
</g>
<!-- Josuke -->
<g id="node17" class="node"><title>Josuke</title>
<polygon fill="lightblue" stroke="blue" points="451,-83.5 451,-129.5 598,-129.5 598,-83.5 451,-83.5"/>
<text text-anchor="middle" x="524.5" y="-114.3" font-family="Sans" font-size="14.00">Josuke Higashikata</text>
<polyline fill="none" stroke="blue" points="451,-106.5 598,-106.5 "/>
<text text-anchor="start" x="459" y="-91.3" font-family="Sans" font-size="14.00">東方 仗助</text>
</g>
<!-- Josuke&#45;&#45;Jotaro -->
<!-- f1_p&#45;&#45;Mary -->
<g id="edge8" class="edge"><title>f1_p&#45;&#45;Mary</title>
<path fill="none" stroke="black" stroke-width="2" d="M397.661,-558C398.828,-558 406.222,-558 415.267,-558"/>
</g>
<!-- f1_c1 -->
<g id="node20" class="node"><title>f1_c1</title>
<ellipse fill="black" stroke="black" cx="359.5" cy="-498.5" rx="0.36" ry="0.36"/>
</g>
<!-- f1_p&#45;&#45;f1_c1 -->
<g id="edge11" class="edge"><title>f1_p&#45;&#45;f1_c1</title>
<path fill="none" stroke="black" d="M397.5,-558.034C397.5,-553.475 397.5,-517 397.5,-517 397.5,-517 359.5,-517 359.5,-517 359.5,-517 359.5,-501.806 359.5,-498.957"/>
</g>
<!-- f1_c0 -->
<g id="node19" class="node"><title>f1_c0</title>
<ellipse fill="black" stroke="black" cx="263.5" cy="-498.5" rx="0.36" ry="0.36"/>
</g>
<!-- f1_c0&#45;&#45;Dio -->
<g id="edge12" class="edge"><title>f1_c0&#45;&#45;Dio</title>
<path fill="none" stroke="black" d="M263.5,-497.91C263.5,-492.143 263.5,-446 263.5,-446 263.5,-446 263.03,-446 262.164,-446"/>
</g>
<!-- f1_c0&#45;&#45;f1_c1 -->
<g id="edge9" class="edge"><title>f1_c0&#45;&#45;f1_c1</title>
<path fill="none" stroke="black" d="M263.57,-498C266.431,-498 356.615,-498 359.433,-498"/>
</g>
<!-- f1_c2 -->
<g id="node21" class="node"><title>f1_c2</title>
<ellipse fill="black" stroke="black" cx="378.5" cy="-498.5" rx="0.36" ry="0.36"/>
</g>
<!-- f1_c1&#45;&#45;f1_c2 -->
<g id="edge10" class="edge"><title>f1_c1&#45;&#45;f1_c2</title>
<path fill="none" stroke="black" d="M359.555,-498C360.634,-498 377.402,-498 378.449,-498"/>
</g>
<!-- f1_c2&#45;&#45;Jonathan -->
<g id="edge13" class="edge"><title>f1_c2&#45;&#45;Jonathan</title>
<path fill="none" stroke="black" d="M378.5,-498.117C378.5,-495.282 378.5,-477.25 378.5,-461.751"/>
</g>
<!-- f2_p&#45;&#45;Erina -->
<g id="edge15" class="edge"><title>f2_p&#45;&#45;Erina</title>
<path fill="none" stroke="black" stroke-width="2" d="M494.573,-438C495.35,-438 502.239,-438 512.086,-438"/>
</g>
<!-- f2_p&#45;&#45;GeorgeII -->
<g id="edge16" class="edge"><title>f2_p&#45;&#45;GeorgeII</title>
<path fill="none" stroke="black" d="M494.5,-437.97C494.5,-433.497 494.5,-401.66 494.5,-378.882"/>
</g>
<!-- f3_p&#45;&#45;LisaLisa -->
<g id="edge18" class="edge"><title>f3_p&#45;&#45;LisaLisa</title>
<path fill="none" stroke="black" stroke-width="2" d="M617.661,-355C618.828,-355 626.222,-355 635.267,-355"/>
</g>
<!-- f3_p&#45;&#45;Joseph -->
<g id="edge19" class="edge"><title>f3_p&#45;&#45;Joseph</title>
<path fill="none" stroke="black" d="M617.5,-354.97C617.5,-350.497 617.5,-318.66 617.5,-295.882"/>
</g>
<!-- f4_p&#45;&#45;Joseph -->
<g id="edge21" class="edge"><title>f4_p&#45;&#45;Joseph</title>
<path fill="none" stroke="black" stroke-width="2" d="M508.579,-272C509.404,-272 516.624,-272 526.99,-272"/>
</g>
<!-- f4_c -->
<g id="node25" class="node"><title>f4_c</title>
<ellipse fill="black" stroke="black" cx="522.5" cy="-189.5" rx="0.36" ry="0.36"/>
</g>
<!-- f4_p&#45;&#45;f4_c -->
<g id="edge22" class="edge"><title>f4_p&#45;&#45;f4_c</title>
<path fill="none" stroke="black" d="M508.5,-271.967C508.5,-264.855 508.5,-189 508.5,-189 508.5,-189 520.805,-189 522.343,-189"/>
</g>
<!-- f4_c&#45;&#45;Josuke -->
<g id="edge23" class="edge"><title>f4_c&#45;&#45;Josuke</title>
<path fill="none" stroke="black" d="M522.5,-188.97C522.5,-184.497 522.5,-152.66 522.5,-129.882"/>
</g>
<!-- f5_p&#45;&#45;SuziQ -->
<g id="edge25" class="edge"><title>f5_p&#45;&#45;SuziQ</title>
<path fill="none" stroke="black" stroke-width="2" d="M726.551,-272C727.238,-272 734.832,-272 744.783,-272"/>
</g>
<!-- f5_p&#45;&#45;Holy -->
<g id="edge26" class="edge"><title>f5_p&#45;&#45;Holy</title>
<path fill="none" stroke="black" d="M726.5,-271.97C726.5,-267.497 726.5,-235.66 726.5,-212.882"/>
</g>
<!-- f6_p&#45;&#45;Holy -->
<g id="edge28" class="edge"><title>f6_p&#45;&#45;Holy</title>
<path fill="none" stroke="black" stroke-width="2" d="M669.661,-189C671.136,-189 682.554,-189 694.684,-189"/>
</g>
<!-- f6_p&#45;&#45;Jotaro -->
<g id="edge29" class="edge"><title>f6_p&#45;&#45;Jotaro</title>
<path fill="none" stroke="black" d="M669.5,-188.97C669.5,-184.497 669.5,-152.66 669.5,-129.882"/>
</g>
<!-- f7_p&#45;&#45;JotaroWife -->
<g id="edge31" class="edge"><title>f7_p&#45;&#45;JotaroWife</title>
<path fill="none" stroke="black" stroke-width="2" d="M731.629,-106C732.722,-106 740.603,-106 749.463,-106"/>
</g>
<!-- f7_p&#45;&#45;Jolyne -->
<g id="edge32" class="edge"><title>f7_p&#45;&#45;Jolyne</title>
<path fill="none" stroke="black" d="M731.5,-105.97C731.5,-101.497 731.5,-69.6597 731.5,-46.8825"/>
</g>
</g>
</svg>
