<?xml version="1.0" encoding="UTF-8" standalone="no"?>
<!DOCTYPE svg PUBLIC "-//W3C//DTD SVG 1.1//EN"
 "http://www.w3.org/Graphics/SVG/1.1/DTD/svg11.dtd">
<!-- Generated by graphviz version 2.38.0 (20140413.2041)
 -->
<!-- Title: Joestars Pages: 1 -->
<svg width="826pt" height="774pt"
 viewBox="0.00 0.00 826.00 773.88" xmlns="http://www.w3.org/2000/svg" xmlns:xlink="http://www.w3.org/1999/xlink">
<g id="graph0" class="graph" transform="scale(1 1) rotate(0) translate(4 769.88)">
<title>Joestars</title>
<polygon fill="white" stroke="none" points="-4,4 -4,-769.88 822,-769.88 822,4 -4,4"/>
<!-- GeorgeI -->
<g id="node1" class="node"><title>GeorgeI</title>
<polygon fill="lightblue" stroke="blue" points="163,-719.38 163,-765.38 364,-765.38 364,-719.38 163,-719.38"/>
<text text-anchor="middle" x="263.5" y="-750.18" font-family="Sans" font-size="14.00">George Joestar I</text>
<polyline fill="none" stroke="blue" points="163,-742.38 364,-742.38 "/>
<text text-anchor="start" x="171" y="-727.18" font-family="Sans" font-size="14.00">ジョージ・ジョースター 1世</text>
</g>
<!-- f1_p -->
<g id="node19" class="node"><title>f1_p</title>
<ellipse fill="black" stroke="black" cx="382.5" cy="-742.38" rx="0.36" ry="0.36"/>
</g>
<!-- GeorgeI&#45;&#45;f1_p -->
<g id="edge8" class="edge"><title>GeorgeI&#45;&#45;f1_p</title>
<path fill="none" stroke="black" stroke-width="2" d="M364.167,-742C374.49,-742 381.57,-742 382.415,-742"/>
</g>
<!-- Mary -->
<g id="node2" class="node"><title>Mary</title>
<polygon fill="pink" stroke="red" points="401,-719.38 401,-765.38 474,-765.38 474,-719.38 401,-719.38"/>
<text text-anchor="middle" x="437.5" y="-750.18" font-family="Sans" font-size="14.00">Mary</text>
<polyline fill="none" stroke="red" points="401,-742.38 474,-742.38 "/>
<text text-anchor="start" x="409" y="-727.18" font-family="Sans" font-size="14.00">メアリー</text>
</g>
<!-- Dario -->
<g id="node3" class="node"><title>Dario</title>
<polygon fill="lightblue" stroke="blue" points="0,-719.38 0,-765.38 145,-765.38 145,-719.38 0,-719.38"/>
<text text-anchor="middle" x="72.5" y="-750.18" font-family="Sans" font-size="14.00">Dario Brando</text>
<polyline fill="none" stroke="blue" points="0,-742.38 145,-742.38 "/>
<text text-anchor="start" x="8" y="-727.18" font-family="Sans" font-size="14.00">ダリオ・ブランドー</text>
</g>
<!-- Dario&#45;&#45;GeorgeI -->
<!-- f0_c -->
<g id="node18" class="node"><title>f0_c</title>
<ellipse fill="black" stroke="black" cx="108.5" cy="-682.52" rx="0.36" ry="0.36"/>
</g>
<!-- Dario&#45;&#45;f0_c -->
<g id="edge6" class="edge"><title>Dario&#45;&#45;f0_c</title>
<path fill="none" stroke="black" d="M108.5,-719.065C108.5,-703.833 108.5,-686.195 108.5,-683.022"/>
</g>
<!-- Jonathan -->
<g id="node4" class="node"><title>Jonathan</title>
<polygon fill="lightblue" stroke="blue" points="271,-599.66 271,-645.66 458,-645.66 458,-599.66 271,-599.66"/>
<text text-anchor="middle" x="364.5" y="-630.46" font-family="Sans" font-size="14.00">Jonathan Joestar</text>
<polyline fill="none" stroke="blue" points="271,-622.66 458,-622.66 "/>
<text text-anchor="start" x="279" y="-607.46" font-family="Sans" font-size="14.00">ジョナサン・ジョースター</text>
</g>
<!-- f2_p -->
<g id="node23" class="node"><title>f2_p</title>
<ellipse fill="black" stroke="black" cx="476.5" cy="-622.66" rx="0.36" ry="0.36"/>
</g>
<!-- Jonathan&#45;&#45;f2_p -->
<g id="edge15" class="edge"><title>Jonathan&#45;&#45;f2_p</title>
<path fill="none" stroke="black" stroke-width="2" d="M458.005,-622C468.365,-622 475.555,-622 476.414,-622"/>
</g>
<!-- Erina -->
<g id="node5" class="node"><title>Erina</title>
<polygon fill="pink" stroke="red" points="495,-599.66 495,-645.66 654,-645.66 654,-599.66 495,-599.66"/>
<text text-anchor="middle" x="574.5" y="-630.46" font-family="Sans" font-size="14.00">Erina Pendleton</text>
<polyline fill="none" stroke="red" points="495,-622.66 654,-622.66 "/>
<text text-anchor="start" x="503" y="-607.46" font-family="Sans" font-size="14.00">エリナ・ペンドルトン</text>
</g>
<!-- Dio -->
<g id="node6" class="node"><title>Dio</title>
<polygon fill="lightblue" stroke="blue" points="108,-599.66 108,-645.66 253,-645.66 253,-599.66 108,-599.66"/>
<text text-anchor="middle" x="180.5" y="-630.46" font-family="Sans" font-size="14.00">Dio</text>
<polyline fill="none" stroke="blue" points="108,-622.66 253,-622.66 "/>
<text text-anchor="start" x="116" y="-607.46" font-family="Sans" font-size="14.00">ディオ・ブランドー</text>
</g>
<!-- Dio&#45;&#45;Jonathan -->
<!-- GeorgeII -->
<g id="node7" class="node"><title>GeorgeII</title>
<polygon fill="lightblue" stroke="blue" points="376,-479.94 376,-525.94 577,-525.94 577,-479.94 376,-479.94"/>
<text text-anchor="middle" x="476.5" y="-510.74" font-family="Sans" font-size="14.00">George Joestar II</text>
<polyline fill="none" stroke="blue" points="376,-502.94 577,-502.94 "/>
<text text-anchor="start" x="384" y="-487.74" font-family="Sans" font-size="14.00">ジョージ・ジョースター 2世</text>
</g>
<!-- f3_p -->
<g id="node25" class="node"><title>f3_p</title>
<ellipse fill="black" stroke="black" cx="595.5" cy="-502.94" rx="0.36" ry="0.36"/>
</g>
<!-- GeorgeII&#45;&#45;f3_p -->
<g id="edge19" class="edge"><title>GeorgeII&#45;&#45;f3_p</title>
<path fill="none" stroke="black" stroke-width="2" d="M577.167,-502C587.49,-502 594.57,-502 595.415,-502"/>
</g>
<!-- LisaLisa -->
<g id="node8" class="node"><title>LisaLisa</title>
<polygon fill="pink" stroke="red" points="614,-479.94 614,-525.94 689,-525.94 689,-479.94 614,-479.94"/>
<text text-anchor="middle" x="651.5" y="-510.74" font-family="Sans" font-size="14.00">Lisa Lisa</text>
<polyline fill="none" stroke="red" points="614,-502.94 689,-502.94 "/>
<text text-anchor="start" x="622" y="-487.74" font-family="Sans" font-size="14.00">リサリサ</text>
</g>
<!-- Joseph -->
<g id="node9" class="node"><title>Joseph</title>
<polygon fill="lightblue" stroke="blue" points="509,-360.22 509,-406.22 682,-406.22 682,-360.22 509,-360.22"/>
<text text-anchor="middle" x="595.5" y="-391.02" font-family="Sans" font-size="14.00">Joseph Joestar</text>
<polyline fill="none" stroke="blue" points="509,-383.22 682,-383.22 "/>
<text text-anchor="start" x="517" y="-368.02" font-family="Sans" font-size="14.00">ジョセフ・ジョースター</text>
</g>
<!-- SuziQ -->
<g id="node10" class="node"><title>SuziQ</title>
<polygon fill="pink" stroke="red" points="719,-360.22 719,-406.22 818,-406.22 818,-360.22 719,-360.22"/>
<text text-anchor="middle" x="768.5" y="-391.02" font-family="Sans" font-size="14.00">Suzi Q</text>
<polyline fill="none" stroke="red" points="719,-383.22 818,-383.22 "/>
<text text-anchor="start" x="727" y="-368.02" font-family="Sans" font-size="14.00">スージー・Q</text>
</g>
<!-- Joseph&#45;&#45;SuziQ -->
<!-- f5_p -->
<g id="node29" class="node"><title>f5_p</title>
<ellipse fill="black" stroke="black" cx="700.5" cy="-383.22" rx="0.36" ry="0.36"/>
</g>
<!-- Joseph&#45;&#45;f5_p -->
<g id="edge27" class="edge"><title>Joseph&#45;&#45;f5_p</title>
<path fill="none" stroke="black" stroke-width="2" d="M682.21,-383C691.731,-383 698.594,-383 700.16,-383"/>
</g>
<!-- Tomoko -->
<g id="node11" class="node"><title>Tomoko</title>
<polygon fill="pink" stroke="red" points="315,-360.22 315,-406.22 472,-406.22 472,-360.22 315,-360.22"/>
<text text-anchor="middle" x="393.5" y="-391.02" font-family="Sans" font-size="14.00">Tomoko Higashikata</text>
<polyline fill="none" stroke="red" points="315,-383.22 472,-383.22 "/>
<text text-anchor="start" x="323" y="-368.02" font-family="Sans" font-size="14.00">東方 朋子</text>
</g>
<!-- Tomoko&#45;&#45;Joseph -->
<!-- f4_p -->
<g id="node27" class="node"><title>f4_p</title>
<ellipse fill="black" stroke="black" cx="490.5" cy="-383.22" rx="0.36" ry="0.36"/>
</g>
<!-- Tomoko&#45;&#45;f4_p -->
<g id="edge23" class="edge"><title>Tomoko&#45;&#45;f4_p</title>
<path fill="none" stroke="black" stroke-width="2" d="M472.255,-383C481.691,-383 488.583,-383 490.158,-383"/>
</g>
<!-- Sadao -->
<g id="node12" class="node"><title>Sadao</title>
<polygon fill="lightblue" stroke="blue" points="533,-240.22 533,-286.22 626,-286.22 626,-240.22 533,-240.22"/>
<text text-anchor="middle" x="579.5" y="-271.02" font-family="Sans" font-size="14.00">Sadao Kujo</text>
<polyline fill="none" stroke="blue" points="533,-263.22 626,-263.22 "/>
<text text-anchor="start" x="541" y="-248.02" font-family="Sans" font-size="14.00">空条 貞夫</text>
</g>
<!-- f6_p -->
<g id="node31" class="node"><title>f6_p</title>
<ellipse fill="black" stroke="black" cx="644.5" cy="-263.22" rx="0.36" ry="0.36"/>
</g>
<!-- Sadao&#45;&#45;f6_p -->
<g id="edge31" class="edge"><title>Sadao&#45;&#45;f6_p</title>
<path fill="none" stroke="black" stroke-width="2" d="M626.047,-263C635.164,-263 642.454,-263 644.134,-263"/>
</g>
<!-- Holy -->
<g id="node13" class="node"><title>Holy</title>
<polygon fill="pink" stroke="red" points="664,-240.22 664,-286.22 723,-286.22 723,-240.22 664,-240.22"/>
<text text-anchor="middle" x="693.5" y="-271.02" font-family="Sans" font-size="14.00">Holy</text>
<polyline fill="none" stroke="red" points="664,-263.22 723,-263.22 "/>
<text text-anchor="start" x="672" y="-248.02" font-family="Sans" font-size="14.00">ホリィ</text>
</g>
<!-- Jotaro -->
<g id="node14" class="node"><title>Jotaro</title>
<polygon fill="lightblue" stroke="blue" points="598.5,-120.22 598.5,-166.22 690.5,-166.22 690.5,-120.22 598.5,-120.22"/>
<text text-anchor="middle" x="644.5" y="-151.02" font-family="Sans" font-size="14.00">Jotaro Kujo</text>
<polyline fill="none" stroke="blue" points="598.5,-143.22 690.5,-143.22 "/>
<text text-anchor="start" x="606.5" y="-128.02" font-family="Sans" font-size="14.00">空条 承太郎</text>
</g>
<!-- f7_p -->
<g id="node33" class="node"><title>f7_p</title>
<ellipse fill="black" stroke="black" cx="708.5" cy="-143.22" rx="0.36" ry="0.36"/>
</g>
<!-- Jotaro&#45;&#45;f7_p -->
<g id="edge35" class="edge"><title>Jotaro&#45;&#45;f7_p</title>
<path fill="none" stroke="black" stroke-width="2" d="M690.672,-143C699.503,-143 706.529,-143 708.148,-143"/>
</g>
<!-- JotaroWife -->
<g id="node15" class="node"><title>JotaroWife</title>
<polygon fill="pink" stroke="red" points="726.5,-125.22 726.5,-161.22 780.5,-161.22 780.5,-125.22 726.5,-125.22"/>
<text text-anchor="middle" x="753.5" y="-139.52" font-family="Sans" font-size="14.00">?</text>
</g>
<!-- Jolyne -->
<g id="node16" class="node"><title>Jolyne</title>
<polygon fill="pink" stroke="red" points="657,-0.5 657,-46.5 760,-46.5 760,-0.5 657,-0.5"/>
<text text-anchor="middle" x="708.5" y="-31.3" font-family="Sans" font-size="14.00">Jolyne Cujoh</text>
<polyline fill="none" stroke="red" points="657,-23.5 760,-23.5 "/>
<text text-anchor="start" x="665" y="-8.3" font-family="Sans" font-size="14.00">空条 徐倫</text>
</g>
<!-- Josuke -->
<g id="node17" class="node"><title>Josuke</title>
<polygon fill="lightblue" stroke="blue" points="433,-120.22 433,-166.22 580,-166.22 580,-120.22 433,-120.22"/>
<text text-anchor="middle" x="506.5" y="-151.02" font-family="Sans" font-size="14.00">Josuke Higashikata</text>
<polyline fill="none" stroke="blue" points="433,-143.22 580,-143.22 "/>
<text text-anchor="start" x="441" y="-128.02" font-family="Sans" font-size="14.00">東方 仗助</text>
</g>
<!-- Josuke&#45;&#45;Jotaro -->
<!-- f0_c&#45;&#45;Dio -->
<g id="edge7" class="edge"><title>f0_c&#45;&#45;Dio</title>
<path fill="none" stroke="black" d="M108.75,-682.138C108.75,-679.31 108.75,-661.319 108.75,-645.857"/>
</g>
<!-- f1_p&#45;&#45;Mary -->
<g id="edge9" class="edge"><title>f1_p&#45;&#45;Mary</title>
<path fill="none" stroke="black" stroke-width="2" d="M382.658,-742C383.842,-742 391.551,-742 400.833,-742"/>
</g>
<!-- f1_c1 -->
<g id="node21" class="node"><title>f1_c1</title>
<ellipse fill="black" stroke="black" cx="345.5" cy="-682.52" rx="0.36" ry="0.36"/>
</g>
<!-- f1_p&#45;&#45;f1_c1 -->
<g id="edge12" class="edge"><title>f1_p&#45;&#45;f1_c1</title>
<path fill="none" stroke="black" d="M382.5,-741.915C382.5,-737.369 382.5,-701 382.5,-701 382.5,-701 345.5,-701 345.5,-701 345.5,-701 345.5,-685.823 345.5,-682.977"/>
</g>
<!-- f1_c0 -->
<g id="node20" class="node"><title>f1_c0</title>
<ellipse fill="black" stroke="black" cx="253.5" cy="-682.52" rx="0.36" ry="0.36"/>
</g>
<!-- f1_c0&#45;&#45;Dio -->
<g id="edge13" class="edge"><title>f1_c0&#45;&#45;Dio</title>
<path fill="none" stroke="black" d="M252.75,-682.477C252.75,-681.443 252.75,-662.132 252.75,-645.729"/>
</g>
<!-- f1_c0&#45;&#45;f1_c1 -->
<g id="edge10" class="edge"><title>f1_c0&#45;&#45;f1_c1</title>
<path fill="none" stroke="black" d="M253.567,-682C256.309,-682 342.735,-682 345.435,-682"/>
</g>
<!-- f1_c2 -->
<g id="node22" class="node"><title>f1_c2</title>
<ellipse fill="black" stroke="black" cx="364.5" cy="-682.52" rx="0.36" ry="0.36"/>
</g>
<!-- f1_c1&#45;&#45;f1_c2 -->
<g id="edge11" class="edge"><title>f1_c1&#45;&#45;f1_c2</title>
<path fill="none" stroke="black" d="M345.555,-682C346.634,-682 363.402,-682 364.449,-682"/>
</g>
<!-- f1_c2&#45;&#45;Jonathan -->
<g id="edge14" class="edge"><title>f1_c2&#45;&#45;Jonathan</title>
<path fill="none" stroke="black" d="M364.5,-682.138C364.5,-679.31 364.5,-661.319 364.5,-645.857"/>
</g>
<!-- f2_p&#45;&#45;Erina -->
<g id="edge16" class="edge"><title>f2_p&#45;&#45;Erina</title>
<path fill="none" stroke="black" stroke-width="2" d="M476.571,-622C477.359,-622 484.638,-622 494.904,-622"/>
</g>
<!-- f2_c -->
<g id="node24" class="node"><title>f2_c</title>
<ellipse fill="black" stroke="black" cx="476.5" cy="-562.8" rx="0.36" ry="0.36"/>
</g>
<!-- f2_p&#45;&#45;f2_c -->
<g id="edge17" class="edge"><title>f2_p&#45;&#45;f2_c</title>
<path fill="none" stroke="black" d="M476.5,-622.278C476.5,-617.498 476.5,-569.405 476.5,-563.412"/>
</g>
<!-- f2_c&#45;&#45;GeorgeII -->
<g id="edge18" class="edge"><title>f2_c&#45;&#45;GeorgeII</title>
<path fill="none" stroke="black" d="M476.5,-562.418C476.5,-559.59 476.5,-541.599 476.5,-526.137"/>
</g>
<!-- f3_p&#45;&#45;LisaLisa -->
<g id="edge20" class="edge"><title>f3_p&#45;&#45;LisaLisa</title>
<path fill="none" stroke="black" stroke-width="2" d="M595.661,-502C596.854,-502 604.549,-502 613.866,-502"/>
</g>
<!-- f3_c -->
<g id="node26" class="node"><title>f3_c</title>
<ellipse fill="black" stroke="black" cx="595.5" cy="-443.08" rx="0.36" ry="0.36"/>
</g>
<!-- f3_p&#45;&#45;f3_c -->
<g id="edge21" class="edge"><title>f3_p&#45;&#45;f3_c</title>
<path fill="none" stroke="black" d="M595.5,-502.558C595.5,-497.778 595.5,-449.685 595.5,-443.692"/>
</g>
<!-- f3_c&#45;&#45;Joseph -->
<g id="edge22" class="edge"><title>f3_c&#45;&#45;Joseph</title>
<path fill="none" stroke="black" d="M595.5,-442.698C595.5,-439.87 595.5,-421.879 595.5,-406.417"/>
</g>
<!-- f4_p&#45;&#45;Joseph -->
<g id="edge24" class="edge"><title>f4_p&#45;&#45;Joseph</title>
<path fill="none" stroke="black" stroke-width="2" d="M490.801,-383C492.293,-383 499.203,-383 508.82,-383"/>
</g>
<!-- f4_c -->
<g id="node28" class="node"><title>f4_c</title>
<ellipse fill="black" stroke="black" cx="505.5" cy="-263.22" rx="0.36" ry="0.36"/>
</g>
<!-- f4_p&#45;&#45;f4_c -->
<g id="edge25" class="edge"><title>f4_p&#45;&#45;f4_c</title>
<path fill="none" stroke="black" d="M490.5,-382.452C490.5,-372.214 490.5,-263 490.5,-263 490.5,-263 501.984,-263 504.855,-263"/>
</g>
<!-- f4_c&#45;&#45;Josuke -->
<g id="edge26" class="edge"><title>f4_c&#45;&#45;Josuke</title>
<path fill="none" stroke="black" d="M505.5,-262.454C505.5,-255.248 505.5,-198.928 505.5,-166.335"/>
</g>
<!-- f5_p&#45;&#45;SuziQ -->
<g id="edge28" class="edge"><title>f5_p&#45;&#45;SuziQ</title>
<path fill="none" stroke="black" stroke-width="2" d="M700.934,-383C702.721,-383 709.84,-383 718.829,-383"/>
</g>
<!-- f5_c -->
<g id="node30" class="node"><title>f5_c</title>
<ellipse fill="black" stroke="black" cx="699.5" cy="-323.22" rx="0.36" ry="0.36"/>
</g>
<!-- f5_p&#45;&#45;f5_c -->
<g id="edge29" class="edge"><title>f5_p&#45;&#45;f5_c</title>
<path fill="none" stroke="black" d="M700,-383.177C700,-381.416 700,-326.799 700,-323.387"/>
</g>
<!-- f5_c&#45;&#45;Holy -->
<g id="edge30" class="edge"><title>f5_c&#45;&#45;Holy</title>
<path fill="none" stroke="black" d="M699.5,-322.837C699.5,-320.002 699.5,-301.97 699.5,-286.471"/>
</g>
<!-- f6_p&#45;&#45;Holy -->
<g id="edge32" class="edge"><title>f6_p&#45;&#45;Holy</title>
<path fill="none" stroke="black" stroke-width="2" d="M645.05,-263C647.153,-263 655.006,-263 663.796,-263"/>
</g>
<!-- f6_c -->
<g id="node32" class="node"><title>f6_c</title>
<ellipse fill="black" stroke="black" cx="644.5" cy="-203.22" rx="0.36" ry="0.36"/>
</g>
<!-- f6_p&#45;&#45;f6_c -->
<g id="edge33" class="edge"><title>f6_p&#45;&#45;f6_c</title>
<path fill="none" stroke="black" d="M644.5,-262.837C644.5,-258.046 644.5,-209.84 644.5,-203.833"/>
</g>
<!-- f6_c&#45;&#45;Jotaro -->
<g id="edge34" class="edge"><title>f6_c&#45;&#45;Jotaro</title>
<path fill="none" stroke="black" d="M644.5,-202.837C644.5,-200.002 644.5,-181.97 644.5,-166.471"/>
</g>
<!-- f7_p&#45;&#45;JotaroWife -->
<g id="edge36" class="edge"><title>f7_p&#45;&#45;JotaroWife</title>
<path fill="none" stroke="black" stroke-width="2" d="M709.005,-143C710.937,-143 718.148,-143 726.221,-143"/>
</g>
<!-- f7_c -->
<g id="node34" class="node"><title>f7_c</title>
<ellipse fill="black" stroke="black" cx="708.5" cy="-83.36" rx="0.36" ry="0.36"/>
</g>
<!-- f7_p&#45;&#45;f7_c -->
<g id="edge37" class="edge"><title>f7_p&#45;&#45;f7_c</title>
<path fill="none" stroke="black" d="M708.5,-142.838C708.5,-138.058 708.5,-89.965 708.5,-83.972"/>
</g>
<!-- f7_c&#45;&#45;Jolyne -->
<g id="edge38" class="edge"><title>f7_c&#45;&#45;Jolyne</title>
<path fill="none" stroke="black" d="M708.5,-82.9777C708.5,-80.1499 708.5,-62.1592 708.5,-46.697"/>
</g>
</g>
</svg>
