<?xml version="1.0" encoding="UTF-8" standalone="no"?>
<!DOCTYPE svg PUBLIC "-//W3C//DTD SVG 1.1//EN"
 "http://www.w3.org/Graphics/SVG/1.1/DTD/svg11.dtd">
<!-- Generated by graphviz version 2.38.0 (20140413.2041)
 -->
<!-- Title: Joestars Pages: 1 -->
<svg width="1550pt" height="339pt"
 viewBox="0.00 0.00 1549.88 339.00" xmlns="http://www.w3.org/2000/svg" xmlns:xlink="http://www.w3.org/1999/xlink">
<g id="graph0" class="graph" transform="scale(1 1) rotate(0) translate(4 335)">
<title>Joestars</title>
<polygon fill="white" stroke="none" points="-4,4 -4,-335 1545.88,-335 1545.88,4 -4,4"/>
<!-- GeorgeI -->
<g id="node1" class="node"><title>GeorgeI</title>
<polygon fill="lightblue" stroke="blue" points="0,-219.5 0,-265.5 201,-265.5 201,-219.5 0,-219.5"/>
<text text-anchor="middle" x="100.5" y="-250.3" font-family="Sans" font-size="14.00">George Joestar I</text>
<polyline fill="none" stroke="blue" points="0,-242.5 201,-242.5 "/>
<text text-anchor="start" x="8" y="-227.3" font-family="Sans" font-size="14.00">ジョージ・ジョースター 1世</text>
</g>
<!-- f1_p -->
<g id="node19" class="node"><title>f1_p</title>
<ellipse fill="black" stroke="black" cx="100.5" cy="-200.5" rx="0.36" ry="0.36"/>
</g>
<!-- GeorgeI&#45;&#45;f1_p -->
<g id="edge8" class="edge"><title>GeorgeI&#45;&#45;f1_p</title>
<path fill="none" stroke="black" stroke-width="2" d="M100.88,-219.044C100.88,-210.025 100.88,-201.618 100.88,-200.603"/>
</g>
<!-- Mary -->
<g id="node2" class="node"><title>Mary</title>
<polygon fill="pink" stroke="red" points="64,-135.5 64,-181.5 137,-181.5 137,-135.5 64,-135.5"/>
<text text-anchor="middle" x="100.5" y="-166.3" font-family="Sans" font-size="14.00">Mary</text>
<polyline fill="none" stroke="red" points="64,-158.5 137,-158.5 "/>
<text text-anchor="start" x="72" y="-143.3" font-family="Sans" font-size="14.00">メアリー</text>
</g>
<!-- Dario -->
<g id="node3" class="node"><title>Dario</title>
<polygon fill="lightblue" stroke="blue" points="28,-284.5 28,-330.5 173,-330.5 173,-284.5 28,-284.5"/>
<text text-anchor="middle" x="100.5" y="-315.3" font-family="Sans" font-size="14.00">Dario Brando</text>
<polyline fill="none" stroke="blue" points="28,-307.5 173,-307.5 "/>
<text text-anchor="start" x="36" y="-292.3" font-family="Sans" font-size="14.00">ダリオ・ブランドー</text>
</g>
<!-- Dario&#45;&#45;GeorgeI -->
<!-- f0_c -->
<g id="node18" class="node"><title>f0_c</title>
<ellipse fill="black" stroke="black" cx="237.36" cy="-291.5" rx="0.36" ry="0.36"/>
</g>
<!-- Dario&#45;&#45;f0_c -->
<g id="edge6" class="edge"><title>Dario&#45;&#45;f0_c</title>
<path fill="none" stroke="black" d="M173.338,-291.5C202.958,-291.5 231.472,-291.5 236.558,-291.5"/>
</g>
<!-- Jonathan -->
<g id="node4" class="node"><title>Jonathan</title>
<polygon fill="lightblue" stroke="blue" points="273.72,-173.5 273.72,-219.5 460.72,-219.5 460.72,-173.5 273.72,-173.5"/>
<text text-anchor="middle" x="367.22" y="-204.3" font-family="Sans" font-size="14.00">Jonathan Joestar</text>
<polyline fill="none" stroke="blue" points="273.72,-196.5 460.72,-196.5 "/>
<text text-anchor="start" x="281.72" y="-181.3" font-family="Sans" font-size="14.00">ジョナサン・ジョースター</text>
</g>
<!-- f2_p -->
<g id="node23" class="node"><title>f2_p</title>
<ellipse fill="black" stroke="black" cx="367.22" cy="-154.5" rx="0.36" ry="0.36"/>
</g>
<!-- Jonathan&#45;&#45;f2_p -->
<g id="edge15" class="edge"><title>Jonathan&#45;&#45;f2_p</title>
<path fill="none" stroke="black" stroke-width="2" d="M367.88,-173.044C367.88,-164.025 367.88,-155.618 367.88,-154.603"/>
</g>
<!-- Erina -->
<g id="node5" class="node"><title>Erina</title>
<polygon fill="pink" stroke="red" points="287.72,-89.5 287.72,-135.5 446.72,-135.5 446.72,-89.5 287.72,-89.5"/>
<text text-anchor="middle" x="367.22" y="-120.3" font-family="Sans" font-size="14.00">Erina Pendleton</text>
<polyline fill="none" stroke="red" points="287.72,-112.5 446.72,-112.5 "/>
<text text-anchor="start" x="295.72" y="-97.3" font-family="Sans" font-size="14.00">エリナ・ペンドルトン</text>
</g>
<!-- Dio -->
<g id="node6" class="node"><title>Dio</title>
<polygon fill="lightblue" stroke="blue" points="294.72,-238.5 294.72,-284.5 439.72,-284.5 439.72,-238.5 294.72,-238.5"/>
<text text-anchor="middle" x="367.22" y="-269.3" font-family="Sans" font-size="14.00">Dio</text>
<polyline fill="none" stroke="blue" points="294.72,-261.5 439.72,-261.5 "/>
<text text-anchor="start" x="302.72" y="-246.3" font-family="Sans" font-size="14.00">ディオ・ブランドー</text>
</g>
<!-- Dio&#45;&#45;Jonathan -->
<!-- GeorgeII -->
<g id="node7" class="node"><title>GeorgeII</title>
<polygon fill="lightblue" stroke="blue" points="533.44,-131.5 533.44,-177.5 734.44,-177.5 734.44,-131.5 533.44,-131.5"/>
<text text-anchor="middle" x="633.94" y="-162.3" font-family="Sans" font-size="14.00">George Joestar II</text>
<polyline fill="none" stroke="blue" points="533.44,-154.5 734.44,-154.5 "/>
<text text-anchor="start" x="541.44" y="-139.3" font-family="Sans" font-size="14.00">ジョージ・ジョースター 2世</text>
</g>
<!-- f3_p -->
<g id="node25" class="node"><title>f3_p</title>
<ellipse fill="black" stroke="black" cx="633.94" cy="-112.5" rx="0.36" ry="0.36"/>
</g>
<!-- GeorgeII&#45;&#45;f3_p -->
<g id="edge19" class="edge"><title>GeorgeII&#45;&#45;f3_p</title>
<path fill="none" stroke="black" stroke-width="2" d="M634.88,-131.044C634.88,-122.025 634.88,-113.618 634.88,-112.603"/>
</g>
<!-- LisaLisa -->
<g id="node8" class="node"><title>LisaLisa</title>
<polygon fill="pink" stroke="red" points="596.44,-47.5 596.44,-93.5 671.44,-93.5 671.44,-47.5 596.44,-47.5"/>
<text text-anchor="middle" x="633.94" y="-78.3" font-family="Sans" font-size="14.00">Lisa Lisa</text>
<polyline fill="none" stroke="red" points="596.44,-70.5 671.44,-70.5 "/>
<text text-anchor="start" x="604.44" y="-55.3" font-family="Sans" font-size="14.00">リサリサ</text>
</g>
<!-- Joseph -->
<g id="node9" class="node"><title>Joseph</title>
<polygon fill="lightblue" stroke="blue" points="807.16,-89.5 807.16,-135.5 980.16,-135.5 980.16,-89.5 807.16,-89.5"/>
<text text-anchor="middle" x="893.66" y="-120.3" font-family="Sans" font-size="14.00">Joseph Joestar</text>
<polyline fill="none" stroke="blue" points="807.16,-112.5 980.16,-112.5 "/>
<text text-anchor="start" x="815.16" y="-97.3" font-family="Sans" font-size="14.00">ジョセフ・ジョースター</text>
</g>
<!-- SuziQ -->
<g id="node10" class="node"><title>SuziQ</title>
<polygon fill="pink" stroke="red" points="844.16,-5.5 844.16,-51.5 943.16,-51.5 943.16,-5.5 844.16,-5.5"/>
<text text-anchor="middle" x="893.66" y="-36.3" font-family="Sans" font-size="14.00">Suzi Q</text>
<polyline fill="none" stroke="red" points="844.16,-28.5 943.16,-28.5 "/>
<text text-anchor="start" x="852.16" y="-13.3" font-family="Sans" font-size="14.00">スージー・Q</text>
</g>
<!-- Joseph&#45;&#45;SuziQ -->
<!-- f5_p -->
<g id="node29" class="node"><title>f5_p</title>
<ellipse fill="black" stroke="black" cx="893.66" cy="-70.5" rx="0.36" ry="0.36"/>
</g>
<!-- Joseph&#45;&#45;f5_p -->
<g id="edge27" class="edge"><title>Joseph&#45;&#45;f5_p</title>
<path fill="none" stroke="black" stroke-width="2" d="M893.88,-89.0441C893.88,-80.626 893.88,-72.7418 893.88,-70.9022"/>
</g>
<!-- Tomoko -->
<g id="node11" class="node"><title>Tomoko</title>
<polygon fill="pink" stroke="red" points="815.16,-173.5 815.16,-219.5 972.16,-219.5 972.16,-173.5 815.16,-173.5"/>
<text text-anchor="middle" x="893.66" y="-204.3" font-family="Sans" font-size="14.00">Tomoko Higashikata</text>
<polyline fill="none" stroke="red" points="815.16,-196.5 972.16,-196.5 "/>
<text text-anchor="start" x="823.16" y="-181.3" font-family="Sans" font-size="14.00">東方 朋子</text>
</g>
<!-- Tomoko&#45;&#45;Joseph -->
<!-- f4_p -->
<g id="node27" class="node"><title>f4_p</title>
<ellipse fill="black" stroke="black" cx="893.66" cy="-154.5" rx="0.36" ry="0.36"/>
</g>
<!-- Tomoko&#45;&#45;f4_p -->
<g id="edge23" class="edge"><title>Tomoko&#45;&#45;f4_p</title>
<path fill="none" stroke="black" stroke-width="2" d="M893.88,-173.044C893.88,-164.626 893.88,-156.742 893.88,-154.902"/>
</g>
<!-- Sadao -->
<g id="node12" class="node"><title>Sadao</title>
<polygon fill="lightblue" stroke="blue" points="1053.16,-105.5 1053.16,-151.5 1146.16,-151.5 1146.16,-105.5 1053.16,-105.5"/>
<text text-anchor="middle" x="1099.66" y="-136.3" font-family="Sans" font-size="14.00">Sadao Kujo</text>
<polyline fill="none" stroke="blue" points="1053.16,-128.5 1146.16,-128.5 "/>
<text text-anchor="start" x="1061.16" y="-113.3" font-family="Sans" font-size="14.00">空条 貞夫</text>
</g>
<!-- f6_p -->
<g id="node31" class="node"><title>f6_p</title>
<ellipse fill="black" stroke="black" cx="1099.66" cy="-86.5" rx="0.36" ry="0.36"/>
</g>
<!-- Sadao&#45;&#45;f6_p -->
<g id="edge31" class="edge"><title>Sadao&#45;&#45;f6_p</title>
<path fill="none" stroke="black" stroke-width="2" d="M1099.88,-105.044C1099.88,-96.626 1099.88,-88.7418 1099.88,-86.9022"/>
</g>
<!-- Holy -->
<g id="node13" class="node"><title>Holy</title>
<polygon fill="pink" stroke="red" points="1070.16,-21.5 1070.16,-67.5 1129.16,-67.5 1129.16,-21.5 1070.16,-21.5"/>
<text text-anchor="middle" x="1099.66" y="-52.3" font-family="Sans" font-size="14.00">Holy</text>
<polyline fill="none" stroke="red" points="1070.16,-44.5 1129.16,-44.5 "/>
<text text-anchor="start" x="1078.16" y="-29.3" font-family="Sans" font-size="14.00">ホリィ</text>
</g>
<!-- Jotaro -->
<g id="node14" class="node"><title>Jotaro</title>
<polygon fill="lightblue" stroke="blue" points="1246.66,-74.5 1246.66,-120.5 1338.66,-120.5 1338.66,-74.5 1246.66,-74.5"/>
<text text-anchor="middle" x="1292.66" y="-105.3" font-family="Sans" font-size="14.00">Jotaro Kujo</text>
<polyline fill="none" stroke="blue" points="1246.66,-97.5 1338.66,-97.5 "/>
<text text-anchor="start" x="1254.66" y="-82.3" font-family="Sans" font-size="14.00">空条 承太郎</text>
</g>
<!-- f7_p -->
<g id="node33" class="node"><title>f7_p</title>
<ellipse fill="black" stroke="black" cx="1292.66" cy="-55.5" rx="0.36" ry="0.36"/>
</g>
<!-- Jotaro&#45;&#45;f7_p -->
<g id="edge35" class="edge"><title>Jotaro&#45;&#45;f7_p</title>
<path fill="none" stroke="black" stroke-width="2" d="M1292.88,-74.0441C1292.88,-65.626 1292.88,-57.7418 1292.88,-55.9022"/>
</g>
<!-- JotaroWife -->
<g id="node15" class="node"><title>JotaroWife</title>
<polygon fill="pink" stroke="red" points="1265.66,-0.5 1265.66,-36.5 1319.66,-36.5 1319.66,-0.5 1265.66,-0.5"/>
<text text-anchor="middle" x="1292.66" y="-14.8" font-family="Sans" font-size="14.00">?</text>
</g>
<!-- Jolyne -->
<g id="node16" class="node"><title>Jolyne</title>
<polygon fill="pink" stroke="red" points="1438.88,-32.5 1438.88,-78.5 1541.88,-78.5 1541.88,-32.5 1438.88,-32.5"/>
<text text-anchor="middle" x="1490.38" y="-63.3" font-family="Sans" font-size="14.00">Jolyne Cujoh</text>
<polyline fill="none" stroke="red" points="1438.88,-55.5 1541.88,-55.5 "/>
<text text-anchor="start" x="1446.88" y="-40.3" font-family="Sans" font-size="14.00">空条 徐倫</text>
</g>
<!-- Josuke -->
<g id="node17" class="node"><title>Josuke</title>
<polygon fill="lightblue" stroke="blue" points="1219.16,-140.5 1219.16,-186.5 1366.16,-186.5 1366.16,-140.5 1219.16,-140.5"/>
<text text-anchor="middle" x="1292.66" y="-171.3" font-family="Sans" font-size="14.00">Josuke Higashikata</text>
<polyline fill="none" stroke="blue" points="1219.16,-163.5 1366.16,-163.5 "/>
<text text-anchor="start" x="1227.16" y="-148.3" font-family="Sans" font-size="14.00">東方 仗助</text>
</g>
<!-- Josuke&#45;&#45;Jotaro -->
<!-- f0_c&#45;&#45;Dio -->
<g id="edge7" class="edge"><title>f0_c&#45;&#45;Dio</title>
<path fill="none" stroke="black" d="M237.88,-291.453C237.88,-290.485 237.88,-275 237.88,-275 237.88,-275 265.128,-275 294.61,-275"/>
</g>
<!-- f1_p&#45;&#45;Mary -->
<g id="edge9" class="edge"><title>f1_p&#45;&#45;Mary</title>
<path fill="none" stroke="black" stroke-width="2" d="M100.88,-200.38C100.88,-199.282 100.88,-190.858 100.88,-181.849"/>
</g>
<!-- f1_c1 -->
<g id="node21" class="node"><title>f1_c1</title>
<ellipse fill="black" stroke="black" cx="237.36" cy="-215.5" rx="0.36" ry="0.36"/>
</g>
<!-- f1_p&#45;&#45;f1_c1 -->
<g id="edge12" class="edge"><title>f1_p&#45;&#45;f1_c1</title>
<path fill="none" stroke="black" d="M100.979,-200.5C103.963,-200.5 119.88,-200.5 119.88,-200.5 119.88,-200.5 119.88,-215.5 119.88,-215.5 119.88,-215.5 226.604,-215.5 236.61,-215.5"/>
</g>
<!-- f1_c0 -->
<g id="node20" class="node"><title>f1_c0</title>
<ellipse fill="black" stroke="black" cx="237.36" cy="-247.5" rx="0.36" ry="0.36"/>
</g>
<!-- f1_c0&#45;&#45;Dio -->
<g id="edge13" class="edge"><title>f1_c0&#45;&#45;Dio</title>
<path fill="none" stroke="black" d="M237.733,-247.5C241.11,-247.5 266.945,-247.5 294.661,-247.5"/>
</g>
<!-- f1_c0&#45;&#45;f1_c1 -->
<g id="edge10" class="edge"><title>f1_c0&#45;&#45;f1_c1</title>
<path fill="none" stroke="black" d="M237.88,-247.408C237.88,-245.59 237.88,-217.349 237.88,-215.586"/>
</g>
<!-- f1_c2 -->
<g id="node22" class="node"><title>f1_c2</title>
<ellipse fill="black" stroke="black" cx="237.36" cy="-196.5" rx="0.36" ry="0.36"/>
</g>
<!-- f1_c1&#45;&#45;f1_c2 -->
<g id="edge11" class="edge"><title>f1_c1&#45;&#45;f1_c2</title>
<path fill="none" stroke="black" d="M237.88,-215.445C237.88,-214.366 237.88,-197.598 237.88,-196.551"/>
</g>
<!-- f1_c2&#45;&#45;Jonathan -->
<g id="edge14" class="edge"><title>f1_c2&#45;&#45;Jonathan</title>
<path fill="none" stroke="black" d="M237.733,-196.5C240.217,-196.5 254.857,-196.5 273.458,-196.5"/>
</g>
<!-- f2_p&#45;&#45;Erina -->
<g id="edge16" class="edge"><title>f2_p&#45;&#45;Erina</title>
<path fill="none" stroke="black" stroke-width="2" d="M367.88,-154.38C367.88,-153.282 367.88,-144.858 367.88,-135.849"/>
</g>
<!-- f2_c -->
<g id="node24" class="node"><title>f2_c</title>
<ellipse fill="black" stroke="black" cx="497.08" cy="-154.5" rx="0.36" ry="0.36"/>
</g>
<!-- f2_p&#45;&#45;f2_c -->
<g id="edge17" class="edge"><title>f2_p&#45;&#45;f2_c</title>
<path fill="none" stroke="black" d="M367.593,-154.5C374.852,-154.5 485.906,-154.5 496.301,-154.5"/>
</g>
<!-- f2_c&#45;&#45;GeorgeII -->
<g id="edge18" class="edge"><title>f2_c&#45;&#45;GeorgeII</title>
<path fill="none" stroke="black" d="M497.473,-154.5C500.013,-154.5 514.607,-154.5 533.374,-154.5"/>
</g>
<!-- f3_p&#45;&#45;LisaLisa -->
<g id="edge20" class="edge"><title>f3_p&#45;&#45;LisaLisa</title>
<path fill="none" stroke="black" stroke-width="2" d="M634.88,-112.38C634.88,-111.282 634.88,-102.858 634.88,-93.8489"/>
</g>
<!-- f3_c -->
<g id="node26" class="node"><title>f3_c</title>
<ellipse fill="black" stroke="black" cx="770.8" cy="-112.5" rx="0.36" ry="0.36"/>
</g>
<!-- f3_p&#45;&#45;f3_c -->
<g id="edge21" class="edge"><title>f3_p&#45;&#45;f3_c</title>
<path fill="none" stroke="black" d="M634.333,-112.5C642.109,-112.5 762.89,-112.5 770.431,-112.5"/>
</g>
<!-- f3_c&#45;&#45;Joseph -->
<g id="edge22" class="edge"><title>f3_c&#45;&#45;Joseph</title>
<path fill="none" stroke="black" d="M771.585,-112.5C775.018,-112.5 789.342,-112.5 807.039,-112.5"/>
</g>
<!-- f4_p&#45;&#45;Joseph -->
<g id="edge24" class="edge"><title>f4_p&#45;&#45;Joseph</title>
<path fill="none" stroke="black" stroke-width="2" d="M893.88,-154.028C893.88,-152.046 893.88,-144.099 893.88,-135.681"/>
</g>
<!-- f4_c -->
<g id="node28" class="node"><title>f4_c</title>
<ellipse fill="black" stroke="black" cx="1099.66" cy="-170.5" rx="0.36" ry="0.36"/>
</g>
<!-- f4_p&#45;&#45;f4_c -->
<g id="edge25" class="edge"><title>f4_p&#45;&#45;f4_c</title>
<path fill="none" stroke="black" d="M894.252,-154.5C906.347,-154.5 1099.88,-154.5 1099.88,-154.5 1099.88,-154.5 1099.88,-167.641 1099.88,-170.104"/>
</g>
<!-- f4_c&#45;&#45;Josuke -->
<g id="edge26" class="edge"><title>f4_c&#45;&#45;Josuke</title>
<path fill="none" stroke="black" d="M1100.21,-170.5C1106.63,-170.5 1167.51,-170.5 1219.11,-170.5"/>
</g>
<!-- f5_p&#45;&#45;SuziQ -->
<g id="edge28" class="edge"><title>f5_p&#45;&#45;SuziQ</title>
<path fill="none" stroke="black" stroke-width="2" d="M893.88,-70.0283C893.88,-68.0456 893.88,-60.0994 893.88,-51.6806"/>
</g>
<!-- f5_c -->
<g id="node30" class="node"><title>f5_c</title>
<ellipse fill="black" stroke="black" cx="1016.66" cy="-49.5" rx="0.36" ry="0.36"/>
</g>
<!-- f5_p&#45;&#45;f5_c -->
<g id="edge29" class="edge"><title>f5_p&#45;&#45;f5_c</title>
<path fill="none" stroke="black" d="M894.447,-70.5C904.941,-70.5 1016.88,-70.5 1016.88,-70.5 1016.88,-70.5 1016.88,-53.2529 1016.88,-50.0191"/>
</g>
<!-- f5_c&#45;&#45;Holy -->
<g id="edge30" class="edge"><title>f5_c&#45;&#45;Holy</title>
<path fill="none" stroke="black" d="M1017.19,-49.5C1021.25,-49.5 1047.84,-49.5 1069.75,-49.5"/>
</g>
<!-- f6_p&#45;&#45;Holy -->
<g id="edge32" class="edge"><title>f6_p&#45;&#45;Holy</title>
<path fill="none" stroke="black" stroke-width="2" d="M1099.88,-86.0283C1099.88,-84.0456 1099.88,-76.0994 1099.88,-67.6806"/>
</g>
<!-- f6_c -->
<g id="node32" class="node"><title>f6_c</title>
<ellipse fill="black" stroke="black" cx="1182.66" cy="-95.5" rx="0.36" ry="0.36"/>
</g>
<!-- f6_p&#45;&#45;f6_c -->
<g id="edge33" class="edge"><title>f6_p&#45;&#45;f6_c</title>
<path fill="none" stroke="black" d="M1100.19,-86.5C1107.28,-86.5 1182.88,-86.5 1182.88,-86.5 1182.88,-86.5 1182.88,-93.3906 1182.88,-95.1133"/>
</g>
<!-- f6_c&#45;&#45;Jotaro -->
<g id="edge34" class="edge"><title>f6_c&#45;&#45;Jotaro</title>
<path fill="none" stroke="black" d="M1183.36,-95.5C1188.34,-95.5 1218.87,-95.5 1246.41,-95.5"/>
</g>
<!-- f7_p&#45;&#45;JotaroWife -->
<g id="edge36" class="edge"><title>f7_p&#45;&#45;JotaroWife</title>
<path fill="none" stroke="black" stroke-width="2" d="M1292.88,-55.0845C1292.88,-53.179 1292.88,-45.0214 1292.88,-36.8916"/>
</g>
<!-- f7_c -->
<g id="node34" class="node"><title>f7_c</title>
<ellipse fill="black" stroke="black" cx="1402.52" cy="-55.5" rx="0.36" ry="0.36"/>
</g>
<!-- f7_p&#45;&#45;f7_c -->
<g id="edge37" class="edge"><title>f7_p&#45;&#45;f7_c</title>
<path fill="none" stroke="black" d="M1293.36,-55.5C1302.28,-55.5 1393.36,-55.5 1401.88,-55.5"/>
</g>
<!-- f7_c&#45;&#45;Jolyne -->
<g id="edge38" class="edge"><title>f7_c&#45;&#45;Jolyne</title>
<path fill="none" stroke="black" d="M1403.08,-55.5C1406.18,-55.5 1421.68,-55.5 1438.78,-55.5"/>
</g>
</g>
</svg>
