<?xml version="1.0" encoding="UTF-8" standalone="no"?>
<!DOCTYPE svg PUBLIC "-//W3C//DTD SVG 1.1//EN"
 "http://www.w3.org/Graphics/SVG/1.1/DTD/svg11.dtd">
<!-- Generated by graphviz version 2.38.0 (20140413.2041)
 -->
<!-- Title: Joestars Pages: 1 -->
<svg width="826pt" height="590pt"
 viewBox="0.00 0.00 826.00 590.00" xmlns="http://www.w3.org/2000/svg" xmlns:xlink="http://www.w3.org/1999/xlink">
<g id="graph0" class="graph" transform="scale(1 1) rotate(0) translate(4 586)">
<title>Joestars</title>
<polygon fill="white" stroke="none" points="-4,4 -4,-586 822,-586 822,4 -4,4"/>
<!-- GeorgeI -->
<g id="node1" class="node"><title>GeorgeI</title>
<polygon fill="lightblue" stroke="blue" points="163,-535.5 163,-581.5 364,-581.5 364,-535.5 163,-535.5"/>
<text text-anchor="middle" x="263.5" y="-566.3" font-family="Sans" font-size="14.00">George Joestar I</text>
<polyline fill="none" stroke="blue" points="163,-558.5 364,-558.5 "/>
<text text-anchor="start" x="171" y="-543.3" font-family="Sans" font-size="14.00">ジョージ・ジョースター 1世</text>
</g>
<!-- f1_p -->
<g id="node18" class="node"><title>f1_p</title>
<ellipse fill="black" stroke="black" cx="382.5" cy="-558.5" rx="0.36" ry="0.36"/>
</g>
<!-- GeorgeI&#45;&#45;f1_p -->
<g id="edge7" class="edge"><title>GeorgeI&#45;&#45;f1_p</title>
<path fill="none" stroke="black" stroke-width="2" d="M364.167,-558C374.49,-558 381.57,-558 382.415,-558"/>
</g>
<!-- Mary -->
<g id="node2" class="node"><title>Mary</title>
<polygon fill="pink" stroke="red" points="401,-535.5 401,-581.5 474,-581.5 474,-535.5 401,-535.5"/>
<text text-anchor="middle" x="437.5" y="-566.3" font-family="Sans" font-size="14.00">Mary</text>
<polyline fill="none" stroke="red" points="401,-558.5 474,-558.5 "/>
<text text-anchor="start" x="409" y="-543.3" font-family="Sans" font-size="14.00">メアリー</text>
</g>
<!-- Dario -->
<g id="node3" class="node"><title>Dario</title>
<polygon fill="lightblue" stroke="blue" points="0,-535.5 0,-581.5 145,-581.5 145,-535.5 0,-535.5"/>
<text text-anchor="middle" x="72.5" y="-566.3" font-family="Sans" font-size="14.00">Dario Brando</text>
<polyline fill="none" stroke="blue" points="0,-558.5 145,-558.5 "/>
<text text-anchor="start" x="8" y="-543.3" font-family="Sans" font-size="14.00">ダリオ・ブランドー</text>
</g>
<!-- Dario&#45;&#45;GeorgeI -->
<!-- Dio -->
<g id="node6" class="node"><title>Dio</title>
<polygon fill="lightblue" stroke="blue" points="108,-415.5 108,-461.5 253,-461.5 253,-415.5 108,-415.5"/>
<text text-anchor="middle" x="180.5" y="-446.3" font-family="Sans" font-size="14.00">Dio</text>
<polyline fill="none" stroke="blue" points="108,-438.5 253,-438.5 "/>
<text text-anchor="start" x="116" y="-423.3" font-family="Sans" font-size="14.00">ディオ・ブランドー</text>
</g>
<!-- Dario&#45;&#45;Dio -->
<g id="edge6" class="edge"><title>Dario&#45;&#45;Dio</title>
<path fill="none" stroke="black" d="M126.5,-535.363C126.5,-514.114 126.5,-482.793 126.5,-461.566"/>
</g>
<!-- Jonathan -->
<g id="node4" class="node"><title>Jonathan</title>
<polygon fill="lightblue" stroke="blue" points="271,-415.5 271,-461.5 458,-461.5 458,-415.5 271,-415.5"/>
<text text-anchor="middle" x="364.5" y="-446.3" font-family="Sans" font-size="14.00">Jonathan Joestar</text>
<polyline fill="none" stroke="blue" points="271,-438.5 458,-438.5 "/>
<text text-anchor="start" x="279" y="-423.3" font-family="Sans" font-size="14.00">ジョナサン・ジョースター</text>
</g>
<!-- f2_p -->
<g id="node22" class="node"><title>f2_p</title>
<ellipse fill="black" stroke="black" cx="476.5" cy="-438.5" rx="0.36" ry="0.36"/>
</g>
<!-- Jonathan&#45;&#45;f2_p -->
<g id="edge14" class="edge"><title>Jonathan&#45;&#45;f2_p</title>
<path fill="none" stroke="black" stroke-width="2" d="M458.005,-438C468.365,-438 475.555,-438 476.414,-438"/>
</g>
<!-- Erina -->
<g id="node5" class="node"><title>Erina</title>
<polygon fill="pink" stroke="red" points="495,-415.5 495,-461.5 654,-461.5 654,-415.5 495,-415.5"/>
<text text-anchor="middle" x="574.5" y="-446.3" font-family="Sans" font-size="14.00">Erina Pendleton</text>
<polyline fill="none" stroke="red" points="495,-438.5 654,-438.5 "/>
<text text-anchor="start" x="503" y="-423.3" font-family="Sans" font-size="14.00">エリナ・ペンドルトン</text>
</g>
<!-- Dio&#45;&#45;Jonathan -->
<!-- GeorgeII -->
<g id="node7" class="node"><title>GeorgeII</title>
<polygon fill="lightblue" stroke="blue" points="376,-332.5 376,-378.5 577,-378.5 577,-332.5 376,-332.5"/>
<text text-anchor="middle" x="476.5" y="-363.3" font-family="Sans" font-size="14.00">George Joestar II</text>
<polyline fill="none" stroke="blue" points="376,-355.5 577,-355.5 "/>
<text text-anchor="start" x="384" y="-340.3" font-family="Sans" font-size="14.00">ジョージ・ジョースター 2世</text>
</g>
<!-- f3_p -->
<g id="node23" class="node"><title>f3_p</title>
<ellipse fill="black" stroke="black" cx="595.5" cy="-355.5" rx="0.36" ry="0.36"/>
</g>
<!-- GeorgeII&#45;&#45;f3_p -->
<g id="edge17" class="edge"><title>GeorgeII&#45;&#45;f3_p</title>
<path fill="none" stroke="black" stroke-width="2" d="M577.167,-355C587.49,-355 594.57,-355 595.415,-355"/>
</g>
<!-- LisaLisa -->
<g id="node8" class="node"><title>LisaLisa</title>
<polygon fill="pink" stroke="red" points="614,-332.5 614,-378.5 689,-378.5 689,-332.5 614,-332.5"/>
<text text-anchor="middle" x="651.5" y="-363.3" font-family="Sans" font-size="14.00">Lisa Lisa</text>
<polyline fill="none" stroke="red" points="614,-355.5 689,-355.5 "/>
<text text-anchor="start" x="622" y="-340.3" font-family="Sans" font-size="14.00">リサリサ</text>
</g>
<!-- Joseph -->
<g id="node9" class="node"><title>Joseph</title>
<polygon fill="lightblue" stroke="blue" points="509,-249.5 509,-295.5 682,-295.5 682,-249.5 509,-249.5"/>
<text text-anchor="middle" x="595.5" y="-280.3" font-family="Sans" font-size="14.00">Joseph Joestar</text>
<polyline fill="none" stroke="blue" points="509,-272.5 682,-272.5 "/>
<text text-anchor="start" x="517" y="-257.3" font-family="Sans" font-size="14.00">ジョセフ・ジョースター</text>
</g>
<!-- SuziQ -->
<g id="node10" class="node"><title>SuziQ</title>
<polygon fill="pink" stroke="red" points="719,-249.5 719,-295.5 818,-295.5 818,-249.5 719,-249.5"/>
<text text-anchor="middle" x="768.5" y="-280.3" font-family="Sans" font-size="14.00">Suzi Q</text>
<polyline fill="none" stroke="red" points="719,-272.5 818,-272.5 "/>
<text text-anchor="start" x="727" y="-257.3" font-family="Sans" font-size="14.00">スージー・Q</text>
</g>
<!-- Joseph&#45;&#45;SuziQ -->
<!-- f5_p -->
<g id="node26" class="node"><title>f5_p</title>
<ellipse fill="black" stroke="black" cx="700.5" cy="-272.5" rx="0.36" ry="0.36"/>
</g>
<!-- Joseph&#45;&#45;f5_p -->
<g id="edge24" class="edge"><title>Joseph&#45;&#45;f5_p</title>
<path fill="none" stroke="black" stroke-width="2" d="M682.21,-272C692.411,-272 699.56,-272 700.414,-272"/>
</g>
<!-- Tomoko -->
<g id="node11" class="node"><title>Tomoko</title>
<polygon fill="pink" stroke="red" points="315,-249.5 315,-295.5 472,-295.5 472,-249.5 315,-249.5"/>
<text text-anchor="middle" x="393.5" y="-280.3" font-family="Sans" font-size="14.00">Tomoko Higashikata</text>
<polyline fill="none" stroke="red" points="315,-272.5 472,-272.5 "/>
<text text-anchor="start" x="323" y="-257.3" font-family="Sans" font-size="14.00">東方 朋子</text>
</g>
<!-- Tomoko&#45;&#45;Joseph -->
<!-- f4_p -->
<g id="node24" class="node"><title>f4_p</title>
<ellipse fill="black" stroke="black" cx="490.5" cy="-272.5" rx="0.36" ry="0.36"/>
</g>
<!-- Tomoko&#45;&#45;f4_p -->
<g id="edge20" class="edge"><title>Tomoko&#45;&#45;f4_p</title>
<path fill="none" stroke="black" stroke-width="2" d="M472.255,-272C482.365,-272 489.554,-272 490.414,-272"/>
</g>
<!-- Sadao -->
<g id="node12" class="node"><title>Sadao</title>
<polygon fill="lightblue" stroke="blue" points="534,-166.5 534,-212.5 627,-212.5 627,-166.5 534,-166.5"/>
<text text-anchor="middle" x="580.5" y="-197.3" font-family="Sans" font-size="14.00">Sadao Kujo</text>
<polyline fill="none" stroke="blue" points="534,-189.5 627,-189.5 "/>
<text text-anchor="start" x="542" y="-174.3" font-family="Sans" font-size="14.00">空条 貞夫</text>
</g>
<!-- f6_p -->
<g id="node27" class="node"><title>f6_p</title>
<ellipse fill="black" stroke="black" cx="645.5" cy="-189.5" rx="0.36" ry="0.36"/>
</g>
<!-- Sadao&#45;&#45;f6_p -->
<g id="edge27" class="edge"><title>Sadao&#45;&#45;f6_p</title>
<path fill="none" stroke="black" stroke-width="2" d="M627.047,-189C636.815,-189 644.486,-189 645.407,-189"/>
</g>
<!-- Holy -->
<g id="node13" class="node"><title>Holy</title>
<polygon fill="pink" stroke="red" points="670,-166.5 670,-212.5 729,-212.5 729,-166.5 670,-166.5"/>
<text text-anchor="middle" x="699.5" y="-197.3" font-family="Sans" font-size="14.00">Holy</text>
<polyline fill="none" stroke="red" points="670,-189.5 729,-189.5 "/>
<text text-anchor="start" x="678" y="-174.3" font-family="Sans" font-size="14.00">ホリィ</text>
</g>
<!-- Jotaro -->
<g id="node14" class="node"><title>Jotaro</title>
<polygon fill="lightblue" stroke="blue" points="596.5,-83.5 596.5,-129.5 688.5,-129.5 688.5,-83.5 596.5,-83.5"/>
<text text-anchor="middle" x="642.5" y="-114.3" font-family="Sans" font-size="14.00">Jotaro Kujo</text>
<polyline fill="none" stroke="blue" points="596.5,-106.5 688.5,-106.5 "/>
<text text-anchor="start" x="604.5" y="-91.3" font-family="Sans" font-size="14.00">空条 承太郎</text>
</g>
<!-- f7_p -->
<g id="node28" class="node"><title>f7_p</title>
<ellipse fill="black" stroke="black" cx="706.5" cy="-106.5" rx="0.36" ry="0.36"/>
</g>
<!-- Jotaro&#45;&#45;f7_p -->
<g id="edge30" class="edge"><title>Jotaro&#45;&#45;f7_p</title>
<path fill="none" stroke="black" stroke-width="2" d="M688.672,-106C698.134,-106 705.524,-106 706.411,-106"/>
</g>
<!-- JotaroWife -->
<g id="node15" class="node"><title>JotaroWife</title>
<polygon fill="pink" stroke="red" points="724.5,-88.5 724.5,-124.5 778.5,-124.5 778.5,-88.5 724.5,-88.5"/>
<text text-anchor="middle" x="751.5" y="-102.8" font-family="Sans" font-size="14.00">?</text>
</g>
<!-- Jolyne -->
<g id="node16" class="node"><title>Jolyne</title>
<polygon fill="pink" stroke="red" points="655,-0.5 655,-46.5 758,-46.5 758,-0.5 655,-0.5"/>
<text text-anchor="middle" x="706.5" y="-31.3" font-family="Sans" font-size="14.00">Jolyne Cujoh</text>
<polyline fill="none" stroke="red" points="655,-23.5 758,-23.5 "/>
<text text-anchor="start" x="663" y="-8.3" font-family="Sans" font-size="14.00">空条 徐倫</text>
</g>
<!-- Josuke -->
<g id="node17" class="node"><title>Josuke</title>
<polygon fill="lightblue" stroke="blue" points="430,-83.5 430,-129.5 577,-129.5 577,-83.5 430,-83.5"/>
<text text-anchor="middle" x="503.5" y="-114.3" font-family="Sans" font-size="14.00">Josuke Higashikata</text>
<polyline fill="none" stroke="blue" points="430,-106.5 577,-106.5 "/>
<text text-anchor="start" x="438" y="-91.3" font-family="Sans" font-size="14.00">東方 仗助</text>
</g>
<!-- Josuke&#45;&#45;Jotaro -->
<!-- f1_p&#45;&#45;Mary -->
<g id="edge8" class="edge"><title>f1_p&#45;&#45;Mary</title>
<path fill="none" stroke="black" stroke-width="2" d="M382.658,-558C383.842,-558 391.551,-558 400.833,-558"/>
</g>
<!-- f1_c1 -->
<g id="node20" class="node"><title>f1_c1</title>
<ellipse fill="black" stroke="black" cx="345.5" cy="-498.5" rx="0.36" ry="0.36"/>
</g>
<!-- f1_p&#45;&#45;f1_c1 -->
<g id="edge11" class="edge"><title>f1_p&#45;&#45;f1_c1</title>
<path fill="none" stroke="black" d="M382.5,-558.034C382.5,-553.475 382.5,-517 382.5,-517 382.5,-517 345.5,-517 345.5,-517 345.5,-517 345.5,-501.806 345.5,-498.957"/>
</g>
<!-- f1_c0 -->
<g id="node19" class="node"><title>f1_c0</title>
<ellipse fill="black" stroke="black" cx="253.5" cy="-498.5" rx="0.36" ry="0.36"/>
</g>
<!-- f1_c0&#45;&#45;Dio -->
<g id="edge12" class="edge"><title>f1_c0&#45;&#45;Dio</title>
<path fill="none" stroke="black" d="M252.75,-498.457C252.75,-497.42 252.75,-478.065 252.75,-461.622"/>
</g>
<!-- f1_c0&#45;&#45;f1_c1 -->
<g id="edge9" class="edge"><title>f1_c0&#45;&#45;f1_c1</title>
<path fill="none" stroke="black" d="M253.567,-498C256.309,-498 342.735,-498 345.435,-498"/>
</g>
<!-- f1_c2 -->
<g id="node21" class="node"><title>f1_c2</title>
<ellipse fill="black" stroke="black" cx="364.5" cy="-498.5" rx="0.36" ry="0.36"/>
</g>
<!-- f1_c1&#45;&#45;f1_c2 -->
<g id="edge10" class="edge"><title>f1_c1&#45;&#45;f1_c2</title>
<path fill="none" stroke="black" d="M345.555,-498C346.634,-498 363.402,-498 364.449,-498"/>
</g>
<!-- f1_c2&#45;&#45;Jonathan -->
<g id="edge13" class="edge"><title>f1_c2&#45;&#45;Jonathan</title>
<path fill="none" stroke="black" d="M364.5,-498.117C364.5,-495.282 364.5,-477.25 364.5,-461.751"/>
</g>
<!-- f2_p&#45;&#45;Erina -->
<g id="edge15" class="edge"><title>f2_p&#45;&#45;Erina</title>
<path fill="none" stroke="black" stroke-width="2" d="M476.571,-438C477.359,-438 484.638,-438 494.904,-438"/>
</g>
<!-- f2_p&#45;&#45;GeorgeII -->
<g id="edge16" class="edge"><title>f2_p&#45;&#45;GeorgeII</title>
<path fill="none" stroke="black" d="M476.5,-437.97C476.5,-433.497 476.5,-401.66 476.5,-378.882"/>
</g>
<!-- f3_p&#45;&#45;LisaLisa -->
<g id="edge18" class="edge"><title>f3_p&#45;&#45;LisaLisa</title>
<path fill="none" stroke="black" stroke-width="2" d="M595.661,-355C596.854,-355 604.549,-355 613.866,-355"/>
</g>
<!-- f3_p&#45;&#45;Joseph -->
<g id="edge19" class="edge"><title>f3_p&#45;&#45;Joseph</title>
<path fill="none" stroke="black" d="M595.5,-354.97C595.5,-350.497 595.5,-318.66 595.5,-295.882"/>
</g>
<!-- f4_p&#45;&#45;Joseph -->
<g id="edge21" class="edge"><title>f4_p&#45;&#45;Joseph</title>
<path fill="none" stroke="black" stroke-width="2" d="M490.576,-272C491.383,-272 498.545,-272 508.782,-272"/>
</g>
<!-- f4_c -->
<g id="node25" class="node"><title>f4_c</title>
<ellipse fill="black" stroke="black" cx="502.5" cy="-189.5" rx="0.36" ry="0.36"/>
</g>
<!-- f4_p&#45;&#45;f4_c -->
<g id="edge22" class="edge"><title>f4_p&#45;&#45;f4_c</title>
<path fill="none" stroke="black" d="M490.5,-271.967C490.5,-264.855 490.5,-189 490.5,-189 490.5,-189 501.047,-189 502.365,-189"/>
</g>
<!-- f4_c&#45;&#45;Josuke -->
<g id="edge23" class="edge"><title>f4_c&#45;&#45;Josuke</title>
<path fill="none" stroke="black" d="M502.5,-188.97C502.5,-184.497 502.5,-152.66 502.5,-129.882"/>
</g>
<!-- f5_p&#45;&#45;SuziQ -->
<g id="edge25" class="edge"><title>f5_p&#45;&#45;SuziQ</title>
<path fill="none" stroke="black" stroke-width="2" d="M700.549,-272C701.233,-272 708.954,-272 718.963,-272"/>
</g>
<!-- f5_p&#45;&#45;Holy -->
<g id="edge26" class="edge"><title>f5_p&#45;&#45;Holy</title>
<path fill="none" stroke="black" d="M700.5,-271.97C700.5,-267.497 700.5,-235.66 700.5,-212.882"/>
</g>
<!-- f6_p&#45;&#45;Holy -->
<g id="edge28" class="edge"><title>f6_p&#45;&#45;Holy</title>
<path fill="none" stroke="black" stroke-width="2" d="M645.655,-189C647.078,-189 658.088,-189 669.785,-189"/>
</g>
<!-- f6_p&#45;&#45;Jotaro -->
<g id="edge29" class="edge"><title>f6_p&#45;&#45;Jotaro</title>
<path fill="none" stroke="black" d="M645.5,-188.97C645.5,-184.497 645.5,-152.66 645.5,-129.882"/>
</g>
<!-- f7_p&#45;&#45;JotaroWife -->
<g id="edge31" class="edge"><title>f7_p&#45;&#45;JotaroWife</title>
<path fill="none" stroke="black" stroke-width="2" d="M706.629,-106C707.722,-106 715.603,-106 724.463,-106"/>
</g>
<!-- f7_p&#45;&#45;Jolyne -->
<g id="edge32" class="edge"><title>f7_p&#45;&#45;Jolyne</title>
<path fill="none" stroke="black" d="M706.5,-105.97C706.5,-101.497 706.5,-69.6597 706.5,-46.8825"/>
</g>
</g>
</svg>
