<?xml version="1.0" encoding="UTF-8" standalone="no"?>
<!DOCTYPE svg PUBLIC "-//W3C//DTD SVG 1.1//EN"
 "http://www.w3.org/Graphics/SVG/1.1/DTD/svg11.dtd">
<!-- Generated by graphviz version 2.38.0 (20140413.2041)
 -->
<!-- Title: Joestars Pages: 1 -->
<svg width="1366pt" height="343pt"
 viewBox="0.00 0.00 1366.00 343.00" xmlns="http://www.w3.org/2000/svg" xmlns:xlink="http://www.w3.org/1999/xlink">
<g id="graph0" class="graph" transform="scale(1 1) rotate(0) translate(4 339)">
<title>Joestars</title>
<polygon fill="white" stroke="none" points="-4,4 -4,-339 1362,-339 1362,4 -4,4"/>
<!-- GeorgeI -->
<g id="node1" class="node"><title>GeorgeI</title>
<polygon fill="lightblue" stroke="blue" points="0,-223.5 0,-269.5 201,-269.5 201,-223.5 0,-223.5"/>
<text text-anchor="middle" x="100.5" y="-254.3" font-family="Sans" font-size="14.00">George Joestar I</text>
<polyline fill="none" stroke="blue" points="0,-246.5 201,-246.5 "/>
<text text-anchor="start" x="8" y="-231.3" font-family="Sans" font-size="14.00">ジョージ・ジョースター 1世</text>
</g>
<!-- f1_p -->
<g id="node18" class="node"><title>f1_p</title>
<ellipse fill="black" stroke="black" cx="100.5" cy="-204.5" rx="0.36" ry="0.36"/>
</g>
<!-- GeorgeI&#45;&#45;f1_p -->
<g id="edge7" class="edge"><title>GeorgeI&#45;&#45;f1_p</title>
<path fill="none" stroke="black" stroke-width="2" d="M101,-223.044C101,-214.025 101,-205.618 101,-204.603"/>
</g>
<!-- Mary -->
<g id="node2" class="node"><title>Mary</title>
<polygon fill="pink" stroke="red" points="64,-139.5 64,-185.5 137,-185.5 137,-139.5 64,-139.5"/>
<text text-anchor="middle" x="100.5" y="-170.3" font-family="Sans" font-size="14.00">Mary</text>
<polyline fill="none" stroke="red" points="64,-162.5 137,-162.5 "/>
<text text-anchor="start" x="72" y="-147.3" font-family="Sans" font-size="14.00">メアリー</text>
</g>
<!-- Dario -->
<g id="node3" class="node"><title>Dario</title>
<polygon fill="lightblue" stroke="blue" points="28,-288.5 28,-334.5 173,-334.5 173,-288.5 28,-288.5"/>
<text text-anchor="middle" x="100.5" y="-319.3" font-family="Sans" font-size="14.00">Dario Brando</text>
<polyline fill="none" stroke="blue" points="28,-311.5 173,-311.5 "/>
<text text-anchor="start" x="36" y="-296.3" font-family="Sans" font-size="14.00">ダリオ・ブランドー</text>
</g>
<!-- Dario&#45;&#45;GeorgeI -->
<!-- Dio -->
<g id="node6" class="node"><title>Dio</title>
<polygon fill="lightblue" stroke="blue" points="295,-235.5 295,-281.5 440,-281.5 440,-235.5 295,-235.5"/>
<text text-anchor="middle" x="367.5" y="-266.3" font-family="Sans" font-size="14.00">Dio</text>
<polyline fill="none" stroke="blue" points="295,-258.5 440,-258.5 "/>
<text text-anchor="start" x="303" y="-243.3" font-family="Sans" font-size="14.00">ディオ・ブランドー</text>
</g>
<!-- Dario&#45;&#45;Dio -->
<g id="edge6" class="edge"><title>Dario&#45;&#45;Dio</title>
<path fill="none" stroke="black" d="M125,-288.416C125,-281.636 125,-276 125,-276 125,-276 223.312,-276 294.742,-276"/>
</g>
<!-- Jonathan -->
<g id="node4" class="node"><title>Jonathan</title>
<polygon fill="lightblue" stroke="blue" points="274,-170.5 274,-216.5 461,-216.5 461,-170.5 274,-170.5"/>
<text text-anchor="middle" x="367.5" y="-201.3" font-family="Sans" font-size="14.00">Jonathan Joestar</text>
<polyline fill="none" stroke="blue" points="274,-193.5 461,-193.5 "/>
<text text-anchor="start" x="282" y="-178.3" font-family="Sans" font-size="14.00">ジョナサン・ジョースター</text>
</g>
<!-- f2_p -->
<g id="node22" class="node"><title>f2_p</title>
<ellipse fill="black" stroke="black" cx="367.5" cy="-151.5" rx="0.36" ry="0.36"/>
</g>
<!-- Jonathan&#45;&#45;f2_p -->
<g id="edge14" class="edge"><title>Jonathan&#45;&#45;f2_p</title>
<path fill="none" stroke="black" stroke-width="2" d="M368,-170.044C368,-161.025 368,-152.618 368,-151.603"/>
</g>
<!-- Erina -->
<g id="node5" class="node"><title>Erina</title>
<polygon fill="pink" stroke="red" points="288,-86.5 288,-132.5 447,-132.5 447,-86.5 288,-86.5"/>
<text text-anchor="middle" x="367.5" y="-117.3" font-family="Sans" font-size="14.00">Erina Pendleton</text>
<polyline fill="none" stroke="red" points="288,-109.5 447,-109.5 "/>
<text text-anchor="start" x="296" y="-94.3" font-family="Sans" font-size="14.00">エリナ・ペンドルトン</text>
</g>
<!-- Dio&#45;&#45;Jonathan -->
<!-- GeorgeII -->
<g id="node7" class="node"><title>GeorgeII</title>
<polygon fill="lightblue" stroke="blue" points="497,-128.5 497,-174.5 698,-174.5 698,-128.5 497,-128.5"/>
<text text-anchor="middle" x="597.5" y="-159.3" font-family="Sans" font-size="14.00">George Joestar II</text>
<polyline fill="none" stroke="blue" points="497,-151.5 698,-151.5 "/>
<text text-anchor="start" x="505" y="-136.3" font-family="Sans" font-size="14.00">ジョージ・ジョースター 2世</text>
</g>
<!-- f3_p -->
<g id="node23" class="node"><title>f3_p</title>
<ellipse fill="black" stroke="black" cx="597.5" cy="-109.5" rx="0.36" ry="0.36"/>
</g>
<!-- GeorgeII&#45;&#45;f3_p -->
<g id="edge17" class="edge"><title>GeorgeII&#45;&#45;f3_p</title>
<path fill="none" stroke="black" stroke-width="2" d="M598,-128.044C598,-119.025 598,-110.618 598,-109.603"/>
</g>
<!-- LisaLisa -->
<g id="node8" class="node"><title>LisaLisa</title>
<polygon fill="pink" stroke="red" points="560,-44.5 560,-90.5 635,-90.5 635,-44.5 560,-44.5"/>
<text text-anchor="middle" x="597.5" y="-75.3" font-family="Sans" font-size="14.00">Lisa Lisa</text>
<polyline fill="none" stroke="red" points="560,-67.5 635,-67.5 "/>
<text text-anchor="start" x="568" y="-52.3" font-family="Sans" font-size="14.00">リサリサ</text>
</g>
<!-- Joseph -->
<g id="node9" class="node"><title>Joseph</title>
<polygon fill="lightblue" stroke="blue" points="734,-86.5 734,-132.5 907,-132.5 907,-86.5 734,-86.5"/>
<text text-anchor="middle" x="820.5" y="-117.3" font-family="Sans" font-size="14.00">Joseph Joestar</text>
<polyline fill="none" stroke="blue" points="734,-109.5 907,-109.5 "/>
<text text-anchor="start" x="742" y="-94.3" font-family="Sans" font-size="14.00">ジョセフ・ジョースター</text>
</g>
<!-- SuziQ -->
<g id="node10" class="node"><title>SuziQ</title>
<polygon fill="pink" stroke="red" points="771,-2.5 771,-48.5 870,-48.5 870,-2.5 771,-2.5"/>
<text text-anchor="middle" x="820.5" y="-33.3" font-family="Sans" font-size="14.00">Suzi Q</text>
<polyline fill="none" stroke="red" points="771,-25.5 870,-25.5 "/>
<text text-anchor="start" x="779" y="-10.3" font-family="Sans" font-size="14.00">スージー・Q</text>
</g>
<!-- Joseph&#45;&#45;SuziQ -->
<!-- f5_p -->
<g id="node26" class="node"><title>f5_p</title>
<ellipse fill="black" stroke="black" cx="820.5" cy="-67.5" rx="0.36" ry="0.36"/>
</g>
<!-- Joseph&#45;&#45;f5_p -->
<g id="edge24" class="edge"><title>Joseph&#45;&#45;f5_p</title>
<path fill="none" stroke="black" stroke-width="2" d="M821,-86.0441C821,-77.0247 821,-68.6182 821,-67.6026"/>
</g>
<!-- Tomoko -->
<g id="node11" class="node"><title>Tomoko</title>
<polygon fill="pink" stroke="red" points="742,-170.5 742,-216.5 899,-216.5 899,-170.5 742,-170.5"/>
<text text-anchor="middle" x="820.5" y="-201.3" font-family="Sans" font-size="14.00">Tomoko Higashikata</text>
<polyline fill="none" stroke="red" points="742,-193.5 899,-193.5 "/>
<text text-anchor="start" x="750" y="-178.3" font-family="Sans" font-size="14.00">東方 朋子</text>
</g>
<!-- Tomoko&#45;&#45;Joseph -->
<!-- f4_p -->
<g id="node24" class="node"><title>f4_p</title>
<ellipse fill="black" stroke="black" cx="820.5" cy="-151.5" rx="0.36" ry="0.36"/>
</g>
<!-- Tomoko&#45;&#45;f4_p -->
<g id="edge20" class="edge"><title>Tomoko&#45;&#45;f4_p</title>
<path fill="none" stroke="black" stroke-width="2" d="M821,-170.044C821,-161.025 821,-152.618 821,-151.603"/>
</g>
<!-- Sadao -->
<g id="node12" class="node"><title>Sadao</title>
<polygon fill="lightblue" stroke="blue" points="943,-107.5 943,-153.5 1036,-153.5 1036,-107.5 943,-107.5"/>
<text text-anchor="middle" x="989.5" y="-138.3" font-family="Sans" font-size="14.00">Sadao Kujo</text>
<polyline fill="none" stroke="blue" points="943,-130.5 1036,-130.5 "/>
<text text-anchor="start" x="951" y="-115.3" font-family="Sans" font-size="14.00">空条 貞夫</text>
</g>
<!-- f6_p -->
<g id="node27" class="node"><title>f6_p</title>
<ellipse fill="black" stroke="black" cx="989.5" cy="-88.5" rx="0.36" ry="0.36"/>
</g>
<!-- Sadao&#45;&#45;f6_p -->
<g id="edge27" class="edge"><title>Sadao&#45;&#45;f6_p</title>
<path fill="none" stroke="black" stroke-width="2" d="M990,-107.044C990,-98.0247 990,-89.6182 990,-88.6026"/>
</g>
<!-- Holy -->
<g id="node13" class="node"><title>Holy</title>
<polygon fill="pink" stroke="red" points="960,-23.5 960,-69.5 1019,-69.5 1019,-23.5 960,-23.5"/>
<text text-anchor="middle" x="989.5" y="-54.3" font-family="Sans" font-size="14.00">Holy</text>
<polyline fill="none" stroke="red" points="960,-46.5 1019,-46.5 "/>
<text text-anchor="start" x="968" y="-31.3" font-family="Sans" font-size="14.00">ホリィ</text>
</g>
<!-- Jotaro -->
<g id="node14" class="node"><title>Jotaro</title>
<polygon fill="lightblue" stroke="blue" points="1099.5,-74.5 1099.5,-120.5 1191.5,-120.5 1191.5,-74.5 1099.5,-74.5"/>
<text text-anchor="middle" x="1145.5" y="-105.3" font-family="Sans" font-size="14.00">Jotaro Kujo</text>
<polyline fill="none" stroke="blue" points="1099.5,-97.5 1191.5,-97.5 "/>
<text text-anchor="start" x="1107.5" y="-82.3" font-family="Sans" font-size="14.00">空条 承太郎</text>
</g>
<!-- f7_p -->
<g id="node28" class="node"><title>f7_p</title>
<ellipse fill="black" stroke="black" cx="1145.5" cy="-55.5" rx="0.36" ry="0.36"/>
</g>
<!-- Jotaro&#45;&#45;f7_p -->
<g id="edge30" class="edge"><title>Jotaro&#45;&#45;f7_p</title>
<path fill="none" stroke="black" stroke-width="2" d="M1146,-74.0441C1146,-65.0247 1146,-56.6182 1146,-55.6026"/>
</g>
<!-- JotaroWife -->
<g id="node15" class="node"><title>JotaroWife</title>
<polygon fill="pink" stroke="red" points="1118.5,-0.5 1118.5,-36.5 1172.5,-36.5 1172.5,-0.5 1118.5,-0.5"/>
<text text-anchor="middle" x="1145.5" y="-14.8" font-family="Sans" font-size="14.00">?</text>
</g>
<!-- Jolyne -->
<g id="node16" class="node"><title>Jolyne</title>
<polygon fill="pink" stroke="red" points="1255,-32.5 1255,-78.5 1358,-78.5 1358,-32.5 1255,-32.5"/>
<text text-anchor="middle" x="1306.5" y="-63.3" font-family="Sans" font-size="14.00">Jolyne Cujoh</text>
<polyline fill="none" stroke="red" points="1255,-55.5 1358,-55.5 "/>
<text text-anchor="start" x="1263" y="-40.3" font-family="Sans" font-size="14.00">空条 徐倫</text>
</g>
<!-- Josuke -->
<g id="node17" class="node"><title>Josuke</title>
<polygon fill="lightblue" stroke="blue" points="1072,-144.5 1072,-190.5 1219,-190.5 1219,-144.5 1072,-144.5"/>
<text text-anchor="middle" x="1145.5" y="-175.3" font-family="Sans" font-size="14.00">Josuke Higashikata</text>
<polyline fill="none" stroke="blue" points="1072,-167.5 1219,-167.5 "/>
<text text-anchor="start" x="1080" y="-152.3" font-family="Sans" font-size="14.00">東方 仗助</text>
</g>
<!-- Josuke&#45;&#45;Jotaro -->
<!-- f1_p&#45;&#45;Mary -->
<g id="edge8" class="edge"><title>f1_p&#45;&#45;Mary</title>
<path fill="none" stroke="black" stroke-width="2" d="M101,-204.38C101,-203.282 101,-194.858 101,-185.849"/>
</g>
<!-- f1_c1 -->
<g id="node20" class="node"><title>f1_c1</title>
<ellipse fill="black" stroke="black" cx="237.5" cy="-212.5" rx="0.36" ry="0.36"/>
</g>
<!-- f1_p&#45;&#45;f1_c1 -->
<g id="edge11" class="edge"><title>f1_p&#45;&#45;f1_c1</title>
<path fill="none" stroke="black" d="M100.982,-204.5C103.985,-204.5 120,-204.5 120,-204.5 120,-204.5 120,-212.5 120,-212.5 120,-212.5 226.743,-212.5 236.75,-212.5"/>
</g>
<!-- f1_c0 -->
<g id="node19" class="node"><title>f1_c0</title>
<ellipse fill="black" stroke="black" cx="237.5" cy="-244.5" rx="0.36" ry="0.36"/>
</g>
<!-- f1_c0&#45;&#45;Dio -->
<g id="edge12" class="edge"><title>f1_c0&#45;&#45;Dio</title>
<path fill="none" stroke="black" d="M237.873,-244.5C241.254,-244.5 267.117,-244.5 294.863,-244.5"/>
</g>
<!-- f1_c0&#45;&#45;f1_c1 -->
<g id="edge9" class="edge"><title>f1_c0&#45;&#45;f1_c1</title>
<path fill="none" stroke="black" d="M238,-244.408C238,-242.59 238,-214.349 238,-212.586"/>
</g>
<!-- f1_c2 -->
<g id="node21" class="node"><title>f1_c2</title>
<ellipse fill="black" stroke="black" cx="237.5" cy="-193.5" rx="0.36" ry="0.36"/>
</g>
<!-- f1_c1&#45;&#45;f1_c2 -->
<g id="edge10" class="edge"><title>f1_c1&#45;&#45;f1_c2</title>
<path fill="none" stroke="black" d="M238,-212.445C238,-211.366 238,-194.598 238,-193.551"/>
</g>
<!-- f1_c2&#45;&#45;Jonathan -->
<g id="edge13" class="edge"><title>f1_c2&#45;&#45;Jonathan</title>
<path fill="none" stroke="black" d="M237.873,-193.5C240.375,-193.5 255.191,-193.5 273.972,-193.5"/>
</g>
<!-- f2_p&#45;&#45;Erina -->
<g id="edge15" class="edge"><title>f2_p&#45;&#45;Erina</title>
<path fill="none" stroke="black" stroke-width="2" d="M368,-151.38C368,-150.282 368,-141.858 368,-132.849"/>
</g>
<!-- f2_p&#45;&#45;GeorgeII -->
<g id="edge16" class="edge"><title>f2_p&#45;&#45;GeorgeII</title>
<path fill="none" stroke="black" d="M368.16,-151.5C375.274,-151.5 438.662,-151.5 496.995,-151.5"/>
</g>
<!-- f3_p&#45;&#45;LisaLisa -->
<g id="edge18" class="edge"><title>f3_p&#45;&#45;LisaLisa</title>
<path fill="none" stroke="black" stroke-width="2" d="M598,-109.38C598,-108.282 598,-99.8577 598,-90.8489"/>
</g>
<!-- f3_p&#45;&#45;Joseph -->
<g id="edge19" class="edge"><title>f3_p&#45;&#45;Joseph</title>
<path fill="none" stroke="black" d="M598.14,-109.5C605.484,-109.5 674.693,-109.5 733.973,-109.5"/>
</g>
<!-- f4_p&#45;&#45;Joseph -->
<g id="edge21" class="edge"><title>f4_p&#45;&#45;Joseph</title>
<path fill="none" stroke="black" stroke-width="2" d="M821,-151.38C821,-150.282 821,-141.858 821,-132.849"/>
</g>
<!-- f4_c -->
<g id="node25" class="node"><title>f4_c</title>
<ellipse fill="black" stroke="black" cx="989.5" cy="-172.5" rx="0.36" ry="0.36"/>
</g>
<!-- f4_p&#45;&#45;f4_c -->
<g id="edge22" class="edge"><title>f4_p&#45;&#45;f4_c</title>
<path fill="none" stroke="black" d="M821.027,-151.5C828.053,-151.5 903,-151.5 903,-151.5 903,-151.5 903,-172.5 903,-172.5 903,-172.5 981.581,-172.5 988.948,-172.5"/>
</g>
<!-- f4_c&#45;&#45;Josuke -->
<g id="edge23" class="edge"><title>f4_c&#45;&#45;Josuke</title>
<path fill="none" stroke="black" d="M989.948,-172.5C994.54,-172.5 1033.72,-172.5 1071.6,-172.5"/>
</g>
<!-- f5_p&#45;&#45;SuziQ -->
<g id="edge25" class="edge"><title>f5_p&#45;&#45;SuziQ</title>
<path fill="none" stroke="black" stroke-width="2" d="M821,-67.3795C821,-66.2825 821,-57.8577 821,-48.8489"/>
</g>
<!-- f5_p&#45;&#45;Holy -->
<g id="edge26" class="edge"><title>f5_p&#45;&#45;Holy</title>
<path fill="none" stroke="black" d="M820.985,-67.5C828.168,-67.5 913.421,-67.5 959.833,-67.5"/>
</g>
<!-- f6_p&#45;&#45;Holy -->
<g id="edge28" class="edge"><title>f6_p&#45;&#45;Holy</title>
<path fill="none" stroke="black" stroke-width="2" d="M990,-88.3795C990,-87.2825 990,-78.8577 990,-69.8489"/>
</g>
<!-- f6_p&#45;&#45;Jotaro -->
<g id="edge29" class="edge"><title>f6_p&#45;&#45;Jotaro</title>
<path fill="none" stroke="black" d="M989.948,-88.5C995.684,-88.5 1055.37,-88.5 1099.1,-88.5"/>
</g>
<!-- f7_p&#45;&#45;JotaroWife -->
<g id="edge31" class="edge"><title>f7_p&#45;&#45;JotaroWife</title>
<path fill="none" stroke="black" stroke-width="2" d="M1146,-55.3939C1146,-54.3257 1146,-45.3715 1146,-36.5529"/>
</g>
<!-- f7_p&#45;&#45;Jolyne -->
<g id="edge32" class="edge"><title>f7_p&#45;&#45;Jolyne</title>
<path fill="none" stroke="black" d="M1145.96,-55.5C1151.72,-55.5 1210.07,-55.5 1254.78,-55.5"/>
</g>
</g>
</svg>
