<?xml version="1.0" encoding="UTF-8" standalone="no"?>
<!DOCTYPE svg PUBLIC "-//W3C//DTD SVG 1.1//EN"
 "http://www.w3.org/Graphics/SVG/1.1/DTD/svg11.dtd">
<!-- Generated by graphviz version 2.38.0 (20140413.2041)
 -->
<!-- Title: ShogiPlayers11 Pages: 1 -->
<svg width="709pt" height="313pt"
 viewBox="0.00 0.00 708.88 313.00" xmlns="http://www.w3.org/2000/svg" xmlns:xlink="http://www.w3.org/1999/xlink">
<g id="graph0" class="graph" transform="scale(1 1) rotate(0) translate(4 309)">
<title>ShogiPlayers11</title>
<polygon fill="white" stroke="none" points="-4,4 -4,-309 704.88,-309 704.88,4 -4,4"/>
<!-- pro_23 -->
<g id="node1" class="node"><title>pro_23</title>
<polygon fill="lightblue" stroke="blue" points="171.22,-154.5 171.22,-190.5 247.22,-190.5 247.22,-154.5 171.22,-154.5"/>
<text text-anchor="middle" x="209.22" y="-168.8" font-family="Sans" font-size="14.00">岡崎史明</text>
</g>
<!-- f0_c1 -->
<g id="node16" class="node"><title>f0_c1</title>
<ellipse fill="black" stroke="black" cx="291.08" cy="-181.5" rx="0.36" ry="0.36"/>
</g>
<!-- pro_23&#45;&#45;f0_c1 -->
<g id="edge3" class="edge"><title>pro_23&#45;&#45;f0_c1</title>
<path fill="none" stroke="black" d="M247.274,-181.5C266.647,-181.5 286.884,-181.5 290.508,-181.5"/>
</g>
<!-- pro_38 -->
<g id="node2" class="node"><title>pro_38</title>
<polygon fill="lightblue" stroke="blue" points="163.72,-98.5 163.72,-134.5 254.72,-134.5 254.72,-98.5 163.72,-98.5"/>
<text text-anchor="middle" x="209.22" y="-112.8" font-family="Sans" font-size="14.00">北村秀治郎</text>
</g>
<!-- pro_44 -->
<g id="node3" class="node"><title>pro_44</title>
<polygon fill="lightblue" stroke="blue" points="178.72,-41.5 178.72,-77.5 239.72,-77.5 239.72,-41.5 178.72,-41.5"/>
<text text-anchor="middle" x="209.22" y="-55.8" font-family="Sans" font-size="14.00">灘蓮照</text>
</g>
<!-- f1_c1 -->
<g id="node19" class="node"><title>f1_c1</title>
<ellipse fill="black" stroke="black" cx="291.08" cy="-54.5" rx="0.36" ry="0.36"/>
</g>
<!-- pro_44&#45;&#45;f1_c1 -->
<g id="edge9" class="edge"><title>pro_44&#45;&#45;f1_c1</title>
<path fill="none" stroke="black" d="M240.168,-54.5C261.176,-54.5 285.92,-54.5 290.375,-54.5"/>
</g>
<!-- pro_53 -->
<g id="node4" class="node"><title>pro_53</title>
<polygon fill="lightblue" stroke="blue" points="327.44,-55.5 327.44,-91.5 403.44,-91.5 403.44,-55.5 327.44,-55.5"/>
<text text-anchor="middle" x="365.44" y="-69.8" font-family="Sans" font-size="14.00">神田鎮雄</text>
</g>
<!-- pro_55 -->
<g id="node5" class="node"><title>pro_55</title>
<polygon fill="lightblue" stroke="blue" points="327.44,-229.5 327.44,-265.5 403.44,-265.5 403.44,-229.5 327.44,-229.5"/>
<text text-anchor="middle" x="365.44" y="-243.8" font-family="Sans" font-size="14.00">増田敏二</text>
</g>
<!-- f2_c -->
<g id="node21" class="node"><title>f2_c</title>
<ellipse fill="black" stroke="black" cx="439.8" cy="-249.5" rx="0.36" ry="0.36"/>
</g>
<!-- pro_55&#45;&#45;f2_c -->
<g id="edge12" class="edge"><title>pro_55&#45;&#45;f2_c</title>
<path fill="none" stroke="black" d="M403.491,-249.5C420.071,-249.5 436.42,-249.5 439.34,-249.5"/>
</g>
<!-- pro_78 -->
<g id="node6" class="node"><title>pro_78</title>
<polygon fill="lightblue" stroke="blue" points="327.44,-165.5 327.44,-201.5 403.44,-201.5 403.44,-165.5 327.44,-165.5"/>
<text text-anchor="middle" x="365.44" y="-179.8" font-family="Sans" font-size="14.00">伊達康夫</text>
</g>
<!-- f3_c -->
<g id="node22" class="node"><title>f3_c</title>
<ellipse fill="black" stroke="black" cx="439.8" cy="-178.5" rx="0.36" ry="0.36"/>
</g>
<!-- pro_78&#45;&#45;f3_c -->
<g id="edge14" class="edge"><title>pro_78&#45;&#45;f3_c</title>
<path fill="none" stroke="black" d="M403.491,-178.5C420.071,-178.5 436.42,-178.5 439.34,-178.5"/>
</g>
<!-- pro_93 -->
<g id="node7" class="node"><title>pro_93</title>
<polygon fill="lightblue" stroke="blue" points="476.16,-232.5 476.16,-268.5 552.16,-268.5 552.16,-232.5 476.16,-232.5"/>
<text text-anchor="middle" x="514.16" y="-246.8" font-family="Sans" font-size="14.00">桐山清澄</text>
</g>
<!-- f4_c1 -->
<g id="node24" class="node"><title>f4_c1</title>
<ellipse fill="black" stroke="black" cx="588.52" cy="-250.5" rx="0.36" ry="0.36"/>
</g>
<!-- pro_93&#45;&#45;f4_c1 -->
<g id="edge18" class="edge"><title>pro_93&#45;&#45;f4_c1</title>
<path fill="none" stroke="black" d="M552.211,-250.5C568.791,-250.5 585.14,-250.5 588.06,-250.5"/>
</g>
<!-- pro_141 -->
<g id="node8" class="node"><title>pro_141</title>
<polygon fill="lightblue" stroke="blue" points="327.44,-110.5 327.44,-146.5 403.44,-146.5 403.44,-110.5 327.44,-110.5"/>
<text text-anchor="middle" x="365.44" y="-124.8" font-family="Sans" font-size="14.00">児玉孝一</text>
</g>
<!-- pro_166 -->
<g id="node9" class="node"><title>pro_166</title>
<polygon fill="lightblue" stroke="blue" points="476.16,-159.5 476.16,-195.5 552.16,-195.5 552.16,-159.5 476.16,-159.5"/>
<text text-anchor="middle" x="514.16" y="-173.8" font-family="Sans" font-size="14.00">伊藤博文</text>
</g>
<!-- f5_c -->
<g id="node26" class="node"><title>f5_c</title>
<ellipse fill="black" stroke="black" cx="588.52" cy="-176.5" rx="0.36" ry="0.36"/>
</g>
<!-- pro_166&#45;&#45;f5_c -->
<g id="edge21" class="edge"><title>pro_166&#45;&#45;f5_c</title>
<path fill="none" stroke="black" d="M552.211,-176.5C568.791,-176.5 585.14,-176.5 588.06,-176.5"/>
</g>
<!-- pro_179 -->
<g id="node10" class="node"><title>pro_179</title>
<polygon fill="lightblue" stroke="blue" points="327.44,-0.5 327.44,-36.5 403.44,-36.5 403.44,-0.5 327.44,-0.5"/>
<text text-anchor="middle" x="365.44" y="-14.8" font-family="Sans" font-size="14.00">神崎健二</text>
</g>
<!-- pro_212 -->
<g id="node11" class="node"><title>pro_212</title>
<polygon fill="lightblue" stroke="blue" points="624.88,-268.5 624.88,-304.5 700.88,-304.5 700.88,-268.5 624.88,-268.5"/>
<text text-anchor="middle" x="662.88" y="-282.8" font-family="Sans" font-size="14.00">矢倉規広</text>
</g>
<!-- pro_264 -->
<g id="node12" class="node"><title>pro_264</title>
<polygon fill="lightblue" stroke="blue" points="624.88,-213.5 624.88,-249.5 700.88,-249.5 700.88,-213.5 624.88,-213.5"/>
<text text-anchor="middle" x="662.88" y="-227.8" font-family="Sans" font-size="14.00">豊島将之</text>
</g>
<!-- lady_6003 -->
<g id="node13" class="node"><title>lady_6003</title>
<polygon fill="pink" stroke="red" points="624.88,-158.5 624.88,-194.5 700.88,-194.5 700.88,-158.5 624.88,-158.5"/>
<text text-anchor="middle" x="662.88" y="-172.8" font-family="Sans" font-size="14.00">藤井奈々</text>
</g>
<!-- extra_11 -->
<g id="node14" class="node"><title>extra_11</title>
<polygon fill="lightblue" stroke="blue" points="0,-98.5 0,-134.5 91,-134.5 91,-98.5 0,-98.5"/>
<text text-anchor="middle" x="45.5" y="-112.8" font-family="Sans" font-size="14.00">神田辰之助</text>
</g>
<!-- f6_c1 -->
<g id="node28" class="node"><title>f6_c1</title>
<ellipse fill="black" stroke="black" cx="127.36" cy="-116.5" rx="0.36" ry="0.36"/>
</g>
<!-- extra_11&#45;&#45;f6_c1 -->
<g id="edge25" class="edge"><title>extra_11&#45;&#45;f6_c1</title>
<path fill="none" stroke="black" d="M91.2167,-116.5C108.21,-116.5 124.087,-116.5 126.915,-116.5"/>
</g>
<!-- f0_c0 -->
<g id="node15" class="node"><title>f0_c0</title>
<ellipse fill="black" stroke="black" cx="291.08" cy="-227.5" rx="0.36" ry="0.36"/>
</g>
<!-- f0_c0&#45;&#45;pro_55 -->
<g id="edge4" class="edge"><title>f0_c0&#45;&#45;pro_55</title>
<path fill="none" stroke="black" d="M291.88,-227.557C291.88,-228.73 291.88,-247.5 291.88,-247.5 291.88,-247.5 309.418,-247.5 327.367,-247.5"/>
</g>
<!-- f0_c0&#45;&#45;f0_c1 -->
<g id="edge1" class="edge"><title>f0_c0&#45;&#45;f0_c1</title>
<path fill="none" stroke="black" d="M291.88,-227.368C291.88,-224.754 291.88,-184.159 291.88,-181.624"/>
</g>
<!-- f0_c1&#45;&#45;pro_78 -->
<g id="edge5" class="edge"><title>f0_c1&#45;&#45;pro_78</title>
<path fill="none" stroke="black" d="M291.555,-181.5C294.499,-181.5 310.671,-181.5 327.137,-181.5"/>
</g>
<!-- f0_c2 -->
<g id="node17" class="node"><title>f0_c2</title>
<ellipse fill="black" stroke="black" cx="291.08" cy="-141.5" rx="0.36" ry="0.36"/>
</g>
<!-- f0_c1&#45;&#45;f0_c2 -->
<g id="edge2" class="edge"><title>f0_c1&#45;&#45;f0_c2</title>
<path fill="none" stroke="black" d="M291.88,-181.385C291.88,-179.112 291.88,-143.812 291.88,-141.608"/>
</g>
<!-- f0_c2&#45;&#45;pro_141 -->
<g id="edge6" class="edge"><title>f0_c2&#45;&#45;pro_141</title>
<path fill="none" stroke="black" d="M291.555,-141.5C294.499,-141.5 310.671,-141.5 327.137,-141.5"/>
</g>
<!-- f1_c0 -->
<g id="node18" class="node"><title>f1_c0</title>
<ellipse fill="black" stroke="black" cx="291.08" cy="-73.5" rx="0.36" ry="0.36"/>
</g>
<!-- f1_c0&#45;&#45;pro_53 -->
<g id="edge10" class="edge"><title>f1_c0&#45;&#45;pro_53</title>
<path fill="none" stroke="black" d="M291.555,-73.5C294.499,-73.5 310.671,-73.5 327.137,-73.5"/>
</g>
<!-- f1_c0&#45;&#45;f1_c1 -->
<g id="edge7" class="edge"><title>f1_c0&#45;&#45;f1_c1</title>
<path fill="none" stroke="black" d="M291.88,-73.4455C291.88,-72.3659 291.88,-55.5981 291.88,-54.5512"/>
</g>
<!-- f1_c2 -->
<g id="node20" class="node"><title>f1_c2</title>
<ellipse fill="black" stroke="black" cx="291.08" cy="-26.5" rx="0.36" ry="0.36"/>
</g>
<!-- f1_c1&#45;&#45;f1_c2 -->
<g id="edge8" class="edge"><title>f1_c1&#45;&#45;f1_c2</title>
<path fill="none" stroke="black" d="M291.88,-54.4197C291.88,-52.8287 291.88,-28.1183 291.88,-26.5754"/>
</g>
<!-- f1_c2&#45;&#45;pro_179 -->
<g id="edge11" class="edge"><title>f1_c2&#45;&#45;pro_179</title>
<path fill="none" stroke="black" d="M291.555,-26.5C294.499,-26.5 310.671,-26.5 327.137,-26.5"/>
</g>
<!-- f2_c&#45;&#45;pro_93 -->
<g id="edge13" class="edge"><title>f2_c&#45;&#45;pro_93</title>
<path fill="none" stroke="black" d="M440.275,-249.5C443.219,-249.5 459.391,-249.5 475.857,-249.5"/>
</g>
<!-- f3_c&#45;&#45;pro_166 -->
<g id="edge15" class="edge"><title>f3_c&#45;&#45;pro_166</title>
<path fill="none" stroke="black" d="M440.275,-178.5C443.219,-178.5 459.391,-178.5 475.857,-178.5"/>
</g>
<!-- f4_c0 -->
<g id="node23" class="node"><title>f4_c0</title>
<ellipse fill="black" stroke="black" cx="588.52" cy="-277.5" rx="0.36" ry="0.36"/>
</g>
<!-- f4_c0&#45;&#45;pro_212 -->
<g id="edge19" class="edge"><title>f4_c0&#45;&#45;pro_212</title>
<path fill="none" stroke="black" d="M588.995,-277.5C591.939,-277.5 608.111,-277.5 624.577,-277.5"/>
</g>
<!-- f4_c0&#45;&#45;f4_c1 -->
<g id="edge16" class="edge"><title>f4_c0&#45;&#45;f4_c1</title>
<path fill="none" stroke="black" d="M588.88,-277.423C588.88,-275.888 588.88,-252.06 588.88,-250.573"/>
</g>
<!-- f4_c2 -->
<g id="node25" class="node"><title>f4_c2</title>
<ellipse fill="black" stroke="black" cx="588.52" cy="-231.5" rx="0.36" ry="0.36"/>
</g>
<!-- f4_c1&#45;&#45;f4_c2 -->
<g id="edge17" class="edge"><title>f4_c1&#45;&#45;f4_c2</title>
<path fill="none" stroke="black" d="M588.88,-250.445C588.88,-249.366 588.88,-232.598 588.88,-231.551"/>
</g>
<!-- f4_c2&#45;&#45;pro_264 -->
<g id="edge20" class="edge"><title>f4_c2&#45;&#45;pro_264</title>
<path fill="none" stroke="black" d="M588.995,-231.5C591.939,-231.5 608.111,-231.5 624.577,-231.5"/>
</g>
<!-- f5_c&#45;&#45;lady_6003 -->
<g id="edge22" class="edge"><title>f5_c&#45;&#45;lady_6003</title>
<path fill="none" stroke="black" d="M588.995,-176.5C591.939,-176.5 608.111,-176.5 624.577,-176.5"/>
</g>
<!-- f6_c0 -->
<g id="node27" class="node"><title>f6_c0</title>
<ellipse fill="black" stroke="black" cx="127.36" cy="-153.5" rx="0.36" ry="0.36"/>
</g>
<!-- f6_c0&#45;&#45;pro_23 -->
<g id="edge26" class="edge"><title>f6_c0&#45;&#45;pro_23</title>
<path fill="none" stroke="black" d="M127.419,-154.25C129.859,-154.25 206.76,-154.25 209.162,-154.25"/>
</g>
<!-- f6_c0&#45;&#45;f6_c1 -->
<g id="edge23" class="edge"><title>f6_c0&#45;&#45;f6_c1</title>
<path fill="none" stroke="black" d="M127.88,-153.394C127.88,-151.291 127.88,-118.638 127.88,-116.6"/>
</g>
<!-- f6_c1&#45;&#45;pro_38 -->
<g id="edge27" class="edge"><title>f6_c1&#45;&#45;pro_38</title>
<path fill="none" stroke="black" d="M127.883,-116.5C130.906,-116.5 146.599,-116.5 163.406,-116.5"/>
</g>
<!-- f6_c2 -->
<g id="node29" class="node"><title>f6_c2</title>
<ellipse fill="black" stroke="black" cx="127.36" cy="-78.5" rx="0.36" ry="0.36"/>
</g>
<!-- f6_c1&#45;&#45;f6_c2 -->
<g id="edge24" class="edge"><title>f6_c1&#45;&#45;f6_c2</title>
<path fill="none" stroke="black" d="M127.88,-116.391C127.88,-114.232 127.88,-80.6962 127.88,-78.6024"/>
</g>
<!-- f6_c2&#45;&#45;pro_44 -->
<g id="edge28" class="edge"><title>f6_c2&#45;&#45;pro_44</title>
<path fill="none" stroke="black" d="M127.419,-77.75C129.859,-77.75 206.76,-77.75 209.162,-77.75"/>
</g>
</g>
</svg>
