<?xml version="1.0" encoding="UTF-8" standalone="no"?>
<!DOCTYPE svg PUBLIC "-//W3C//DTD SVG 1.1//EN"
 "http://www.w3.org/Graphics/SVG/1.1/DTD/svg11.dtd">
<!-- Generated by graphviz version 2.38.0 (20140413.2041)
 -->
<!-- Title: ShogiPlayers14 Pages: 1 -->
<svg width="381pt" height="100pt"
 viewBox="0.00 0.00 381.44 100.00" xmlns="http://www.w3.org/2000/svg" xmlns:xlink="http://www.w3.org/1999/xlink">
<g id="graph0" class="graph" transform="scale(1 1) rotate(0) translate(4 96)">
<title>ShogiPlayers14</title>
<polygon fill="white" stroke="none" points="-4,4 -4,-96 377.44,-96 377.44,4 -4,4"/>
<!-- pro_43 -->
<g id="node1" class="node"><title>pro_43</title>
<polygon fill="lightblue" stroke="blue" points="148.72,-25.5 148.72,-61.5 224.72,-61.5 224.72,-25.5 148.72,-25.5"/>
<text text-anchor="middle" x="186.72" y="-39.8" font-family="Sans" font-size="14.00">丸田祐三</text>
</g>
<!-- f0_c1 -->
<g id="node6" class="node"><title>f0_c1</title>
<ellipse fill="black" stroke="black" cx="261.08" cy="-43.5" rx="0.36" ry="0.36"/>
</g>
<!-- pro_43&#45;&#45;f0_c1 -->
<g id="edge3" class="edge"><title>pro_43&#45;&#45;f0_c1</title>
<path fill="none" stroke="black" d="M224.771,-43.5C241.351,-43.5 257.7,-43.5 260.62,-43.5"/>
</g>
<!-- pro_132 -->
<g id="node2" class="node"><title>pro_132</title>
<polygon fill="lightblue" stroke="blue" points="297.44,-55.5 297.44,-91.5 373.44,-91.5 373.44,-55.5 297.44,-55.5"/>
<text text-anchor="middle" x="335.44" y="-69.8" font-family="Sans" font-size="14.00">松浦隆一</text>
</g>
<!-- pro_152 -->
<g id="node3" class="node"><title>pro_152</title>
<polygon fill="lightblue" stroke="blue" points="297.44,-0.5 297.44,-36.5 373.44,-36.5 373.44,-0.5 297.44,-0.5"/>
<text text-anchor="middle" x="335.44" y="-14.8" font-family="Sans" font-size="14.00">武市三郎</text>
</g>
<!-- extra_14 -->
<g id="node4" class="node"><title>extra_14</title>
<polygon fill="lightblue" stroke="blue" points="0,-25.5 0,-61.5 76,-61.5 76,-25.5 0,-25.5"/>
<text text-anchor="middle" x="38" y="-39.8" font-family="Sans" font-size="14.00">平野信助</text>
</g>
<!-- f1_c -->
<g id="node8" class="node"><title>f1_c</title>
<ellipse fill="black" stroke="black" cx="112.36" cy="-43.5" rx="0.36" ry="0.36"/>
</g>
<!-- extra_14&#45;&#45;f1_c -->
<g id="edge6" class="edge"><title>extra_14&#45;&#45;f1_c</title>
<path fill="none" stroke="black" d="M76.0513,-43.5C92.6312,-43.5 108.98,-43.5 111.9,-43.5"/>
</g>
<!-- f0_c0 -->
<g id="node5" class="node"><title>f0_c0</title>
<ellipse fill="black" stroke="black" cx="261.08" cy="-70.5" rx="0.36" ry="0.36"/>
</g>
<!-- f0_c0&#45;&#45;pro_132 -->
<g id="edge4" class="edge"><title>f0_c0&#45;&#45;pro_132</title>
<path fill="none" stroke="black" d="M261.555,-70.5C264.499,-70.5 280.671,-70.5 297.137,-70.5"/>
</g>
<!-- f0_c0&#45;&#45;f0_c1 -->
<g id="edge1" class="edge"><title>f0_c0&#45;&#45;f0_c1</title>
<path fill="none" stroke="black" d="M261.44,-70.4225C261.44,-68.8884 261.44,-45.0605 261.44,-43.5727"/>
</g>
<!-- f0_c2 -->
<g id="node7" class="node"><title>f0_c2</title>
<ellipse fill="black" stroke="black" cx="261.08" cy="-20.5" rx="0.36" ry="0.36"/>
</g>
<!-- f0_c1&#45;&#45;f0_c2 -->
<g id="edge2" class="edge"><title>f0_c1&#45;&#45;f0_c2</title>
<path fill="none" stroke="black" d="M261.44,-43.434C261.44,-42.1271 261.44,-21.8293 261.44,-20.562"/>
</g>
<!-- f0_c2&#45;&#45;pro_152 -->
<g id="edge5" class="edge"><title>f0_c2&#45;&#45;pro_152</title>
<path fill="none" stroke="black" d="M261.555,-20.5C264.499,-20.5 280.671,-20.5 297.137,-20.5"/>
</g>
<!-- f1_c&#45;&#45;pro_43 -->
<g id="edge7" class="edge"><title>f1_c&#45;&#45;pro_43</title>
<path fill="none" stroke="black" d="M112.835,-43.5C115.779,-43.5 131.951,-43.5 148.417,-43.5"/>
</g>
</g>
</svg>
