<?xml version="1.0" encoding="UTF-8" standalone="no"?>
<!DOCTYPE svg PUBLIC "-//W3C//DTD SVG 1.1//EN"
 "http://www.w3.org/Graphics/SVG/1.1/DTD/svg11.dtd">
<!-- Generated by graphviz version 2.38.0 (20140413.2041)
 -->
<!-- Title: ShogiPlayers3 Pages: 1 -->
<svg width="694pt" height="760pt"
 viewBox="0.00 0.00 693.88 760.00" xmlns="http://www.w3.org/2000/svg" xmlns:xlink="http://www.w3.org/1999/xlink">
<g id="graph0" class="graph" transform="scale(1 1) rotate(0) translate(4 756)">
<title>ShogiPlayers3</title>
<polygon fill="white" stroke="none" points="-4,4 -4,-756 689.88,-756 689.88,4 -4,4"/>
<!-- pro_6 -->
<g id="node1" class="node"><title>pro_6</title>
<polygon fill="lightblue" stroke="blue" points="163.72,-539.5 163.72,-575.5 239.72,-575.5 239.72,-539.5 163.72,-539.5"/>
<text text-anchor="middle" x="201.72" y="-553.8" font-family="Sans" font-size="14.00">中井捨吉</text>
</g>
<!-- f0_c1 -->
<g id="node37" class="node"><title>f0_c1</title>
<ellipse fill="black" stroke="black" cx="276.08" cy="-557.5" rx="0.36" ry="0.36"/>
</g>
<!-- pro_6&#45;&#45;f0_c1 -->
<g id="edge3" class="edge"><title>pro_6&#45;&#45;f0_c1</title>
<path fill="none" stroke="black" d="M239.771,-557.5C256.351,-557.5 272.7,-557.5 275.62,-557.5"/>
</g>
<!-- pro_7 -->
<g id="node2" class="node"><title>pro_7</title>
<polygon fill="lightblue" stroke="blue" points="163.72,-484.5 163.72,-520.5 239.72,-520.5 239.72,-484.5 163.72,-484.5"/>
<text text-anchor="middle" x="201.72" y="-498.8" font-family="Sans" font-size="14.00">大野源一</text>
</g>
<!-- pro_13 -->
<g id="node3" class="node"><title>pro_13</title>
<polygon fill="lightblue" stroke="blue" points="163.72,-429.5 163.72,-465.5 239.72,-465.5 239.72,-429.5 163.72,-429.5"/>
<text text-anchor="middle" x="201.72" y="-443.8" font-family="Sans" font-size="14.00">角田三男</text>
</g>
<!-- f1_c -->
<g id="node39" class="node"><title>f1_c</title>
<ellipse fill="black" stroke="black" cx="276.08" cy="-448.5" rx="0.36" ry="0.36"/>
</g>
<!-- pro_13&#45;&#45;f1_c -->
<g id="edge6" class="edge"><title>pro_13&#45;&#45;f1_c</title>
<path fill="none" stroke="black" d="M239.771,-448.5C256.351,-448.5 272.7,-448.5 275.62,-448.5"/>
</g>
<!-- pro_18 -->
<g id="node4" class="node"><title>pro_18</title>
<polygon fill="lightblue" stroke="blue" points="163.72,-304.5 163.72,-340.5 239.72,-340.5 239.72,-304.5 163.72,-304.5"/>
<text text-anchor="middle" x="201.72" y="-318.8" font-family="Sans" font-size="14.00">升田幸三</text>
</g>
<!-- f2_c -->
<g id="node40" class="node"><title>f2_c</title>
<ellipse fill="black" stroke="black" cx="276.08" cy="-322.5" rx="0.36" ry="0.36"/>
</g>
<!-- pro_18&#45;&#45;f2_c -->
<g id="edge8" class="edge"><title>pro_18&#45;&#45;f2_c</title>
<path fill="none" stroke="black" d="M239.771,-322.5C256.351,-322.5 272.7,-322.5 275.62,-322.5"/>
</g>
<!-- pro_26 -->
<g id="node5" class="node"><title>pro_26</title>
<polygon fill="lightblue" stroke="blue" points="163.72,-249.5 163.72,-285.5 239.72,-285.5 239.72,-249.5 163.72,-249.5"/>
<text text-anchor="middle" x="201.72" y="-263.8" font-family="Sans" font-size="14.00">大山康晴</text>
</g>
<!-- f3_c1 -->
<g id="node42" class="node"><title>f3_c1</title>
<ellipse fill="black" stroke="black" cx="276.08" cy="-215.5" rx="0.36" ry="0.36"/>
</g>
<!-- pro_26&#45;&#45;f3_c1 -->
<g id="edge12" class="edge"><title>pro_26&#45;&#45;f3_c1</title>
<path fill="none" stroke="black" d="M239.801,-264.5C249.817,-264.5 257.88,-264.5 257.88,-264.5 257.88,-264.5 257.88,-215.5 257.88,-215.5 257.88,-215.5 272.827,-215.5 275.63,-215.5"/>
</g>
<!-- pro_28 -->
<g id="node6" class="node"><title>pro_28</title>
<polygon fill="lightblue" stroke="blue" points="163.72,-194.5 163.72,-230.5 239.72,-230.5 239.72,-194.5 163.72,-194.5"/>
<text text-anchor="middle" x="201.72" y="-208.8" font-family="Sans" font-size="14.00">山中和正</text>
</g>
<!-- pro_30 -->
<g id="node7" class="node"><title>pro_30</title>
<polygon fill="lightblue" stroke="blue" points="312.44,-569.5 312.44,-605.5 388.44,-605.5 388.44,-569.5 312.44,-569.5"/>
<text text-anchor="middle" x="350.44" y="-583.8" font-family="Sans" font-size="14.00">本間爽悦</text>
</g>
<!-- f4_c1 -->
<g id="node45" class="node"><title>f4_c1</title>
<ellipse fill="black" stroke="black" cx="424.8" cy="-587.5" rx="0.36" ry="0.36"/>
</g>
<!-- pro_30&#45;&#45;f4_c1 -->
<g id="edge18" class="edge"><title>pro_30&#45;&#45;f4_c1</title>
<path fill="none" stroke="black" d="M388.491,-587.5C405.071,-587.5 421.42,-587.5 424.34,-587.5"/>
</g>
<!-- pro_51 -->
<g id="node8" class="node"><title>pro_51</title>
<polygon fill="lightblue" stroke="blue" points="163.72,-139.5 163.72,-175.5 239.72,-175.5 239.72,-139.5 163.72,-139.5"/>
<text text-anchor="middle" x="201.72" y="-153.8" font-family="Sans" font-size="14.00">二見敬三</text>
</g>
<!-- pro_52 -->
<g id="node9" class="node"><title>pro_52</title>
<polygon fill="lightblue" stroke="blue" points="171.22,-84.5 171.22,-120.5 232.22,-120.5 232.22,-84.5 171.22,-84.5"/>
<text text-anchor="middle" x="201.72" y="-98.8" font-family="Sans" font-size="14.00">西本馨</text>
</g>
<!-- pro_58 -->
<g id="node10" class="node"><title>pro_58</title>
<polygon fill="lightblue" stroke="blue" points="163.72,-29.5 163.72,-65.5 239.72,-65.5 239.72,-29.5 163.72,-29.5"/>
<text text-anchor="middle" x="201.72" y="-43.8" font-family="Sans" font-size="14.00">橋本三治</text>
</g>
<!-- pro_66 -->
<g id="node11" class="node"><title>pro_66</title>
<polygon fill="lightblue" stroke="blue" points="312.44,-243.5 312.44,-279.5 388.44,-279.5 388.44,-243.5 312.44,-243.5"/>
<text text-anchor="middle" x="350.44" y="-257.8" font-family="Sans" font-size="14.00">有吉道夫</text>
</g>
<!-- f5_c1 -->
<g id="node48" class="node"><title>f5_c1</title>
<ellipse fill="black" stroke="black" cx="424.8" cy="-82.5" rx="0.36" ry="0.36"/>
</g>
<!-- pro_66&#45;&#45;f5_c1 -->
<g id="edge23" class="edge"><title>pro_66&#45;&#45;f5_c1</title>
<path fill="none" stroke="black" d="M388.711,-250C398.777,-250 406.88,-250 406.88,-250 406.88,-250 406.88,-82.5 406.88,-82.5 406.88,-82.5 421.598,-82.5 424.357,-82.5"/>
</g>
<!-- pro_70 -->
<g id="node12" class="node"><title>pro_70</title>
<polygon fill="lightblue" stroke="blue" points="312.44,-431.5 312.44,-467.5 388.44,-467.5 388.44,-431.5 312.44,-431.5"/>
<text text-anchor="middle" x="350.44" y="-445.8" font-family="Sans" font-size="14.00">賀集正三</text>
</g>
<!-- f6_c1 -->
<g id="node51" class="node"><title>f6_c1</title>
<ellipse fill="black" stroke="black" cx="424.8" cy="-450.5" rx="0.36" ry="0.36"/>
</g>
<!-- pro_70&#45;&#45;f6_c1 -->
<g id="edge29" class="edge"><title>pro_70&#45;&#45;f6_c1</title>
<path fill="none" stroke="black" d="M388.491,-450.5C405.071,-450.5 421.42,-450.5 424.34,-450.5"/>
</g>
<!-- pro_104 -->
<g id="node13" class="node"><title>pro_104</title>
<polygon fill="lightblue" stroke="blue" points="461.16,-605.5 461.16,-641.5 537.16,-641.5 537.16,-605.5 461.16,-605.5"/>
<text text-anchor="middle" x="499.16" y="-619.8" font-family="Sans" font-size="14.00">田中魁秀</text>
</g>
<!-- f7_c1 -->
<g id="node54" class="node"><title>f7_c1</title>
<ellipse fill="black" stroke="black" cx="573.52" cy="-623.5" rx="0.36" ry="0.36"/>
</g>
<!-- pro_104&#45;&#45;f7_c1 -->
<g id="edge35" class="edge"><title>pro_104&#45;&#45;f7_c1</title>
<path fill="none" stroke="black" d="M537.211,-623.5C553.791,-623.5 570.14,-623.5 573.06,-623.5"/>
</g>
<!-- pro_105 -->
<g id="node14" class="node"><title>pro_105</title>
<polygon fill="lightblue" stroke="blue" points="461.16,-110.5 461.16,-146.5 537.16,-146.5 537.16,-110.5 461.16,-110.5"/>
<text text-anchor="middle" x="499.16" y="-124.8" font-family="Sans" font-size="14.00">坪内利幸</text>
</g>
<!-- pro_116 -->
<g id="node15" class="node"><title>pro_116</title>
<polygon fill="lightblue" stroke="blue" points="461.16,-495.5 461.16,-531.5 537.16,-531.5 537.16,-495.5 461.16,-495.5"/>
<text text-anchor="middle" x="499.16" y="-509.8" font-family="Sans" font-size="14.00">前田祐司</text>
</g>
<!-- pro_120 -->
<g id="node16" class="node"><title>pro_120</title>
<polygon fill="lightblue" stroke="blue" points="312.44,-304.5 312.44,-340.5 388.44,-340.5 388.44,-304.5 312.44,-304.5"/>
<text text-anchor="middle" x="350.44" y="-318.8" font-family="Sans" font-size="14.00">桐谷広人</text>
</g>
<!-- f8_c1 -->
<g id="node57" class="node"><title>f8_c1</title>
<ellipse fill="black" stroke="black" cx="424.8" cy="-322.5" rx="0.36" ry="0.36"/>
</g>
<!-- pro_120&#45;&#45;f8_c1 -->
<g id="edge43" class="edge"><title>pro_120&#45;&#45;f8_c1</title>
<path fill="none" stroke="black" d="M388.491,-322.5C405.071,-322.5 421.42,-322.5 424.34,-322.5"/>
</g>
<!-- pro_135 -->
<g id="node17" class="node"><title>pro_135</title>
<polygon fill="lightblue" stroke="blue" points="609.88,-715.5 609.88,-751.5 685.88,-751.5 685.88,-715.5 609.88,-715.5"/>
<text text-anchor="middle" x="647.88" y="-729.8" font-family="Sans" font-size="14.00">福崎文吾</text>
</g>
<!-- pro_145 -->
<g id="node18" class="node"><title>pro_145</title>
<polygon fill="lightblue" stroke="blue" points="461.16,-550.5 461.16,-586.5 537.16,-586.5 537.16,-550.5 461.16,-550.5"/>
<text text-anchor="middle" x="499.16" y="-564.8" font-family="Sans" font-size="14.00">依田有司</text>
</g>
<!-- pro_151 -->
<g id="node19" class="node"><title>pro_151</title>
<polygon fill="lightblue" stroke="blue" points="461.16,-440.5 461.16,-476.5 537.16,-476.5 537.16,-440.5 461.16,-440.5"/>
<text text-anchor="middle" x="499.16" y="-454.8" font-family="Sans" font-size="14.00">西川慶二</text>
</g>
<!-- f9_c -->
<g id="node59" class="node"><title>f9_c</title>
<ellipse fill="black" stroke="black" cx="573.52" cy="-458.5" rx="0.36" ry="0.36"/>
</g>
<!-- pro_151&#45;&#45;f9_c -->
<g id="edge46" class="edge"><title>pro_151&#45;&#45;f9_c</title>
<path fill="none" stroke="black" d="M537.211,-458.5C553.791,-458.5 570.14,-458.5 573.06,-458.5"/>
</g>
<!-- pro_158 -->
<g id="node20" class="node"><title>pro_158</title>
<polygon fill="lightblue" stroke="blue" points="461.16,-55.5 461.16,-91.5 537.16,-91.5 537.16,-55.5 461.16,-55.5"/>
<text text-anchor="middle" x="499.16" y="-69.8" font-family="Sans" font-size="14.00">有森浩三</text>
</g>
<!-- pro_162 -->
<g id="node21" class="node"><title>pro_162</title>
<polygon fill="lightblue" stroke="blue" points="312.44,-514.5 312.44,-550.5 388.44,-550.5 388.44,-514.5 312.44,-514.5"/>
<text text-anchor="middle" x="350.44" y="-528.8" font-family="Sans" font-size="14.00">浦野真彦</text>
</g>
<!-- pro_171 -->
<g id="node22" class="node"><title>pro_171</title>
<polygon fill="lightblue" stroke="blue" points="617.38,-660.5 617.38,-696.5 678.38,-696.5 678.38,-660.5 617.38,-660.5"/>
<text text-anchor="middle" x="647.88" y="-674.8" font-family="Sans" font-size="14.00">阿部隆</text>
</g>
<!-- pro_176 -->
<g id="node23" class="node"><title>pro_176</title>
<polygon fill="lightblue" stroke="blue" points="319.94,-188.5 319.94,-224.5 380.94,-224.5 380.94,-188.5 319.94,-188.5"/>
<text text-anchor="middle" x="350.44" y="-202.8" font-family="Sans" font-size="14.00">中田功</text>
</g>
<!-- f10_c1 -->
<g id="node61" class="node"><title>f10_c1</title>
<ellipse fill="black" stroke="black" cx="424.8" cy="-206.5" rx="0.36" ry="0.36"/>
</g>
<!-- pro_176&#45;&#45;f10_c1 -->
<g id="edge50" class="edge"><title>pro_176&#45;&#45;f10_c1</title>
<path fill="none" stroke="black" d="M381.114,-206.5C399.677,-206.5 420.473,-206.5 424.21,-206.5"/>
</g>
<!-- pro_178 -->
<g id="node24" class="node"><title>pro_178</title>
<polygon fill="lightblue" stroke="blue" points="617.38,-605.5 617.38,-641.5 678.38,-641.5 678.38,-605.5 617.38,-605.5"/>
<text text-anchor="middle" x="647.88" y="-619.8" font-family="Sans" font-size="14.00">長沼洋</text>
</g>
<!-- pro_182 -->
<g id="node25" class="node"><title>pro_182</title>
<polygon fill="lightblue" stroke="blue" points="609.88,-550.5 609.88,-586.5 685.88,-586.5 685.88,-550.5 609.88,-550.5"/>
<text text-anchor="middle" x="647.88" y="-564.8" font-family="Sans" font-size="14.00">佐藤康光</text>
</g>
<!-- pro_199 -->
<g id="node26" class="node"><title>pro_199</title>
<polygon fill="lightblue" stroke="blue" points="461.16,-385.5 461.16,-421.5 537.16,-421.5 537.16,-385.5 461.16,-385.5"/>
<text text-anchor="middle" x="499.16" y="-399.8" font-family="Sans" font-size="14.00">平藤眞吾</text>
</g>
<!-- pro_208 -->
<g id="node27" class="node"><title>pro_208</title>
<polygon fill="lightblue" stroke="blue" points="312.44,-133.5 312.44,-169.5 388.44,-169.5 388.44,-133.5 312.44,-133.5"/>
<text text-anchor="middle" x="350.44" y="-147.8" font-family="Sans" font-size="14.00">行方尚史</text>
</g>
<!-- pro_223 -->
<g id="node28" class="node"><title>pro_223</title>
<polygon fill="lightblue" stroke="blue" points="609.88,-495.5 609.88,-531.5 685.88,-531.5 685.88,-495.5 609.88,-495.5"/>
<text text-anchor="middle" x="647.88" y="-509.8" font-family="Sans" font-size="14.00">小林裕士</text>
</g>
<!-- pro_243 -->
<g id="node29" class="node"><title>pro_243</title>
<polygon fill="lightblue" stroke="blue" points="461.16,-330.5 461.16,-366.5 537.16,-366.5 537.16,-330.5 461.16,-330.5"/>
<text text-anchor="middle" x="499.16" y="-344.8" font-family="Sans" font-size="14.00">大平武洋</text>
</g>
<!-- pro_263 -->
<g id="node30" class="node"><title>pro_263</title>
<polygon fill="lightblue" stroke="blue" points="461.16,-220.5 461.16,-256.5 537.16,-256.5 537.16,-220.5 461.16,-220.5"/>
<text text-anchor="middle" x="499.16" y="-234.8" font-family="Sans" font-size="14.00">佐藤天彦</text>
</g>
<!-- pro_272 -->
<g id="node31" class="node"><title>pro_272</title>
<polygon fill="lightblue" stroke="blue" points="609.88,-440.5 609.88,-476.5 685.88,-476.5 685.88,-440.5 609.88,-440.5"/>
<text text-anchor="middle" x="647.88" y="-454.8" font-family="Sans" font-size="14.00">西川和宏</text>
</g>
<!-- pro_299 -->
<g id="node32" class="node"><title>pro_299</title>
<polygon fill="lightblue" stroke="blue" points="461.16,-275.5 461.16,-311.5 537.16,-311.5 537.16,-275.5 461.16,-275.5"/>
<text text-anchor="middle" x="499.16" y="-289.8" font-family="Sans" font-size="14.00">今泉健司</text>
</g>
<!-- lady_25 -->
<g id="node33" class="node"><title>lady_25</title>
<polygon fill="pink" stroke="red" points="461.16,-0.5 461.16,-36.5 537.16,-36.5 537.16,-0.5 461.16,-0.5"/>
<text text-anchor="middle" x="499.16" y="-14.8" font-family="Sans" font-size="14.00">山田朱未</text>
</g>
<!-- lady_6002 -->
<g id="node34" class="node"><title>lady_6002</title>
<polygon fill="pink" stroke="red" points="461.16,-165.5 461.16,-201.5 537.16,-201.5 537.16,-165.5 461.16,-165.5"/>
<text text-anchor="middle" x="499.16" y="-179.8" font-family="Sans" font-size="14.00">武富礼衣</text>
</g>
<!-- extra_3 -->
<g id="node35" class="node"><title>extra_3</title>
<polygon fill="lightblue" stroke="blue" points="0,-249.5 0,-285.5 91,-285.5 91,-249.5 0,-249.5"/>
<text text-anchor="middle" x="45.5" y="-263.8" font-family="Sans" font-size="14.00">木見金治郎</text>
</g>
<!-- f11_c1 -->
<g id="node64" class="node"><title>f11_c1</title>
<ellipse fill="black" stroke="black" cx="127.36" cy="-267.5" rx="0.36" ry="0.36"/>
</g>
<!-- extra_3&#45;&#45;f11_c1 -->
<g id="edge55" class="edge"><title>extra_3&#45;&#45;f11_c1</title>
<path fill="none" stroke="black" d="M91.2167,-267.167C108.796,-267.167 125.181,-267.167 127.16,-267.167"/>
</g>
<!-- f0_c0 -->
<g id="node36" class="node"><title>f0_c0</title>
<ellipse fill="black" stroke="black" cx="276.08" cy="-582.5" rx="0.36" ry="0.36"/>
</g>
<!-- f0_c0&#45;&#45;pro_30 -->
<g id="edge4" class="edge"><title>f0_c0&#45;&#45;pro_30</title>
<path fill="none" stroke="black" d="M276.555,-582.5C279.499,-582.5 295.671,-582.5 312.137,-582.5"/>
</g>
<!-- f0_c0&#45;&#45;f0_c1 -->
<g id="edge1" class="edge"><title>f0_c0&#45;&#45;f0_c1</title>
<path fill="none" stroke="black" d="M276.88,-582.428C276.88,-581.008 276.88,-558.945 276.88,-557.567"/>
</g>
<!-- f0_c2 -->
<g id="node38" class="node"><title>f0_c2</title>
<ellipse fill="black" stroke="black" cx="276.08" cy="-534.5" rx="0.36" ry="0.36"/>
</g>
<!-- f0_c1&#45;&#45;f0_c2 -->
<g id="edge2" class="edge"><title>f0_c1&#45;&#45;f0_c2</title>
<path fill="none" stroke="black" d="M276.88,-557.434C276.88,-556.127 276.88,-535.829 276.88,-534.562"/>
</g>
<!-- f0_c2&#45;&#45;pro_162 -->
<g id="edge5" class="edge"><title>f0_c2&#45;&#45;pro_162</title>
<path fill="none" stroke="black" d="M276.555,-534.5C279.499,-534.5 295.671,-534.5 312.137,-534.5"/>
</g>
<!-- f1_c&#45;&#45;pro_70 -->
<g id="edge7" class="edge"><title>f1_c&#45;&#45;pro_70</title>
<path fill="none" stroke="black" d="M276.555,-448.5C279.499,-448.5 295.671,-448.5 312.137,-448.5"/>
</g>
<!-- f2_c&#45;&#45;pro_120 -->
<g id="edge9" class="edge"><title>f2_c&#45;&#45;pro_120</title>
<path fill="none" stroke="black" d="M276.555,-322.5C279.499,-322.5 295.671,-322.5 312.137,-322.5"/>
</g>
<!-- f3_c0 -->
<g id="node41" class="node"><title>f3_c0</title>
<ellipse fill="black" stroke="black" cx="276.08" cy="-243.5" rx="0.36" ry="0.36"/>
</g>
<!-- f3_c0&#45;&#45;pro_66 -->
<g id="edge13" class="edge"><title>f3_c0&#45;&#45;pro_66</title>
<path fill="none" stroke="black" d="M276.555,-243.75C279.499,-243.75 295.671,-243.75 312.137,-243.75"/>
</g>
<!-- f3_c0&#45;&#45;f3_c1 -->
<g id="edge10" class="edge"><title>f3_c0&#45;&#45;f3_c1</title>
<path fill="none" stroke="black" d="M276.88,-243.42C276.88,-241.829 276.88,-217.118 276.88,-215.575"/>
</g>
<!-- f3_c1&#45;&#45;pro_176 -->
<g id="edge14" class="edge"><title>f3_c1&#45;&#45;pro_176</title>
<path fill="none" stroke="black" d="M276.555,-215.5C279.944,-215.5 300.866,-215.5 319.584,-215.5"/>
</g>
<!-- f3_c2 -->
<g id="node43" class="node"><title>f3_c2</title>
<ellipse fill="black" stroke="black" cx="276.08" cy="-169.5" rx="0.36" ry="0.36"/>
</g>
<!-- f3_c1&#45;&#45;f3_c2 -->
<g id="edge11" class="edge"><title>f3_c1&#45;&#45;f3_c2</title>
<path fill="none" stroke="black" d="M276.88,-215.368C276.88,-212.754 276.88,-172.159 276.88,-169.624"/>
</g>
<!-- f3_c2&#45;&#45;pro_208 -->
<g id="edge15" class="edge"><title>f3_c2&#45;&#45;pro_208</title>
<path fill="none" stroke="black" d="M276.555,-169.25C279.499,-169.25 295.671,-169.25 312.137,-169.25"/>
</g>
<!-- f4_c0 -->
<g id="node44" class="node"><title>f4_c0</title>
<ellipse fill="black" stroke="black" cx="424.8" cy="-614.5" rx="0.36" ry="0.36"/>
</g>
<!-- f4_c0&#45;&#45;pro_104 -->
<g id="edge19" class="edge"><title>f4_c0&#45;&#45;pro_104</title>
<path fill="none" stroke="black" d="M425.275,-614.5C428.219,-614.5 444.391,-614.5 460.857,-614.5"/>
</g>
<!-- f4_c0&#45;&#45;f4_c1 -->
<g id="edge16" class="edge"><title>f4_c0&#45;&#45;f4_c1</title>
<path fill="none" stroke="black" d="M424.88,-613.833C424.88,-610.065 424.88,-591.499 424.88,-588.052"/>
</g>
<!-- f4_c2 -->
<g id="node46" class="node"><title>f4_c2</title>
<ellipse fill="black" stroke="black" cx="424.8" cy="-568.5" rx="0.36" ry="0.36"/>
</g>
<!-- f4_c1&#45;&#45;f4_c2 -->
<g id="edge17" class="edge"><title>f4_c1&#45;&#45;f4_c2</title>
<path fill="none" stroke="black" d="M424.88,-587.03C424.88,-584.379 424.88,-571.314 424.88,-568.888"/>
</g>
<!-- f4_c2&#45;&#45;pro_145 -->
<g id="edge20" class="edge"><title>f4_c2&#45;&#45;pro_145</title>
<path fill="none" stroke="black" d="M425.275,-568.5C428.219,-568.5 444.391,-568.5 460.857,-568.5"/>
</g>
<!-- f5_c0 -->
<g id="node47" class="node"><title>f5_c0</title>
<ellipse fill="black" stroke="black" cx="424.8" cy="-119.5" rx="0.36" ry="0.36"/>
</g>
<!-- f5_c0&#45;&#45;pro_105 -->
<g id="edge24" class="edge"><title>f5_c0&#45;&#45;pro_105</title>
<path fill="none" stroke="black" d="M425.275,-119.5C428.219,-119.5 444.391,-119.5 460.857,-119.5"/>
</g>
<!-- f5_c0&#45;&#45;f5_c1 -->
<g id="edge21" class="edge"><title>f5_c0&#45;&#45;f5_c1</title>
<path fill="none" stroke="black" d="M424.88,-119.084C424.88,-115.274 424.88,-86.4538 424.88,-82.8662"/>
</g>
<!-- f5_c1&#45;&#45;pro_158 -->
<g id="edge25" class="edge"><title>f5_c1&#45;&#45;pro_158</title>
<path fill="none" stroke="black" d="M425.275,-82.5C428.219,-82.5 444.391,-82.5 460.857,-82.5"/>
</g>
<!-- f5_c2 -->
<g id="node49" class="node"><title>f5_c2</title>
<ellipse fill="black" stroke="black" cx="424.8" cy="-45.5" rx="0.36" ry="0.36"/>
</g>
<!-- f5_c1&#45;&#45;f5_c2 -->
<g id="edge22" class="edge"><title>f5_c1&#45;&#45;f5_c2</title>
<path fill="none" stroke="black" d="M424.88,-82.0845C424.88,-78.2736 424.88,-49.4538 424.88,-45.8662"/>
</g>
<!-- f5_c2&#45;&#45;lady_25 -->
<g id="edge26" class="edge"><title>f5_c2&#45;&#45;lady_25</title>
<path fill="none" stroke="black" d="M424.88,-44.9629C424.88,-42.5703 424.88,-33 424.88,-33 424.88,-33 442.874,-33 461.15,-33"/>
</g>
<!-- f6_c0 -->
<g id="node50" class="node"><title>f6_c0</title>
<ellipse fill="black" stroke="black" cx="424.8" cy="-491.5" rx="0.36" ry="0.36"/>
</g>
<!-- f6_c0&#45;&#45;pro_116 -->
<g id="edge30" class="edge"><title>f6_c0&#45;&#45;pro_116</title>
<path fill="none" stroke="black" d="M424.88,-492.059C424.88,-494.547 424.88,-504.5 424.88,-504.5 424.88,-504.5 442.874,-504.5 461.15,-504.5"/>
</g>
<!-- f6_c0&#45;&#45;f6_c1 -->
<g id="edge27" class="edge"><title>f6_c0&#45;&#45;f6_c1</title>
<path fill="none" stroke="black" d="M424.88,-491.04C424.88,-486.817 424.88,-454.881 424.88,-450.906"/>
</g>
<!-- f6_c1&#45;&#45;pro_151 -->
<g id="edge31" class="edge"><title>f6_c1&#45;&#45;pro_151</title>
<path fill="none" stroke="black" d="M425.275,-450.5C428.219,-450.5 444.391,-450.5 460.857,-450.5"/>
</g>
<!-- f6_c2 -->
<g id="node52" class="node"><title>f6_c2</title>
<ellipse fill="black" stroke="black" cx="424.8" cy="-417.5" rx="0.36" ry="0.36"/>
</g>
<!-- f6_c1&#45;&#45;f6_c2 -->
<g id="edge28" class="edge"><title>f6_c1&#45;&#45;f6_c2</title>
<path fill="none" stroke="black" d="M424.88,-450.129C424.88,-446.844 424.88,-422.715 424.88,-418.22"/>
</g>
<!-- f6_c2&#45;&#45;pro_199 -->
<g id="edge32" class="edge"><title>f6_c2&#45;&#45;pro_199</title>
<path fill="none" stroke="black" d="M425.275,-417.5C428.219,-417.5 444.391,-417.5 460.857,-417.5"/>
</g>
<!-- f7_c0 -->
<g id="node53" class="node"><title>f7_c0</title>
<ellipse fill="black" stroke="black" cx="573.52" cy="-678.5" rx="0.36" ry="0.36"/>
</g>
<!-- f7_c0&#45;&#45;pro_135 -->
<g id="edge36" class="edge"><title>f7_c0&#45;&#45;pro_135</title>
<path fill="none" stroke="black" d="M573.88,-678.658C573.88,-681.884 573.88,-733.5 573.88,-733.5 573.88,-733.5 591.523,-733.5 609.579,-733.5"/>
</g>
<!-- f7_c0&#45;&#45;pro_171 -->
<g id="edge37" class="edge"><title>f7_c0&#45;&#45;pro_171</title>
<path fill="none" stroke="black" d="M573.995,-678.5C577.384,-678.5 598.306,-678.5 617.024,-678.5"/>
</g>
<!-- f7_c0&#45;&#45;f7_c1 -->
<g id="edge33" class="edge"><title>f7_c0&#45;&#45;f7_c1</title>
<path fill="none" stroke="black" d="M573.88,-678.342C573.88,-675.217 573.88,-626.679 573.88,-623.648"/>
</g>
<!-- f7_c1&#45;&#45;pro_178 -->
<g id="edge38" class="edge"><title>f7_c1&#45;&#45;pro_178</title>
<path fill="none" stroke="black" d="M573.995,-623.5C577.384,-623.5 598.306,-623.5 617.024,-623.5"/>
</g>
<!-- f7_c1&#45;&#45;pro_182 -->
<g id="edge39" class="edge"><title>f7_c1&#45;&#45;pro_182</title>
<path fill="none" stroke="black" d="M573.88,-623.391C573.88,-622.319 573.88,-613.75 573.88,-613.75 573.88,-613.75 613.88,-613.75 613.88,-613.75 613.88,-613.75 613.88,-599.233 613.88,-586.644"/>
</g>
<!-- f7_c2 -->
<g id="node55" class="node"><title>f7_c2</title>
<ellipse fill="black" stroke="black" cx="573.52" cy="-558.5" rx="0.36" ry="0.36"/>
</g>
<!-- f7_c1&#45;&#45;f7_c2 -->
<g id="edge34" class="edge"><title>f7_c1&#45;&#45;f7_c2</title>
<path fill="none" stroke="black" d="M573.88,-623.453C573.88,-621.515 573.88,-560.453 573.88,-558.546"/>
</g>
<!-- f7_c2&#45;&#45;pro_223 -->
<g id="edge40" class="edge"><title>f7_c2&#45;&#45;pro_223</title>
<path fill="none" stroke="black" d="M573.88,-558.371C573.88,-555.731 573.88,-513.5 573.88,-513.5 573.88,-513.5 591.523,-513.5 609.579,-513.5"/>
</g>
<!-- f8_c0 -->
<g id="node56" class="node"><title>f8_c0</title>
<ellipse fill="black" stroke="black" cx="424.8" cy="-344.5" rx="0.36" ry="0.36"/>
</g>
<!-- f8_c0&#45;&#45;pro_243 -->
<g id="edge44" class="edge"><title>f8_c0&#45;&#45;pro_243</title>
<path fill="none" stroke="black" d="M425.275,-344.5C428.219,-344.5 444.391,-344.5 460.857,-344.5"/>
</g>
<!-- f8_c0&#45;&#45;f8_c1 -->
<g id="edge41" class="edge"><title>f8_c0&#45;&#45;f8_c1</title>
<path fill="none" stroke="black" d="M424.88,-343.956C424.88,-340.886 424.88,-325.759 424.88,-322.949"/>
</g>
<!-- f8_c2 -->
<g id="node58" class="node"><title>f8_c2</title>
<ellipse fill="black" stroke="black" cx="424.8" cy="-295.5" rx="0.36" ry="0.36"/>
</g>
<!-- f8_c1&#45;&#45;f8_c2 -->
<g id="edge42" class="edge"><title>f8_c1&#45;&#45;f8_c2</title>
<path fill="none" stroke="black" d="M424.88,-321.833C424.88,-318.065 424.88,-299.499 424.88,-296.052"/>
</g>
<!-- f8_c2&#45;&#45;pro_299 -->
<g id="edge45" class="edge"><title>f8_c2&#45;&#45;pro_299</title>
<path fill="none" stroke="black" d="M425.275,-295.5C428.219,-295.5 444.391,-295.5 460.857,-295.5"/>
</g>
<!-- f9_c&#45;&#45;pro_272 -->
<g id="edge47" class="edge"><title>f9_c&#45;&#45;pro_272</title>
<path fill="none" stroke="black" d="M573.995,-458.5C576.939,-458.5 593.111,-458.5 609.577,-458.5"/>
</g>
<!-- f10_c0 -->
<g id="node60" class="node"><title>f10_c0</title>
<ellipse fill="black" stroke="black" cx="424.8" cy="-230.5" rx="0.36" ry="0.36"/>
</g>
<!-- f10_c0&#45;&#45;pro_263 -->
<g id="edge51" class="edge"><title>f10_c0&#45;&#45;pro_263</title>
<path fill="none" stroke="black" d="M425.275,-230.5C428.219,-230.5 444.391,-230.5 460.857,-230.5"/>
</g>
<!-- f10_c0&#45;&#45;f10_c1 -->
<g id="edge48" class="edge"><title>f10_c0&#45;&#45;f10_c1</title>
<path fill="none" stroke="black" d="M424.88,-229.907C424.88,-226.557 424.88,-210.055 424.88,-206.99"/>
</g>
<!-- f10_c2 -->
<g id="node62" class="node"><title>f10_c2</title>
<ellipse fill="black" stroke="black" cx="424.8" cy="-187.5" rx="0.36" ry="0.36"/>
</g>
<!-- f10_c1&#45;&#45;f10_c2 -->
<g id="edge49" class="edge"><title>f10_c1&#45;&#45;f10_c2</title>
<path fill="none" stroke="black" d="M424.88,-206.03C424.88,-203.379 424.88,-190.314 424.88,-187.888"/>
</g>
<!-- f10_c2&#45;&#45;lady_6002 -->
<g id="edge52" class="edge"><title>f10_c2&#45;&#45;lady_6002</title>
<path fill="none" stroke="black" d="M425.275,-187.5C428.219,-187.5 444.391,-187.5 460.857,-187.5"/>
</g>
<!-- f11_c0 -->
<g id="node63" class="node"><title>f11_c0</title>
<ellipse fill="black" stroke="black" cx="127.36" cy="-474.5" rx="0.36" ry="0.36"/>
</g>
<!-- f11_c0&#45;&#45;pro_6 -->
<g id="edge56" class="edge"><title>f11_c0&#45;&#45;pro_6</title>
<path fill="none" stroke="black" d="M127.843,-474.5C130.848,-474.5 146.88,-474.5 146.88,-474.5 146.88,-474.5 146.88,-557.5 146.88,-557.5 146.88,-557.5 154.274,-557.5 163.632,-557.5"/>
</g>
<!-- f11_c0&#45;&#45;pro_7 -->
<g id="edge57" class="edge"><title>f11_c0&#45;&#45;pro_7</title>
<path fill="none" stroke="black" d="M127.88,-474.58C127.88,-476.223 127.88,-502.5 127.88,-502.5 127.88,-502.5 145.485,-502.5 163.502,-502.5"/>
</g>
<!-- f11_c0&#45;&#45;pro_13 -->
<g id="edge58" class="edge"><title>f11_c0&#45;&#45;pro_13</title>
<path fill="none" stroke="black" d="M127.88,-474.423C127.88,-472.839 127.88,-447.5 127.88,-447.5 127.88,-447.5 145.485,-447.5 163.502,-447.5"/>
</g>
<!-- f11_c0&#45;&#45;f11_c1 -->
<g id="edge53" class="edge"><title>f11_c0&#45;&#45;f11_c1</title>
<path fill="none" stroke="black" d="M126.755,-474.5C122.985,-474.5 102.88,-474.5 102.88,-474.5 102.88,-474.5 102.88,-267.833 102.88,-267.833 102.88,-267.833 124.396,-267.833 127.085,-267.833"/>
</g>
<!-- f11_c1&#45;&#45;pro_18 -->
<g id="edge59" class="edge"><title>f11_c1&#45;&#45;pro_18</title>
<path fill="none" stroke="black" d="M127.88,-267.658C127.88,-270.884 127.88,-322.5 127.88,-322.5 127.88,-322.5 145.485,-322.5 163.502,-322.5"/>
</g>
<!-- f11_c1&#45;&#45;pro_26 -->
<g id="edge60" class="edge"><title>f11_c1&#45;&#45;pro_26</title>
<path fill="none" stroke="black" d="M127.835,-267.5C130.779,-267.5 146.951,-267.5 163.417,-267.5"/>
</g>
<!-- f11_c1&#45;&#45;pro_28 -->
<g id="edge61" class="edge"><title>f11_c1&#45;&#45;pro_28</title>
<path fill="none" stroke="black" d="M127.88,-267.342C127.88,-264.116 127.88,-212.5 127.88,-212.5 127.88,-212.5 145.485,-212.5 163.502,-212.5"/>
</g>
<!-- f11_c2 -->
<g id="node65" class="node"><title>f11_c2</title>
<ellipse fill="black" stroke="black" cx="127.36" cy="-129.5" rx="0.36" ry="0.36"/>
</g>
<!-- f11_c1&#45;&#45;f11_c2 -->
<g id="edge54" class="edge"><title>f11_c1&#45;&#45;f11_c2</title>
<path fill="none" stroke="black" d="M127.88,-267.4C127.88,-263.286 127.88,-133.647 127.88,-129.597"/>
</g>
<!-- f11_c2&#45;&#45;pro_51 -->
<g id="edge62" class="edge"><title>f11_c2&#45;&#45;pro_51</title>
<path fill="none" stroke="black" d="M127.815,-129.5C132.267,-129.5 167.88,-129.5 167.88,-129.5 167.88,-129.5 167.88,-133.945 167.88,-139.293"/>
</g>
<!-- f11_c2&#45;&#45;pro_52 -->
<g id="edge63" class="edge"><title>f11_c2&#45;&#45;pro_52</title>
<path fill="none" stroke="black" d="M127.88,-129.423C127.88,-127.839 127.88,-102.5 127.88,-102.5 127.88,-102.5 150.599,-102.5 170.833,-102.5"/>
</g>
<!-- f11_c2&#45;&#45;pro_58 -->
<g id="edge64" class="edge"><title>f11_c2&#45;&#45;pro_58</title>
<path fill="none" stroke="black" d="M126.824,-129.5C124.435,-129.5 114.88,-129.5 114.88,-129.5 114.88,-129.5 114.88,-47.5 114.88,-47.5 114.88,-47.5 140.298,-47.5 163.631,-47.5"/>
</g>
</g>
</svg>
