<?xml version="1.0" encoding="UTF-8" standalone="no"?>
<!DOCTYPE svg PUBLIC "-//W3C//DTD SVG 1.1//EN"
 "http://www.w3.org/Graphics/SVG/1.1/DTD/svg11.dtd">
<!-- Generated by graphviz version 2.38.0 (20140413.2041)
 -->
<!-- Title: ShogiPlayers12 Pages: 1 -->
<svg width="233pt" height="45pt"
 viewBox="0.00 0.00 232.72 45.00" xmlns="http://www.w3.org/2000/svg" xmlns:xlink="http://www.w3.org/1999/xlink">
<g id="graph0" class="graph" transform="scale(1 1) rotate(0) translate(4 41)">
<title>ShogiPlayers12</title>
<polygon fill="white" stroke="none" points="-4,4 -4,-41 228.72,-41 228.72,4 -4,4"/>
<!-- pro_36 -->
<g id="node1" class="node"><title>pro_36</title>
<polygon fill="lightblue" stroke="blue" points="148.72,-0.5 148.72,-36.5 224.72,-36.5 224.72,-0.5 148.72,-0.5"/>
<text text-anchor="middle" x="186.72" y="-14.8" font-family="Sans" font-size="14.00">星田啓三</text>
</g>
<!-- extra_12 -->
<g id="node2" class="node"><title>extra_12</title>
<polygon fill="lightblue" stroke="blue" points="0,-0.5 0,-36.5 76,-36.5 76,-0.5 0,-0.5"/>
<text text-anchor="middle" x="38" y="-14.8" font-family="Sans" font-size="14.00">阪田三吉</text>
</g>
<!-- f0_c -->
<g id="node3" class="node"><title>f0_c</title>
<ellipse fill="black" stroke="black" cx="112.36" cy="-18.5" rx="0.36" ry="0.36"/>
</g>
<!-- extra_12&#45;&#45;f0_c -->
<g id="edge1" class="edge"><title>extra_12&#45;&#45;f0_c</title>
<path fill="none" stroke="black" d="M76.0513,-18.5C92.6312,-18.5 108.98,-18.5 111.9,-18.5"/>
</g>
<!-- f0_c&#45;&#45;pro_36 -->
<g id="edge2" class="edge"><title>f0_c&#45;&#45;pro_36</title>
<path fill="none" stroke="black" d="M112.835,-18.5C115.779,-18.5 131.951,-18.5 148.417,-18.5"/>
</g>
</g>
</svg>
