<?xml version="1.0" encoding="UTF-8" standalone="no"?>
<!DOCTYPE svg PUBLIC "-//W3C//DTD SVG 1.1//EN"
 "http://www.w3.org/Graphics/SVG/1.1/DTD/svg11.dtd">
<!-- Generated by graphviz version 2.38.0 (20140413.2041)
 -->
<!-- Title: ShogiPlayers5 Pages: 1 -->
<svg width="709pt" height="595pt"
 viewBox="0.00 0.00 708.88 595.00" xmlns="http://www.w3.org/2000/svg" xmlns:xlink="http://www.w3.org/1999/xlink">
<g id="graph0" class="graph" transform="scale(1 1) rotate(0) translate(4 591)">
<title>ShogiPlayers5</title>
<polygon fill="white" stroke="none" points="-4,4 -4,-591 704.88,-591 704.88,4 -4,4"/>
<!-- pro_10 -->
<g id="node1" class="node"><title>pro_10</title>
<polygon fill="lightblue" stroke="blue" points="163.72,-289.5 163.72,-325.5 239.72,-325.5 239.72,-289.5 163.72,-289.5"/>
<text text-anchor="middle" x="201.72" y="-303.8" font-family="Sans" font-size="14.00">坂口允彦</text>
</g>
<!-- f0_c -->
<g id="node24" class="node"><title>f0_c</title>
<ellipse fill="black" stroke="black" cx="276.08" cy="-334.5" rx="0.36" ry="0.36"/>
</g>
<!-- pro_10&#45;&#45;f0_c -->
<g id="edge1" class="edge"><title>pro_10&#45;&#45;f0_c</title>
<path fill="none" stroke="black" d="M239.74,-317.75C258.382,-317.75 276.88,-317.75 276.88,-317.75 276.88,-317.75 276.88,-333.469 276.88,-334.452"/>
</g>
<!-- pro_11 -->
<g id="node2" class="node"><title>pro_11</title>
<polygon fill="lightblue" stroke="blue" points="163.72,-179.5 163.72,-215.5 239.72,-215.5 239.72,-179.5 163.72,-179.5"/>
<text text-anchor="middle" x="201.72" y="-193.8" font-family="Sans" font-size="14.00">塚田正夫</text>
</g>
<!-- f1_c -->
<g id="node25" class="node"><title>f1_c</title>
<ellipse fill="black" stroke="black" cx="276.08" cy="-197.5" rx="0.36" ry="0.36"/>
</g>
<!-- pro_11&#45;&#45;f1_c -->
<g id="edge3" class="edge"><title>pro_11&#45;&#45;f1_c</title>
<path fill="none" stroke="black" d="M239.771,-197.5C256.351,-197.5 272.7,-197.5 275.62,-197.5"/>
</g>
<!-- pro_20 -->
<g id="node3" class="node"><title>pro_20</title>
<polygon fill="lightblue" stroke="blue" points="163.72,-91.5 163.72,-127.5 239.72,-127.5 239.72,-91.5 163.72,-91.5"/>
<text text-anchor="middle" x="201.72" y="-105.8" font-family="Sans" font-size="14.00">荒巻三之</text>
</g>
<!-- f2_c1 -->
<g id="node27" class="node"><title>f2_c1</title>
<ellipse fill="black" stroke="black" cx="276.08" cy="-82.5" rx="0.36" ry="0.36"/>
</g>
<!-- pro_20&#45;&#45;f2_c1 -->
<g id="edge7" class="edge"><title>pro_20&#45;&#45;f2_c1</title>
<path fill="none" stroke="black" d="M201.88,-91.3408C201.88,-86.4567 201.88,-82.5 201.88,-82.5 201.88,-82.5 269.287,-82.5 275.606,-82.5"/>
</g>
<!-- pro_32 -->
<g id="node4" class="node"><title>pro_32</title>
<polygon fill="lightblue" stroke="blue" points="163.72,-36.5 163.72,-72.5 239.72,-72.5 239.72,-36.5 163.72,-36.5"/>
<text text-anchor="middle" x="201.72" y="-50.8" font-family="Sans" font-size="14.00">広津久雄</text>
</g>
<!-- pro_64 -->
<g id="node5" class="node"><title>pro_64</title>
<polygon fill="lightblue" stroke="blue" points="461.16,-220.5 461.16,-256.5 552.16,-256.5 552.16,-220.5 461.16,-220.5"/>
<text text-anchor="middle" x="506.66" y="-234.8" font-family="Sans" font-size="14.00">加藤一二三</text>
</g>
<!-- pro_65 -->
<g id="node6" class="node"><title>pro_65</title>
<polygon fill="lightblue" stroke="blue" points="312.44,-179.5 312.44,-215.5 388.44,-215.5 388.44,-179.5 312.44,-179.5"/>
<text text-anchor="middle" x="350.44" y="-193.8" font-family="Sans" font-size="14.00">宮坂幸雄</text>
</g>
<!-- pro_73 -->
<g id="node7" class="node"><title>pro_73</title>
<polygon fill="lightblue" stroke="blue" points="312.44,-110.5 312.44,-146.5 388.44,-146.5 388.44,-110.5 312.44,-110.5"/>
<text text-anchor="middle" x="350.44" y="-124.8" font-family="Sans" font-size="14.00">剱持松二</text>
</g>
<!-- f3_c1 -->
<g id="node30" class="node"><title>f3_c1</title>
<ellipse fill="black" stroke="black" cx="424.8" cy="-128.5" rx="0.36" ry="0.36"/>
</g>
<!-- pro_73&#45;&#45;f3_c1 -->
<g id="edge13" class="edge"><title>pro_73&#45;&#45;f3_c1</title>
<path fill="none" stroke="black" d="M388.491,-128.5C405.071,-128.5 421.42,-128.5 424.34,-128.5"/>
</g>
<!-- pro_79 -->
<g id="node8" class="node"><title>pro_79</title>
<polygon fill="lightblue" stroke="blue" points="312.44,-323.5 312.44,-359.5 388.44,-359.5 388.44,-323.5 312.44,-323.5"/>
<text text-anchor="middle" x="350.44" y="-337.8" font-family="Sans" font-size="14.00">佐伯昌優</text>
</g>
<!-- f4_c1 -->
<g id="node33" class="node"><title>f4_c1</title>
<ellipse fill="black" stroke="black" cx="424.8" cy="-348.5" rx="0.36" ry="0.36"/>
</g>
<!-- pro_79&#45;&#45;f4_c1 -->
<g id="edge20" class="edge"><title>pro_79&#45;&#45;f4_c1</title>
<path fill="none" stroke="black" d="M388.491,-348.5C405.071,-348.5 421.42,-348.5 424.34,-348.5"/>
</g>
<!-- pro_94 -->
<g id="node9" class="node"><title>pro_94</title>
<polygon fill="lightblue" stroke="blue" points="312.44,-55.5 312.44,-91.5 388.44,-91.5 388.44,-55.5 312.44,-55.5"/>
<text text-anchor="middle" x="350.44" y="-69.8" font-family="Sans" font-size="14.00">高田丈資</text>
</g>
<!-- f5_c -->
<g id="node35" class="node"><title>f5_c</title>
<ellipse fill="black" stroke="black" cx="424.8" cy="-45.5" rx="0.36" ry="0.36"/>
</g>
<!-- pro_94&#45;&#45;f5_c -->
<g id="edge26" class="edge"><title>pro_94&#45;&#45;f5_c</title>
<path fill="none" stroke="black" d="M388.532,-72.75C406.847,-72.75 424.88,-72.75 424.88,-72.75 424.88,-72.75 424.88,-50.3699 424.88,-46.1736"/>
</g>
<!-- pro_143 -->
<g id="node10" class="node"><title>pro_143</title>
<polygon fill="lightblue" stroke="blue" points="476.16,-495.5 476.16,-531.5 537.16,-531.5 537.16,-495.5 476.16,-495.5"/>
<text text-anchor="middle" x="506.66" y="-509.8" font-family="Sans" font-size="14.00">中村修</text>
</g>
<!-- f6_c1 -->
<g id="node37" class="node"><title>f6_c1</title>
<ellipse fill="black" stroke="black" cx="588.52" cy="-513.5" rx="0.36" ry="0.36"/>
</g>
<!-- pro_143&#45;&#45;f6_c1 -->
<g id="edge30" class="edge"><title>pro_143&#45;&#45;f6_c1</title>
<path fill="none" stroke="black" d="M537.608,-513.5C558.616,-513.5 583.36,-513.5 587.815,-513.5"/>
</g>
<!-- pro_177 -->
<g id="node11" class="node"><title>pro_177</title>
<polygon fill="lightblue" stroke="blue" points="468.66,-0.5 468.66,-36.5 544.66,-36.5 544.66,-0.5 468.66,-0.5"/>
<text text-anchor="middle" x="506.66" y="-14.8" font-family="Sans" font-size="14.00">石川陽生</text>
</g>
<!-- pro_191 -->
<g id="node12" class="node"><title>pro_191</title>
<polygon fill="lightblue" stroke="blue" points="312.44,-0.5 312.44,-36.5 388.44,-36.5 388.44,-0.5 312.44,-0.5"/>
<text text-anchor="middle" x="350.44" y="-14.8" font-family="Sans" font-size="14.00">高田尚平</text>
</g>
<!-- pro_211 -->
<g id="node13" class="node"><title>pro_211</title>
<polygon fill="lightblue" stroke="blue" points="468.66,-440.5 468.66,-476.5 544.66,-476.5 544.66,-440.5 468.66,-440.5"/>
<text text-anchor="middle" x="506.66" y="-454.8" font-family="Sans" font-size="14.00">北浜健介</text>
</g>
<!-- pro_216 -->
<g id="node14" class="node"><title>pro_216</title>
<polygon fill="lightblue" stroke="blue" points="468.66,-165.5 468.66,-201.5 544.66,-201.5 544.66,-165.5 468.66,-165.5"/>
<text text-anchor="middle" x="506.66" y="-179.8" font-family="Sans" font-size="14.00">松本佳介</text>
</g>
<!-- pro_239 -->
<g id="node15" class="node"><title>pro_239</title>
<polygon fill="lightblue" stroke="blue" points="468.66,-110.5 468.66,-146.5 544.66,-146.5 544.66,-110.5 468.66,-110.5"/>
<text text-anchor="middle" x="506.66" y="-124.8" font-family="Sans" font-size="14.00">橋本崇載</text>
</g>
<!-- pro_271 -->
<g id="node16" class="node"><title>pro_271</title>
<polygon fill="lightblue" stroke="blue" points="468.66,-55.5 468.66,-91.5 544.66,-91.5 544.66,-55.5 468.66,-55.5"/>
<text text-anchor="middle" x="506.66" y="-69.8" font-family="Sans" font-size="14.00">佐藤慎一</text>
</g>
<!-- pro_283 -->
<g id="node17" class="node"><title>pro_283</title>
<polygon fill="lightblue" stroke="blue" points="624.88,-550.5 624.88,-586.5 700.88,-586.5 700.88,-550.5 624.88,-550.5"/>
<text text-anchor="middle" x="662.88" y="-564.8" font-family="Sans" font-size="14.00">阿部光瑠</text>
</g>
<!-- pro_288 -->
<g id="node18" class="node"><title>pro_288</title>
<polygon fill="lightblue" stroke="blue" points="632.38,-495.5 632.38,-531.5 693.38,-531.5 693.38,-495.5 632.38,-495.5"/>
<text text-anchor="middle" x="662.88" y="-509.8" font-family="Sans" font-size="14.00">上村亘</text>
</g>
<!-- lady_9 -->
<g id="node19" class="node"><title>lady_9</title>
<polygon fill="pink" stroke="red" points="468.66,-385.5 468.66,-421.5 544.66,-421.5 544.66,-385.5 468.66,-385.5"/>
<text text-anchor="middle" x="506.66" y="-399.8" font-family="Sans" font-size="14.00">斎田晴子</text>
</g>
<!-- lady_13 -->
<g id="node20" class="node"><title>lady_13</title>
<polygon fill="pink" stroke="red" points="476.16,-330.5 476.16,-366.5 537.16,-366.5 537.16,-330.5 476.16,-330.5"/>
<text text-anchor="middle" x="506.66" y="-344.8" font-family="Sans" font-size="14.00">高橋和</text>
</g>
<!-- lady_30 -->
<g id="node21" class="node"><title>lady_30</title>
<polygon fill="pink" stroke="red" points="461.16,-275.5 461.16,-311.5 552.16,-311.5 552.16,-275.5 461.16,-275.5"/>
<text text-anchor="middle" x="506.66" y="-289.8" font-family="Sans" font-size="14.00">中村真梨花</text>
</g>
<!-- lady_40 -->
<g id="node22" class="node"><title>lady_40</title>
<polygon fill="pink" stroke="red" points="624.88,-440.5 624.88,-476.5 700.88,-476.5 700.88,-440.5 624.88,-440.5"/>
<text text-anchor="middle" x="662.88" y="-454.8" font-family="Sans" font-size="14.00">香川愛生</text>
</g>
<!-- extra_5 -->
<g id="node23" class="node"><title>extra_5</title>
<polygon fill="lightblue" stroke="blue" points="0,-91.5 0,-127.5 91,-127.5 91,-91.5 0,-91.5"/>
<text text-anchor="middle" x="45.5" y="-105.8" font-family="Sans" font-size="14.00">花田長太郎</text>
</g>
<!-- f7_c1 -->
<g id="node40" class="node"><title>f7_c1</title>
<ellipse fill="black" stroke="black" cx="127.36" cy="-109.5" rx="0.36" ry="0.36"/>
</g>
<!-- extra_5&#45;&#45;f7_c1 -->
<g id="edge36" class="edge"><title>extra_5&#45;&#45;f7_c1</title>
<path fill="none" stroke="black" d="M91.2167,-109.5C108.21,-109.5 124.087,-109.5 126.915,-109.5"/>
</g>
<!-- f0_c&#45;&#45;pro_79 -->
<g id="edge2" class="edge"><title>f0_c&#45;&#45;pro_79</title>
<path fill="none" stroke="black" d="M276.555,-334.5C279.499,-334.5 295.671,-334.5 312.137,-334.5"/>
</g>
<!-- f1_c&#45;&#45;pro_65 -->
<g id="edge4" class="edge"><title>f1_c&#45;&#45;pro_65</title>
<path fill="none" stroke="black" d="M276.555,-197.5C279.499,-197.5 295.671,-197.5 312.137,-197.5"/>
</g>
<!-- f2_c0 -->
<g id="node26" class="node"><title>f2_c0</title>
<ellipse fill="black" stroke="black" cx="276.08" cy="-110.5" rx="0.36" ry="0.36"/>
</g>
<!-- f2_c0&#45;&#45;pro_73 -->
<g id="edge8" class="edge"><title>f2_c0&#45;&#45;pro_73</title>
<path fill="none" stroke="black" d="M276.555,-110.75C279.499,-110.75 295.671,-110.75 312.137,-110.75"/>
</g>
<!-- f2_c0&#45;&#45;f2_c1 -->
<g id="edge5" class="edge"><title>f2_c0&#45;&#45;f2_c1</title>
<path fill="none" stroke="black" d="M276.88,-110.42C276.88,-108.829 276.88,-84.1183 276.88,-82.5754"/>
</g>
<!-- f2_c1&#45;&#45;pro_94 -->
<g id="edge9" class="edge"><title>f2_c1&#45;&#45;pro_94</title>
<path fill="none" stroke="black" d="M276.555,-82.5C279.499,-82.5 295.671,-82.5 312.137,-82.5"/>
</g>
<!-- f2_c2 -->
<g id="node28" class="node"><title>f2_c2</title>
<ellipse fill="black" stroke="black" cx="276.08" cy="-36.5" rx="0.36" ry="0.36"/>
</g>
<!-- f2_c1&#45;&#45;f2_c2 -->
<g id="edge6" class="edge"><title>f2_c1&#45;&#45;f2_c2</title>
<path fill="none" stroke="black" d="M276.88,-82.368C276.88,-79.7542 276.88,-39.1586 276.88,-36.6239"/>
</g>
<!-- f2_c2&#45;&#45;pro_191 -->
<g id="edge10" class="edge"><title>f2_c2&#45;&#45;pro_191</title>
<path fill="none" stroke="black" d="M276.555,-36.25C279.499,-36.25 295.671,-36.25 312.137,-36.25"/>
</g>
<!-- f3_c0 -->
<g id="node29" class="node"><title>f3_c0</title>
<ellipse fill="black" stroke="black" cx="424.8" cy="-183.5" rx="0.36" ry="0.36"/>
</g>
<!-- f3_c0&#45;&#45;pro_64 -->
<g id="edge14" class="edge"><title>f3_c0&#45;&#45;pro_64</title>
<path fill="none" stroke="black" d="M424.88,-184.118C424.88,-190.16 424.88,-238.5 424.88,-238.5 424.88,-238.5 442.255,-238.5 460.988,-238.5"/>
</g>
<!-- f3_c0&#45;&#45;pro_216 -->
<g id="edge15" class="edge"><title>f3_c0&#45;&#45;pro_216</title>
<path fill="none" stroke="black" d="M425.323,-183.5C428.809,-183.5 449.143,-183.5 468.606,-183.5"/>
</g>
<!-- f3_c0&#45;&#45;f3_c1 -->
<g id="edge11" class="edge"><title>f3_c0&#45;&#45;f3_c1</title>
<path fill="none" stroke="black" d="M424.88,-182.882C424.88,-177.217 424.88,-134.377 424.88,-129.044"/>
</g>
<!-- f3_c1&#45;&#45;pro_239 -->
<g id="edge16" class="edge"><title>f3_c1&#45;&#45;pro_239</title>
<path fill="none" stroke="black" d="M425.323,-128.5C428.809,-128.5 449.143,-128.5 468.606,-128.5"/>
</g>
<!-- f3_c2 -->
<g id="node31" class="node"><title>f3_c2</title>
<ellipse fill="black" stroke="black" cx="424.8" cy="-91.5" rx="0.36" ry="0.36"/>
</g>
<!-- f3_c1&#45;&#45;f3_c2 -->
<g id="edge12" class="edge"><title>f3_c1&#45;&#45;f3_c2</title>
<path fill="none" stroke="black" d="M424.88,-128.084C424.88,-124.274 424.88,-95.4538 424.88,-91.8662"/>
</g>
<!-- f3_c2&#45;&#45;pro_271 -->
<g id="edge17" class="edge"><title>f3_c2&#45;&#45;pro_271</title>
<path fill="none" stroke="black" d="M425.323,-91.25C428.809,-91.25 449.143,-91.25 468.606,-91.25"/>
</g>
<!-- f4_c0 -->
<g id="node32" class="node"><title>f4_c0</title>
<ellipse fill="black" stroke="black" cx="424.8" cy="-458.5" rx="0.36" ry="0.36"/>
</g>
<!-- f4_c0&#45;&#45;pro_143 -->
<g id="edge21" class="edge"><title>f4_c0&#45;&#45;pro_143</title>
<path fill="none" stroke="black" d="M424.88,-459.118C424.88,-465.16 424.88,-513.5 424.88,-513.5 424.88,-513.5 452.584,-513.5 475.742,-513.5"/>
</g>
<!-- f4_c0&#45;&#45;pro_211 -->
<g id="edge22" class="edge"><title>f4_c0&#45;&#45;pro_211</title>
<path fill="none" stroke="black" d="M425.323,-458.5C428.809,-458.5 449.143,-458.5 468.606,-458.5"/>
</g>
<!-- f4_c0&#45;&#45;f4_c1 -->
<g id="edge18" class="edge"><title>f4_c0&#45;&#45;f4_c1</title>
<path fill="none" stroke="black" d="M424.88,-457.798C424.88,-448.868 424.88,-357.669 424.88,-349.139"/>
</g>
<!-- f4_c1&#45;&#45;lady_9 -->
<g id="edge23" class="edge"><title>f4_c1&#45;&#45;lady_9</title>
<path fill="none" stroke="black" d="M425.88,-348.658C425.88,-351.884 425.88,-403.5 425.88,-403.5 425.88,-403.5 447.684,-403.5 468.635,-403.5"/>
</g>
<!-- f4_c1&#45;&#45;lady_13 -->
<g id="edge24" class="edge"><title>f4_c1&#45;&#45;lady_13</title>
<path fill="none" stroke="black" d="M425.323,-348.5C429.244,-348.5 454.49,-348.5 475.829,-348.5"/>
</g>
<!-- f4_c2 -->
<g id="node34" class="node"><title>f4_c2</title>
<ellipse fill="black" stroke="black" cx="424.8" cy="-311.5" rx="0.36" ry="0.36"/>
</g>
<!-- f4_c1&#45;&#45;f4_c2 -->
<g id="edge19" class="edge"><title>f4_c1&#45;&#45;f4_c2</title>
<path fill="none" stroke="black" d="M424.88,-348.084C424.88,-344.274 424.88,-315.454 424.88,-311.866"/>
</g>
<!-- f4_c2&#45;&#45;lady_30 -->
<g id="edge25" class="edge"><title>f4_c2&#45;&#45;lady_30</title>
<path fill="none" stroke="black" d="M425.323,-311.25C428.346,-311.25 444.039,-311.25 460.846,-311.25"/>
</g>
<!-- f5_c&#45;&#45;pro_177 -->
<g id="edge27" class="edge"><title>f5_c&#45;&#45;pro_177</title>
<path fill="none" stroke="black" d="M424.88,-44.8326C424.88,-40.6748 424.88,-18.5 424.88,-18.5 424.88,-18.5 447.287,-18.5 468.643,-18.5"/>
</g>
<!-- f6_c0 -->
<g id="node36" class="node"><title>f6_c0</title>
<ellipse fill="black" stroke="black" cx="588.52" cy="-550.5" rx="0.36" ry="0.36"/>
</g>
<!-- f6_c0&#45;&#45;pro_283 -->
<g id="edge31" class="edge"><title>f6_c0&#45;&#45;pro_283</title>
<path fill="none" stroke="black" d="M588.995,-550.75C591.939,-550.75 608.111,-550.75 624.577,-550.75"/>
</g>
<!-- f6_c0&#45;&#45;f6_c1 -->
<g id="edge28" class="edge"><title>f6_c0&#45;&#45;f6_c1</title>
<path fill="none" stroke="black" d="M588.88,-550.394C588.88,-548.291 588.88,-515.638 588.88,-513.6"/>
</g>
<!-- f6_c1&#45;&#45;pro_288 -->
<g id="edge32" class="edge"><title>f6_c1&#45;&#45;pro_288</title>
<path fill="none" stroke="black" d="M588.995,-513.5C592.384,-513.5 613.306,-513.5 632.024,-513.5"/>
</g>
<!-- f6_c2 -->
<g id="node38" class="node"><title>f6_c2</title>
<ellipse fill="black" stroke="black" cx="588.52" cy="-476.5" rx="0.36" ry="0.36"/>
</g>
<!-- f6_c1&#45;&#45;f6_c2 -->
<g id="edge29" class="edge"><title>f6_c1&#45;&#45;f6_c2</title>
<path fill="none" stroke="black" d="M588.88,-513.394C588.88,-511.291 588.88,-478.638 588.88,-476.6"/>
</g>
<!-- f6_c2&#45;&#45;lady_40 -->
<g id="edge33" class="edge"><title>f6_c2&#45;&#45;lady_40</title>
<path fill="none" stroke="black" d="M588.995,-476.25C591.939,-476.25 608.111,-476.25 624.577,-476.25"/>
</g>
<!-- f7_c0 -->
<g id="node39" class="node"><title>f7_c0</title>
<ellipse fill="black" stroke="black" cx="127.36" cy="-197.5" rx="0.36" ry="0.36"/>
</g>
<!-- f7_c0&#45;&#45;pro_10 -->
<g id="edge37" class="edge"><title>f7_c0&#45;&#45;pro_10</title>
<path fill="none" stroke="black" d="M127.88,-197.58C127.88,-200.911 127.88,-307.5 127.88,-307.5 127.88,-307.5 145.485,-307.5 163.502,-307.5"/>
</g>
<!-- f7_c0&#45;&#45;pro_11 -->
<g id="edge38" class="edge"><title>f7_c0&#45;&#45;pro_11</title>
<path fill="none" stroke="black" d="M127.835,-197.5C130.779,-197.5 146.951,-197.5 163.417,-197.5"/>
</g>
<!-- f7_c0&#45;&#45;f7_c1 -->
<g id="edge34" class="edge"><title>f7_c0&#45;&#45;f7_c1</title>
<path fill="none" stroke="black" d="M127.88,-197.436C127.88,-194.813 127.88,-112.145 127.88,-109.562"/>
</g>
<!-- f7_c1&#45;&#45;pro_20 -->
<g id="edge39" class="edge"><title>f7_c1&#45;&#45;pro_20</title>
<path fill="none" stroke="black" d="M127.835,-109.5C130.779,-109.5 146.951,-109.5 163.417,-109.5"/>
</g>
<!-- f7_c2 -->
<g id="node41" class="node"><title>f7_c2</title>
<ellipse fill="black" stroke="black" cx="127.36" cy="-72.5" rx="0.36" ry="0.36"/>
</g>
<!-- f7_c1&#45;&#45;f7_c2 -->
<g id="edge35" class="edge"><title>f7_c1&#45;&#45;f7_c2</title>
<path fill="none" stroke="black" d="M127.88,-109.394C127.88,-107.291 127.88,-74.6384 127.88,-72.5997"/>
</g>
<!-- f7_c2&#45;&#45;pro_32 -->
<g id="edge40" class="edge"><title>f7_c2&#45;&#45;pro_32</title>
<path fill="none" stroke="black" d="M127.835,-72.25C130.779,-72.25 146.951,-72.25 163.417,-72.25"/>
</g>
</g>
</svg>
