<?xml version="1.0" encoding="UTF-8" standalone="no"?>
<!DOCTYPE svg PUBLIC "-//W3C//DTD SVG 1.1//EN"
 "http://www.w3.org/Graphics/SVG/1.1/DTD/svg11.dtd">
<!-- Generated by graphviz version 2.38.0 (20140413.2041)
 -->
<!-- Title: ShogiPlayers15 Pages: 1 -->
<svg width="560pt" height="485pt"
 viewBox="0.00 0.00 560.16 485.00" xmlns="http://www.w3.org/2000/svg" xmlns:xlink="http://www.w3.org/1999/xlink">
<g id="graph0" class="graph" transform="scale(1 1) rotate(0) translate(4 481)">
<title>ShogiPlayers15</title>
<polygon fill="white" stroke="none" points="-4,4 -4,-481 556.16,-481 556.16,4 -4,4"/>
<!-- pro_45 -->
<g id="node1" class="node"><title>pro_45</title>
<polygon fill="lightblue" stroke="blue" points="163.72,-165.5 163.72,-201.5 239.72,-201.5 239.72,-165.5 163.72,-165.5"/>
<text text-anchor="middle" x="201.72" y="-179.8" font-family="Sans" font-size="14.00">平野広吉</text>
</g>
<!-- f0_c1 -->
<g id="node16" class="node"><title>f0_c1</title>
<ellipse fill="black" stroke="black" cx="276.08" cy="-183.5" rx="0.36" ry="0.36"/>
</g>
<!-- pro_45&#45;&#45;f0_c1 -->
<g id="edge3" class="edge"><title>pro_45&#45;&#45;f0_c1</title>
<path fill="none" stroke="black" d="M239.771,-183.5C256.351,-183.5 272.7,-183.5 275.62,-183.5"/>
</g>
<!-- pro_172 -->
<g id="node2" class="node"><title>pro_172</title>
<polygon fill="lightblue" stroke="blue" points="312.44,-220.5 312.44,-256.5 388.44,-256.5 388.44,-220.5 312.44,-220.5"/>
<text text-anchor="middle" x="350.44" y="-234.8" font-family="Sans" font-size="14.00">所司和晴</text>
</g>
<!-- f1_c1 -->
<g id="node19" class="node"><title>f1_c1</title>
<ellipse fill="black" stroke="black" cx="424.8" cy="-238.5" rx="0.36" ry="0.36"/>
</g>
<!-- pro_172&#45;&#45;f1_c1 -->
<g id="edge9" class="edge"><title>pro_172&#45;&#45;f1_c1</title>
<path fill="none" stroke="black" d="M388.491,-238.833C405.643,-238.833 422.547,-238.833 424.593,-238.833"/>
</g>
<!-- pro_206 -->
<g id="node3" class="node"><title>pro_206</title>
<polygon fill="lightblue" stroke="blue" points="319.94,-165.5 319.94,-201.5 380.94,-201.5 380.94,-165.5 319.94,-165.5"/>
<text text-anchor="middle" x="350.44" y="-179.8" font-family="Sans" font-size="14.00">川上猛</text>
</g>
<!-- pro_209 -->
<g id="node4" class="node"><title>pro_209</title>
<polygon fill="lightblue" stroke="blue" points="319.94,-110.5 319.94,-146.5 380.94,-146.5 380.94,-110.5 319.94,-110.5"/>
<text text-anchor="middle" x="350.44" y="-124.8" font-family="Sans" font-size="14.00">岡崎洋</text>
</g>
<!-- pro_231 -->
<g id="node5" class="node"><title>pro_231</title>
<polygon fill="lightblue" stroke="blue" points="476.16,-440.5 476.16,-476.5 537.16,-476.5 537.16,-440.5 476.16,-440.5"/>
<text text-anchor="middle" x="506.66" y="-454.8" font-family="Sans" font-size="14.00">松尾歩</text>
</g>
<!-- pro_235 -->
<g id="node6" class="node"><title>pro_235</title>
<polygon fill="lightblue" stroke="blue" points="476.16,-385.5 476.16,-421.5 537.16,-421.5 537.16,-385.5 476.16,-385.5"/>
<text text-anchor="middle" x="506.66" y="-399.8" font-family="Sans" font-size="14.00">渡辺明</text>
</g>
<!-- pro_241 -->
<g id="node7" class="node"><title>pro_241</title>
<polygon fill="lightblue" stroke="blue" points="468.66,-330.5 468.66,-366.5 544.66,-366.5 544.66,-330.5 468.66,-330.5"/>
<text text-anchor="middle" x="506.66" y="-344.8" font-family="Sans" font-size="14.00">宮田敦史</text>
</g>
<!-- pro_289 -->
<g id="node8" class="node"><title>pro_289</title>
<polygon fill="lightblue" stroke="blue" points="468.66,-275.5 468.66,-311.5 544.66,-311.5 544.66,-275.5 468.66,-275.5"/>
<text text-anchor="middle" x="506.66" y="-289.8" font-family="Sans" font-size="14.00">石田直裕</text>
</g>
<!-- pro_293 -->
<g id="node9" class="node"><title>pro_293</title>
<polygon fill="lightblue" stroke="blue" points="461.16,-220.5 461.16,-256.5 552.16,-256.5 552.16,-220.5 461.16,-220.5"/>
<text text-anchor="middle" x="506.66" y="-234.8" font-family="Sans" font-size="14.00">石井健太郎</text>
</g>
<!-- pro_303 -->
<g id="node10" class="node"><title>pro_303</title>
<polygon fill="lightblue" stroke="blue" points="468.66,-165.5 468.66,-201.5 544.66,-201.5 544.66,-165.5 468.66,-165.5"/>
<text text-anchor="middle" x="506.66" y="-179.8" font-family="Sans" font-size="14.00">近藤誠也</text>
</g>
<!-- pro_308 -->
<g id="node11" class="node"><title>pro_308</title>
<polygon fill="lightblue" stroke="blue" points="468.66,-110.5 468.66,-146.5 544.66,-146.5 544.66,-110.5 468.66,-110.5"/>
<text text-anchor="middle" x="506.66" y="-124.8" font-family="Sans" font-size="14.00">大橋貴洸</text>
</g>
<!-- lady_36 -->
<g id="node12" class="node"><title>lady_36</title>
<polygon fill="pink" stroke="red" points="461.16,-55.5 461.16,-91.5 552.16,-91.5 552.16,-55.5 461.16,-55.5"/>
<text text-anchor="middle" x="506.66" y="-69.8" font-family="Sans" font-size="14.00">伊奈川愛菓</text>
</g>
<!-- lady_41 -->
<g id="node13" class="node"><title>lady_41</title>
<polygon fill="pink" stroke="red" points="468.66,-0.5 468.66,-36.5 544.66,-36.5 544.66,-0.5 468.66,-0.5"/>
<text text-anchor="middle" x="506.66" y="-14.8" font-family="Sans" font-size="14.00">渡辺弥生</text>
</g>
<!-- extra_15 -->
<g id="node14" class="node"><title>extra_15</title>
<polygon fill="lightblue" stroke="blue" points="5.68434e-014,-165.5 5.68434e-014,-201.5 91,-201.5 91,-165.5 5.68434e-014,-165.5"/>
<text text-anchor="middle" x="45.5" y="-179.8" font-family="Sans" font-size="14.00">斉藤銀次郎</text>
</g>
<!-- f2_c -->
<g id="node21" class="node"><title>f2_c</title>
<ellipse fill="black" stroke="black" cx="127.36" cy="-183.5" rx="0.36" ry="0.36"/>
</g>
<!-- extra_15&#45;&#45;f2_c -->
<g id="edge19" class="edge"><title>extra_15&#45;&#45;f2_c</title>
<path fill="none" stroke="black" d="M91.2167,-183.5C108.21,-183.5 124.087,-183.5 126.915,-183.5"/>
</g>
<!-- f0_c0 -->
<g id="node15" class="node"><title>f0_c0</title>
<ellipse fill="black" stroke="black" cx="276.08" cy="-220.5" rx="0.36" ry="0.36"/>
</g>
<!-- f0_c0&#45;&#45;pro_172 -->
<g id="edge4" class="edge"><title>f0_c0&#45;&#45;pro_172</title>
<path fill="none" stroke="black" d="M276.555,-220.75C279.499,-220.75 295.671,-220.75 312.137,-220.75"/>
</g>
<!-- f0_c0&#45;&#45;f0_c1 -->
<g id="edge1" class="edge"><title>f0_c0&#45;&#45;f0_c1</title>
<path fill="none" stroke="black" d="M276.16,-220.084C276.16,-216.274 276.16,-187.454 276.16,-183.866"/>
</g>
<!-- f0_c1&#45;&#45;pro_206 -->
<g id="edge5" class="edge"><title>f0_c1&#45;&#45;pro_206</title>
<path fill="none" stroke="black" d="M276.555,-183.5C279.944,-183.5 300.866,-183.5 319.584,-183.5"/>
</g>
<!-- f0_c2 -->
<g id="node17" class="node"><title>f0_c2</title>
<ellipse fill="black" stroke="black" cx="276.08" cy="-146.5" rx="0.36" ry="0.36"/>
</g>
<!-- f0_c1&#45;&#45;f0_c2 -->
<g id="edge2" class="edge"><title>f0_c1&#45;&#45;f0_c2</title>
<path fill="none" stroke="black" d="M276.16,-183.084C276.16,-179.274 276.16,-150.454 276.16,-146.866"/>
</g>
<!-- f0_c2&#45;&#45;pro_209 -->
<g id="edge6" class="edge"><title>f0_c2&#45;&#45;pro_209</title>
<path fill="none" stroke="black" d="M276.555,-146.25C279.944,-146.25 300.866,-146.25 319.584,-146.25"/>
</g>
<!-- f1_c0 -->
<g id="node18" class="node"><title>f1_c0</title>
<ellipse fill="black" stroke="black" cx="424.8" cy="-375.5" rx="0.36" ry="0.36"/>
</g>
<!-- f1_c0&#45;&#45;pro_231 -->
<g id="edge10" class="edge"><title>f1_c0&#45;&#45;pro_231</title>
<path fill="none" stroke="black" d="M424.257,-375.5C421.838,-375.5 412.16,-375.5 412.16,-375.5 412.16,-375.5 412.16,-458.5 412.16,-458.5 412.16,-458.5 448.385,-458.5 475.979,-458.5"/>
</g>
<!-- f1_c0&#45;&#45;pro_235 -->
<g id="edge11" class="edge"><title>f1_c0&#45;&#45;pro_235</title>
<path fill="none" stroke="black" d="M425.16,-375.58C425.16,-377.223 425.16,-403.5 425.16,-403.5 425.16,-403.5 452.769,-403.5 475.848,-403.5"/>
</g>
<!-- f1_c0&#45;&#45;pro_241 -->
<g id="edge12" class="edge"><title>f1_c0&#45;&#45;pro_241</title>
<path fill="none" stroke="black" d="M425.343,-375.5C430.656,-375.5 473.16,-375.5 473.16,-375.5 473.16,-375.5 473.16,-371.543 473.16,-366.659"/>
</g>
<!-- f1_c0&#45;&#45;f1_c1 -->
<g id="edge7" class="edge"><title>f1_c0&#45;&#45;f1_c1</title>
<path fill="none" stroke="black" d="M425.16,-375.401C425.16,-371.317 425.16,-242.617 425.16,-238.596"/>
</g>
<!-- f1_c1&#45;&#45;pro_289 -->
<g id="edge13" class="edge"><title>f1_c1&#45;&#45;pro_289</title>
<path fill="none" stroke="black" d="M425.16,-238.658C425.16,-241.884 425.16,-293.5 425.16,-293.5 425.16,-293.5 447.158,-293.5 468.296,-293.5"/>
</g>
<!-- f1_c1&#45;&#45;pro_293 -->
<g id="edge14" class="edge"><title>f1_c1&#45;&#45;pro_293</title>
<path fill="none" stroke="black" d="M425.323,-238.5C428.346,-238.5 444.039,-238.5 460.846,-238.5"/>
</g>
<!-- f1_c1&#45;&#45;pro_303 -->
<g id="edge15" class="edge"><title>f1_c1&#45;&#45;pro_303</title>
<path fill="none" stroke="black" d="M425.16,-238.342C425.16,-235.116 425.16,-183.5 425.16,-183.5 425.16,-183.5 447.158,-183.5 468.296,-183.5"/>
</g>
<!-- f1_c2 -->
<g id="node20" class="node"><title>f1_c2</title>
<ellipse fill="black" stroke="black" cx="424.8" cy="-100.5" rx="0.36" ry="0.36"/>
</g>
<!-- f1_c1&#45;&#45;f1_c2 -->
<g id="edge8" class="edge"><title>f1_c1&#45;&#45;f1_c2</title>
<path fill="none" stroke="black" d="M424.535,-238.167C421.937,-238.167 401.16,-238.167 401.16,-238.167 401.16,-238.167 401.16,-100.5 401.16,-100.5 401.16,-100.5 420.575,-100.5 424.216,-100.5"/>
</g>
<!-- f1_c2&#45;&#45;pro_308 -->
<g id="edge16" class="edge"><title>f1_c2&#45;&#45;pro_308</title>
<path fill="none" stroke="black" d="M425.16,-100.58C425.16,-102.223 425.16,-128.5 425.16,-128.5 425.16,-128.5 447.158,-128.5 468.296,-128.5"/>
</g>
<!-- f1_c2&#45;&#45;lady_36 -->
<g id="edge17" class="edge"><title>f1_c2&#45;&#45;lady_36</title>
<path fill="none" stroke="black" d="M425.253,-100.5C429.687,-100.5 465.16,-100.5 465.16,-100.5 465.16,-100.5 465.16,-96.5433 465.16,-91.6592"/>
</g>
<!-- f1_c2&#45;&#45;lady_41 -->
<g id="edge18" class="edge"><title>f1_c2&#45;&#45;lady_41</title>
<path fill="none" stroke="black" d="M425.16,-100.441C425.16,-97.9575 425.16,-18.5 425.16,-18.5 425.16,-18.5 447.158,-18.5 468.296,-18.5"/>
</g>
<!-- f2_c&#45;&#45;pro_45 -->
<g id="edge20" class="edge"><title>f2_c&#45;&#45;pro_45</title>
<path fill="none" stroke="black" d="M127.835,-183.5C130.779,-183.5 146.951,-183.5 163.417,-183.5"/>
</g>
</g>
</svg>
