<?xml version="1.0" encoding="UTF-8" standalone="no"?>
<!DOCTYPE svg PUBLIC "-//W3C//DTD SVG 1.1//EN"
 "http://www.w3.org/Graphics/SVG/1.1/DTD/svg11.dtd">
<!-- Generated by graphviz version 2.38.0 (20140413.2041)
 -->
<!-- Title: ShogiPlayers19 Pages: 1 -->
<svg width="381pt" height="265pt"
 viewBox="0.00 0.00 381.44 265.00" xmlns="http://www.w3.org/2000/svg" xmlns:xlink="http://www.w3.org/1999/xlink">
<g id="graph0" class="graph" transform="scale(1 1) rotate(0) translate(4 261)">
<title>ShogiPlayers19</title>
<polygon fill="white" stroke="none" points="-4,4 -4,-261 377.44,-261 377.44,4 -4,4"/>
<!-- pro_114 -->
<g id="node1" class="node"><title>pro_114</title>
<polygon fill="lightblue" stroke="blue" points="148.72,-165.5 148.72,-201.5 224.72,-201.5 224.72,-165.5 148.72,-165.5"/>
<text text-anchor="middle" x="186.72" y="-179.8" font-family="Sans" font-size="14.00">青野照市</text>
</g>
<!-- f0_c1 -->
<g id="node11" class="node"><title>f0_c1</title>
<ellipse fill="black" stroke="black" cx="261.08" cy="-183.5" rx="0.36" ry="0.36"/>
</g>
<!-- pro_114&#45;&#45;f0_c1 -->
<g id="edge3" class="edge"><title>pro_114&#45;&#45;f0_c1</title>
<path fill="none" stroke="black" d="M224.771,-183.5C241.351,-183.5 257.7,-183.5 260.62,-183.5"/>
</g>
<!-- pro_119 -->
<g id="node2" class="node"><title>pro_119</title>
<polygon fill="lightblue" stroke="blue" points="148.72,-220.5 148.72,-256.5 224.72,-256.5 224.72,-220.5 148.72,-220.5"/>
<text text-anchor="middle" x="186.72" y="-234.8" font-family="Sans" font-size="14.00">菊地常夫</text>
</g>
<!-- pro_136 -->
<g id="node3" class="node"><title>pro_136</title>
<polygon fill="lightblue" stroke="blue" points="148.72,-55.5 148.72,-91.5 224.72,-91.5 224.72,-55.5 148.72,-55.5"/>
<text text-anchor="middle" x="186.72" y="-69.8" font-family="Sans" font-size="14.00">鈴木輝彦</text>
</g>
<!-- pro_149 -->
<g id="node4" class="node"><title>pro_149</title>
<polygon fill="lightblue" stroke="blue" points="148.72,-110.5 148.72,-146.5 224.72,-146.5 224.72,-110.5 148.72,-110.5"/>
<text text-anchor="middle" x="186.72" y="-124.8" font-family="Sans" font-size="14.00">神谷広志</text>
</g>
<!-- pro_230 -->
<g id="node5" class="node"><title>pro_230</title>
<polygon fill="lightblue" stroke="blue" points="148.72,-0.5 148.72,-36.5 224.72,-36.5 224.72,-0.5 148.72,-0.5"/>
<text text-anchor="middle" x="186.72" y="-14.8" font-family="Sans" font-size="14.00">中尾敏之</text>
</g>
<!-- pro_248 -->
<g id="node6" class="node"><title>pro_248</title>
<polygon fill="lightblue" stroke="blue" points="304.94,-220.5 304.94,-256.5 365.94,-256.5 365.94,-220.5 304.94,-220.5"/>
<text text-anchor="middle" x="335.44" y="-234.8" font-family="Sans" font-size="14.00">西尾明</text>
</g>
<!-- pro_287 -->
<g id="node7" class="node"><title>pro_287</title>
<polygon fill="lightblue" stroke="blue" points="304.94,-165.5 304.94,-201.5 365.94,-201.5 365.94,-165.5 304.94,-165.5"/>
<text text-anchor="middle" x="335.44" y="-179.8" font-family="Sans" font-size="14.00">八代弥</text>
</g>
<!-- lady_22 -->
<g id="node8" class="node"><title>lady_22</title>
<polygon fill="pink" stroke="red" points="297.44,-110.5 297.44,-146.5 373.44,-146.5 373.44,-110.5 297.44,-110.5"/>
<text text-anchor="middle" x="335.44" y="-124.8" font-family="Sans" font-size="14.00">安食総子</text>
</g>
<!-- extra_19 -->
<g id="node9" class="node"><title>extra_19</title>
<polygon fill="lightblue" stroke="blue" points="0,-82.5 0,-118.5 76,-118.5 76,-82.5 0,-82.5"/>
<text text-anchor="middle" x="38" y="-96.8" font-family="Sans" font-size="14.00">廣津久雄</text>
</g>
<!-- f1_c1 -->
<g id="node14" class="node"><title>f1_c1</title>
<ellipse fill="black" stroke="black" cx="112.36" cy="-100.5" rx="0.36" ry="0.36"/>
</g>
<!-- extra_19&#45;&#45;f1_c1 -->
<g id="edge9" class="edge"><title>extra_19&#45;&#45;f1_c1</title>
<path fill="none" stroke="black" d="M76.0513,-100.5C92.6312,-100.5 108.98,-100.5 111.9,-100.5"/>
</g>
<!-- f0_c0 -->
<g id="node10" class="node"><title>f0_c0</title>
<ellipse fill="black" stroke="black" cx="261.08" cy="-220.5" rx="0.36" ry="0.36"/>
</g>
<!-- f0_c0&#45;&#45;pro_248 -->
<g id="edge4" class="edge"><title>f0_c0&#45;&#45;pro_248</title>
<path fill="none" stroke="black" d="M261.555,-220.75C264.944,-220.75 285.866,-220.75 304.584,-220.75"/>
</g>
<!-- f0_c0&#45;&#45;f0_c1 -->
<g id="edge1" class="edge"><title>f0_c0&#45;&#45;f0_c1</title>
<path fill="none" stroke="black" d="M261.44,-220.394C261.44,-218.291 261.44,-185.638 261.44,-183.6"/>
</g>
<!-- f0_c1&#45;&#45;pro_287 -->
<g id="edge5" class="edge"><title>f0_c1&#45;&#45;pro_287</title>
<path fill="none" stroke="black" d="M261.555,-183.5C264.944,-183.5 285.866,-183.5 304.584,-183.5"/>
</g>
<!-- f0_c2 -->
<g id="node12" class="node"><title>f0_c2</title>
<ellipse fill="black" stroke="black" cx="261.08" cy="-146.5" rx="0.36" ry="0.36"/>
</g>
<!-- f0_c1&#45;&#45;f0_c2 -->
<g id="edge2" class="edge"><title>f0_c1&#45;&#45;f0_c2</title>
<path fill="none" stroke="black" d="M261.44,-183.394C261.44,-181.291 261.44,-148.638 261.44,-146.6"/>
</g>
<!-- f0_c2&#45;&#45;lady_22 -->
<g id="edge6" class="edge"><title>f0_c2&#45;&#45;lady_22</title>
<path fill="none" stroke="black" d="M261.555,-146.25C264.499,-146.25 280.671,-146.25 297.137,-146.25"/>
</g>
<!-- f1_c0 -->
<g id="node13" class="node"><title>f1_c0</title>
<ellipse fill="black" stroke="black" cx="112.36" cy="-183.5" rx="0.36" ry="0.36"/>
</g>
<!-- f1_c0&#45;&#45;pro_114 -->
<g id="edge10" class="edge"><title>f1_c0&#45;&#45;pro_114</title>
<path fill="none" stroke="black" d="M112.835,-183.5C115.779,-183.5 131.951,-183.5 148.417,-183.5"/>
</g>
<!-- f1_c0&#45;&#45;pro_119 -->
<g id="edge11" class="edge"><title>f1_c0&#45;&#45;pro_119</title>
<path fill="none" stroke="black" d="M112.44,-184.118C112.44,-190.16 112.44,-238.5 112.44,-238.5 112.44,-238.5 130.434,-238.5 148.71,-238.5"/>
</g>
<!-- f1_c0&#45;&#45;f1_c1 -->
<g id="edge7" class="edge"><title>f1_c0&#45;&#45;f1_c1</title>
<path fill="none" stroke="black" d="M112.44,-182.97C112.44,-176.232 112.44,-107.419 112.44,-100.982"/>
</g>
<!-- f1_c1&#45;&#45;pro_136 -->
<g id="edge12" class="edge"><title>f1_c1&#45;&#45;pro_136</title>
<path fill="none" stroke="black" d="M112.839,-100.5C119.234,-100.5 187.44,-100.5 187.44,-100.5 187.44,-100.5 187.44,-96.5433 187.44,-91.6592"/>
</g>
<!-- f1_c1&#45;&#45;pro_149 -->
<g id="edge13" class="edge"><title>f1_c1&#45;&#45;pro_149</title>
<path fill="none" stroke="black" d="M113.44,-100.657C113.44,-102.195 113.44,-114.5 113.44,-114.5 113.44,-114.5 130.633,-114.5 148.363,-114.5"/>
</g>
<!-- f1_c2 -->
<g id="node15" class="node"><title>f1_c2</title>
<ellipse fill="black" stroke="black" cx="112.36" cy="-63.5" rx="0.36" ry="0.36"/>
</g>
<!-- f1_c1&#45;&#45;f1_c2 -->
<g id="edge8" class="edge"><title>f1_c1&#45;&#45;f1_c2</title>
<path fill="none" stroke="black" d="M112.44,-100.084C112.44,-96.2736 112.44,-67.4538 112.44,-63.8662"/>
</g>
<!-- f1_c2&#45;&#45;pro_230 -->
<g id="edge14" class="edge"><title>f1_c2&#45;&#45;pro_230</title>
<path fill="none" stroke="black" d="M112.44,-62.9946C112.44,-58.0508 112.44,-18.5 112.44,-18.5 112.44,-18.5 130.434,-18.5 148.71,-18.5"/>
</g>
</g>
</svg>
