<?xml version="1.0" encoding="UTF-8" standalone="no"?>
<!DOCTYPE svg PUBLIC "-//W3C//DTD SVG 1.1//EN"
 "http://www.w3.org/Graphics/SVG/1.1/DTD/svg11.dtd">
<!-- Generated by graphviz version 2.38.0 (20140413.2041)
 -->
<!-- Title: ShogiPlayers6 Pages: 1 -->
<svg width="828pt" height="567pt"
 viewBox="0.00 0.00 827.60 567.00" xmlns="http://www.w3.org/2000/svg" xmlns:xlink="http://www.w3.org/1999/xlink">
<g id="graph0" class="graph" transform="scale(1 1) rotate(0) translate(4 563)">
<title>ShogiPlayers6</title>
<polygon fill="white" stroke="none" points="-4,4 -4,-563 823.6,-563 823.6,4 -4,4"/>
<!-- pro_14 -->
<g id="node1" class="node"><title>pro_14</title>
<polygon fill="lightblue" stroke="blue" points="148.72,-412.5 148.72,-448.5 224.72,-448.5 224.72,-412.5 148.72,-412.5"/>
<text text-anchor="middle" x="186.72" y="-426.8" font-family="Sans" font-size="14.00">加藤治郎</text>
</g>
<!-- f0_c1 -->
<g id="node24" class="node"><title>f0_c1</title>
<ellipse fill="black" stroke="black" cx="261.08" cy="-430.5" rx="0.36" ry="0.36"/>
</g>
<!-- pro_14&#45;&#45;f0_c1 -->
<g id="edge3" class="edge"><title>pro_14&#45;&#45;f0_c1</title>
<path fill="none" stroke="black" d="M224.771,-430.5C241.351,-430.5 257.7,-430.5 260.62,-430.5"/>
</g>
<!-- pro_34 -->
<g id="node2" class="node"><title>pro_34</title>
<polygon fill="lightblue" stroke="blue" points="148.72,-357.5 148.72,-393.5 224.72,-393.5 224.72,-357.5 148.72,-357.5"/>
<text text-anchor="middle" x="186.72" y="-371.8" font-family="Sans" font-size="14.00">富沢幹雄</text>
</g>
<!-- pro_35 -->
<g id="node3" class="node"><title>pro_35</title>
<polygon fill="lightblue" stroke="blue" points="297.44,-467.5 297.44,-503.5 373.44,-503.5 373.44,-467.5 297.44,-467.5"/>
<text text-anchor="middle" x="335.44" y="-481.8" font-family="Sans" font-size="14.00">原田泰夫</text>
</g>
<!-- f1_c1 -->
<g id="node27" class="node"><title>f1_c1</title>
<ellipse fill="black" stroke="black" cx="409.8" cy="-210.5" rx="0.36" ry="0.36"/>
</g>
<!-- pro_35&#45;&#45;f1_c1 -->
<g id="edge10" class="edge"><title>pro_35&#45;&#45;f1_c1</title>
<path fill="none" stroke="black" d="M373.458,-485.5C380.454,-485.5 385.6,-485.5 385.6,-485.5 385.6,-485.5 385.6,-210.833 385.6,-210.833 385.6,-210.833 406.87,-210.833 409.528,-210.833"/>
</g>
<!-- pro_49 -->
<g id="node4" class="node"><title>pro_49</title>
<polygon fill="lightblue" stroke="blue" points="297.44,-522.5 297.44,-558.5 373.44,-558.5 373.44,-522.5 297.44,-522.5"/>
<text text-anchor="middle" x="335.44" y="-536.8" font-family="Sans" font-size="14.00">木川貴一</text>
</g>
<!-- pro_63 -->
<g id="node5" class="node"><title>pro_63</title>
<polygon fill="lightblue" stroke="blue" points="446.16,-247.5 446.16,-283.5 522.16,-283.5 522.16,-247.5 446.16,-247.5"/>
<text text-anchor="middle" x="484.16" y="-261.8" font-family="Sans" font-size="14.00">佐藤庄平</text>
</g>
<!-- pro_82 -->
<g id="node6" class="node"><title>pro_82</title>
<polygon fill="lightblue" stroke="blue" points="297.44,-412.5 297.44,-448.5 373.44,-448.5 373.44,-412.5 297.44,-412.5"/>
<text text-anchor="middle" x="335.44" y="-426.8" font-family="Sans" font-size="14.00">木村義徳</text>
</g>
<!-- f2_c -->
<g id="node29" class="node"><title>f2_c</title>
<ellipse fill="black" stroke="black" cx="409.8" cy="-430.5" rx="0.36" ry="0.36"/>
</g>
<!-- pro_82&#45;&#45;f2_c -->
<g id="edge16" class="edge"><title>pro_82&#45;&#45;f2_c</title>
<path fill="none" stroke="black" d="M373.491,-430.5C390.071,-430.5 406.42,-430.5 409.34,-430.5"/>
</g>
<!-- pro_89 -->
<g id="node7" class="node"><title>pro_89</title>
<polygon fill="lightblue" stroke="blue" points="446.16,-302.5 446.16,-338.5 522.16,-338.5 522.16,-302.5 446.16,-302.5"/>
<text text-anchor="middle" x="484.16" y="-316.8" font-family="Sans" font-size="14.00">山口英夫</text>
</g>
<!-- pro_90 -->
<g id="node8" class="node"><title>pro_90</title>
<polygon fill="lightblue" stroke="blue" points="453.66,-137.5 453.66,-173.5 514.66,-173.5 514.66,-137.5 453.66,-137.5"/>
<text text-anchor="middle" x="484.16" y="-151.8" font-family="Sans" font-size="14.00">桜井昇</text>
</g>
<!-- f3_c1 -->
<g id="node31" class="node"><title>f3_c1</title>
<ellipse fill="black" stroke="black" cx="558.52" cy="-155.5" rx="0.36" ry="0.36"/>
</g>
<!-- pro_90&#45;&#45;f3_c1 -->
<g id="edge20" class="edge"><title>pro_90&#45;&#45;f3_c1</title>
<path fill="none" stroke="black" d="M514.834,-155.5C533.397,-155.5 554.193,-155.5 557.93,-155.5"/>
</g>
<!-- pro_111 -->
<g id="node9" class="node"><title>pro_111</title>
<polygon fill="lightblue" stroke="blue" points="297.44,-357.5 297.44,-393.5 373.44,-393.5 373.44,-357.5 297.44,-357.5"/>
<text text-anchor="middle" x="335.44" y="-371.8" font-family="Sans" font-size="14.00">真部一男</text>
</g>
<!-- f4_c -->
<g id="node33" class="node"><title>f4_c</title>
<ellipse fill="black" stroke="black" cx="409.8" cy="-375.5" rx="0.36" ry="0.36"/>
</g>
<!-- pro_111&#45;&#45;f4_c -->
<g id="edge28" class="edge"><title>pro_111&#45;&#45;f4_c</title>
<path fill="none" stroke="black" d="M373.491,-375.5C390.071,-375.5 406.42,-375.5 409.34,-375.5"/>
</g>
<!-- pro_167 -->
<g id="node10" class="node"><title>pro_167</title>
<polygon fill="lightblue" stroke="blue" points="453.66,-357.5 453.66,-393.5 514.66,-393.5 514.66,-357.5 453.66,-357.5"/>
<text text-anchor="middle" x="484.16" y="-371.8" font-family="Sans" font-size="14.00">小林宏</text>
</g>
<!-- pro_173 -->
<g id="node11" class="node"><title>pro_173</title>
<polygon fill="lightblue" stroke="blue" points="594.88,-330.5 594.88,-366.5 670.88,-366.5 670.88,-330.5 594.88,-330.5"/>
<text text-anchor="middle" x="632.88" y="-344.8" font-family="Sans" font-size="14.00">中田宏樹</text>
</g>
<!-- pro_220 -->
<g id="node12" class="node"><title>pro_220</title>
<polygon fill="lightblue" stroke="blue" points="446.16,-192.5 446.16,-228.5 522.16,-228.5 522.16,-192.5 446.16,-192.5"/>
<text text-anchor="middle" x="484.16" y="-206.8" font-family="Sans" font-size="14.00">近藤正和</text>
</g>
<!-- pro_236 -->
<g id="node13" class="node"><title>pro_236</title>
<polygon fill="lightblue" stroke="blue" points="594.88,-275.5 594.88,-311.5 670.88,-311.5 670.88,-275.5 594.88,-275.5"/>
<text text-anchor="middle" x="632.88" y="-289.8" font-family="Sans" font-size="14.00">飯島栄治</text>
</g>
<!-- pro_245 -->
<g id="node14" class="node"><title>pro_245</title>
<polygon fill="lightblue" stroke="blue" points="594.88,-220.5 594.88,-256.5 670.88,-256.5 670.88,-220.5 594.88,-220.5"/>
<text text-anchor="middle" x="632.88" y="-234.8" font-family="Sans" font-size="14.00">藤倉勇樹</text>
</g>
<!-- f5_c -->
<g id="node34" class="node"><title>f5_c</title>
<ellipse fill="black" stroke="black" cx="707.24" cy="-238.5" rx="0.36" ry="0.36"/>
</g>
<!-- pro_245&#45;&#45;f5_c -->
<g id="edge30" class="edge"><title>pro_245&#45;&#45;f5_c</title>
<path fill="none" stroke="black" d="M670.931,-238.5C687.511,-238.5 703.86,-238.5 706.78,-238.5"/>
</g>
<!-- pro_246 -->
<g id="node15" class="node"><title>pro_246</title>
<polygon fill="lightblue" stroke="blue" points="594.88,-165.5 594.88,-201.5 670.88,-201.5 670.88,-165.5 594.88,-165.5"/>
<text text-anchor="middle" x="632.88" y="-179.8" font-family="Sans" font-size="14.00">横山泰明</text>
</g>
<!-- pro_249 -->
<g id="node16" class="node"><title>pro_249</title>
<polygon fill="lightblue" stroke="blue" points="594.88,-110.5 594.88,-146.5 670.88,-146.5 670.88,-110.5 594.88,-110.5"/>
<text text-anchor="middle" x="632.88" y="-124.8" font-family="Sans" font-size="14.00">村山慈明</text>
</g>
<!-- pro_266 -->
<g id="node17" class="node"><title>pro_266</title>
<polygon fill="lightblue" stroke="blue" points="594.88,-55.5 594.88,-91.5 670.88,-91.5 670.88,-55.5 594.88,-55.5"/>
<text text-anchor="middle" x="632.88" y="-69.8" font-family="Sans" font-size="14.00">伊藤真吾</text>
</g>
<!-- lady_17 -->
<g id="node18" class="node"><title>lady_17</title>
<polygon fill="pink" stroke="red" points="594.88,-0.5 594.88,-36.5 670.88,-36.5 670.88,-0.5 594.88,-0.5"/>
<text text-anchor="middle" x="632.88" y="-14.8" font-family="Sans" font-size="14.00">千葉涼子</text>
</g>
<!-- lady_29 -->
<g id="node19" class="node"><title>lady_29</title>
<polygon fill="pink" stroke="red" points="446.16,-82.5 446.16,-118.5 522.16,-118.5 522.16,-82.5 446.16,-82.5"/>
<text text-anchor="middle" x="484.16" y="-96.8" font-family="Sans" font-size="14.00">鈴木環那</text>
</g>
<!-- lady_34 -->
<g id="node20" class="node"><title>lady_34</title>
<polygon fill="pink" stroke="red" points="446.16,-412.5 446.16,-448.5 522.16,-448.5 522.16,-412.5 446.16,-412.5"/>
<text text-anchor="middle" x="484.16" y="-426.8" font-family="Sans" font-size="14.00">井道千尋</text>
</g>
<!-- lady_50 -->
<g id="node21" class="node"><title>lady_50</title>
<polygon fill="pink" stroke="red" points="743.6,-220.5 743.6,-256.5 819.6,-256.5 819.6,-220.5 743.6,-220.5"/>
<text text-anchor="middle" x="781.6" y="-234.8" font-family="Sans" font-size="14.00">和田あき</text>
</g>
<!-- extra_6 -->
<g id="node22" class="node"><title>extra_6</title>
<polygon fill="lightblue" stroke="blue" points="0,-388.5 0,-424.5 76,-424.5 76,-388.5 0,-388.5"/>
<text text-anchor="middle" x="38" y="-402.8" font-family="Sans" font-size="14.00">山本樟郎</text>
</g>
<!-- f6_c1 -->
<g id="node36" class="node"><title>f6_c1</title>
<ellipse fill="black" stroke="black" cx="112.36" cy="-406.5" rx="0.36" ry="0.36"/>
</g>
<!-- extra_6&#45;&#45;f6_c1 -->
<g id="edge34" class="edge"><title>extra_6&#45;&#45;f6_c1</title>
<path fill="none" stroke="black" d="M76.0513,-406.5C92.6312,-406.5 108.98,-406.5 111.9,-406.5"/>
</g>
<!-- f0_c0 -->
<g id="node23" class="node"><title>f0_c0</title>
<ellipse fill="black" stroke="black" cx="261.08" cy="-485.5" rx="0.36" ry="0.36"/>
</g>
<!-- f0_c0&#45;&#45;pro_35 -->
<g id="edge4" class="edge"><title>f0_c0&#45;&#45;pro_35</title>
<path fill="none" stroke="black" d="M261.555,-485.5C264.499,-485.5 280.671,-485.5 297.137,-485.5"/>
</g>
<!-- f0_c0&#45;&#45;pro_49 -->
<g id="edge5" class="edge"><title>f0_c0&#45;&#45;pro_49</title>
<path fill="none" stroke="black" d="M261.6,-485.658C261.6,-488.884 261.6,-540.5 261.6,-540.5 261.6,-540.5 279.205,-540.5 297.222,-540.5"/>
</g>
<!-- f0_c0&#45;&#45;f0_c1 -->
<g id="edge1" class="edge"><title>f0_c0&#45;&#45;f0_c1</title>
<path fill="none" stroke="black" d="M261.6,-485.342C261.6,-482.217 261.6,-433.679 261.6,-430.648"/>
</g>
<!-- f0_c1&#45;&#45;pro_82 -->
<g id="edge6" class="edge"><title>f0_c1&#45;&#45;pro_82</title>
<path fill="none" stroke="black" d="M261.555,-430.5C264.499,-430.5 280.671,-430.5 297.137,-430.5"/>
</g>
<!-- f0_c2 -->
<g id="node25" class="node"><title>f0_c2</title>
<ellipse fill="black" stroke="black" cx="261.08" cy="-393.5" rx="0.36" ry="0.36"/>
</g>
<!-- f0_c1&#45;&#45;f0_c2 -->
<g id="edge2" class="edge"><title>f0_c1&#45;&#45;f0_c2</title>
<path fill="none" stroke="black" d="M261.6,-430.394C261.6,-428.291 261.6,-395.638 261.6,-393.6"/>
</g>
<!-- f0_c2&#45;&#45;pro_111 -->
<g id="edge7" class="edge"><title>f0_c2&#45;&#45;pro_111</title>
<path fill="none" stroke="black" d="M261.555,-393.25C264.499,-393.25 280.671,-393.25 297.137,-393.25"/>
</g>
<!-- f1_c0 -->
<g id="node26" class="node"><title>f1_c0</title>
<ellipse fill="black" stroke="black" cx="409.8" cy="-265.5" rx="0.36" ry="0.36"/>
</g>
<!-- f1_c0&#45;&#45;pro_63 -->
<g id="edge11" class="edge"><title>f1_c0&#45;&#45;pro_63</title>
<path fill="none" stroke="black" d="M410.275,-265.5C413.219,-265.5 429.391,-265.5 445.857,-265.5"/>
</g>
<!-- f1_c0&#45;&#45;pro_89 -->
<g id="edge12" class="edge"><title>f1_c0&#45;&#45;pro_89</title>
<path fill="none" stroke="black" d="M410.6,-265.658C410.6,-268.884 410.6,-320.5 410.6,-320.5 410.6,-320.5 428.138,-320.5 446.087,-320.5"/>
</g>
<!-- f1_c0&#45;&#45;f1_c1 -->
<g id="edge8" class="edge"><title>f1_c0&#45;&#45;f1_c1</title>
<path fill="none" stroke="black" d="M410.6,-265.342C410.6,-262.217 410.6,-213.679 410.6,-210.648"/>
</g>
<!-- f1_c1&#45;&#45;pro_90 -->
<g id="edge13" class="edge"><title>f1_c1&#45;&#45;pro_90</title>
<path fill="none" stroke="black" d="M409.663,-210.167C408.323,-210.167 397.6,-210.167 397.6,-210.167 397.6,-210.167 397.6,-160.25 397.6,-160.25 397.6,-160.25 428.519,-160.25 453.398,-160.25"/>
</g>
<!-- f1_c1&#45;&#45;pro_220 -->
<g id="edge14" class="edge"><title>f1_c1&#45;&#45;pro_220</title>
<path fill="none" stroke="black" d="M410.275,-210.5C413.219,-210.5 429.391,-210.5 445.857,-210.5"/>
</g>
<!-- f1_c2 -->
<g id="node28" class="node"><title>f1_c2</title>
<ellipse fill="black" stroke="black" cx="409.8" cy="-145.5" rx="0.36" ry="0.36"/>
</g>
<!-- f1_c1&#45;&#45;f1_c2 -->
<g id="edge9" class="edge"><title>f1_c1&#45;&#45;f1_c2</title>
<path fill="none" stroke="black" d="M410.6,-210.453C410.6,-208.515 410.6,-147.453 410.6,-145.546"/>
</g>
<!-- f1_c2&#45;&#45;lady_29 -->
<g id="edge15" class="edge"><title>f1_c2&#45;&#45;lady_29</title>
<path fill="none" stroke="black" d="M410.258,-145.5C414.741,-145.5 450.6,-145.5 450.6,-145.5 450.6,-145.5 450.6,-131.063 450.6,-118.544"/>
</g>
<!-- f2_c&#45;&#45;lady_34 -->
<g id="edge17" class="edge"><title>f2_c&#45;&#45;lady_34</title>
<path fill="none" stroke="black" d="M410.275,-430.5C413.219,-430.5 429.391,-430.5 445.857,-430.5"/>
</g>
<!-- f3_c0 -->
<g id="node30" class="node"><title>f3_c0</title>
<ellipse fill="black" stroke="black" cx="558.52" cy="-265.5" rx="0.36" ry="0.36"/>
</g>
<!-- f3_c0&#45;&#45;pro_173 -->
<g id="edge21" class="edge"><title>f3_c0&#45;&#45;pro_173</title>
<path fill="none" stroke="black" d="M558.077,-265.5C555.318,-265.5 540.6,-265.5 540.6,-265.5 540.6,-265.5 540.6,-334.5 540.6,-334.5 540.6,-334.5 569.394,-334.5 594.813,-334.5"/>
</g>
<!-- f3_c0&#45;&#45;pro_236 -->
<g id="edge22" class="edge"><title>f3_c0&#45;&#45;pro_236</title>
<path fill="none" stroke="black" d="M558.6,-266.102C558.6,-268.781 558.6,-279.5 558.6,-279.5 558.6,-279.5 576.594,-279.5 594.87,-279.5"/>
</g>
<!-- f3_c0&#45;&#45;pro_245 -->
<g id="edge23" class="edge"><title>f3_c0&#45;&#45;pro_245</title>
<path fill="none" stroke="black" d="M559.6,-265.348C559.6,-263.865 559.6,-252 559.6,-252 559.6,-252 576.793,-252 594.523,-252"/>
</g>
<!-- f3_c0&#45;&#45;f3_c1 -->
<g id="edge18" class="edge"><title>f3_c0&#45;&#45;f3_c1</title>
<path fill="none" stroke="black" d="M559.082,-265.5C561.586,-265.5 571.6,-265.5 571.6,-265.5 571.6,-265.5 571.6,-155.833 571.6,-155.833 571.6,-155.833 560.104,-155.833 558.667,-155.833"/>
</g>
<!-- f3_c1&#45;&#45;pro_246 -->
<g id="edge24" class="edge"><title>f3_c1&#45;&#45;pro_246</title>
<path fill="none" stroke="black" d="M558.6,-156.102C558.6,-158.781 558.6,-169.5 558.6,-169.5 558.6,-169.5 576.594,-169.5 594.87,-169.5"/>
</g>
<!-- f3_c1&#45;&#45;pro_249 -->
<g id="edge25" class="edge"><title>f3_c1&#45;&#45;pro_249</title>
<path fill="none" stroke="black" d="M559.6,-155.348C559.6,-153.865 559.6,-142 559.6,-142 559.6,-142 576.793,-142 594.523,-142"/>
</g>
<!-- f3_c2 -->
<g id="node32" class="node"><title>f3_c2</title>
<ellipse fill="black" stroke="black" cx="558.52" cy="-73.5" rx="0.36" ry="0.36"/>
</g>
<!-- f3_c1&#45;&#45;f3_c2 -->
<g id="edge19" class="edge"><title>f3_c1&#45;&#45;f3_c2</title>
<path fill="none" stroke="black" d="M558.802,-155.167C561.557,-155.167 583.6,-155.167 583.6,-155.167 583.6,-155.167 583.6,-128 583.6,-128 583.6,-128 558.6,-128 558.6,-128 558.6,-128 558.6,-80.0996 558.6,-74.1121"/>
</g>
<!-- f3_c2&#45;&#45;pro_266 -->
<g id="edge26" class="edge"><title>f3_c2&#45;&#45;pro_266</title>
<path fill="none" stroke="black" d="M558.995,-73.5C561.939,-73.5 578.111,-73.5 594.577,-73.5"/>
</g>
<!-- f3_c2&#45;&#45;lady_17 -->
<g id="edge27" class="edge"><title>f3_c2&#45;&#45;lady_17</title>
<path fill="none" stroke="black" d="M558.6,-72.8823C558.6,-66.8398 558.6,-18.5 558.6,-18.5 558.6,-18.5 576.594,-18.5 594.87,-18.5"/>
</g>
<!-- f4_c&#45;&#45;pro_167 -->
<g id="edge29" class="edge"><title>f4_c&#45;&#45;pro_167</title>
<path fill="none" stroke="black" d="M410.275,-375.5C413.664,-375.5 434.586,-375.5 453.304,-375.5"/>
</g>
<!-- f5_c&#45;&#45;lady_50 -->
<g id="edge31" class="edge"><title>f5_c&#45;&#45;lady_50</title>
<path fill="none" stroke="black" d="M707.715,-238.5C710.659,-238.5 726.831,-238.5 743.297,-238.5"/>
</g>
<!-- f6_c0 -->
<g id="node35" class="node"><title>f6_c0</title>
<ellipse fill="black" stroke="black" cx="112.36" cy="-427.5" rx="0.36" ry="0.36"/>
</g>
<!-- f6_c0&#45;&#45;pro_14 -->
<g id="edge35" class="edge"><title>f6_c0&#45;&#45;pro_14</title>
<path fill="none" stroke="black" d="M112.835,-427.5C115.779,-427.5 131.951,-427.5 148.417,-427.5"/>
</g>
<!-- f6_c0&#45;&#45;f6_c1 -->
<g id="edge32" class="edge"><title>f6_c0&#45;&#45;f6_c1</title>
<path fill="none" stroke="black" d="M112.6,-426.981C112.6,-424.05 112.6,-409.611 112.6,-406.929"/>
</g>
<!-- f6_c2 -->
<g id="node37" class="node"><title>f6_c2</title>
<ellipse fill="black" stroke="black" cx="112.36" cy="-383.5" rx="0.36" ry="0.36"/>
</g>
<!-- f6_c1&#45;&#45;f6_c2 -->
<g id="edge33" class="edge"><title>f6_c1&#45;&#45;f6_c2</title>
<path fill="none" stroke="black" d="M112.6,-405.931C112.6,-402.722 112.6,-386.907 112.6,-383.97"/>
</g>
<!-- f6_c2&#45;&#45;pro_34 -->
<g id="edge36" class="edge"><title>f6_c2&#45;&#45;pro_34</title>
<path fill="none" stroke="black" d="M112.835,-383.5C115.779,-383.5 131.951,-383.5 148.417,-383.5"/>
</g>
</g>
</svg>
