<?xml version="1.0" encoding="UTF-8" standalone="no"?>
<!DOCTYPE svg PUBLIC "-//W3C//DTD SVG 1.1//EN"
 "http://www.w3.org/Graphics/SVG/1.1/DTD/svg11.dtd">
<!-- Generated by graphviz version 2.38.0 (20140413.2041)
 -->
<!-- Title: ShogiPlayers10 Pages: 1 -->
<svg width="560pt" height="1337pt"
 viewBox="0.00 0.00 560.16 1337.00" xmlns="http://www.w3.org/2000/svg" xmlns:xlink="http://www.w3.org/1999/xlink">
<g id="graph0" class="graph" transform="scale(1 1) rotate(0) translate(4 1333)">
<title>ShogiPlayers10</title>
<polygon fill="white" stroke="none" points="-4,4 -4,-1333 556.16,-1333 556.16,4 -4,4"/>
<!-- pro_22 -->
<g id="node1" class="node"><title>pro_22</title>
<polygon fill="lightblue" stroke="blue" points="148.72,-385.5 148.72,-421.5 224.72,-421.5 224.72,-385.5 148.72,-385.5"/>
<text text-anchor="middle" x="186.72" y="-399.8" font-family="Sans" font-size="14.00">加藤恵三</text>
</g>
<!-- pro_41 -->
<g id="node2" class="node"><title>pro_41</title>
<polygon fill="lightblue" stroke="blue" points="148.72,-330.5 148.72,-366.5 224.72,-366.5 224.72,-330.5 148.72,-330.5"/>
<text text-anchor="middle" x="186.72" y="-344.8" font-family="Sans" font-size="14.00">佐瀬勇次</text>
</g>
<!-- f0_c1 -->
<g id="node41" class="node"><title>f0_c1</title>
<ellipse fill="black" stroke="black" cx="261.08" cy="-348.5" rx="0.36" ry="0.36"/>
</g>
<!-- pro_41&#45;&#45;f0_c1 -->
<g id="edge3" class="edge"><title>pro_41&#45;&#45;f0_c1</title>
<path fill="none" stroke="black" d="M224.771,-348.167C241.923,-348.167 258.827,-348.167 260.873,-348.167"/>
</g>
<!-- pro_85 -->
<g id="node3" class="node"><title>pro_85</title>
<polygon fill="lightblue" stroke="blue" points="304.94,-880.5 304.94,-916.5 380.94,-916.5 380.94,-880.5 304.94,-880.5"/>
<text text-anchor="middle" x="342.94" y="-894.8" font-family="Sans" font-size="14.00">米長邦雄</text>
</g>
<!-- f1_c1 -->
<g id="node44" class="node"><title>f1_c1</title>
<ellipse fill="black" stroke="black" cx="424.8" cy="-1035.5" rx="0.36" ry="0.36"/>
</g>
<!-- pro_85&#45;&#45;f1_c1 -->
<g id="edge20" class="edge"><title>pro_85&#45;&#45;f1_c1</title>
<path fill="none" stroke="black" d="M343.16,-916.648C343.16,-953.824 343.16,-1035.17 343.16,-1035.17 343.16,-1035.17 419.777,-1035.17 424.566,-1035.17"/>
</g>
<!-- pro_87 -->
<g id="node4" class="node"><title>pro_87</title>
<polygon fill="lightblue" stroke="blue" points="304.94,-660.5 304.94,-696.5 380.94,-696.5 380.94,-660.5 304.94,-660.5"/>
<text text-anchor="middle" x="342.94" y="-674.8" font-family="Sans" font-size="14.00">西村一義</text>
</g>
<!-- f2_c1 -->
<g id="node47" class="node"><title>f2_c1</title>
<ellipse fill="black" stroke="black" cx="424.8" cy="-678.5" rx="0.36" ry="0.36"/>
</g>
<!-- pro_87&#45;&#45;f2_c1 -->
<g id="edge30" class="edge"><title>pro_87&#45;&#45;f2_c1</title>
<path fill="none" stroke="black" d="M380.994,-678.5C400.367,-678.5 420.604,-678.5 424.228,-678.5"/>
</g>
<!-- pro_109 -->
<g id="node5" class="node"><title>pro_109</title>
<polygon fill="lightblue" stroke="blue" points="312.44,-605.5 312.44,-641.5 373.44,-641.5 373.44,-605.5 312.44,-605.5"/>
<text text-anchor="middle" x="342.94" y="-619.8" font-family="Sans" font-size="14.00">田丸昇</text>
</g>
<!-- f3_c1 -->
<g id="node50" class="node"><title>f3_c1</title>
<ellipse fill="black" stroke="black" cx="424.8" cy="-439.5" rx="0.36" ry="0.36"/>
</g>
<!-- pro_109&#45;&#45;f3_c1 -->
<g id="edge40" class="edge"><title>pro_109&#45;&#45;f3_c1</title>
<path fill="none" stroke="black" d="M373.457,-609.5C386.228,-609.5 398.16,-609.5 398.16,-609.5 398.16,-609.5 398.16,-440.25 398.16,-440.25 398.16,-440.25 423.161,-440.25 424.724,-440.25"/>
</g>
<!-- pro_121 -->
<g id="node6" class="node"><title>pro_121</title>
<polygon fill="lightblue" stroke="blue" points="312.44,-550.5 312.44,-586.5 373.44,-586.5 373.44,-550.5 312.44,-550.5"/>
<text text-anchor="middle" x="342.94" y="-564.8" font-family="Sans" font-size="14.00">沼春雄</text>
</g>
<!-- pro_142 -->
<g id="node7" class="node"><title>pro_142</title>
<polygon fill="lightblue" stroke="blue" points="304.94,-495.5 304.94,-531.5 380.94,-531.5 380.94,-495.5 304.94,-495.5"/>
<text text-anchor="middle" x="342.94" y="-509.8" font-family="Sans" font-size="14.00">高橋道雄</text>
</g>
<!-- f4_c1 -->
<g id="node53" class="node"><title>f4_c1</title>
<ellipse fill="black" stroke="black" cx="424.8" cy="-228.5" rx="0.36" ry="0.36"/>
</g>
<!-- pro_142&#45;&#45;f4_c1 -->
<g id="edge46" class="edge"><title>pro_142&#45;&#45;f4_c1</title>
<path fill="none" stroke="black" d="M381.202,-499.5C384.237,-499.5 386.16,-499.5 386.16,-499.5 386.16,-499.5 386.16,-228.5 386.16,-228.5 386.16,-228.5 420.121,-228.5 424.366,-228.5"/>
</g>
<!-- pro_150 -->
<g id="node8" class="node"><title>pro_150</title>
<polygon fill="lightblue" stroke="blue" points="304.94,-330.5 304.94,-366.5 380.94,-366.5 380.94,-330.5 304.94,-330.5"/>
<text text-anchor="middle" x="342.94" y="-344.8" font-family="Sans" font-size="14.00">植山悦行</text>
</g>
<!-- pro_153 -->
<g id="node9" class="node"><title>pro_153</title>
<polygon fill="lightblue" stroke="blue" points="304.94,-275.5 304.94,-311.5 380.94,-311.5 380.94,-275.5 304.94,-275.5"/>
<text text-anchor="middle" x="342.94" y="-289.8" font-family="Sans" font-size="14.00">室岡克彦</text>
</g>
<!-- pro_174 -->
<g id="node10" class="node"><title>pro_174</title>
<polygon fill="lightblue" stroke="blue" points="304.94,-220.5 304.94,-256.5 380.94,-256.5 380.94,-220.5 304.94,-220.5"/>
<text text-anchor="middle" x="342.94" y="-234.8" font-family="Sans" font-size="14.00">安西勝一</text>
</g>
<!-- pro_181 -->
<g id="node11" class="node"><title>pro_181</title>
<polygon fill="lightblue" stroke="blue" points="468.66,-467.5 468.66,-503.5 544.66,-503.5 544.66,-467.5 468.66,-467.5"/>
<text text-anchor="middle" x="506.66" y="-481.8" font-family="Sans" font-size="14.00">櫛田陽一</text>
</g>
<!-- pro_184 -->
<g id="node12" class="node"><title>pro_184</title>
<polygon fill="lightblue" stroke="blue" points="468.66,-1237.5 468.66,-1273.5 544.66,-1273.5 544.66,-1237.5 468.66,-1237.5"/>
<text text-anchor="middle" x="506.66" y="-1251.8" font-family="Sans" font-size="14.00">中川大輔</text>
</g>
<!-- pro_185 -->
<g id="node13" class="node"><title>pro_185</title>
<polygon fill="lightblue" stroke="blue" points="476.16,-1182.5 476.16,-1218.5 537.16,-1218.5 537.16,-1182.5 476.16,-1182.5"/>
<text text-anchor="middle" x="506.66" y="-1196.8" font-family="Sans" font-size="14.00">先崎学</text>
</g>
<!-- pro_194 -->
<g id="node14" class="node"><title>pro_194</title>
<polygon fill="lightblue" stroke="blue" points="304.94,-440.5 304.94,-476.5 380.94,-476.5 380.94,-440.5 304.94,-440.5"/>
<text text-anchor="middle" x="342.94" y="-454.8" font-family="Sans" font-size="14.00">丸山忠久</text>
</g>
<!-- pro_198 -->
<g id="node15" class="node"><title>pro_198</title>
<polygon fill="lightblue" stroke="blue" points="476.16,-852.5 476.16,-888.5 537.16,-888.5 537.16,-852.5 476.16,-852.5"/>
<text text-anchor="middle" x="506.66" y="-866.8" font-family="Sans" font-size="14.00">藤井猛</text>
</g>
<!-- pro_204 -->
<g id="node16" class="node"><title>pro_204</title>
<polygon fill="lightblue" stroke="blue" points="468.66,-797.5 468.66,-833.5 544.66,-833.5 544.66,-797.5 468.66,-797.5"/>
<text text-anchor="middle" x="506.66" y="-811.8" font-family="Sans" font-size="14.00">三浦弘行</text>
</g>
<!-- pro_205 -->
<g id="node17" class="node"><title>pro_205</title>
<polygon fill="lightblue" stroke="blue" points="476.16,-1127.5 476.16,-1163.5 537.16,-1163.5 537.16,-1127.5 476.16,-1127.5"/>
<text text-anchor="middle" x="506.66" y="-1141.8" font-family="Sans" font-size="14.00">伊藤能</text>
</g>
<!-- pro_219 -->
<g id="node18" class="node"><title>pro_219</title>
<polygon fill="lightblue" stroke="blue" points="312.44,-385.5 312.44,-421.5 373.44,-421.5 373.44,-385.5 312.44,-385.5"/>
<text text-anchor="middle" x="342.94" y="-399.8" font-family="Sans" font-size="14.00">中座真</text>
</g>
<!-- pro_222 -->
<g id="node19" class="node"><title>pro_222</title>
<polygon fill="lightblue" stroke="blue" points="304.94,-165.5 304.94,-201.5 380.94,-201.5 380.94,-165.5 304.94,-165.5"/>
<text text-anchor="middle" x="342.94" y="-179.8" font-family="Sans" font-size="14.00">木村一基</text>
</g>
<!-- f5_c -->
<g id="node55" class="node"><title>f5_c</title>
<ellipse fill="black" stroke="black" cx="424.8" cy="-1264.5" rx="0.36" ry="0.36"/>
</g>
<!-- pro_222&#45;&#45;f5_c -->
<g id="edge51" class="edge"><title>pro_222&#45;&#45;f5_c</title>
<path fill="none" stroke="black" d="M381.196,-197C383.051,-197 384.16,-197 384.16,-197 384.16,-197 384.16,-1264.5 384.16,-1264.5 384.16,-1264.5 419.879,-1264.5 424.344,-1264.5"/>
</g>
<!-- pro_252 -->
<g id="node20" class="node"><title>pro_252</title>
<polygon fill="lightblue" stroke="blue" points="468.66,-302.5 468.66,-338.5 544.66,-338.5 544.66,-302.5 468.66,-302.5"/>
<text text-anchor="middle" x="506.66" y="-316.8" font-family="Sans" font-size="14.00">中村亮介</text>
</g>
<!-- pro_256 -->
<g id="node21" class="node"><title>pro_256</title>
<polygon fill="lightblue" stroke="blue" points="468.66,-1017.5 468.66,-1053.5 544.66,-1053.5 544.66,-1017.5 468.66,-1017.5"/>
<text text-anchor="middle" x="506.66" y="-1031.8" font-family="Sans" font-size="14.00">長岡裕也</text>
</g>
<!-- pro_257 -->
<g id="node22" class="node"><title>pro_257</title>
<polygon fill="lightblue" stroke="blue" points="468.66,-1072.5 468.66,-1108.5 544.66,-1108.5 544.66,-1072.5 468.66,-1072.5"/>
<text text-anchor="middle" x="506.66" y="-1086.8" font-family="Sans" font-size="14.00">高崎一生</text>
</g>
<!-- pro_261 -->
<g id="node23" class="node"><title>pro_261</title>
<polygon fill="lightblue" stroke="blue" points="468.66,-907.5 468.66,-943.5 544.66,-943.5 544.66,-907.5 468.66,-907.5"/>
<text text-anchor="middle" x="506.66" y="-921.8" font-family="Sans" font-size="14.00">中村太地</text>
</g>
<!-- pro_277 -->
<g id="node24" class="node"><title>pro_277</title>
<polygon fill="lightblue" stroke="blue" points="461.16,-742.5 461.16,-778.5 552.16,-778.5 552.16,-742.5 461.16,-742.5"/>
<text text-anchor="middle" x="506.66" y="-756.8" font-family="Sans" font-size="14.00">阿部健治郎</text>
</g>
<!-- pro_295 -->
<g id="node25" class="node"><title>pro_295</title>
<polygon fill="lightblue" stroke="blue" points="468.66,-632.5 468.66,-668.5 544.66,-668.5 544.66,-632.5 468.66,-632.5"/>
<text text-anchor="middle" x="506.66" y="-646.8" font-family="Sans" font-size="14.00">星野良生</text>
</g>
<!-- pro_298 -->
<g id="node26" class="node"><title>pro_298</title>
<polygon fill="lightblue" stroke="blue" points="468.66,-247.5 468.66,-283.5 544.66,-283.5 544.66,-247.5 468.66,-247.5"/>
<text text-anchor="middle" x="506.66" y="-261.8" font-family="Sans" font-size="14.00">黒沢怜生</text>
</g>
<!-- pro_302 -->
<g id="node27" class="node"><title>pro_302</title>
<polygon fill="lightblue" stroke="blue" points="468.66,-1292.5 468.66,-1328.5 544.66,-1328.5 544.66,-1292.5 468.66,-1292.5"/>
<text text-anchor="middle" x="506.66" y="-1306.8" font-family="Sans" font-size="14.00">高野智史</text>
</g>
<!-- pro_305 -->
<g id="node28" class="node"><title>pro_305</title>
<polygon fill="lightblue" stroke="blue" points="468.66,-412.5 468.66,-448.5 544.66,-448.5 544.66,-412.5 468.66,-412.5"/>
<text text-anchor="middle" x="506.66" y="-426.8" font-family="Sans" font-size="14.00">井出隼平</text>
</g>
<!-- pro_310 -->
<g id="node29" class="node"><title>pro_310</title>
<polygon fill="lightblue" stroke="blue" points="468.66,-962.5 468.66,-998.5 544.66,-998.5 544.66,-962.5 468.66,-962.5"/>
<text text-anchor="middle" x="506.66" y="-976.8" font-family="Sans" font-size="14.00">杉本和陽</text>
</g>
<!-- lady_2 -->
<g id="node30" class="node"><title>lady_2</title>
<polygon fill="pink" stroke="red" points="304.94,-55.5 304.94,-91.5 380.94,-91.5 380.94,-55.5 304.94,-55.5"/>
<text text-anchor="middle" x="342.94" y="-69.8" font-family="Sans" font-size="14.00">谷川治恵</text>
</g>
<!-- lady_6 -->
<g id="node31" class="node"><title>lady_6</title>
<polygon fill="pink" stroke="red" points="468.66,-687.5 468.66,-723.5 544.66,-723.5 544.66,-687.5 468.66,-687.5"/>
<text text-anchor="middle" x="506.66" y="-701.8" font-family="Sans" font-size="14.00">山田久美</text>
</g>
<!-- lady_12 -->
<g id="node32" class="node"><title>lady_12</title>
<polygon fill="pink" stroke="red" points="304.94,-0.5 304.94,-36.5 380.94,-36.5 380.94,-0.5 304.94,-0.5"/>
<text text-anchor="middle" x="342.94" y="-14.8" font-family="Sans" font-size="14.00">真田彩子</text>
</g>
<!-- lady_14 -->
<g id="node33" class="node"><title>lady_14</title>
<polygon fill="pink" stroke="red" points="297.44,-110.5 297.44,-146.5 388.44,-146.5 388.44,-110.5 297.44,-110.5"/>
<text text-anchor="middle" x="342.94" y="-124.8" font-family="Sans" font-size="14.00">本田小百合</text>
</g>
<!-- lady_23 -->
<g id="node34" class="node"><title>lady_23</title>
<polygon fill="pink" stroke="red" points="476.16,-522.5 476.16,-558.5 537.16,-558.5 537.16,-522.5 476.16,-522.5"/>
<text text-anchor="middle" x="506.66" y="-536.8" font-family="Sans" font-size="14.00">藤田綾</text>
</g>
<!-- lady_37 -->
<g id="node35" class="node"><title>lady_37</title>
<polygon fill="pink" stroke="red" points="468.66,-192.5 468.66,-228.5 544.66,-228.5 544.66,-192.5 468.66,-192.5"/>
<text text-anchor="middle" x="506.66" y="-206.8" font-family="Sans" font-size="14.00">宮宗紫野</text>
</g>
<!-- lady_38 -->
<g id="node36" class="node"><title>lady_38</title>
<polygon fill="pink" stroke="red" points="468.66,-137.5 468.66,-173.5 544.66,-173.5 544.66,-137.5 468.66,-137.5"/>
<text text-anchor="middle" x="506.66" y="-151.8" font-family="Sans" font-size="14.00">中村桃子</text>
</g>
<!-- lady_43 -->
<g id="node37" class="node"><title>lady_43</title>
<polygon fill="pink" stroke="red" points="461.16,-577.5 461.16,-613.5 552.16,-613.5 552.16,-577.5 461.16,-577.5"/>
<text text-anchor="middle" x="506.66" y="-591.8" font-family="Sans" font-size="14.00">北尾まどか</text>
</g>
<!-- lady_6004 -->
<g id="node38" class="node"><title>lady_6004</title>
<polygon fill="pink" stroke="red" points="461.16,-357.5 461.16,-393.5 552.16,-393.5 552.16,-357.5 461.16,-357.5"/>
<text text-anchor="middle" x="506.66" y="-371.8" font-family="Sans" font-size="14.00">小高佐季子</text>
</g>
<!-- extra_10 -->
<g id="node39" class="node"><title>extra_10</title>
<polygon fill="lightblue" stroke="blue" points="0,-361.5 0,-397.5 76,-397.5 76,-361.5 0,-361.5"/>
<text text-anchor="middle" x="38" y="-375.8" font-family="Sans" font-size="14.00">石井秀吉</text>
</g>
<!-- f6_c1 -->
<g id="node57" class="node"><title>f6_c1</title>
<ellipse fill="black" stroke="black" cx="112.36" cy="-379.5" rx="0.36" ry="0.36"/>
</g>
<!-- extra_10&#45;&#45;f6_c1 -->
<g id="edge55" class="edge"><title>extra_10&#45;&#45;f6_c1</title>
<path fill="none" stroke="black" d="M76.0513,-379.5C92.6312,-379.5 108.98,-379.5 111.9,-379.5"/>
</g>
<!-- f0_c0 -->
<g id="node40" class="node"><title>f0_c0</title>
<ellipse fill="black" stroke="black" cx="261.08" cy="-595.5" rx="0.36" ry="0.36"/>
</g>
<!-- f0_c0&#45;&#45;pro_85 -->
<g id="edge4" class="edge"><title>f0_c0&#45;&#45;pro_85</title>
<path fill="none" stroke="black" d="M261.16,-595.992C261.16,-609.537 261.16,-898.5 261.16,-898.5 261.16,-898.5 283.567,-898.5 304.923,-898.5"/>
</g>
<!-- f0_c0&#45;&#45;pro_87 -->
<g id="edge5" class="edge"><title>f0_c0&#45;&#45;pro_87</title>
<path fill="none" stroke="black" d="M260.697,-595.833C258.989,-595.833 252.16,-595.833 252.16,-595.833 252.16,-595.833 252.16,-678.5 252.16,-678.5 252.16,-678.5 279.895,-678.5 304.704,-678.5"/>
</g>
<!-- f0_c0&#45;&#45;pro_109 -->
<g id="edge6" class="edge"><title>f0_c0&#45;&#45;pro_109</title>
<path fill="none" stroke="black" d="M262.16,-595.58C262.16,-597.223 262.16,-623.5 262.16,-623.5 262.16,-623.5 289.525,-623.5 312.401,-623.5"/>
</g>
<!-- f0_c0&#45;&#45;pro_121 -->
<g id="edge7" class="edge"><title>f0_c0&#45;&#45;pro_121</title>
<path fill="none" stroke="black" d="M262.16,-595.423C262.16,-593.839 262.16,-568.5 262.16,-568.5 262.16,-568.5 289.525,-568.5 312.401,-568.5"/>
</g>
<!-- f0_c0&#45;&#45;pro_142 -->
<g id="edge8" class="edge"><title>f0_c0&#45;&#45;pro_142</title>
<path fill="none" stroke="black" d="M261.62,-595.5C266.902,-595.5 309.16,-595.5 309.16,-595.5 309.16,-595.5 309.16,-555.856 309.16,-531.698"/>
</g>
<!-- f0_c0&#45;&#45;f0_c1 -->
<g id="edge1" class="edge"><title>f0_c0&#45;&#45;f0_c1</title>
<path fill="none" stroke="black" d="M260.778,-595.167C257.82,-595.167 234.16,-595.167 234.16,-595.167 234.16,-595.167 234.16,-348.833 234.16,-348.833 234.16,-348.833 257.82,-348.833 260.778,-348.833"/>
</g>
<!-- f0_c1&#45;&#45;pro_150 -->
<g id="edge9" class="edge"><title>f0_c1&#45;&#45;pro_150</title>
<path fill="none" stroke="black" d="M261.315,-348.833C263.753,-348.833 284.764,-348.833 304.856,-348.833"/>
</g>
<!-- f0_c1&#45;&#45;pro_153 -->
<g id="edge10" class="edge"><title>f0_c1&#45;&#45;pro_153</title>
<path fill="none" stroke="black" d="M261.16,-347.882C261.16,-341.84 261.16,-293.5 261.16,-293.5 261.16,-293.5 283.567,-293.5 304.923,-293.5"/>
</g>
<!-- f0_c1&#45;&#45;pro_174 -->
<g id="edge11" class="edge"><title>f0_c1&#45;&#45;pro_174</title>
<path fill="none" stroke="black" d="M261.16,-347.798C261.16,-338.429 261.16,-238.5 261.16,-238.5 261.16,-238.5 283.567,-238.5 304.923,-238.5"/>
</g>
<!-- f0_c1&#45;&#45;pro_194 -->
<g id="edge12" class="edge"><title>f0_c1&#45;&#45;pro_194</title>
<path fill="none" stroke="black" d="M261.16,-349.202C261.16,-358.571 261.16,-458.5 261.16,-458.5 261.16,-458.5 283.567,-458.5 304.923,-458.5"/>
</g>
<!-- f0_c1&#45;&#45;pro_219 -->
<g id="edge13" class="edge"><title>f0_c1&#45;&#45;pro_219</title>
<path fill="none" stroke="black" d="M261.16,-349.118C261.16,-355.16 261.16,-403.5 261.16,-403.5 261.16,-403.5 288.864,-403.5 312.022,-403.5"/>
</g>
<!-- f0_c2 -->
<g id="node42" class="node"><title>f0_c2</title>
<ellipse fill="black" stroke="black" cx="261.08" cy="-128.5" rx="0.36" ry="0.36"/>
</g>
<!-- f0_c1&#45;&#45;f0_c2 -->
<g id="edge2" class="edge"><title>f0_c1&#45;&#45;f0_c2</title>
<path fill="none" stroke="black" d="M261.294,-348.167C263.39,-348.167 280.16,-348.167 280.16,-348.167 280.16,-348.167 280.16,-128.833 280.16,-128.833 280.16,-128.833 263.39,-128.833 261.294,-128.833"/>
</g>
<!-- f0_c2&#45;&#45;pro_222 -->
<g id="edge14" class="edge"><title>f0_c2&#45;&#45;pro_222</title>
<path fill="none" stroke="black" d="M262.16,-128.658C262.16,-131.884 262.16,-183.5 262.16,-183.5 262.16,-183.5 283.964,-183.5 304.915,-183.5"/>
</g>
<!-- f0_c2&#45;&#45;lady_2 -->
<g id="edge15" class="edge"><title>f0_c2&#45;&#45;lady_2</title>
<path fill="none" stroke="black" d="M261.16,-127.882C261.16,-121.84 261.16,-73.5 261.16,-73.5 261.16,-73.5 283.567,-73.5 304.923,-73.5"/>
</g>
<!-- f0_c2&#45;&#45;lady_12 -->
<g id="edge16" class="edge"><title>f0_c2&#45;&#45;lady_12</title>
<path fill="none" stroke="black" d="M260.637,-128.5C257.878,-128.5 243.16,-128.5 243.16,-128.5 243.16,-128.5 243.16,-18.5 243.16,-18.5 243.16,-18.5 276.735,-18.5 304.933,-18.5"/>
</g>
<!-- f0_c2&#45;&#45;lady_14 -->
<g id="edge17" class="edge"><title>f0_c2&#45;&#45;lady_14</title>
<path fill="none" stroke="black" d="M261.315,-128.167C263.453,-128.167 279.873,-128.167 297.432,-128.167"/>
</g>
<!-- f1_c0 -->
<g id="node43" class="node"><title>f1_c0</title>
<ellipse fill="black" stroke="black" cx="424.8" cy="-1172.5" rx="0.36" ry="0.36"/>
</g>
<!-- f1_c0&#45;&#45;pro_184 -->
<g id="edge21" class="edge"><title>f1_c0&#45;&#45;pro_184</title>
<path fill="none" stroke="black" d="M425.343,-1172.5C430.656,-1172.5 473.16,-1172.5 473.16,-1172.5 473.16,-1172.5 473.16,-1213.08 473.16,-1237.49"/>
</g>
<!-- f1_c0&#45;&#45;pro_185 -->
<g id="edge22" class="edge"><title>f1_c0&#45;&#45;pro_185</title>
<path fill="none" stroke="black" d="M425.16,-1172.58C425.16,-1174.22 425.16,-1200.5 425.16,-1200.5 425.16,-1200.5 452.769,-1200.5 475.848,-1200.5"/>
</g>
<!-- f1_c0&#45;&#45;pro_205 -->
<g id="edge23" class="edge"><title>f1_c0&#45;&#45;pro_205</title>
<path fill="none" stroke="black" d="M425.16,-1172.42C425.16,-1170.84 425.16,-1145.5 425.16,-1145.5 425.16,-1145.5 452.769,-1145.5 475.848,-1145.5"/>
</g>
<!-- f1_c0&#45;&#45;f1_c1 -->
<g id="edge18" class="edge"><title>f1_c0&#45;&#45;f1_c1</title>
<path fill="none" stroke="black" d="M424.339,-1172.5C421.469,-1172.5 406.16,-1172.5 406.16,-1172.5 406.16,-1172.5 406.16,-1035.83 406.16,-1035.83 406.16,-1035.83 422.543,-1035.83 424.591,-1035.83"/>
</g>
<!-- f1_c1&#45;&#45;pro_256 -->
<g id="edge24" class="edge"><title>f1_c1&#45;&#45;pro_256</title>
<path fill="none" stroke="black" d="M425.323,-1035.5C428.809,-1035.5 449.143,-1035.5 468.606,-1035.5"/>
</g>
<!-- f1_c1&#45;&#45;pro_257 -->
<g id="edge25" class="edge"><title>f1_c1&#45;&#45;pro_257</title>
<path fill="none" stroke="black" d="M425.16,-1035.66C425.16,-1038.88 425.16,-1090.5 425.16,-1090.5 425.16,-1090.5 447.158,-1090.5 468.296,-1090.5"/>
</g>
<!-- f1_c2 -->
<g id="node45" class="node"><title>f1_c2</title>
<ellipse fill="black" stroke="black" cx="424.8" cy="-980.5" rx="0.36" ry="0.36"/>
</g>
<!-- f1_c1&#45;&#45;f1_c2 -->
<g id="edge19" class="edge"><title>f1_c1&#45;&#45;f1_c2</title>
<path fill="none" stroke="black" d="M425.16,-1035.34C425.16,-1032.22 425.16,-983.679 425.16,-980.648"/>
</g>
<!-- f1_c2&#45;&#45;pro_261 -->
<g id="edge26" class="edge"><title>f1_c2&#45;&#45;pro_261</title>
<path fill="none" stroke="black" d="M425.16,-980.357C425.16,-977.424 425.16,-930.5 425.16,-930.5 425.16,-930.5 447.158,-930.5 468.296,-930.5"/>
</g>
<!-- f1_c2&#45;&#45;pro_310 -->
<g id="edge27" class="edge"><title>f1_c2&#45;&#45;pro_310</title>
<path fill="none" stroke="black" d="M425.323,-980.5C428.809,-980.5 449.143,-980.5 468.606,-980.5"/>
</g>
<!-- f2_c0 -->
<g id="node46" class="node"><title>f2_c0</title>
<ellipse fill="black" stroke="black" cx="424.8" cy="-787.5" rx="0.36" ry="0.36"/>
</g>
<!-- f2_c0&#45;&#45;pro_198 -->
<g id="edge31" class="edge"><title>f2_c0&#45;&#45;pro_198</title>
<path fill="none" stroke="black" d="M424.386,-787.5C422.541,-787.5 415.16,-787.5 415.16,-787.5 415.16,-787.5 415.16,-866 415.16,-866 415.16,-866 449.356,-866 475.937,-866"/>
</g>
<!-- f2_c0&#45;&#45;pro_204 -->
<g id="edge32" class="edge"><title>f2_c0&#45;&#45;pro_204</title>
<path fill="none" stroke="black" d="M425.16,-787.58C425.16,-789.223 425.16,-815.5 425.16,-815.5 425.16,-815.5 447.158,-815.5 468.296,-815.5"/>
</g>
<!-- f2_c0&#45;&#45;pro_277 -->
<g id="edge33" class="edge"><title>f2_c0&#45;&#45;pro_277</title>
<path fill="none" stroke="black" d="M425.253,-787.5C429.687,-787.5 465.16,-787.5 465.16,-787.5 465.16,-787.5 465.16,-783.543 465.16,-778.659"/>
</g>
<!-- f2_c0&#45;&#45;f2_c1 -->
<g id="edge28" class="edge"><title>f2_c0&#45;&#45;f2_c1</title>
<path fill="none" stroke="black" d="M425.16,-787.421C425.16,-784.172 425.16,-681.776 425.16,-678.577"/>
</g>
<!-- f2_c1&#45;&#45;pro_295 -->
<g id="edge34" class="edge"><title>f2_c1&#45;&#45;pro_295</title>
<path fill="none" stroke="black" d="M425.326,-678.5C432.34,-678.5 507.16,-678.5 507.16,-678.5 507.16,-678.5 507.16,-674.055 507.16,-668.707"/>
</g>
<!-- f2_c1&#45;&#45;lady_6 -->
<g id="edge35" class="edge"><title>f2_c1&#45;&#45;lady_6</title>
<path fill="none" stroke="black" d="M425.16,-678.652C425.16,-680.135 425.16,-692 425.16,-692 425.16,-692 447.158,-692 468.296,-692"/>
</g>
<!-- f2_c2 -->
<g id="node48" class="node"><title>f2_c2</title>
<ellipse fill="black" stroke="black" cx="424.8" cy="-595.5" rx="0.36" ry="0.36"/>
</g>
<!-- f2_c1&#45;&#45;f2_c2 -->
<g id="edge29" class="edge"><title>f2_c1&#45;&#45;f2_c2</title>
<path fill="none" stroke="black" d="M425.16,-678.44C425.16,-675.966 425.16,-597.994 425.16,-595.558"/>
</g>
<!-- f2_c2&#45;&#45;lady_23 -->
<g id="edge36" class="edge"><title>f2_c2&#45;&#45;lady_23</title>
<path fill="none" stroke="black" d="M425.16,-595.382C425.16,-592.978 425.16,-554.5 425.16,-554.5 425.16,-554.5 452.769,-554.5 475.848,-554.5"/>
</g>
<!-- f2_c2&#45;&#45;lady_43 -->
<g id="edge37" class="edge"><title>f2_c2&#45;&#45;lady_43</title>
<path fill="none" stroke="black" d="M425.323,-595.5C428.346,-595.5 444.039,-595.5 460.846,-595.5"/>
</g>
<!-- f3_c0 -->
<g id="node49" class="node"><title>f3_c0</title>
<ellipse fill="black" stroke="black" cx="424.8" cy="-467.5" rx="0.36" ry="0.36"/>
</g>
<!-- f3_c0&#45;&#45;pro_181 -->
<g id="edge41" class="edge"><title>f3_c0&#45;&#45;pro_181</title>
<path fill="none" stroke="black" d="M425.323,-467.75C428.809,-467.75 449.143,-467.75 468.606,-467.75"/>
</g>
<!-- f3_c0&#45;&#45;f3_c1 -->
<g id="edge38" class="edge"><title>f3_c0&#45;&#45;f3_c1</title>
<path fill="none" stroke="black" d="M425.16,-467.42C425.16,-465.829 425.16,-441.118 425.16,-439.575"/>
</g>
<!-- f3_c1&#45;&#45;pro_305 -->
<g id="edge42" class="edge"><title>f3_c1&#45;&#45;pro_305</title>
<path fill="none" stroke="black" d="M425.323,-439.5C428.809,-439.5 449.143,-439.5 468.606,-439.5"/>
</g>
<!-- f3_c2 -->
<g id="node51" class="node"><title>f3_c2</title>
<ellipse fill="black" stroke="black" cx="424.8" cy="-397.5" rx="0.36" ry="0.36"/>
</g>
<!-- f3_c1&#45;&#45;f3_c2 -->
<g id="edge39" class="edge"><title>f3_c1&#45;&#45;f3_c2</title>
<path fill="none" stroke="black" d="M425.16,-439.38C425.16,-436.993 425.16,-399.927 425.16,-397.613"/>
</g>
<!-- f3_c2&#45;&#45;lady_6004 -->
<g id="edge43" class="edge"><title>f3_c2&#45;&#45;lady_6004</title>
<path fill="none" stroke="black" d="M425.253,-397.5C429.687,-397.5 465.16,-397.5 465.16,-397.5 465.16,-397.5 465.16,-395.948 465.16,-393.668"/>
</g>
<!-- f4_c0 -->
<g id="node52" class="node"><title>f4_c0</title>
<ellipse fill="black" stroke="black" cx="424.8" cy="-265.5" rx="0.36" ry="0.36"/>
</g>
<!-- f4_c0&#45;&#45;pro_252 -->
<g id="edge47" class="edge"><title>f4_c0&#45;&#45;pro_252</title>
<path fill="none" stroke="black" d="M425.16,-265.619C425.16,-268.053 425.16,-307 425.16,-307 425.16,-307 447.158,-307 468.296,-307"/>
</g>
<!-- f4_c0&#45;&#45;pro_298 -->
<g id="edge48" class="edge"><title>f4_c0&#45;&#45;pro_298</title>
<path fill="none" stroke="black" d="M425.323,-265.5C428.809,-265.5 449.143,-265.5 468.606,-265.5"/>
</g>
<!-- f4_c0&#45;&#45;f4_c1 -->
<g id="edge44" class="edge"><title>f4_c0&#45;&#45;f4_c1</title>
<path fill="none" stroke="black" d="M425.16,-265.394C425.16,-263.291 425.16,-230.638 425.16,-228.6"/>
</g>
<!-- f4_c1&#45;&#45;lady_37 -->
<g id="edge49" class="edge"><title>f4_c1&#45;&#45;lady_37</title>
<path fill="none" stroke="black" d="M425.323,-228.25C428.809,-228.25 449.143,-228.25 468.606,-228.25"/>
</g>
<!-- f4_c2 -->
<g id="node54" class="node"><title>f4_c2</title>
<ellipse fill="black" stroke="black" cx="424.8" cy="-173.5" rx="0.36" ry="0.36"/>
</g>
<!-- f4_c1&#45;&#45;f4_c2 -->
<g id="edge45" class="edge"><title>f4_c1&#45;&#45;f4_c2</title>
<path fill="none" stroke="black" d="M425.16,-228.342C425.16,-225.217 425.16,-176.679 425.16,-173.648"/>
</g>
<!-- f4_c2&#45;&#45;lady_38 -->
<g id="edge50" class="edge"><title>f4_c2&#45;&#45;lady_38</title>
<path fill="none" stroke="black" d="M425.323,-173.25C428.809,-173.25 449.143,-173.25 468.606,-173.25"/>
</g>
<!-- f5_c&#45;&#45;pro_302 -->
<g id="edge52" class="edge"><title>f5_c&#45;&#45;pro_302</title>
<path fill="none" stroke="black" d="M425.16,-1264.63C425.16,-1267.33 425.16,-1310.5 425.16,-1310.5 425.16,-1310.5 447.158,-1310.5 468.296,-1310.5"/>
</g>
<!-- f6_c0 -->
<g id="node56" class="node"><title>f6_c0</title>
<ellipse fill="black" stroke="black" cx="112.36" cy="-400.5" rx="0.36" ry="0.36"/>
</g>
<!-- f6_c0&#45;&#45;pro_22 -->
<g id="edge56" class="edge"><title>f6_c0&#45;&#45;pro_22</title>
<path fill="none" stroke="black" d="M112.835,-400.5C115.779,-400.5 131.951,-400.5 148.417,-400.5"/>
</g>
<!-- f6_c0&#45;&#45;f6_c1 -->
<g id="edge53" class="edge"><title>f6_c0&#45;&#45;f6_c1</title>
<path fill="none" stroke="black" d="M113.16,-400.44C113.16,-399.247 113.16,-380.714 113.16,-379.557"/>
</g>
<!-- f6_c2 -->
<g id="node58" class="node"><title>f6_c2</title>
<ellipse fill="black" stroke="black" cx="112.36" cy="-356.5" rx="0.36" ry="0.36"/>
</g>
<!-- f6_c1&#45;&#45;f6_c2 -->
<g id="edge54" class="edge"><title>f6_c1&#45;&#45;f6_c2</title>
<path fill="none" stroke="black" d="M113.16,-379.434C113.16,-378.127 113.16,-357.829 113.16,-356.562"/>
</g>
<!-- f6_c2&#45;&#45;pro_41 -->
<g id="edge57" class="edge"><title>f6_c2&#45;&#45;pro_41</title>
<path fill="none" stroke="black" d="M112.835,-356.5C115.779,-356.5 131.951,-356.5 148.417,-356.5"/>
</g>
</g>
</svg>
