<?xml version="1.0" encoding="UTF-8" standalone="no"?>
<!DOCTYPE svg PUBLIC "-//W3C//DTD SVG 1.1//EN"
 "http://www.w3.org/Graphics/SVG/1.1/DTD/svg11.dtd">
<!-- Generated by graphviz version 2.38.0 (20140413.2041)
 -->
<!-- Title: ShogiPlayers20 Pages: 1 -->
<svg width="248pt" height="45pt"
 viewBox="0.00 0.00 247.72 45.00" xmlns="http://www.w3.org/2000/svg" xmlns:xlink="http://www.w3.org/1999/xlink">
<g id="graph0" class="graph" transform="scale(1 1) rotate(0) translate(4 41)">
<title>ShogiPlayers20</title>
<polygon fill="white" stroke="none" points="-4,4 -4,-41 243.72,-41 243.72,4 -4,4"/>
<!-- pro_134 -->
<g id="node1" class="node"><title>pro_134</title>
<polygon fill="lightblue" stroke="blue" points="163.72,-0.5 163.72,-36.5 239.72,-36.5 239.72,-0.5 163.72,-0.5"/>
<text text-anchor="middle" x="201.72" y="-14.8" font-family="Sans" font-size="14.00">小野修一</text>
</g>
<!-- extra_20 -->
<g id="node2" class="node"><title>extra_20</title>
<polygon fill="lightblue" stroke="blue" points="0,-0.5 0,-36.5 91,-36.5 91,-0.5 0,-0.5"/>
<text text-anchor="middle" x="45.5" y="-14.8" font-family="Sans" font-size="14.00">建部和歌夫</text>
</g>
<!-- f0_c -->
<g id="node3" class="node"><title>f0_c</title>
<ellipse fill="black" stroke="black" cx="127.36" cy="-18.5" rx="0.36" ry="0.36"/>
</g>
<!-- extra_20&#45;&#45;f0_c -->
<g id="edge1" class="edge"><title>extra_20&#45;&#45;f0_c</title>
<path fill="none" stroke="black" d="M91.2167,-18.5C108.21,-18.5 124.087,-18.5 126.915,-18.5"/>
</g>
<!-- f0_c&#45;&#45;pro_134 -->
<g id="edge2" class="edge"><title>f0_c&#45;&#45;pro_134</title>
<path fill="none" stroke="black" d="M127.835,-18.5C130.779,-18.5 146.951,-18.5 163.417,-18.5"/>
</g>
</g>
</svg>
