<?xml version="1.0" encoding="UTF-8" standalone="no"?>
<!DOCTYPE svg PUBLIC "-//W3C//DTD SVG 1.1//EN"
 "http://www.w3.org/Graphics/SVG/1.1/DTD/svg11.dtd">
<!-- Generated by graphviz version 2.38.0 (20140413.2041)
 -->
<!-- Title: ShogiPlayers18 Pages: 1 -->
<svg width="248pt" height="45pt"
 viewBox="0.00 0.00 247.72 45.00" xmlns="http://www.w3.org/2000/svg" xmlns:xlink="http://www.w3.org/1999/xlink">
<g id="graph0" class="graph" transform="scale(1 1) rotate(0) translate(4 41)">
<title>ShogiPlayers18</title>
<polygon fill="white" stroke="none" points="-4,4 -4,-41 243.72,-41 243.72,4 -4,4"/>
<!-- pro_67 -->
<g id="node1" class="node"><title>pro_67</title>
<polygon fill="lightblue" stroke="blue" points="148.72,-0.5 148.72,-36.5 239.72,-36.5 239.72,-0.5 148.72,-0.5"/>
<text text-anchor="middle" x="194.22" y="-14.8" font-family="Sans" font-size="14.00">長谷部久雄</text>
</g>
<!-- extra_18 -->
<g id="node2" class="node"><title>extra_18</title>
<polygon fill="lightblue" stroke="blue" points="0,-0.5 0,-36.5 76,-36.5 76,-0.5 0,-0.5"/>
<text text-anchor="middle" x="38" y="-14.8" font-family="Sans" font-size="14.00">大和久彪</text>
</g>
<!-- f0_c -->
<g id="node3" class="node"><title>f0_c</title>
<ellipse fill="black" stroke="black" cx="112.36" cy="-18.5" rx="0.36" ry="0.36"/>
</g>
<!-- extra_18&#45;&#45;f0_c -->
<g id="edge1" class="edge"><title>extra_18&#45;&#45;f0_c</title>
<path fill="none" stroke="black" d="M76.0513,-18.5C92.6312,-18.5 108.98,-18.5 111.9,-18.5"/>
</g>
<!-- f0_c&#45;&#45;pro_67 -->
<g id="edge2" class="edge"><title>f0_c&#45;&#45;pro_67</title>
<path fill="none" stroke="black" d="M112.883,-18.5C115.906,-18.5 131.599,-18.5 148.406,-18.5"/>
</g>
</g>
</svg>
