<?xml version="1.0" encoding="UTF-8" standalone="no"?>
<!DOCTYPE svg PUBLIC "-//W3C//DTD SVG 1.1//EN"
 "http://www.w3.org/Graphics/SVG/1.1/DTD/svg11.dtd">
<!-- Generated by graphviz version 2.38.0 (20140413.2041)
 -->
<!-- Title: ShogiPlayers9 Pages: 1 -->
<svg width="545pt" height="160pt"
 viewBox="0.00 0.00 545.16 160.00" xmlns="http://www.w3.org/2000/svg" xmlns:xlink="http://www.w3.org/1999/xlink">
<g id="graph0" class="graph" transform="scale(1 1) rotate(0) translate(4 156)">
<title>ShogiPlayers9</title>
<polygon fill="white" stroke="none" points="-4,4 -4,-156 541.16,-156 541.16,4 -4,4"/>
<!-- pro_21 -->
<g id="node1" class="node"><title>pro_21</title>
<polygon fill="lightblue" stroke="blue" points="163.72,-110.5 163.72,-146.5 239.72,-146.5 239.72,-110.5 163.72,-110.5"/>
<text text-anchor="middle" x="201.72" y="-124.8" font-family="Sans" font-size="14.00">永沢勝雄</text>
</g>
<!-- pro_62 -->
<g id="node2" class="node"><title>pro_62</title>
<polygon fill="lightblue" stroke="blue" points="171.22,-55.5 171.22,-91.5 232.22,-91.5 232.22,-55.5 171.22,-55.5"/>
<text text-anchor="middle" x="201.72" y="-69.8" font-family="Sans" font-size="14.00">大友昇</text>
</g>
<!-- f0_c1 -->
<g id="node10" class="node"><title>f0_c1</title>
<ellipse fill="black" stroke="black" cx="276.08" cy="-73.5" rx="0.36" ry="0.36"/>
</g>
<!-- pro_62&#45;&#45;f0_c1 -->
<g id="edge3" class="edge"><title>pro_62&#45;&#45;f0_c1</title>
<path fill="none" stroke="black" d="M232.394,-73.5C250.957,-73.5 271.753,-73.5 275.49,-73.5"/>
</g>
<!-- pro_81 -->
<g id="node3" class="node"><title>pro_81</title>
<polygon fill="lightblue" stroke="blue" points="163.72,-0.5 163.72,-36.5 239.72,-36.5 239.72,-0.5 163.72,-0.5"/>
<text text-anchor="middle" x="201.72" y="-14.8" font-family="Sans" font-size="14.00">山口千嶺</text>
</g>
<!-- pro_100 -->
<g id="node4" class="node"><title>pro_100</title>
<polygon fill="lightblue" stroke="blue" points="312.44,-85.5 312.44,-121.5 388.44,-121.5 388.44,-85.5 312.44,-85.5"/>
<text text-anchor="middle" x="350.44" y="-99.8" font-family="Sans" font-size="14.00">森けい二</text>
</g>
<!-- f1_c1 -->
<g id="node13" class="node"><title>f1_c1</title>
<ellipse fill="black" stroke="black" cx="424.8" cy="-103.5" rx="0.36" ry="0.36"/>
</g>
<!-- pro_100&#45;&#45;f1_c1 -->
<g id="edge8" class="edge"><title>pro_100&#45;&#45;f1_c1</title>
<path fill="none" stroke="black" d="M388.491,-103.5C405.071,-103.5 421.42,-103.5 424.34,-103.5"/>
</g>
<!-- pro_195 -->
<g id="node5" class="node"><title>pro_195</title>
<polygon fill="lightblue" stroke="blue" points="312.44,-30.5 312.44,-66.5 388.44,-66.5 388.44,-30.5 312.44,-30.5"/>
<text text-anchor="middle" x="350.44" y="-44.8" font-family="Sans" font-size="14.00">郷田真隆</text>
</g>
<!-- lady_33 -->
<g id="node6" class="node"><title>lady_33</title>
<polygon fill="pink" stroke="red" points="461.16,-115.5 461.16,-151.5 537.16,-151.5 537.16,-115.5 461.16,-115.5"/>
<text text-anchor="middle" x="499.16" y="-129.8" font-family="Sans" font-size="14.00">里見香奈</text>
</g>
<!-- lady_56 -->
<g id="node7" class="node"><title>lady_56</title>
<polygon fill="pink" stroke="red" points="461.16,-60.5 461.16,-96.5 537.16,-96.5 537.16,-60.5 461.16,-60.5"/>
<text text-anchor="middle" x="499.16" y="-74.8" font-family="Sans" font-size="14.00">里見咲紀</text>
</g>
<!-- extra_9 -->
<g id="node8" class="node"><title>extra_9</title>
<polygon fill="lightblue" stroke="blue" points="5.68434e-014,-55.5 5.68434e-014,-91.5 91,-91.5 91,-55.5 5.68434e-014,-55.5"/>
<text text-anchor="middle" x="45.5" y="-69.8" font-family="Sans" font-size="14.00">飯塚勘一郎</text>
</g>
<!-- f2_c1 -->
<g id="node16" class="node"><title>f2_c1</title>
<ellipse fill="black" stroke="black" cx="127.36" cy="-73.5" rx="0.36" ry="0.36"/>
</g>
<!-- extra_9&#45;&#45;f2_c1 -->
<g id="edge13" class="edge"><title>extra_9&#45;&#45;f2_c1</title>
<path fill="none" stroke="black" d="M91.2167,-73.5C108.21,-73.5 124.087,-73.5 126.915,-73.5"/>
</g>
<!-- f0_c0 -->
<g id="node9" class="node"><title>f0_c0</title>
<ellipse fill="black" stroke="black" cx="276.08" cy="-100.5" rx="0.36" ry="0.36"/>
</g>
<!-- f0_c0&#45;&#45;pro_100 -->
<g id="edge4" class="edge"><title>f0_c0&#45;&#45;pro_100</title>
<path fill="none" stroke="black" d="M276.555,-100.5C279.499,-100.5 295.671,-100.5 312.137,-100.5"/>
</g>
<!-- f0_c0&#45;&#45;f0_c1 -->
<g id="edge1" class="edge"><title>f0_c0&#45;&#45;f0_c1</title>
<path fill="none" stroke="black" d="M276.16,-99.8326C276.16,-96.0646 276.16,-77.4994 276.16,-74.0516"/>
</g>
<!-- f0_c2 -->
<g id="node11" class="node"><title>f0_c2</title>
<ellipse fill="black" stroke="black" cx="276.08" cy="-50.5" rx="0.36" ry="0.36"/>
</g>
<!-- f0_c1&#45;&#45;f0_c2 -->
<g id="edge2" class="edge"><title>f0_c1&#45;&#45;f0_c2</title>
<path fill="none" stroke="black" d="M276.16,-72.9315C276.16,-69.7217 276.16,-53.9069 276.16,-50.9699"/>
</g>
<!-- f0_c2&#45;&#45;pro_195 -->
<g id="edge5" class="edge"><title>f0_c2&#45;&#45;pro_195</title>
<path fill="none" stroke="black" d="M276.555,-50.5C279.499,-50.5 295.671,-50.5 312.137,-50.5"/>
</g>
<!-- f1_c0 -->
<g id="node12" class="node"><title>f1_c0</title>
<ellipse fill="black" stroke="black" cx="424.8" cy="-130.5" rx="0.36" ry="0.36"/>
</g>
<!-- f1_c0&#45;&#45;lady_33 -->
<g id="edge9" class="edge"><title>f1_c0&#45;&#45;lady_33</title>
<path fill="none" stroke="black" d="M425.275,-130.5C428.219,-130.5 444.391,-130.5 460.857,-130.5"/>
</g>
<!-- f1_c0&#45;&#45;f1_c1 -->
<g id="edge6" class="edge"><title>f1_c0&#45;&#45;f1_c1</title>
<path fill="none" stroke="black" d="M425.16,-130.423C425.16,-128.888 425.16,-105.06 425.16,-103.573"/>
</g>
<!-- f1_c2 -->
<g id="node14" class="node"><title>f1_c2</title>
<ellipse fill="black" stroke="black" cx="424.8" cy="-80.5" rx="0.36" ry="0.36"/>
</g>
<!-- f1_c1&#45;&#45;f1_c2 -->
<g id="edge7" class="edge"><title>f1_c1&#45;&#45;f1_c2</title>
<path fill="none" stroke="black" d="M425.16,-103.434C425.16,-102.127 425.16,-81.8293 425.16,-80.562"/>
</g>
<!-- f1_c2&#45;&#45;lady_56 -->
<g id="edge10" class="edge"><title>f1_c2&#45;&#45;lady_56</title>
<path fill="none" stroke="black" d="M425.275,-80.5C428.219,-80.5 444.391,-80.5 460.857,-80.5"/>
</g>
<!-- f2_c0 -->
<g id="node15" class="node"><title>f2_c0</title>
<ellipse fill="black" stroke="black" cx="127.36" cy="-110.5" rx="0.36" ry="0.36"/>
</g>
<!-- f2_c0&#45;&#45;pro_21 -->
<g id="edge14" class="edge"><title>f2_c0&#45;&#45;pro_21</title>
<path fill="none" stroke="black" d="M127.835,-110.75C130.779,-110.75 146.951,-110.75 163.417,-110.75"/>
</g>
<!-- f2_c0&#45;&#45;f2_c1 -->
<g id="edge11" class="edge"><title>f2_c0&#45;&#45;f2_c1</title>
<path fill="none" stroke="black" d="M128.16,-110.394C128.16,-108.291 128.16,-75.6384 128.16,-73.5997"/>
</g>
<!-- f2_c1&#45;&#45;pro_62 -->
<g id="edge15" class="edge"><title>f2_c1&#45;&#45;pro_62</title>
<path fill="none" stroke="black" d="M127.835,-73.5C131.224,-73.5 152.146,-73.5 170.864,-73.5"/>
</g>
<!-- f2_c2 -->
<g id="node17" class="node"><title>f2_c2</title>
<ellipse fill="black" stroke="black" cx="127.36" cy="-36.5" rx="0.36" ry="0.36"/>
</g>
<!-- f2_c1&#45;&#45;f2_c2 -->
<g id="edge12" class="edge"><title>f2_c1&#45;&#45;f2_c2</title>
<path fill="none" stroke="black" d="M128.16,-73.3939C128.16,-71.2915 128.16,-38.6384 128.16,-36.5997"/>
</g>
<!-- f2_c2&#45;&#45;pro_81 -->
<g id="edge16" class="edge"><title>f2_c2&#45;&#45;pro_81</title>
<path fill="none" stroke="black" d="M127.835,-36.25C130.779,-36.25 146.951,-36.25 163.417,-36.25"/>
</g>
</g>
</svg>
