<?xml version="1.0" encoding="UTF-8" standalone="no"?>
<!DOCTYPE svg PUBLIC "-//W3C//DTD SVG 1.1//EN"
 "http://www.w3.org/Graphics/SVG/1.1/DTD/svg11.dtd">
<!-- Generated by graphviz version 2.38.0 (20140413.2041)
 -->
<!-- Title: ShogiPlayers2 Pages: 1 -->
<svg width="903pt" height="1036pt"
 viewBox="0.00 0.00 902.60 1036.00" xmlns="http://www.w3.org/2000/svg" xmlns:xlink="http://www.w3.org/1999/xlink">
<g id="graph0" class="graph" transform="scale(1 1) rotate(0) translate(4 1032)">
<title>ShogiPlayers2</title>
<polygon fill="white" stroke="none" points="-4,4 -4,-1032 898.6,-1032 898.6,4 -4,4"/>
<!-- pro_3 -->
<g id="node1" class="node"><title>pro_3</title>
<polygon fill="lightblue" stroke="blue" points="163.72,-640.5 163.72,-676.5 254.72,-676.5 254.72,-640.5 163.72,-640.5"/>
<text text-anchor="middle" x="209.22" y="-654.8" font-family="Sans" font-size="14.00">金子金五郎</text>
</g>
<!-- f0_c1 -->
<g id="node52" class="node"><title>f0_c1</title>
<ellipse fill="black" stroke="black" cx="291.08" cy="-690.5" rx="0.36" ry="0.36"/>
</g>
<!-- pro_3&#45;&#45;f0_c1 -->
<g id="edge3" class="edge"><title>pro_3&#45;&#45;f0_c1</title>
<path fill="none" stroke="black" d="M209.6,-676.743C209.6,-683.93 209.6,-690.5 209.6,-690.5 209.6,-690.5 283.62,-690.5 290.56,-690.5"/>
</g>
<!-- pro_5 -->
<g id="node2" class="node"><title>pro_5</title>
<polygon fill="lightblue" stroke="blue" points="178.72,-573.5 178.72,-609.5 239.72,-609.5 239.72,-573.5 178.72,-573.5"/>
<text text-anchor="middle" x="209.22" y="-587.8" font-family="Sans" font-size="14.00">萩原淳</text>
</g>
<!-- pro_12 -->
<g id="node3" class="node"><title>pro_12</title>
<polygon fill="lightblue" stroke="blue" points="178.72,-518.5 178.72,-554.5 239.72,-554.5 239.72,-518.5 178.72,-518.5"/>
<text text-anchor="middle" x="209.22" y="-532.8" font-family="Sans" font-size="14.00">梶一郎</text>
</g>
<!-- pro_15 -->
<g id="node4" class="node"><title>pro_15</title>
<polygon fill="lightblue" stroke="blue" points="178.72,-440.5 178.72,-476.5 239.72,-476.5 239.72,-440.5 178.72,-440.5"/>
<text text-anchor="middle" x="209.22" y="-454.8" font-family="Sans" font-size="14.00">松下力</text>
</g>
<!-- f1_c1 -->
<g id="node55" class="node"><title>f1_c1</title>
<ellipse fill="black" stroke="black" cx="291.08" cy="-458.5" rx="0.36" ry="0.36"/>
</g>
<!-- pro_15&#45;&#45;f1_c1 -->
<g id="edge9" class="edge"><title>pro_15&#45;&#45;f1_c1</title>
<path fill="none" stroke="black" d="M240.168,-458.5C261.176,-458.5 285.92,-458.5 290.375,-458.5"/>
</g>
<!-- pro_17 -->
<g id="node5" class="node"><title>pro_17</title>
<polygon fill="lightblue" stroke="blue" points="327.44,-741.5 327.44,-777.5 403.44,-777.5 403.44,-741.5 327.44,-741.5"/>
<text text-anchor="middle" x="365.44" y="-755.8" font-family="Sans" font-size="14.00">小堀清一</text>
</g>
<!-- f2_c1 -->
<g id="node58" class="node"><title>f2_c1</title>
<ellipse fill="black" stroke="black" cx="439.8" cy="-568.5" rx="0.36" ry="0.36"/>
</g>
<!-- pro_17&#45;&#45;f2_c1 -->
<g id="edge15" class="edge"><title>pro_17&#45;&#45;f2_c1</title>
<path fill="none" stroke="black" d="M403.544,-747C407.778,-747 410.6,-747 410.6,-747 410.6,-747 410.6,-568.5 410.6,-568.5 410.6,-568.5 434.582,-568.5 439.078,-568.5"/>
</g>
<!-- pro_25 -->
<g id="node6" class="node"><title>pro_25</title>
<polygon fill="lightblue" stroke="blue" points="327.44,-686.5 327.44,-722.5 403.44,-722.5 403.44,-686.5 327.44,-686.5"/>
<text text-anchor="middle" x="365.44" y="-700.8" font-family="Sans" font-size="14.00">松田茂役</text>
</g>
<!-- f3_c1 -->
<g id="node61" class="node"><title>f3_c1</title>
<ellipse fill="black" stroke="black" cx="439.8" cy="-817.5" rx="0.36" ry="0.36"/>
</g>
<!-- pro_25&#45;&#45;f3_c1 -->
<g id="edge20" class="edge"><title>pro_25&#45;&#45;f3_c1</title>
<path fill="none" stroke="black" d="M403.622,-719.5C411.576,-719.5 417.6,-719.5 417.6,-719.5 417.6,-719.5 417.6,-817.5 417.6,-817.5 417.6,-817.5 435.833,-817.5 439.251,-817.5"/>
</g>
<!-- pro_33 -->
<g id="node7" class="node"><title>pro_33</title>
<polygon fill="lightblue" stroke="blue" points="171.22,-385.5 171.22,-421.5 247.22,-421.5 247.22,-385.5 171.22,-385.5"/>
<text text-anchor="middle" x="209.22" y="-399.8" font-family="Sans" font-size="14.00">吉田六彦</text>
</g>
<!-- pro_40 -->
<g id="node8" class="node"><title>pro_40</title>
<polygon fill="lightblue" stroke="blue" points="327.44,-631.5 327.44,-667.5 403.44,-667.5 403.44,-631.5 327.44,-631.5"/>
<text text-anchor="middle" x="365.44" y="-645.8" font-family="Sans" font-size="14.00">山川次彦</text>
</g>
<!-- f4_c1 -->
<g id="node64" class="node"><title>f4_c1</title>
<ellipse fill="black" stroke="black" cx="439.8" cy="-661.5" rx="0.36" ry="0.36"/>
</g>
<!-- pro_40&#45;&#45;f4_c1 -->
<g id="edge27" class="edge"><title>pro_40&#45;&#45;f4_c1</title>
<path fill="none" stroke="black" d="M403.491,-661.5C420.071,-661.5 436.42,-661.5 439.34,-661.5"/>
</g>
<!-- pro_42 -->
<g id="node9" class="node"><title>pro_42</title>
<polygon fill="lightblue" stroke="blue" points="171.22,-330.5 171.22,-366.5 247.22,-366.5 247.22,-330.5 171.22,-330.5"/>
<text text-anchor="middle" x="209.22" y="-344.8" font-family="Sans" font-size="14.00">加藤博二</text>
</g>
<!-- f5_c -->
<g id="node66" class="node"><title>f5_c</title>
<ellipse fill="black" stroke="black" cx="291.08" cy="-348.5" rx="0.36" ry="0.36"/>
</g>
<!-- pro_42&#45;&#45;f5_c -->
<g id="edge30" class="edge"><title>pro_42&#45;&#45;f5_c</title>
<path fill="none" stroke="black" d="M247.274,-348.5C266.647,-348.5 286.884,-348.5 290.508,-348.5"/>
</g>
<!-- pro_59 -->
<g id="node10" class="node"><title>pro_59</title>
<polygon fill="lightblue" stroke="blue" points="483.66,-569.5 483.66,-605.5 559.66,-605.5 559.66,-569.5 483.66,-569.5"/>
<text text-anchor="middle" x="521.66" y="-583.8" font-family="Sans" font-size="14.00">津村常吉</text>
</g>
<!-- pro_61 -->
<g id="node11" class="node"><title>pro_61</title>
<polygon fill="lightblue" stroke="blue" points="491.16,-679.5 491.16,-715.5 552.16,-715.5 552.16,-679.5 491.16,-679.5"/>
<text text-anchor="middle" x="521.66" y="-693.8" font-family="Sans" font-size="14.00">関根茂</text>
</g>
<!-- f6_c1 -->
<g id="node68" class="node"><title>f6_c1</title>
<ellipse fill="black" stroke="black" cx="603.52" cy="-679.5" rx="0.36" ry="0.36"/>
</g>
<!-- pro_61&#45;&#45;f6_c1 -->
<g id="edge34" class="edge"><title>pro_61&#45;&#45;f6_c1</title>
<path fill="none" stroke="black" d="M552.608,-679.75C574.34,-679.75 600.071,-679.75 603.203,-679.75"/>
</g>
<!-- pro_69 -->
<g id="node12" class="node"><title>pro_69</title>
<polygon fill="lightblue" stroke="blue" points="163.72,-275.5 163.72,-311.5 254.72,-311.5 254.72,-275.5 163.72,-275.5"/>
<text text-anchor="middle" x="209.22" y="-289.8" font-family="Sans" font-size="14.00">関屋喜代作</text>
</g>
<!-- f7_c -->
<g id="node70" class="node"><title>f7_c</title>
<ellipse fill="black" stroke="black" cx="291.08" cy="-293.5" rx="0.36" ry="0.36"/>
</g>
<!-- pro_69&#45;&#45;f7_c -->
<g id="edge42" class="edge"><title>pro_69&#45;&#45;f7_c</title>
<path fill="none" stroke="black" d="M254.937,-293.5C271.93,-293.5 287.807,-293.5 290.635,-293.5"/>
</g>
<!-- pro_86 -->
<g id="node13" class="node"><title>pro_86</title>
<polygon fill="lightblue" stroke="blue" points="171.22,-165.5 171.22,-201.5 247.22,-201.5 247.22,-165.5 171.22,-165.5"/>
<text text-anchor="middle" x="209.22" y="-179.8" font-family="Sans" font-size="14.00">大内延介</text>
</g>
<!-- f8_c1 -->
<g id="node72" class="node"><title>f8_c1</title>
<ellipse fill="black" stroke="black" cx="291.08" cy="-128.5" rx="0.36" ry="0.36"/>
</g>
<!-- pro_86&#45;&#45;f8_c1 -->
<g id="edge46" class="edge"><title>pro_86&#45;&#45;f8_c1</title>
<path fill="none" stroke="black" d="M247.516,-173.75C269.029,-173.75 291.6,-173.75 291.6,-173.75 291.6,-173.75 291.6,-131.284 291.6,-128.63"/>
</g>
<!-- pro_91 -->
<g id="node14" class="node"><title>pro_91</title>
<polygon fill="lightblue" stroke="blue" points="327.44,-514.5 327.44,-550.5 403.44,-550.5 403.44,-514.5 327.44,-514.5"/>
<text text-anchor="middle" x="365.44" y="-528.8" font-family="Sans" font-size="14.00">田辺一郎</text>
</g>
<!-- pro_95 -->
<g id="node15" class="node"><title>pro_95</title>
<polygon fill="lightblue" stroke="blue" points="483.66,-514.5 483.66,-550.5 559.66,-550.5 559.66,-514.5 483.66,-514.5"/>
<text text-anchor="middle" x="521.66" y="-528.8" font-family="Sans" font-size="14.00">河口俊彦</text>
</g>
<!-- pro_115 -->
<g id="node16" class="node"><title>pro_115</title>
<polygon fill="lightblue" stroke="blue" points="327.44,-404.5 327.44,-440.5 403.44,-440.5 403.44,-404.5 327.44,-404.5"/>
<text text-anchor="middle" x="365.44" y="-418.8" font-family="Sans" font-size="14.00">椎橋金司</text>
</g>
<!-- f9_c -->
<g id="node74" class="node"><title>f9_c</title>
<ellipse fill="black" stroke="black" cx="439.8" cy="-422.5" rx="0.36" ry="0.36"/>
</g>
<!-- pro_115&#45;&#45;f9_c -->
<g id="edge52" class="edge"><title>pro_115&#45;&#45;f9_c</title>
<path fill="none" stroke="black" d="M403.491,-422.5C420.071,-422.5 436.42,-422.5 439.34,-422.5"/>
</g>
<!-- pro_117 -->
<g id="node17" class="node"><title>pro_117</title>
<polygon fill="lightblue" stroke="blue" points="647.38,-826.5 647.38,-862.5 723.38,-862.5 723.38,-826.5 647.38,-826.5"/>
<text text-anchor="middle" x="685.38" y="-840.8" font-family="Sans" font-size="14.00">飯野健二</text>
</g>
<!-- f10_c1 -->
<g id="node76" class="node"><title>f10_c1</title>
<ellipse fill="black" stroke="black" cx="767.24" cy="-844.5" rx="0.36" ry="0.36"/>
</g>
<!-- pro_117&#45;&#45;f10_c1 -->
<g id="edge56" class="edge"><title>pro_117&#45;&#45;f10_c1</title>
<path fill="none" stroke="black" d="M723.434,-844.5C742.807,-844.5 763.044,-844.5 766.668,-844.5"/>
</g>
<!-- pro_144 -->
<g id="node18" class="node"><title>pro_144</title>
<polygon fill="lightblue" stroke="blue" points="654.88,-771.5 654.88,-807.5 715.88,-807.5 715.88,-771.5 654.88,-771.5"/>
<text text-anchor="middle" x="685.38" y="-785.8" font-family="Sans" font-size="14.00">泉正樹</text>
</g>
<!-- pro_148 -->
<g id="node19" class="node"><title>pro_148</title>
<polygon fill="lightblue" stroke="blue" points="327.44,-165.5 327.44,-201.5 403.44,-201.5 403.44,-165.5 327.44,-165.5"/>
<text text-anchor="middle" x="365.44" y="-179.8" font-family="Sans" font-size="14.00">塚田泰明</text>
</g>
<!-- f11_c1 -->
<g id="node79" class="node"><title>f11_c1</title>
<ellipse fill="black" stroke="black" cx="439.8" cy="-127.5" rx="0.36" ry="0.36"/>
</g>
<!-- pro_148&#45;&#45;f11_c1 -->
<g id="edge62" class="edge"><title>pro_148&#45;&#45;f11_c1</title>
<path fill="none" stroke="black" d="M403.54,-173.75C415.479,-173.75 425.6,-173.75 425.6,-173.75 425.6,-173.75 425.6,-127.5 425.6,-127.5 425.6,-127.5 436.472,-127.5 439.19,-127.5"/>
</g>
<!-- pro_154 -->
<g id="node20" class="node"><title>pro_154</title>
<polygon fill="lightblue" stroke="blue" points="327.44,-330.5 327.44,-366.5 403.44,-366.5 403.44,-330.5 327.44,-330.5"/>
<text text-anchor="middle" x="365.44" y="-344.8" font-family="Sans" font-size="14.00">堀口弘治</text>
</g>
<!-- f12_c1 -->
<g id="node82" class="node"><title>f12_c1</title>
<ellipse fill="black" stroke="black" cx="439.8" cy="-348.5" rx="0.36" ry="0.36"/>
</g>
<!-- pro_154&#45;&#45;f12_c1 -->
<g id="edge67" class="edge"><title>pro_154&#45;&#45;f12_c1</title>
<path fill="none" stroke="black" d="M403.491,-348.5C420.071,-348.5 436.42,-348.5 439.34,-348.5"/>
</g>
<!-- pro_155 -->
<g id="node21" class="node"><title>pro_155</title>
<polygon fill="lightblue" stroke="blue" points="476.16,-404.5 476.16,-440.5 567.16,-440.5 567.16,-404.5 476.16,-404.5"/>
<text text-anchor="middle" x="521.66" y="-418.8" font-family="Sans" font-size="14.00">大野八一雄</text>
</g>
<!-- pro_156 -->
<g id="node22" class="node"><title>pro_156</title>
<polygon fill="lightblue" stroke="blue" points="483.66,-909.5 483.66,-945.5 559.66,-945.5 559.66,-909.5 483.66,-909.5"/>
<text text-anchor="middle" x="521.66" y="-923.8" font-family="Sans" font-size="14.00">加瀬純一</text>
</g>
<!-- f13_c1 -->
<g id="node85" class="node"><title>f13_c1</title>
<ellipse fill="black" stroke="black" cx="603.52" cy="-945.5" rx="0.36" ry="0.36"/>
</g>
<!-- pro_156&#45;&#45;f13_c1 -->
<g id="edge72" class="edge"><title>pro_156&#45;&#45;f13_c1</title>
<path fill="none" stroke="black" d="M559.714,-945.25C579.087,-945.25 599.324,-945.25 602.948,-945.25"/>
</g>
<!-- pro_159 -->
<g id="node23" class="node"><title>pro_159</title>
<polygon fill="lightblue" stroke="blue" points="327.44,-220.5 327.44,-256.5 403.44,-256.5 403.44,-220.5 327.44,-220.5"/>
<text text-anchor="middle" x="365.44" y="-234.8" font-family="Sans" font-size="14.00">飯田弘之</text>
</g>
<!-- pro_168 -->
<g id="node24" class="node"><title>pro_168</title>
<polygon fill="lightblue" stroke="blue" points="327.44,-55.5 327.44,-91.5 403.44,-91.5 403.44,-55.5 327.44,-55.5"/>
<text text-anchor="middle" x="365.44" y="-69.8" font-family="Sans" font-size="14.00">富岡英作</text>
</g>
<!-- pro_169 -->
<g id="node25" class="node"><title>pro_169</title>
<polygon fill="lightblue" stroke="blue" points="494.66,-624.5 494.66,-660.5 548.66,-660.5 548.66,-624.5 494.66,-624.5"/>
<text text-anchor="middle" x="521.66" y="-638.8" font-family="Sans" font-size="14.00">関浩</text>
</g>
<!-- pro_187 -->
<g id="node26" class="node"><title>pro_187</title>
<polygon fill="lightblue" stroke="blue" points="483.66,-964.5 483.66,-1000.5 559.66,-1000.5 559.66,-964.5 483.66,-964.5"/>
<text text-anchor="middle" x="521.66" y="-978.8" font-family="Sans" font-size="14.00">木下浩一</text>
</g>
<!-- pro_200 -->
<g id="node27" class="node"><title>pro_200</title>
<polygon fill="lightblue" stroke="blue" points="327.44,-275.5 327.44,-311.5 403.44,-311.5 403.44,-275.5 327.44,-275.5"/>
<text text-anchor="middle" x="365.44" y="-289.8" font-family="Sans" font-size="14.00">豊川孝弘</text>
</g>
<!-- pro_202 -->
<g id="node28" class="node"><title>pro_202</title>
<polygon fill="lightblue" stroke="blue" points="483.66,-817.5 483.66,-853.5 559.66,-853.5 559.66,-817.5 483.66,-817.5"/>
<text text-anchor="middle" x="521.66" y="-831.8" font-family="Sans" font-size="14.00">真田圭一</text>
</g>
<!-- pro_203 -->
<g id="node29" class="node"><title>pro_203</title>
<polygon fill="lightblue" stroke="blue" points="327.44,-459.5 327.44,-495.5 403.44,-495.5 403.44,-459.5 327.44,-459.5"/>
<text text-anchor="middle" x="365.44" y="-473.8" font-family="Sans" font-size="14.00">飯塚祐紀</text>
</g>
<!-- f14_c -->
<g id="node87" class="node"><title>f14_c</title>
<ellipse fill="black" stroke="black" cx="439.8" cy="-477.5" rx="0.36" ry="0.36"/>
</g>
<!-- pro_203&#45;&#45;f14_c -->
<g id="edge76" class="edge"><title>pro_203&#45;&#45;f14_c</title>
<path fill="none" stroke="black" d="M403.491,-477.5C420.071,-477.5 436.42,-477.5 439.34,-477.5"/>
</g>
<!-- pro_213 -->
<g id="node30" class="node"><title>pro_213</title>
<polygon fill="lightblue" stroke="blue" points="327.44,-110.5 327.44,-146.5 403.44,-146.5 403.44,-110.5 327.44,-110.5"/>
<text text-anchor="middle" x="365.44" y="-124.8" font-family="Sans" font-size="14.00">鈴木大介</text>
</g>
<!-- f15_c -->
<g id="node88" class="node"><title>f15_c</title>
<ellipse fill="black" stroke="black" cx="439.8" cy="-183.5" rx="0.36" ry="0.36"/>
</g>
<!-- pro_213&#45;&#45;f15_c -->
<g id="edge78" class="edge"><title>pro_213&#45;&#45;f15_c</title>
<path fill="none" stroke="black" d="M403.728,-146.25C418.811,-146.25 432.6,-146.25 432.6,-146.25 432.6,-146.25 432.6,-183.5 432.6,-183.5 432.6,-183.5 437.353,-183.5 439.136,-183.5"/>
</g>
<!-- pro_214 -->
<g id="node31" class="node"><title>pro_214</title>
<polygon fill="lightblue" stroke="blue" points="647.38,-716.5 647.38,-752.5 723.38,-752.5 723.38,-716.5 647.38,-716.5"/>
<text text-anchor="middle" x="685.38" y="-730.8" font-family="Sans" font-size="14.00">北島忠雄</text>
</g>
<!-- pro_217 -->
<g id="node32" class="node"><title>pro_217</title>
<polygon fill="lightblue" stroke="blue" points="327.44,-0.5 327.44,-36.5 403.44,-36.5 403.44,-0.5 327.44,-0.5"/>
<text text-anchor="middle" x="365.44" y="-14.8" font-family="Sans" font-size="14.00">田村康介</text>
</g>
<!-- pro_237 -->
<g id="node33" class="node"><title>pro_237</title>
<polygon fill="lightblue" stroke="blue" points="647.38,-606.5 647.38,-642.5 723.38,-642.5 723.38,-606.5 647.38,-606.5"/>
<text text-anchor="middle" x="685.38" y="-620.8" font-family="Sans" font-size="14.00">千葉幸生</text>
</g>
<!-- pro_240 -->
<g id="node34" class="node"><title>pro_240</title>
<polygon fill="lightblue" stroke="blue" points="647.38,-661.5 647.38,-697.5 723.38,-697.5 723.38,-661.5 647.38,-661.5"/>
<text text-anchor="middle" x="685.38" y="-675.8" font-family="Sans" font-size="14.00">佐々木慎</text>
</g>
<!-- pro_250 -->
<g id="node35" class="node"><title>pro_250</title>
<polygon fill="lightblue" stroke="blue" points="647.38,-991.5 647.38,-1027.5 723.38,-1027.5 723.38,-991.5 647.38,-991.5"/>
<text text-anchor="middle" x="685.38" y="-1005.8" font-family="Sans" font-size="14.00">佐藤和俊</text>
</g>
<!-- pro_258 -->
<g id="node36" class="node"><title>pro_258</title>
<polygon fill="lightblue" stroke="blue" points="647.38,-936.5 647.38,-972.5 723.38,-972.5 723.38,-936.5 647.38,-936.5"/>
<text text-anchor="middle" x="685.38" y="-950.8" font-family="Sans" font-size="14.00">遠山雄亮</text>
</g>
<!-- pro_262 -->
<g id="node37" class="node"><title>pro_262</title>
<polygon fill="lightblue" stroke="blue" points="654.88,-881.5 654.88,-917.5 715.88,-917.5 715.88,-881.5 654.88,-881.5"/>
<text text-anchor="middle" x="685.38" y="-895.8" font-family="Sans" font-size="14.00">戸辺誠</text>
</g>
<!-- pro_265 -->
<g id="node38" class="node"><title>pro_265</title>
<polygon fill="lightblue" stroke="blue" points="811.1,-881.5 811.1,-917.5 887.1,-917.5 887.1,-881.5 811.1,-881.5"/>
<text text-anchor="middle" x="849.1" y="-895.8" font-family="Sans" font-size="14.00">金井恒太</text>
</g>
<!-- pro_270 -->
<g id="node39" class="node"><title>pro_270</title>
<polygon fill="lightblue" stroke="blue" points="647.38,-496.5 647.38,-532.5 723.38,-532.5 723.38,-496.5 647.38,-496.5"/>
<text text-anchor="middle" x="685.38" y="-510.8" font-family="Sans" font-size="14.00">田中悠一</text>
</g>
<!-- pro_285 -->
<g id="node40" class="node"><title>pro_285</title>
<polygon fill="lightblue" stroke="blue" points="483.66,-128.5 483.66,-164.5 559.66,-164.5 559.66,-128.5 483.66,-128.5"/>
<text text-anchor="middle" x="521.66" y="-142.8" font-family="Sans" font-size="14.00">藤森哲也</text>
</g>
<!-- pro_301 -->
<g id="node41" class="node"><title>pro_301</title>
<polygon fill="lightblue" stroke="blue" points="483.66,-183.5 483.66,-219.5 559.66,-219.5 559.66,-183.5 483.66,-183.5"/>
<text text-anchor="middle" x="521.66" y="-197.8" font-family="Sans" font-size="14.00">梶浦宏孝</text>
</g>
<!-- lady_5 -->
<g id="node42" class="node"><title>lady_5</title>
<polygon fill="pink" stroke="red" points="476.16,-762.5 476.16,-798.5 567.16,-798.5 567.16,-762.5 476.16,-762.5"/>
<text text-anchor="middle" x="521.66" y="-776.8" font-family="Sans" font-size="14.00">長沢千和子</text>
</g>
<!-- lady_16 -->
<g id="node43" class="node"><title>lady_16</title>
<polygon fill="pink" stroke="red" points="639.88,-551.5 639.88,-587.5 730.88,-587.5 730.88,-551.5 639.88,-551.5"/>
<text text-anchor="middle" x="685.38" y="-565.8" font-family="Sans" font-size="14.00">矢内理絵子</text>
</g>
<!-- lady_27 -->
<g id="node44" class="node"><title>lady_27</title>
<polygon fill="pink" stroke="red" points="803.6,-826.5 803.6,-862.5 894.6,-862.5 894.6,-826.5 803.6,-826.5"/>
<text text-anchor="middle" x="849.1" y="-840.8" font-family="Sans" font-size="14.00">坂東香菜子</text>
</g>
<!-- lady_31 -->
<g id="node45" class="node"><title>lady_31</title>
<polygon fill="pink" stroke="red" points="491.16,-349.5 491.16,-385.5 552.16,-385.5 552.16,-349.5 491.16,-349.5"/>
<text text-anchor="middle" x="521.66" y="-363.8" font-family="Sans" font-size="14.00">貞升南</text>
</g>
<!-- lady_39 -->
<g id="node46" class="node"><title>lady_39</title>
<polygon fill="pink" stroke="red" points="476.16,-294.5 476.16,-330.5 567.16,-330.5 567.16,-294.5 476.16,-294.5"/>
<text text-anchor="middle" x="521.66" y="-308.8" font-family="Sans" font-size="14.00">山口恵梨子</text>
</g>
<!-- lady_48 -->
<g id="node47" class="node"><title>lady_48</title>
<polygon fill="pink" stroke="red" points="818.6,-771.5 818.6,-807.5 879.6,-807.5 879.6,-771.5 818.6,-771.5"/>
<text text-anchor="middle" x="849.1" y="-785.8" font-family="Sans" font-size="14.00">飯野愛</text>
</g>
<!-- lady_51 -->
<g id="node48" class="node"><title>lady_51</title>
<polygon fill="pink" stroke="red" points="476.16,-73.5 476.16,-109.5 567.16,-109.5 567.16,-73.5 476.16,-73.5"/>
<text text-anchor="middle" x="521.66" y="-87.8" font-family="Sans" font-size="14.00">塚田恵梨花</text>
</g>
<!-- lady_58 -->
<g id="node49" class="node"><title>lady_58</title>
<polygon fill="pink" stroke="red" points="483.66,-459.5 483.66,-495.5 559.66,-495.5 559.66,-459.5 483.66,-459.5"/>
<text text-anchor="middle" x="521.66" y="-473.8" font-family="Sans" font-size="14.00">頼本奈菜</text>
</g>
<!-- extra_2 -->
<g id="node50" class="node"><title>extra_2</title>
<polygon fill="lightblue" stroke="blue" points="0,-385.5 0,-421.5 91,-421.5 91,-385.5 0,-385.5"/>
<text text-anchor="middle" x="45.5" y="-399.8" font-family="Sans" font-size="14.00">土居市太郎</text>
</g>
<!-- f16_c1 -->
<g id="node90" class="node"><title>f16_c1</title>
<ellipse fill="black" stroke="black" cx="127.36" cy="-403.5" rx="0.36" ry="0.36"/>
</g>
<!-- extra_2&#45;&#45;f16_c1 -->
<g id="edge82" class="edge"><title>extra_2&#45;&#45;f16_c1</title>
<path fill="none" stroke="black" d="M91.2167,-403.167C108.796,-403.167 125.181,-403.167 127.16,-403.167"/>
</g>
<!-- f0_c0 -->
<g id="node51" class="node"><title>f0_c0</title>
<ellipse fill="black" stroke="black" cx="291.08" cy="-741.5" rx="0.36" ry="0.36"/>
</g>
<!-- f0_c0&#45;&#45;pro_17 -->
<g id="edge4" class="edge"><title>f0_c0&#45;&#45;pro_17</title>
<path fill="none" stroke="black" d="M291.555,-741.75C294.499,-741.75 310.671,-741.75 327.137,-741.75"/>
</g>
<!-- f0_c0&#45;&#45;f0_c1 -->
<g id="edge1" class="edge"><title>f0_c0&#45;&#45;f0_c1</title>
<path fill="none" stroke="black" d="M291.6,-741.354C291.6,-738.456 291.6,-693.448 291.6,-690.637"/>
</g>
<!-- f0_c1&#45;&#45;pro_25 -->
<g id="edge5" class="edge"><title>f0_c1&#45;&#45;pro_25</title>
<path fill="none" stroke="black" d="M291.555,-690.5C294.499,-690.5 310.671,-690.5 327.137,-690.5"/>
</g>
<!-- f0_c2 -->
<g id="node53" class="node"><title>f0_c2</title>
<ellipse fill="black" stroke="black" cx="291.08" cy="-663.5" rx="0.36" ry="0.36"/>
</g>
<!-- f0_c1&#45;&#45;f0_c2 -->
<g id="edge2" class="edge"><title>f0_c1&#45;&#45;f0_c2</title>
<path fill="none" stroke="black" d="M291.6,-690.423C291.6,-688.888 291.6,-665.06 291.6,-663.573"/>
</g>
<!-- f0_c2&#45;&#45;pro_40 -->
<g id="edge6" class="edge"><title>f0_c2&#45;&#45;pro_40</title>
<path fill="none" stroke="black" d="M291.555,-663.5C294.499,-663.5 310.671,-663.5 327.137,-663.5"/>
</g>
<!-- f1_c0 -->
<g id="node54" class="node"><title>f1_c0</title>
<ellipse fill="black" stroke="black" cx="291.08" cy="-514.5" rx="0.36" ry="0.36"/>
</g>
<!-- f1_c0&#45;&#45;pro_91 -->
<g id="edge10" class="edge"><title>f1_c0&#45;&#45;pro_91</title>
<path fill="none" stroke="black" d="M291.555,-514.75C294.499,-514.75 310.671,-514.75 327.137,-514.75"/>
</g>
<!-- f1_c0&#45;&#45;f1_c1 -->
<g id="edge7" class="edge"><title>f1_c0&#45;&#45;f1_c1</title>
<path fill="none" stroke="black" d="M291.136,-513.75C292.281,-513.75 310.6,-513.75 310.6,-513.75 310.6,-513.75 310.6,-459.25 310.6,-459.25 310.6,-459.25 292.281,-459.25 291.136,-459.25"/>
</g>
<!-- f1_c1&#45;&#45;pro_115 -->
<g id="edge11" class="edge"><title>f1_c1&#45;&#45;pro_115</title>
<path fill="none" stroke="black" d="M291.6,-458.421C291.6,-456.808 291.6,-431 291.6,-431 291.6,-431 309.205,-431 327.222,-431"/>
</g>
<!-- f1_c2 -->
<g id="node56" class="node"><title>f1_c2</title>
<ellipse fill="black" stroke="black" cx="291.08" cy="-477.5" rx="0.36" ry="0.36"/>
</g>
<!-- f1_c1&#45;&#45;f1_c2 -->
<g id="edge8" class="edge"><title>f1_c1&#45;&#45;f1_c2</title>
<path fill="none" stroke="black" d="M291.6,-458.555C291.6,-459.634 291.6,-476.402 291.6,-477.449"/>
</g>
<!-- f1_c2&#45;&#45;pro_203 -->
<g id="edge12" class="edge"><title>f1_c2&#45;&#45;pro_203</title>
<path fill="none" stroke="black" d="M291.555,-477.5C294.499,-477.5 310.671,-477.5 327.137,-477.5"/>
</g>
<!-- f2_c0 -->
<g id="node57" class="node"><title>f2_c0</title>
<ellipse fill="black" stroke="black" cx="439.8" cy="-587.5" rx="0.36" ry="0.36"/>
</g>
<!-- f2_c0&#45;&#45;pro_59 -->
<g id="edge16" class="edge"><title>f2_c0&#45;&#45;pro_59</title>
<path fill="none" stroke="black" d="M440.323,-587.5C443.809,-587.5 464.143,-587.5 483.606,-587.5"/>
</g>
<!-- f2_c0&#45;&#45;f2_c1 -->
<g id="edge13" class="edge"><title>f2_c0&#45;&#45;f2_c1</title>
<path fill="none" stroke="black" d="M440.6,-587.445C440.6,-586.366 440.6,-569.598 440.6,-568.551"/>
</g>
<!-- f2_c2 -->
<g id="node59" class="node"><title>f2_c2</title>
<ellipse fill="black" stroke="black" cx="439.8" cy="-540.5" rx="0.36" ry="0.36"/>
</g>
<!-- f2_c1&#45;&#45;f2_c2 -->
<g id="edge14" class="edge"><title>f2_c1&#45;&#45;f2_c2</title>
<path fill="none" stroke="black" d="M440.6,-568.42C440.6,-566.829 440.6,-542.118 440.6,-540.575"/>
</g>
<!-- f2_c2&#45;&#45;pro_95 -->
<g id="edge17" class="edge"><title>f2_c2&#45;&#45;pro_95</title>
<path fill="none" stroke="black" d="M440.323,-540.5C443.809,-540.5 464.143,-540.5 483.606,-540.5"/>
</g>
<!-- f3_c0 -->
<g id="node60" class="node"><title>f3_c0</title>
<ellipse fill="black" stroke="black" cx="439.8" cy="-927.5" rx="0.36" ry="0.36"/>
</g>
<!-- f3_c0&#45;&#45;pro_156 -->
<g id="edge21" class="edge"><title>f3_c0&#45;&#45;pro_156</title>
<path fill="none" stroke="black" d="M440.323,-927.5C443.809,-927.5 464.143,-927.5 483.606,-927.5"/>
</g>
<!-- f3_c0&#45;&#45;pro_187 -->
<g id="edge22" class="edge"><title>f3_c0&#45;&#45;pro_187</title>
<path fill="none" stroke="black" d="M440.6,-927.658C440.6,-930.884 440.6,-982.5 440.6,-982.5 440.6,-982.5 462.479,-982.5 483.504,-982.5"/>
</g>
<!-- f3_c0&#45;&#45;f3_c1 -->
<g id="edge18" class="edge"><title>f3_c0&#45;&#45;f3_c1</title>
<path fill="none" stroke="black" d="M440.6,-927.42C440.6,-924.141 440.6,-820.806 440.6,-817.577"/>
</g>
<!-- f3_c1&#45;&#45;pro_202 -->
<g id="edge23" class="edge"><title>f3_c1&#45;&#45;pro_202</title>
<path fill="none" stroke="black" d="M440.323,-817.75C443.809,-817.75 464.143,-817.75 483.606,-817.75"/>
</g>
<!-- f3_c2 -->
<g id="node62" class="node"><title>f3_c2</title>
<ellipse fill="black" stroke="black" cx="439.8" cy="-789.5" rx="0.36" ry="0.36"/>
</g>
<!-- f3_c1&#45;&#45;f3_c2 -->
<g id="edge19" class="edge"><title>f3_c1&#45;&#45;f3_c2</title>
<path fill="none" stroke="black" d="M440.6,-817.42C440.6,-815.829 440.6,-791.118 440.6,-789.575"/>
</g>
<!-- f3_c2&#45;&#45;lady_5 -->
<g id="edge24" class="edge"><title>f3_c2&#45;&#45;lady_5</title>
<path fill="none" stroke="black" d="M440.323,-789.5C443.346,-789.5 459.039,-789.5 475.846,-789.5"/>
</g>
<!-- f4_c0 -->
<g id="node63" class="node"><title>f4_c0</title>
<ellipse fill="black" stroke="black" cx="439.8" cy="-689.5" rx="0.36" ry="0.36"/>
</g>
<!-- f4_c0&#45;&#45;pro_61 -->
<g id="edge28" class="edge"><title>f4_c0&#45;&#45;pro_61</title>
<path fill="none" stroke="black" d="M440.323,-689.5C444.244,-689.5 469.49,-689.5 490.829,-689.5"/>
</g>
<!-- f4_c0&#45;&#45;f4_c1 -->
<g id="edge25" class="edge"><title>f4_c0&#45;&#45;f4_c1</title>
<path fill="none" stroke="black" d="M440.6,-689.42C440.6,-687.829 440.6,-663.118 440.6,-661.575"/>
</g>
<!-- f4_c2 -->
<g id="node65" class="node"><title>f4_c2</title>
<ellipse fill="black" stroke="black" cx="439.8" cy="-642.5" rx="0.36" ry="0.36"/>
</g>
<!-- f4_c1&#45;&#45;f4_c2 -->
<g id="edge26" class="edge"><title>f4_c1&#45;&#45;f4_c2</title>
<path fill="none" stroke="black" d="M440.6,-661.445C440.6,-660.366 440.6,-643.598 440.6,-642.551"/>
</g>
<!-- f4_c2&#45;&#45;pro_169 -->
<g id="edge29" class="edge"><title>f4_c2&#45;&#45;pro_169</title>
<path fill="none" stroke="black" d="M440.323,-642.5C444.462,-642.5 472.361,-642.5 494.345,-642.5"/>
</g>
<!-- f5_c&#45;&#45;pro_154 -->
<g id="edge31" class="edge"><title>f5_c&#45;&#45;pro_154</title>
<path fill="none" stroke="black" d="M291.555,-348.5C294.499,-348.5 310.671,-348.5 327.137,-348.5"/>
</g>
<!-- f6_c0 -->
<g id="node67" class="node"><title>f6_c0</title>
<ellipse fill="black" stroke="black" cx="603.52" cy="-761.5" rx="0.36" ry="0.36"/>
</g>
<!-- f6_c0&#45;&#45;pro_117 -->
<g id="edge35" class="edge"><title>f6_c0&#45;&#45;pro_117</title>
<path fill="none" stroke="black" d="M603.451,-762.25C602.048,-762.25 579.6,-762.25 579.6,-762.25 579.6,-762.25 579.6,-840 579.6,-840 579.6,-840 616.892,-840 647.191,-840"/>
</g>
<!-- f6_c0&#45;&#45;pro_144 -->
<g id="edge36" class="edge"><title>f6_c0&#45;&#45;pro_144</title>
<path fill="none" stroke="black" d="M603.6,-762.081C603.6,-765.7 603.6,-785 603.6,-785 603.6,-785 631.304,-785 654.462,-785"/>
</g>
<!-- f6_c0&#45;&#45;pro_214 -->
<g id="edge37" class="edge"><title>f6_c0&#45;&#45;pro_214</title>
<path fill="none" stroke="black" d="M604.06,-761.5C609.342,-761.5 651.6,-761.5 651.6,-761.5 651.6,-761.5 651.6,-757.543 651.6,-752.659"/>
</g>
<!-- f6_c0&#45;&#45;f6_c1 -->
<g id="edge32" class="edge"><title>f6_c0&#45;&#45;f6_c1</title>
<path fill="none" stroke="black" d="M603.6,-760.976C603.6,-754.32 603.6,-686.335 603.6,-679.976"/>
</g>
<!-- f6_c1&#45;&#45;pro_237 -->
<g id="edge38" class="edge"><title>f6_c1&#45;&#45;pro_237</title>
<path fill="none" stroke="black" d="M603.6,-678.983C603.6,-673.93 603.6,-633.5 603.6,-633.5 603.6,-633.5 626.007,-633.5 647.363,-633.5"/>
</g>
<!-- f6_c1&#45;&#45;pro_240 -->
<g id="edge39" class="edge"><title>f6_c1&#45;&#45;pro_240</title>
<path fill="none" stroke="black" d="M604.043,-679.5C607.529,-679.5 627.863,-679.5 647.326,-679.5"/>
</g>
<!-- f6_c2 -->
<g id="node69" class="node"><title>f6_c2</title>
<ellipse fill="black" stroke="black" cx="603.52" cy="-569.5" rx="0.36" ry="0.36"/>
</g>
<!-- f6_c1&#45;&#45;f6_c2 -->
<g id="edge33" class="edge"><title>f6_c1&#45;&#45;f6_c2</title>
<path fill="none" stroke="black" d="M603.386,-678.75C602.077,-678.75 591.6,-678.75 591.6,-678.75 591.6,-678.75 591.6,-569.75 591.6,-569.75 591.6,-569.75 600.726,-569.75 603.008,-569.75"/>
</g>
<!-- f6_c2&#45;&#45;pro_270 -->
<g id="edge40" class="edge"><title>f6_c2&#45;&#45;pro_270</title>
<path fill="none" stroke="black" d="M603.6,-568.983C603.6,-563.93 603.6,-523.5 603.6,-523.5 603.6,-523.5 626.007,-523.5 647.363,-523.5"/>
</g>
<!-- f6_c2&#45;&#45;lady_16 -->
<g id="edge41" class="edge"><title>f6_c2&#45;&#45;lady_16</title>
<path fill="none" stroke="black" d="M604.043,-569.5C607.066,-569.5 622.759,-569.5 639.566,-569.5"/>
</g>
<!-- f7_c&#45;&#45;pro_200 -->
<g id="edge43" class="edge"><title>f7_c&#45;&#45;pro_200</title>
<path fill="none" stroke="black" d="M291.555,-293.5C294.499,-293.5 310.671,-293.5 327.137,-293.5"/>
</g>
<!-- f8_c0 -->
<g id="node71" class="node"><title>f8_c0</title>
<ellipse fill="black" stroke="black" cx="291.08" cy="-183.5" rx="0.36" ry="0.36"/>
</g>
<!-- f8_c0&#45;&#45;pro_148 -->
<g id="edge47" class="edge"><title>f8_c0&#45;&#45;pro_148</title>
<path fill="none" stroke="black" d="M291.555,-183.5C294.499,-183.5 310.671,-183.5 327.137,-183.5"/>
</g>
<!-- f8_c0&#45;&#45;pro_159 -->
<g id="edge48" class="edge"><title>f8_c0&#45;&#45;pro_159</title>
<path fill="none" stroke="black" d="M291.6,-183.658C291.6,-186.884 291.6,-238.5 291.6,-238.5 291.6,-238.5 309.205,-238.5 327.222,-238.5"/>
</g>
<!-- f8_c0&#45;&#45;f8_c1 -->
<g id="edge44" class="edge"><title>f8_c0&#45;&#45;f8_c1</title>
<path fill="none" stroke="black" d="M291.6,-183.342C291.6,-180.217 291.6,-131.679 291.6,-128.648"/>
</g>
<!-- f8_c1&#45;&#45;pro_168 -->
<g id="edge49" class="edge"><title>f8_c1&#45;&#45;pro_168</title>
<path fill="none" stroke="black" d="M290.623,-128.5C287.777,-128.5 272.6,-128.5 272.6,-128.5 272.6,-128.5 272.6,-78.75 272.6,-78.75 272.6,-78.75 301.772,-78.75 327.411,-78.75"/>
</g>
<!-- f8_c1&#45;&#45;pro_213 -->
<g id="edge50" class="edge"><title>f8_c1&#45;&#45;pro_213</title>
<path fill="none" stroke="black" d="M291.555,-128.5C294.499,-128.5 310.671,-128.5 327.137,-128.5"/>
</g>
<!-- f8_c2 -->
<g id="node73" class="node"><title>f8_c2</title>
<ellipse fill="black" stroke="black" cx="291.08" cy="-64.5" rx="0.36" ry="0.36"/>
</g>
<!-- f8_c1&#45;&#45;f8_c2 -->
<g id="edge45" class="edge"><title>f8_c1&#45;&#45;f8_c2</title>
<path fill="none" stroke="black" d="M291.6,-128.454C291.6,-126.546 291.6,-66.4233 291.6,-64.545"/>
</g>
<!-- f8_c2&#45;&#45;pro_217 -->
<g id="edge51" class="edge"><title>f8_c2&#45;&#45;pro_217</title>
<path fill="none" stroke="black" d="M291.6,-64.368C291.6,-61.6699 291.6,-18.5 291.6,-18.5 291.6,-18.5 309.205,-18.5 327.222,-18.5"/>
</g>
<!-- f9_c&#45;&#45;pro_155 -->
<g id="edge53" class="edge"><title>f9_c&#45;&#45;pro_155</title>
<path fill="none" stroke="black" d="M440.323,-422.5C443.346,-422.5 459.039,-422.5 475.846,-422.5"/>
</g>
<!-- f10_c0 -->
<g id="node75" class="node"><title>f10_c0</title>
<ellipse fill="black" stroke="black" cx="767.24" cy="-881.5" rx="0.36" ry="0.36"/>
</g>
<!-- f10_c0&#45;&#45;pro_265 -->
<g id="edge57" class="edge"><title>f10_c0&#45;&#45;pro_265</title>
<path fill="none" stroke="black" d="M767.763,-881.75C771.249,-881.75 791.583,-881.75 811.046,-881.75"/>
</g>
<!-- f10_c0&#45;&#45;f10_c1 -->
<g id="edge54" class="edge"><title>f10_c0&#45;&#45;f10_c1</title>
<path fill="none" stroke="black" d="M767.6,-881.394C767.6,-879.291 767.6,-846.638 767.6,-844.6"/>
</g>
<!-- f10_c1&#45;&#45;lady_27 -->
<g id="edge58" class="edge"><title>f10_c1&#45;&#45;lady_27</title>
<path fill="none" stroke="black" d="M767.763,-844.5C770.786,-844.5 786.479,-844.5 803.286,-844.5"/>
</g>
<!-- f10_c2 -->
<g id="node77" class="node"><title>f10_c2</title>
<ellipse fill="black" stroke="black" cx="767.24" cy="-807.5" rx="0.36" ry="0.36"/>
</g>
<!-- f10_c1&#45;&#45;f10_c2 -->
<g id="edge55" class="edge"><title>f10_c1&#45;&#45;f10_c2</title>
<path fill="none" stroke="black" d="M767.6,-844.394C767.6,-842.291 767.6,-809.638 767.6,-807.6"/>
</g>
<!-- f10_c2&#45;&#45;lady_48 -->
<g id="edge59" class="edge"><title>f10_c2&#45;&#45;lady_48</title>
<path fill="none" stroke="black" d="M767.763,-807.25C771.684,-807.25 796.93,-807.25 818.269,-807.25"/>
</g>
<!-- f11_c0 -->
<g id="node78" class="node"><title>f11_c0</title>
<ellipse fill="black" stroke="black" cx="439.8" cy="-146.5" rx="0.36" ry="0.36"/>
</g>
<!-- f11_c0&#45;&#45;pro_285 -->
<g id="edge63" class="edge"><title>f11_c0&#45;&#45;pro_285</title>
<path fill="none" stroke="black" d="M440.323,-146.5C443.809,-146.5 464.143,-146.5 483.606,-146.5"/>
</g>
<!-- f11_c0&#45;&#45;f11_c1 -->
<g id="edge60" class="edge"><title>f11_c0&#45;&#45;f11_c1</title>
<path fill="none" stroke="black" d="M440.6,-146.445C440.6,-145.366 440.6,-128.598 440.6,-127.551"/>
</g>
<!-- f11_c2 -->
<g id="node80" class="node"><title>f11_c2</title>
<ellipse fill="black" stroke="black" cx="439.8" cy="-100.5" rx="0.36" ry="0.36"/>
</g>
<!-- f11_c1&#45;&#45;f11_c2 -->
<g id="edge61" class="edge"><title>f11_c1&#45;&#45;f11_c2</title>
<path fill="none" stroke="black" d="M440.6,-127.423C440.6,-125.888 440.6,-102.06 440.6,-100.573"/>
</g>
<!-- f11_c2&#45;&#45;lady_51 -->
<g id="edge64" class="edge"><title>f11_c2&#45;&#45;lady_51</title>
<path fill="none" stroke="black" d="M440.323,-100.5C443.346,-100.5 459.039,-100.5 475.846,-100.5"/>
</g>
<!-- f12_c0 -->
<g id="node81" class="node"><title>f12_c0</title>
<ellipse fill="black" stroke="black" cx="439.8" cy="-367.5" rx="0.36" ry="0.36"/>
</g>
<!-- f12_c0&#45;&#45;lady_31 -->
<g id="edge68" class="edge"><title>f12_c0&#45;&#45;lady_31</title>
<path fill="none" stroke="black" d="M440.323,-367.5C444.244,-367.5 469.49,-367.5 490.829,-367.5"/>
</g>
<!-- f12_c0&#45;&#45;f12_c1 -->
<g id="edge65" class="edge"><title>f12_c0&#45;&#45;f12_c1</title>
<path fill="none" stroke="black" d="M440.6,-367.445C440.6,-366.366 440.6,-349.598 440.6,-348.551"/>
</g>
<!-- f12_c2 -->
<g id="node83" class="node"><title>f12_c2</title>
<ellipse fill="black" stroke="black" cx="439.8" cy="-320.5" rx="0.36" ry="0.36"/>
</g>
<!-- f12_c1&#45;&#45;f12_c2 -->
<g id="edge66" class="edge"><title>f12_c1&#45;&#45;f12_c2</title>
<path fill="none" stroke="black" d="M440.6,-348.42C440.6,-346.829 440.6,-322.118 440.6,-320.575"/>
</g>
<!-- f12_c2&#45;&#45;lady_39 -->
<g id="edge69" class="edge"><title>f12_c2&#45;&#45;lady_39</title>
<path fill="none" stroke="black" d="M440.323,-320.5C443.346,-320.5 459.039,-320.5 475.846,-320.5"/>
</g>
<!-- f13_c0 -->
<g id="node84" class="node"><title>f13_c0</title>
<ellipse fill="black" stroke="black" cx="603.52" cy="-991.5" rx="0.36" ry="0.36"/>
</g>
<!-- f13_c0&#45;&#45;pro_250 -->
<g id="edge73" class="edge"><title>f13_c0&#45;&#45;pro_250</title>
<path fill="none" stroke="black" d="M604.043,-991.75C607.529,-991.75 627.863,-991.75 647.326,-991.75"/>
</g>
<!-- f13_c0&#45;&#45;f13_c1 -->
<g id="edge70" class="edge"><title>f13_c0&#45;&#45;f13_c1</title>
<path fill="none" stroke="black" d="M603.6,-990.983C603.6,-986.246 603.6,-950.416 603.6,-945.955"/>
</g>
<!-- f13_c1&#45;&#45;pro_258 -->
<g id="edge74" class="edge"><title>f13_c1&#45;&#45;pro_258</title>
<path fill="none" stroke="black" d="M604.043,-945.5C607.529,-945.5 627.863,-945.5 647.326,-945.5"/>
</g>
<!-- f13_c2 -->
<g id="node86" class="node"><title>f13_c2</title>
<ellipse fill="black" stroke="black" cx="603.52" cy="-908.5" rx="0.36" ry="0.36"/>
</g>
<!-- f13_c1&#45;&#45;f13_c2 -->
<g id="edge71" class="edge"><title>f13_c1&#45;&#45;f13_c2</title>
<path fill="none" stroke="black" d="M603.6,-945.084C603.6,-941.274 603.6,-912.454 603.6,-908.866"/>
</g>
<!-- f13_c2&#45;&#45;pro_262 -->
<g id="edge75" class="edge"><title>f13_c2&#45;&#45;pro_262</title>
<path fill="none" stroke="black" d="M604.043,-908.5C607.964,-908.5 633.21,-908.5 654.549,-908.5"/>
</g>
<!-- f14_c&#45;&#45;lady_58 -->
<g id="edge77" class="edge"><title>f14_c&#45;&#45;lady_58</title>
<path fill="none" stroke="black" d="M440.323,-477.5C443.809,-477.5 464.143,-477.5 483.606,-477.5"/>
</g>
<!-- f15_c&#45;&#45;pro_301 -->
<g id="edge79" class="edge"><title>f15_c&#45;&#45;pro_301</title>
<path fill="none" stroke="black" d="M440.323,-183.75C443.809,-183.75 464.143,-183.75 483.606,-183.75"/>
</g>
<!-- f16_c0 -->
<g id="node89" class="node"><title>f16_c0</title>
<ellipse fill="black" stroke="black" cx="127.36" cy="-563.5" rx="0.36" ry="0.36"/>
</g>
<!-- f16_c0&#45;&#45;pro_3 -->
<g id="edge83" class="edge"><title>f16_c0&#45;&#45;pro_3</title>
<path fill="none" stroke="black" d="M127.812,-563.5C132.233,-563.5 167.6,-563.5 167.6,-563.5 167.6,-563.5 167.6,-612.577 167.6,-640.183"/>
</g>
<!-- f16_c0&#45;&#45;pro_5 -->
<g id="edge84" class="edge"><title>f16_c0&#45;&#45;pro_5</title>
<path fill="none" stroke="black" d="M127.6,-563.814C127.6,-566.891 127.6,-591.5 127.6,-591.5 127.6,-591.5 155.25,-591.5 178.363,-591.5"/>
</g>
<!-- f16_c0&#45;&#45;pro_12 -->
<g id="edge85" class="edge"><title>f16_c0&#45;&#45;pro_12</title>
<path fill="none" stroke="black" d="M128.6,-563.423C128.6,-561.839 128.6,-536.5 128.6,-536.5 128.6,-536.5 155.546,-536.5 178.281,-536.5"/>
</g>
<!-- f16_c0&#45;&#45;f16_c1 -->
<g id="edge80" class="edge"><title>f16_c0&#45;&#45;f16_c1</title>
<path fill="none" stroke="black" d="M126.921,-563.5C124.186,-563.5 109.6,-563.5 109.6,-563.5 109.6,-563.5 109.6,-403.833 109.6,-403.833 109.6,-403.833 125.209,-403.833 127.161,-403.833"/>
</g>
<!-- f16_c1&#45;&#45;pro_15 -->
<g id="edge86" class="edge"><title>f16_c1&#45;&#45;pro_15</title>
<path fill="none" stroke="black" d="M127.6,-404.118C127.6,-410.16 127.6,-458.5 127.6,-458.5 127.6,-458.5 155.25,-458.5 178.363,-458.5"/>
</g>
<!-- f16_c1&#45;&#45;pro_33 -->
<g id="edge87" class="edge"><title>f16_c1&#45;&#45;pro_33</title>
<path fill="none" stroke="black" d="M127.883,-403.5C131.369,-403.5 151.703,-403.5 171.166,-403.5"/>
</g>
<!-- f16_c1&#45;&#45;pro_42 -->
<g id="edge88" class="edge"><title>f16_c1&#45;&#45;pro_42</title>
<path fill="none" stroke="black" d="M128.6,-403.342C128.6,-400.116 128.6,-348.5 128.6,-348.5 128.6,-348.5 150.034,-348.5 170.799,-348.5"/>
</g>
<!-- f16_c2 -->
<g id="node91" class="node"><title>f16_c2</title>
<ellipse fill="black" stroke="black" cx="127.36" cy="-293.5" rx="0.36" ry="0.36"/>
</g>
<!-- f16_c1&#45;&#45;f16_c2 -->
<g id="edge81" class="edge"><title>f16_c1&#45;&#45;f16_c2</title>
<path fill="none" stroke="black" d="M127.6,-403.184C127.6,-396.934 127.6,-299.858 127.6,-293.796"/>
</g>
<!-- f16_c2&#45;&#45;pro_69 -->
<g id="edge89" class="edge"><title>f16_c2&#45;&#45;pro_69</title>
<path fill="none" stroke="black" d="M127.883,-293.5C130.906,-293.5 146.599,-293.5 163.406,-293.5"/>
</g>
<!-- f16_c2&#45;&#45;pro_86 -->
<g id="edge90" class="edge"><title>f16_c2&#45;&#45;pro_86</title>
<path fill="none" stroke="black" d="M127.6,-293.184C127.6,-286.732 127.6,-183.5 127.6,-183.5 127.6,-183.5 149.63,-183.5 170.8,-183.5"/>
</g>
</g>
</svg>
