<?xml version="1.0" encoding="UTF-8" standalone="no"?>
<!DOCTYPE svg PUBLIC "-//W3C//DTD SVG 1.1//EN"
 "http://www.w3.org/Graphics/SVG/1.1/DTD/svg11.dtd">
<!-- Generated by graphviz version 2.38.0 (20140413.2041)
 -->
<!-- Title: ShogiPlayers13 Pages: 1 -->
<svg width="769pt" height="870pt"
 viewBox="0.00 0.00 768.88 870.00" xmlns="http://www.w3.org/2000/svg" xmlns:xlink="http://www.w3.org/1999/xlink">
<g id="graph0" class="graph" transform="scale(1 1) rotate(0) translate(4 866)">
<title>ShogiPlayers13</title>
<polygon fill="white" stroke="none" points="-4,4 -4,-866 764.88,-866 764.88,4 -4,4"/>
<!-- pro_37 -->
<g id="node1" class="node"><title>pro_37</title>
<polygon fill="lightblue" stroke="blue" points="148.72,-192.5 148.72,-228.5 224.72,-228.5 224.72,-192.5 148.72,-192.5"/>
<text text-anchor="middle" x="186.72" y="-206.8" font-family="Sans" font-size="14.00">南口繁一</text>
</g>
<!-- f0_c1 -->
<g id="node27" class="node"><title>f0_c1</title>
<ellipse fill="black" stroke="black" cx="261.08" cy="-220.5" rx="0.36" ry="0.36"/>
</g>
<!-- pro_37&#45;&#45;f0_c1 -->
<g id="edge3" class="edge"><title>pro_37&#45;&#45;f0_c1</title>
<path fill="none" stroke="black" d="M224.771,-220.5C241.351,-220.5 257.7,-220.5 260.62,-220.5"/>
</g>
<!-- pro_88 -->
<g id="node2" class="node"><title>pro_88</title>
<polygon fill="lightblue" stroke="blue" points="156.22,-119.5 156.22,-155.5 217.22,-155.5 217.22,-119.5 156.22,-119.5"/>
<text text-anchor="middle" x="186.72" y="-133.8" font-family="Sans" font-size="14.00">木下晃</text>
</g>
<!-- f1_c1 -->
<g id="node30" class="node"><title>f1_c1</title>
<ellipse fill="black" stroke="black" cx="261.08" cy="-100.5" rx="0.36" ry="0.36"/>
</g>
<!-- pro_88&#45;&#45;f1_c1 -->
<g id="edge8" class="edge"><title>pro_88&#45;&#45;f1_c1</title>
<path fill="none" stroke="black" d="M186.88,-119.434C186.88,-110.041 186.88,-100.5 186.88,-100.5 186.88,-100.5 254.287,-100.5 260.606,-100.5"/>
</g>
<!-- pro_101 -->
<g id="node3" class="node"><title>pro_101</title>
<polygon fill="lightblue" stroke="blue" points="297.44,-238.5 297.44,-274.5 373.44,-274.5 373.44,-238.5 297.44,-238.5"/>
<text text-anchor="middle" x="335.44" y="-252.8" font-family="Sans" font-size="14.00">滝誠一郎</text>
</g>
<!-- f2_c1 -->
<g id="node33" class="node"><title>f2_c1</title>
<ellipse fill="black" stroke="black" cx="409.8" cy="-54.5" rx="0.36" ry="0.36"/>
</g>
<!-- pro_101&#45;&#45;f2_c1 -->
<g id="edge14" class="edge"><title>pro_101&#45;&#45;f2_c1</title>
<path fill="none" stroke="black" d="M369.88,-238.285C369.88,-188.746 369.88,-55.25 369.88,-55.25 369.88,-55.25 407.344,-55.25 409.685,-55.25"/>
</g>
<!-- pro_126 -->
<g id="node4" class="node"><title>pro_126</title>
<polygon fill="lightblue" stroke="blue" points="304.94,-183.5 304.94,-219.5 365.94,-219.5 365.94,-183.5 304.94,-183.5"/>
<text text-anchor="middle" x="335.44" y="-197.8" font-family="Sans" font-size="14.00">森信雄</text>
</g>
<!-- f3_c1 -->
<g id="node36" class="node"><title>f3_c1</title>
<ellipse fill="black" stroke="black" cx="409.8" cy="-430.5" rx="0.36" ry="0.36"/>
</g>
<!-- pro_126&#45;&#45;f3_c1 -->
<g id="edge19" class="edge"><title>pro_126&#45;&#45;f3_c1</title>
<path fill="none" stroke="black" d="M366.022,-211C391.237,-211 422.88,-211 422.88,-211 422.88,-211 422.88,-430 422.88,-430 422.88,-430 411.384,-430 409.947,-430"/>
</g>
<!-- pro_147 -->
<g id="node5" class="node"><title>pro_147</title>
<polygon fill="lightblue" stroke="blue" points="304.94,-128.5 304.94,-164.5 365.94,-164.5 365.94,-128.5 304.94,-128.5"/>
<text text-anchor="middle" x="335.44" y="-142.8" font-family="Sans" font-size="14.00">南芳一</text>
</g>
<!-- pro_180 -->
<g id="node6" class="node"><title>pro_180</title>
<polygon fill="lightblue" stroke="blue" points="461.16,-660.5 461.16,-696.5 522.16,-696.5 522.16,-660.5 461.16,-660.5"/>
<text text-anchor="middle" x="491.66" y="-674.8" font-family="Sans" font-size="14.00">村山聖</text>
</g>
<!-- pro_225 -->
<g id="node7" class="node"><title>pro_225</title>
<polygon fill="lightblue" stroke="blue" points="453.66,-605.5 453.66,-641.5 529.66,-641.5 529.66,-605.5 453.66,-605.5"/>
<text text-anchor="middle" x="491.66" y="-619.8" font-family="Sans" font-size="14.00">増田裕司</text>
</g>
<!-- pro_227 -->
<g id="node8" class="node"><title>pro_227</title>
<polygon fill="lightblue" stroke="blue" points="453.66,-825.5 453.66,-861.5 529.66,-861.5 529.66,-825.5 453.66,-825.5"/>
<text text-anchor="middle" x="491.66" y="-839.8" font-family="Sans" font-size="14.00">山崎隆之</text>
</g>
<!-- pro_233 -->
<g id="node9" class="node"><title>pro_233</title>
<polygon fill="lightblue" stroke="blue" points="446.16,-55.5 446.16,-91.5 537.16,-91.5 537.16,-55.5 446.16,-55.5"/>
<text text-anchor="middle" x="491.66" y="-69.8" font-family="Sans" font-size="14.00">阿久津主税</text>
</g>
<!-- pro_234 -->
<g id="node10" class="node"><title>pro_234</title>
<polygon fill="lightblue" stroke="blue" points="446.16,-770.5 446.16,-806.5 537.16,-806.5 537.16,-770.5 446.16,-770.5"/>
<text text-anchor="middle" x="491.66" y="-784.8" font-family="Sans" font-size="14.00">安用寺孝功</text>
</g>
<!-- pro_251 -->
<g id="node11" class="node"><title>pro_251</title>
<polygon fill="lightblue" stroke="blue" points="453.66,-715.5 453.66,-751.5 529.66,-751.5 529.66,-715.5 453.66,-715.5"/>
<text text-anchor="middle" x="491.66" y="-729.8" font-family="Sans" font-size="14.00">片上大輔</text>
</g>
<!-- f4_c -->
<g id="node38" class="node"><title>f4_c</title>
<ellipse fill="black" stroke="black" cx="573.52" cy="-733.5" rx="0.36" ry="0.36"/>
</g>
<!-- pro_251&#45;&#45;f4_c -->
<g id="edge34" class="edge"><title>pro_251&#45;&#45;f4_c</title>
<path fill="none" stroke="black" d="M529.714,-733.5C549.087,-733.5 569.324,-733.5 572.948,-733.5"/>
</g>
<!-- pro_254 -->
<g id="node12" class="node"><title>pro_254</title>
<polygon fill="lightblue" stroke="blue" points="304.94,-73.5 304.94,-109.5 365.94,-109.5 365.94,-73.5 304.94,-73.5"/>
<text text-anchor="middle" x="335.44" y="-87.8" font-family="Sans" font-size="14.00">阪口悟</text>
</g>
<!-- pro_260 -->
<g id="node13" class="node"><title>pro_260</title>
<polygon fill="lightblue" stroke="blue" points="453.66,-385.5 453.66,-421.5 529.66,-421.5 529.66,-385.5 453.66,-385.5"/>
<text text-anchor="middle" x="491.66" y="-399.8" font-family="Sans" font-size="14.00">糸谷哲郎</text>
</g>
<!-- pro_274 -->
<g id="node14" class="node"><title>pro_274</title>
<polygon fill="lightblue" stroke="blue" points="453.66,-330.5 453.66,-366.5 529.66,-366.5 529.66,-330.5 453.66,-330.5"/>
<text text-anchor="middle" x="491.66" y="-344.8" font-family="Sans" font-size="14.00">澤田真吾</text>
</g>
<!-- pro_275 -->
<g id="node15" class="node"><title>pro_275</title>
<polygon fill="lightblue" stroke="blue" points="453.66,-550.5 453.66,-586.5 529.66,-586.5 529.66,-550.5 453.66,-550.5"/>
<text text-anchor="middle" x="491.66" y="-564.8" font-family="Sans" font-size="14.00">大石直嗣</text>
</g>
<!-- pro_279 -->
<g id="node16" class="node"><title>pro_279</title>
<polygon fill="lightblue" stroke="blue" points="297.44,-18.5 297.44,-54.5 373.44,-54.5 373.44,-18.5 297.44,-18.5"/>
<text text-anchor="middle" x="335.44" y="-32.8" font-family="Sans" font-size="14.00">牧野光則</text>
</g>
<!-- pro_291 -->
<g id="node17" class="node"><title>pro_291</title>
<polygon fill="lightblue" stroke="blue" points="453.66,-495.5 453.66,-531.5 529.66,-531.5 529.66,-495.5 453.66,-495.5"/>
<text text-anchor="middle" x="491.66" y="-509.8" font-family="Sans" font-size="14.00">千田翔太</text>
</g>
<!-- pro_292 -->
<g id="node18" class="node"><title>pro_292</title>
<polygon fill="lightblue" stroke="blue" points="453.66,-440.5 453.66,-476.5 529.66,-476.5 529.66,-440.5 453.66,-440.5"/>
<text text-anchor="middle" x="491.66" y="-454.8" font-family="Sans" font-size="14.00">竹内雄悟</text>
</g>
<!-- pro_309 -->
<g id="node19" class="node"><title>pro_309</title>
<polygon fill="lightblue" stroke="blue" points="453.66,-110.5 453.66,-146.5 529.66,-146.5 529.66,-110.5 453.66,-110.5"/>
<text text-anchor="middle" x="491.66" y="-124.8" font-family="Sans" font-size="14.00">西田拓也</text>
</g>
<!-- lady_8 -->
<g id="node20" class="node"><title>lady_8</title>
<polygon fill="pink" stroke="red" points="446.16,-0.5 446.16,-36.5 537.16,-36.5 537.16,-0.5 446.16,-0.5"/>
<text text-anchor="middle" x="491.66" y="-14.8" font-family="Sans" font-size="14.00">高群佐知子</text>
</g>
<!-- lady_42 -->
<g id="node21" class="node"><title>lady_42</title>
<polygon fill="pink" stroke="red" points="453.66,-275.5 453.66,-311.5 529.66,-311.5 529.66,-275.5 453.66,-275.5"/>
<text text-anchor="middle" x="491.66" y="-289.8" font-family="Sans" font-size="14.00">室谷由紀</text>
</g>
<!-- lady_55 -->
<g id="node22" class="node"><title>lady_55</title>
<polygon fill="pink" stroke="red" points="446.16,-220.5 446.16,-256.5 537.16,-256.5 537.16,-220.5 446.16,-220.5"/>
<text text-anchor="middle" x="491.66" y="-234.8" font-family="Sans" font-size="14.00">山口絵美菜</text>
</g>
<!-- lady_57 -->
<g id="node23" class="node"><title>lady_57</title>
<polygon fill="pink" stroke="red" points="446.16,-165.5 446.16,-201.5 537.16,-201.5 537.16,-165.5 446.16,-165.5"/>
<text text-anchor="middle" x="491.66" y="-179.8" font-family="Sans" font-size="14.00">石本さくら</text>
</g>
<!-- lady_59 -->
<g id="node24" class="node"><title>lady_59</title>
<polygon fill="pink" stroke="red" points="609.88,-715.5 609.88,-751.5 760.88,-751.5 760.88,-715.5 609.88,-715.5"/>
<text text-anchor="middle" x="685.38" y="-729.8" font-family="Sans" font-size="14.00">Ｋ・ステチェンスカ</text>
</g>
<!-- extra_13 -->
<g id="node25" class="node"><title>extra_13</title>
<polygon fill="lightblue" stroke="blue" points="0,-164.5 0,-200.5 76,-200.5 76,-164.5 0,-164.5"/>
<text text-anchor="middle" x="38" y="-178.8" font-family="Sans" font-size="14.00">村上真一</text>
</g>
<!-- f5_c1 -->
<g id="node40" class="node"><title>f5_c1</title>
<ellipse fill="black" stroke="black" cx="112.36" cy="-182.5" rx="0.36" ry="0.36"/>
</g>
<!-- extra_13&#45;&#45;f5_c1 -->
<g id="edge38" class="edge"><title>extra_13&#45;&#45;f5_c1</title>
<path fill="none" stroke="black" d="M76.0513,-182.5C92.6312,-182.5 108.98,-182.5 111.9,-182.5"/>
</g>
<!-- f0_c0 -->
<g id="node26" class="node"><title>f0_c0</title>
<ellipse fill="black" stroke="black" cx="261.08" cy="-247.5" rx="0.36" ry="0.36"/>
</g>
<!-- f0_c0&#45;&#45;pro_101 -->
<g id="edge4" class="edge"><title>f0_c0&#45;&#45;pro_101</title>
<path fill="none" stroke="black" d="M261.555,-247.5C264.499,-247.5 280.671,-247.5 297.137,-247.5"/>
</g>
<!-- f0_c0&#45;&#45;f0_c1 -->
<g id="edge1" class="edge"><title>f0_c0&#45;&#45;f0_c1</title>
<path fill="none" stroke="black" d="M261.88,-247.423C261.88,-245.888 261.88,-222.06 261.88,-220.573"/>
</g>
<!-- f0_c2 -->
<g id="node28" class="node"><title>f0_c2</title>
<ellipse fill="black" stroke="black" cx="261.08" cy="-201.5" rx="0.36" ry="0.36"/>
</g>
<!-- f0_c1&#45;&#45;f0_c2 -->
<g id="edge2" class="edge"><title>f0_c1&#45;&#45;f0_c2</title>
<path fill="none" stroke="black" d="M261.88,-220.445C261.88,-219.366 261.88,-202.598 261.88,-201.551"/>
</g>
<!-- f0_c2&#45;&#45;pro_126 -->
<g id="edge5" class="edge"><title>f0_c2&#45;&#45;pro_126</title>
<path fill="none" stroke="black" d="M261.555,-201.5C264.944,-201.5 285.866,-201.5 304.584,-201.5"/>
</g>
<!-- f1_c0 -->
<g id="node29" class="node"><title>f1_c0</title>
<ellipse fill="black" stroke="black" cx="261.08" cy="-137.5" rx="0.36" ry="0.36"/>
</g>
<!-- f1_c0&#45;&#45;pro_147 -->
<g id="edge9" class="edge"><title>f1_c0&#45;&#45;pro_147</title>
<path fill="none" stroke="black" d="M261.555,-137.5C264.944,-137.5 285.866,-137.5 304.584,-137.5"/>
</g>
<!-- f1_c0&#45;&#45;f1_c1 -->
<g id="edge6" class="edge"><title>f1_c0&#45;&#45;f1_c1</title>
<path fill="none" stroke="black" d="M261.88,-137.394C261.88,-135.291 261.88,-102.638 261.88,-100.6"/>
</g>
<!-- f1_c1&#45;&#45;pro_254 -->
<g id="edge10" class="edge"><title>f1_c1&#45;&#45;pro_254</title>
<path fill="none" stroke="black" d="M261.555,-100.5C264.944,-100.5 285.866,-100.5 304.584,-100.5"/>
</g>
<!-- f1_c2 -->
<g id="node31" class="node"><title>f1_c2</title>
<ellipse fill="black" stroke="black" cx="261.08" cy="-54.5" rx="0.36" ry="0.36"/>
</g>
<!-- f1_c1&#45;&#45;f1_c2 -->
<g id="edge7" class="edge"><title>f1_c1&#45;&#45;f1_c2</title>
<path fill="none" stroke="black" d="M261.88,-100.368C261.88,-97.7542 261.88,-57.1586 261.88,-54.6239"/>
</g>
<!-- f1_c2&#45;&#45;pro_279 -->
<g id="edge11" class="edge"><title>f1_c2&#45;&#45;pro_279</title>
<path fill="none" stroke="black" d="M261.555,-54.25C264.499,-54.25 280.671,-54.25 297.137,-54.25"/>
</g>
<!-- f2_c0 -->
<g id="node32" class="node"><title>f2_c0</title>
<ellipse fill="black" stroke="black" cx="409.8" cy="-73.5" rx="0.36" ry="0.36"/>
</g>
<!-- f2_c0&#45;&#45;pro_233 -->
<g id="edge15" class="edge"><title>f2_c0&#45;&#45;pro_233</title>
<path fill="none" stroke="black" d="M410.323,-73.5C413.346,-73.5 429.039,-73.5 445.846,-73.5"/>
</g>
<!-- f2_c0&#45;&#45;f2_c1 -->
<g id="edge12" class="edge"><title>f2_c0&#45;&#45;f2_c1</title>
<path fill="none" stroke="black" d="M409.88,-73.0303C409.88,-70.3788 409.88,-57.3144 409.88,-54.8881"/>
</g>
<!-- f2_c2 -->
<g id="node34" class="node"><title>f2_c2</title>
<ellipse fill="black" stroke="black" cx="409.8" cy="-26.5" rx="0.36" ry="0.36"/>
</g>
<!-- f2_c1&#45;&#45;f2_c2 -->
<g id="edge13" class="edge"><title>f2_c1&#45;&#45;f2_c2</title>
<path fill="none" stroke="black" d="M409.88,-53.8079C409.88,-49.9003 409.88,-30.6475 409.88,-27.072"/>
</g>
<!-- f2_c2&#45;&#45;lady_8 -->
<g id="edge16" class="edge"><title>f2_c2&#45;&#45;lady_8</title>
<path fill="none" stroke="black" d="M410.323,-26.5C413.346,-26.5 429.039,-26.5 445.846,-26.5"/>
</g>
<!-- f3_c0 -->
<g id="node35" class="node"><title>f3_c0</title>
<ellipse fill="black" stroke="black" cx="409.8" cy="-705.5" rx="0.36" ry="0.36"/>
</g>
<!-- f3_c0&#45;&#45;pro_180 -->
<g id="edge20" class="edge"><title>f3_c0&#45;&#45;pro_180</title>
<path fill="none" stroke="black" d="M410.88,-705.423C410.88,-703.839 410.88,-678.5 410.88,-678.5 410.88,-678.5 438.245,-678.5 461.121,-678.5"/>
</g>
<!-- f3_c0&#45;&#45;pro_225 -->
<g id="edge21" class="edge"><title>f3_c0&#45;&#45;pro_225</title>
<path fill="none" stroke="black" d="M410.88,-705.559C410.88,-706.136 410.88,-710.75 410.88,-710.75 410.88,-710.75 458.88,-710.75 458.88,-710.75 458.88,-710.75 458.88,-667.134 458.88,-641.578"/>
</g>
<!-- f3_c0&#45;&#45;pro_227 -->
<g id="edge22" class="edge"><title>f3_c0&#45;&#45;pro_227</title>
<path fill="none" stroke="black" d="M409.88,-705.896C409.88,-713.99 409.88,-843.5 409.88,-843.5 409.88,-843.5 432.287,-843.5 453.643,-843.5"/>
</g>
<!-- f3_c0&#45;&#45;pro_234 -->
<g id="edge23" class="edge"><title>f3_c0&#45;&#45;pro_234</title>
<path fill="none" stroke="black" d="M409.069,-705.5C407.108,-705.5 401.88,-705.5 401.88,-705.5 401.88,-705.5 401.88,-788.5 401.88,-788.5 401.88,-788.5 423.802,-788.5 445.981,-788.5"/>
</g>
<!-- f3_c0&#45;&#45;pro_251 -->
<g id="edge24" class="edge"><title>f3_c0&#45;&#45;pro_251</title>
<path fill="none" stroke="black" d="M410.329,-705.833C415.501,-705.833 456.88,-705.833 456.88,-705.833 456.88,-705.833 456.88,-710.055 456.88,-715.2"/>
</g>
<!-- f3_c0&#45;&#45;f3_c1 -->
<g id="edge17" class="edge"><title>f3_c0&#45;&#45;f3_c1</title>
<path fill="none" stroke="black" d="M410.156,-705.167C417.434,-705.167 533.88,-705.167 533.88,-705.167 533.88,-705.167 533.88,-431 533.88,-431 533.88,-431 413.647,-431 409.89,-431"/>
</g>
<!-- f3_c1&#45;&#45;pro_260 -->
<g id="edge25" class="edge"><title>f3_c1&#45;&#45;pro_260</title>
<path fill="none" stroke="black" d="M410.88,-430.423C410.88,-428.839 410.88,-403.5 410.88,-403.5 410.88,-403.5 432.684,-403.5 453.635,-403.5"/>
</g>
<!-- f3_c1&#45;&#45;pro_274 -->
<g id="edge26" class="edge"><title>f3_c1&#45;&#45;pro_274</title>
<path fill="none" stroke="black" d="M410.42,-430.5C414.282,-430.5 434.88,-430.5 434.88,-430.5 434.88,-430.5 434.88,-348.5 434.88,-348.5 434.88,-348.5 443.201,-348.5 453.472,-348.5"/>
</g>
<!-- f3_c1&#45;&#45;pro_275 -->
<g id="edge27" class="edge"><title>f3_c1&#45;&#45;pro_275</title>
<path fill="none" stroke="black" d="M409.88,-430.896C409.88,-438.99 409.88,-568.5 409.88,-568.5 409.88,-568.5 432.287,-568.5 453.643,-568.5"/>
</g>
<!-- f3_c1&#45;&#45;pro_291 -->
<g id="edge28" class="edge"><title>f3_c1&#45;&#45;pro_291</title>
<path fill="none" stroke="black" d="M409.632,-430.833C407.993,-430.833 394.88,-430.833 394.88,-430.833 394.88,-430.833 394.88,-513.5 394.88,-513.5 394.88,-513.5 426.358,-513.5 453.41,-513.5"/>
</g>
<!-- f3_c1&#45;&#45;pro_292 -->
<g id="edge29" class="edge"><title>f3_c1&#45;&#45;pro_292</title>
<path fill="none" stroke="black" d="M409.88,-431.192C409.88,-435.504 409.88,-458.5 409.88,-458.5 409.88,-458.5 432.287,-458.5 453.643,-458.5"/>
</g>
<!-- f3_c2 -->
<g id="node37" class="node"><title>f3_c2</title>
<ellipse fill="black" stroke="black" cx="409.8" cy="-238.5" rx="0.36" ry="0.36"/>
</g>
<!-- f3_c1&#45;&#45;f3_c2 -->
<g id="edge18" class="edge"><title>f3_c1&#45;&#45;f3_c2</title>
<path fill="none" stroke="black" d="M409.475,-430.167C406.298,-430.167 380.88,-430.167 380.88,-430.167 380.88,-430.167 380.88,-238.75 380.88,-238.75 380.88,-238.75 406.298,-238.75 409.475,-238.75"/>
</g>
<!-- f3_c2&#45;&#45;pro_309 -->
<g id="edge30" class="edge"><title>f3_c2&#45;&#45;pro_309</title>
<path fill="none" stroke="black" d="M409.737,-237.75C408.451,-237.75 387.88,-237.75 387.88,-237.75 387.88,-237.75 387.88,-137.5 387.88,-137.5 387.88,-137.5 423.987,-137.5 453.605,-137.5"/>
</g>
<!-- f3_c2&#45;&#45;lady_42 -->
<g id="edge31" class="edge"><title>f3_c2&#45;&#45;lady_42</title>
<path fill="none" stroke="black" d="M409.88,-239.118C409.88,-245.16 409.88,-293.5 409.88,-293.5 409.88,-293.5 432.287,-293.5 453.643,-293.5"/>
</g>
<!-- f3_c2&#45;&#45;lady_55 -->
<g id="edge32" class="edge"><title>f3_c2&#45;&#45;lady_55</title>
<path fill="none" stroke="black" d="M410.323,-238.5C413.346,-238.5 429.039,-238.5 445.846,-238.5"/>
</g>
<!-- f3_c2&#45;&#45;lady_57 -->
<g id="edge33" class="edge"><title>f3_c2&#45;&#45;lady_57</title>
<path fill="none" stroke="black" d="M409.88,-237.983C409.88,-232.93 409.88,-192.5 409.88,-192.5 409.88,-192.5 427.255,-192.5 445.988,-192.5"/>
</g>
<!-- f4_c&#45;&#45;lady_59 -->
<g id="edge35" class="edge"><title>f4_c&#45;&#45;lady_59</title>
<path fill="none" stroke="black" d="M574.234,-733.5C577.565,-733.5 592.152,-733.5 609.717,-733.5"/>
</g>
<!-- f5_c0 -->
<g id="node39" class="node"><title>f5_c0</title>
<ellipse fill="black" stroke="black" cx="112.36" cy="-205.5" rx="0.36" ry="0.36"/>
</g>
<!-- f5_c0&#45;&#45;pro_37 -->
<g id="edge39" class="edge"><title>f5_c0&#45;&#45;pro_37</title>
<path fill="none" stroke="black" d="M112.835,-205.5C115.779,-205.5 131.951,-205.5 148.417,-205.5"/>
</g>
<!-- f5_c0&#45;&#45;f5_c1 -->
<g id="edge36" class="edge"><title>f5_c0&#45;&#45;f5_c1</title>
<path fill="none" stroke="black" d="M112.88,-205.434C112.88,-204.127 112.88,-183.829 112.88,-182.562"/>
</g>
<!-- f5_c2 -->
<g id="node41" class="node"><title>f5_c2</title>
<ellipse fill="black" stroke="black" cx="112.36" cy="-154.5" rx="0.36" ry="0.36"/>
</g>
<!-- f5_c1&#45;&#45;f5_c2 -->
<g id="edge37" class="edge"><title>f5_c1&#45;&#45;f5_c2</title>
<path fill="none" stroke="black" d="M112.88,-182.42C112.88,-180.829 112.88,-156.118 112.88,-154.575"/>
</g>
<!-- f5_c2&#45;&#45;pro_88 -->
<g id="edge40" class="edge"><title>f5_c2&#45;&#45;pro_88</title>
<path fill="none" stroke="black" d="M112.835,-154.5C116.224,-154.5 137.146,-154.5 155.864,-154.5"/>
</g>
</g>
</svg>
