<?xml version="1.0" encoding="UTF-8" standalone="no"?>
<!DOCTYPE svg PUBLIC "-//W3C//DTD SVG 1.1//EN"
 "http://www.w3.org/Graphics/SVG/1.1/DTD/svg11.dtd">
<!-- Generated by graphviz version 2.38.0 (20140413.2041)
 -->
<!-- Title: ShogiPlayers17 Pages: 1 -->
<svg width="366pt" height="100pt"
 viewBox="0.00 0.00 366.44 100.00" xmlns="http://www.w3.org/2000/svg" xmlns:xlink="http://www.w3.org/1999/xlink">
<g id="graph0" class="graph" transform="scale(1 1) rotate(0) translate(4 96)">
<title>ShogiPlayers17</title>
<polygon fill="white" stroke="none" points="-4,4 -4,-96 362.44,-96 362.44,4 -4,4"/>
<!-- pro_54 -->
<g id="node1" class="node"><title>pro_54</title>
<polygon fill="lightblue" stroke="blue" points="148.72,-55.5 148.72,-91.5 224.72,-91.5 224.72,-55.5 148.72,-55.5"/>
<text text-anchor="middle" x="186.72" y="-69.8" font-family="Sans" font-size="14.00">熊谷達人</text>
</g>
<!-- f0_c -->
<g id="node5" class="node"><title>f0_c</title>
<ellipse fill="black" stroke="black" cx="261.08" cy="-73.5" rx="0.36" ry="0.36"/>
</g>
<!-- pro_54&#45;&#45;f0_c -->
<g id="edge1" class="edge"><title>pro_54&#45;&#45;f0_c</title>
<path fill="none" stroke="black" d="M224.771,-73.5C241.351,-73.5 257.7,-73.5 260.62,-73.5"/>
</g>
<!-- pro_72 -->
<g id="node2" class="node"><title>pro_72</title>
<polygon fill="lightblue" stroke="blue" points="148.72,-0.5 148.72,-36.5 224.72,-36.5 224.72,-0.5 148.72,-0.5"/>
<text text-anchor="middle" x="186.72" y="-14.8" font-family="Sans" font-size="14.00">大原英二</text>
</g>
<!-- pro_133 -->
<g id="node3" class="node"><title>pro_133</title>
<polygon fill="lightblue" stroke="blue" points="297.44,-55.5 297.44,-91.5 358.44,-91.5 358.44,-55.5 297.44,-55.5"/>
<text text-anchor="middle" x="327.94" y="-69.8" font-family="Sans" font-size="14.00">青木清</text>
</g>
<!-- extra_17 -->
<g id="node4" class="node"><title>extra_17</title>
<polygon fill="lightblue" stroke="blue" points="0,-31.5 0,-67.5 76,-67.5 76,-31.5 0,-31.5"/>
<text text-anchor="middle" x="38" y="-45.8" font-family="Sans" font-size="14.00">野村慶虎</text>
</g>
<!-- f1_c1 -->
<g id="node7" class="node"><title>f1_c1</title>
<ellipse fill="black" stroke="black" cx="112.36" cy="-49.5" rx="0.36" ry="0.36"/>
</g>
<!-- extra_17&#45;&#45;f1_c1 -->
<g id="edge5" class="edge"><title>extra_17&#45;&#45;f1_c1</title>
<path fill="none" stroke="black" d="M76.0513,-49.5C92.6312,-49.5 108.98,-49.5 111.9,-49.5"/>
</g>
<!-- f0_c&#45;&#45;pro_133 -->
<g id="edge2" class="edge"><title>f0_c&#45;&#45;pro_133</title>
<path fill="none" stroke="black" d="M261.507,-73.5C264.376,-73.5 281.223,-73.5 297.231,-73.5"/>
</g>
<!-- f1_c0 -->
<g id="node6" class="node"><title>f1_c0</title>
<ellipse fill="black" stroke="black" cx="112.36" cy="-70.5" rx="0.36" ry="0.36"/>
</g>
<!-- f1_c0&#45;&#45;pro_54 -->
<g id="edge6" class="edge"><title>f1_c0&#45;&#45;pro_54</title>
<path fill="none" stroke="black" d="M112.835,-70.5C115.779,-70.5 131.951,-70.5 148.417,-70.5"/>
</g>
<!-- f1_c0&#45;&#45;f1_c1 -->
<g id="edge3" class="edge"><title>f1_c0&#45;&#45;f1_c1</title>
<path fill="none" stroke="black" d="M112.44,-69.9809C112.44,-67.0502 112.44,-52.6107 112.44,-49.929"/>
</g>
<!-- f1_c2 -->
<g id="node8" class="node"><title>f1_c2</title>
<ellipse fill="black" stroke="black" cx="112.36" cy="-26.5" rx="0.36" ry="0.36"/>
</g>
<!-- f1_c1&#45;&#45;f1_c2 -->
<g id="edge4" class="edge"><title>f1_c1&#45;&#45;f1_c2</title>
<path fill="none" stroke="black" d="M112.44,-48.9315C112.44,-45.7217 112.44,-29.9069 112.44,-26.9699"/>
</g>
<!-- f1_c2&#45;&#45;pro_72 -->
<g id="edge7" class="edge"><title>f1_c2&#45;&#45;pro_72</title>
<path fill="none" stroke="black" d="M112.835,-26.5C115.779,-26.5 131.951,-26.5 148.417,-26.5"/>
</g>
</g>
</svg>
