<?xml version="1.0" encoding="UTF-8" standalone="no"?>
<!DOCTYPE svg PUBLIC "-//W3C//DTD SVG 1.1//EN"
 "http://www.w3.org/Graphics/SVG/1.1/DTD/svg11.dtd">
<!-- Generated by graphviz version 2.38.0 (20140413.2041)
 -->
<!-- Title: ShogiPlayers8 Pages: 1 -->
<svg width="575pt" height="925pt"
 viewBox="0.00 0.00 575.16 925.00" xmlns="http://www.w3.org/2000/svg" xmlns:xlink="http://www.w3.org/1999/xlink">
<g id="graph0" class="graph" transform="scale(1 1) rotate(0) translate(4 921)">
<title>ShogiPlayers8</title>
<polygon fill="white" stroke="none" points="-4,4 -4,-921 571.16,-921 571.16,4 -4,4"/>
<!-- pro_19 -->
<g id="node1" class="node"><title>pro_19</title>
<polygon fill="lightblue" stroke="blue" points="148.72,-708.5 148.72,-744.5 239.72,-744.5 239.72,-708.5 148.72,-708.5"/>
<text text-anchor="middle" x="194.22" y="-722.8" font-family="Sans" font-size="14.00">高島一岐代</text>
</g>
<!-- f0_c1 -->
<g id="node36" class="node"><title>f0_c1</title>
<ellipse fill="black" stroke="black" cx="276.08" cy="-770.5" rx="0.36" ry="0.36"/>
</g>
<!-- pro_19&#45;&#45;f0_c1 -->
<g id="edge3" class="edge"><title>pro_19&#45;&#45;f0_c1</title>
<path fill="none" stroke="black" d="M195.16,-744.651C195.16,-756.771 195.16,-770.5 195.16,-770.5 195.16,-770.5 268.672,-770.5 275.563,-770.5"/>
</g>
<!-- pro_77 -->
<g id="node2" class="node"><title>pro_77</title>
<polygon fill="lightblue" stroke="blue" points="156.22,-610.5 156.22,-646.5 232.22,-646.5 232.22,-610.5 156.22,-610.5"/>
<text text-anchor="middle" x="194.22" y="-624.8" font-family="Sans" font-size="14.00">内藤國雄</text>
</g>
<!-- f1_c1 -->
<g id="node39" class="node"><title>f1_c1</title>
<ellipse fill="black" stroke="black" cx="276.08" cy="-642.5" rx="0.36" ry="0.36"/>
</g>
<!-- pro_77&#45;&#45;f1_c1 -->
<g id="edge10" class="edge"><title>pro_77&#45;&#45;f1_c1</title>
<path fill="none" stroke="black" d="M232.274,-642.5C251.647,-642.5 271.884,-642.5 275.508,-642.5"/>
</g>
<!-- pro_83 -->
<g id="node3" class="node"><title>pro_83</title>
<polygon fill="lightblue" stroke="blue" points="319.94,-825.5 319.94,-861.5 395.94,-861.5 395.94,-825.5 319.94,-825.5"/>
<text text-anchor="middle" x="357.94" y="-839.8" font-family="Sans" font-size="14.00">高島弘光</text>
</g>
<!-- pro_98 -->
<g id="node4" class="node"><title>pro_98</title>
<polygon fill="lightblue" stroke="blue" points="156.22,-541.5 156.22,-577.5 232.22,-577.5 232.22,-541.5 156.22,-541.5"/>
<text text-anchor="middle" x="194.22" y="-555.8" font-family="Sans" font-size="14.00">若松政和</text>
</g>
<!-- f2_c1 -->
<g id="node42" class="node"><title>f2_c1</title>
<ellipse fill="black" stroke="black" cx="276.08" cy="-522.5" rx="0.36" ry="0.36"/>
</g>
<!-- pro_98&#45;&#45;f2_c1 -->
<g id="edge15" class="edge"><title>pro_98&#45;&#45;f2_c1</title>
<path fill="none" stroke="black" d="M195.16,-541.434C195.16,-532.041 195.16,-522.5 195.16,-522.5 195.16,-522.5 268.672,-522.5 275.563,-522.5"/>
</g>
<!-- pro_99 -->
<g id="node5" class="node"><title>pro_99</title>
<polygon fill="lightblue" stroke="blue" points="156.22,-340.5 156.22,-376.5 232.22,-376.5 232.22,-340.5 156.22,-340.5"/>
<text text-anchor="middle" x="194.22" y="-354.8" font-family="Sans" font-size="14.00">森安秀光</text>
</g>
<!-- f3_c1 -->
<g id="node45" class="node"><title>f3_c1</title>
<ellipse fill="black" stroke="black" cx="276.08" cy="-367.5" rx="0.36" ry="0.36"/>
</g>
<!-- pro_99&#45;&#45;f3_c1 -->
<g id="edge21" class="edge"><title>pro_99&#45;&#45;f3_c1</title>
<path fill="none" stroke="black" d="M232.274,-367.5C251.647,-367.5 271.884,-367.5 275.508,-367.5"/>
</g>
<!-- pro_108 -->
<g id="node6" class="node"><title>pro_108</title>
<polygon fill="lightblue" stroke="blue" points="156.22,-223.5 156.22,-259.5 232.22,-259.5 232.22,-223.5 156.22,-223.5"/>
<text text-anchor="middle" x="194.22" y="-237.8" font-family="Sans" font-size="14.00">森安正幸</text>
</g>
<!-- f4_c1 -->
<g id="node48" class="node"><title>f4_c1</title>
<ellipse fill="black" stroke="black" cx="276.08" cy="-239.5" rx="0.36" ry="0.36"/>
</g>
<!-- pro_108&#45;&#45;f4_c1 -->
<g id="edge26" class="edge"><title>pro_108&#45;&#45;f4_c1</title>
<path fill="none" stroke="black" d="M232.274,-239.5C251.647,-239.5 271.884,-239.5 275.508,-239.5"/>
</g>
<!-- pro_112 -->
<g id="node7" class="node"><title>pro_112</title>
<polygon fill="lightblue" stroke="blue" points="163.72,-283.5 163.72,-319.5 224.72,-319.5 224.72,-283.5 163.72,-283.5"/>
<text text-anchor="middle" x="194.22" y="-297.8" font-family="Sans" font-size="14.00">小阪昇</text>
</g>
<!-- pro_113 -->
<g id="node8" class="node"><title>pro_113</title>
<polygon fill="lightblue" stroke="blue" points="156.22,-130.5 156.22,-166.5 232.22,-166.5 232.22,-130.5 156.22,-130.5"/>
<text text-anchor="middle" x="194.22" y="-144.8" font-family="Sans" font-size="14.00">淡路仁茂</text>
</g>
<!-- f5_c1 -->
<g id="node51" class="node"><title>f5_c1</title>
<ellipse fill="black" stroke="black" cx="276.08" cy="-82.5" rx="0.36" ry="0.36"/>
</g>
<!-- pro_113&#45;&#45;f5_c1 -->
<g id="edge32" class="edge"><title>pro_113&#45;&#45;f5_c1</title>
<path fill="none" stroke="black" d="M232.29,-138.5C234.686,-138.5 236.16,-138.5 236.16,-138.5 236.16,-138.5 236.16,-82.5 236.16,-82.5 236.16,-82.5 271.246,-82.5 275.632,-82.5"/>
</g>
<!-- pro_125 -->
<g id="node9" class="node"><title>pro_125</title>
<polygon fill="lightblue" stroke="blue" points="156.22,-75.5 156.22,-111.5 232.22,-111.5 232.22,-75.5 156.22,-75.5"/>
<text text-anchor="middle" x="194.22" y="-89.8" font-family="Sans" font-size="14.00">酒井順吉</text>
</g>
<!-- pro_128 -->
<g id="node10" class="node"><title>pro_128</title>
<polygon fill="lightblue" stroke="blue" points="327.44,-880.5 327.44,-916.5 388.44,-916.5 388.44,-880.5 327.44,-880.5"/>
<text text-anchor="middle" x="357.94" y="-894.8" font-family="Sans" font-size="14.00">東和男</text>
</g>
<!-- pro_131 -->
<g id="node11" class="node"><title>pro_131</title>
<polygon fill="lightblue" stroke="blue" points="319.94,-550.5 319.94,-586.5 395.94,-586.5 395.94,-550.5 319.94,-550.5"/>
<text text-anchor="middle" x="357.94" y="-564.8" font-family="Sans" font-size="14.00">谷川浩司</text>
</g>
<!-- f6_c -->
<g id="node53" class="node"><title>f6_c</title>
<ellipse fill="black" stroke="black" cx="439.8" cy="-568.5" rx="0.36" ry="0.36"/>
</g>
<!-- pro_131&#45;&#45;f6_c -->
<g id="edge36" class="edge"><title>pro_131&#45;&#45;f6_c</title>
<path fill="none" stroke="black" d="M395.994,-568.5C415.367,-568.5 435.604,-568.5 439.228,-568.5"/>
</g>
<!-- pro_138 -->
<g id="node12" class="node"><title>pro_138</title>
<polygon fill="lightblue" stroke="blue" points="327.44,-770.5 327.44,-806.5 388.44,-806.5 388.44,-770.5 327.44,-770.5"/>
<text text-anchor="middle" x="357.94" y="-784.8" font-family="Sans" font-size="14.00">脇謙二</text>
</g>
<!-- pro_157 -->
<g id="node13" class="node"><title>pro_157</title>
<polygon fill="lightblue" stroke="blue" points="319.94,-495.5 319.94,-531.5 395.94,-531.5 395.94,-495.5 319.94,-495.5"/>
<text text-anchor="middle" x="357.94" y="-509.8" font-family="Sans" font-size="14.00">井上慶太</text>
</g>
<!-- f7_c1 -->
<g id="node55" class="node"><title>f7_c1</title>
<ellipse fill="black" stroke="black" cx="439.8" cy="-504.5" rx="0.36" ry="0.36"/>
</g>
<!-- pro_157&#45;&#45;f7_c1 -->
<g id="edge40" class="edge"><title>pro_157&#45;&#45;f7_c1</title>
<path fill="none" stroke="black" d="M395.994,-504.5C415.367,-504.5 435.604,-504.5 439.228,-504.5"/>
</g>
<!-- pro_160 -->
<g id="node14" class="node"><title>pro_160</title>
<polygon fill="lightblue" stroke="blue" points="319.94,-660.5 319.94,-696.5 395.94,-696.5 395.94,-660.5 319.94,-660.5"/>
<text text-anchor="middle" x="357.94" y="-674.8" font-family="Sans" font-size="14.00">神吉宏充</text>
</g>
<!-- f8_c -->
<g id="node57" class="node"><title>f8_c</title>
<ellipse fill="black" stroke="black" cx="439.8" cy="-678.5" rx="0.36" ry="0.36"/>
</g>
<!-- pro_160&#45;&#45;f8_c -->
<g id="edge44" class="edge"><title>pro_160&#45;&#45;f8_c</title>
<path fill="none" stroke="black" d="M395.994,-678.5C415.367,-678.5 435.604,-678.5 439.228,-678.5"/>
</g>
<!-- pro_170 -->
<g id="node15" class="node"><title>pro_170</title>
<polygon fill="lightblue" stroke="blue" points="327.44,-385.5 327.44,-421.5 388.44,-421.5 388.44,-385.5 327.44,-385.5"/>
<text text-anchor="middle" x="357.94" y="-399.8" font-family="Sans" font-size="14.00">本間博</text>
</g>
<!-- pro_186 -->
<g id="node16" class="node"><title>pro_186</title>
<polygon fill="lightblue" stroke="blue" points="319.94,-330.5 319.94,-366.5 395.94,-366.5 395.94,-330.5 319.94,-330.5"/>
<text text-anchor="middle" x="357.94" y="-344.8" font-family="Sans" font-size="14.00">野田敬三</text>
</g>
<!-- f9_c1 -->
<g id="node59" class="node"><title>f9_c1</title>
<ellipse fill="black" stroke="black" cx="439.8" cy="-358.5" rx="0.36" ry="0.36"/>
</g>
<!-- pro_186&#45;&#45;f9_c1 -->
<g id="edge48" class="edge"><title>pro_186&#45;&#45;f9_c1</title>
<path fill="none" stroke="black" d="M395.994,-358.5C415.367,-358.5 435.604,-358.5 439.228,-358.5"/>
</g>
<!-- pro_190 -->
<g id="node17" class="node"><title>pro_190</title>
<polygon fill="lightblue" stroke="blue" points="319.94,-440.5 319.94,-476.5 395.94,-476.5 395.94,-440.5 319.94,-440.5"/>
<text text-anchor="middle" x="357.94" y="-454.8" font-family="Sans" font-size="14.00">藤原直哉</text>
</g>
<!-- pro_192 -->
<g id="node18" class="node"><title>pro_192</title>
<polygon fill="lightblue" stroke="blue" points="327.44,-275.5 327.44,-311.5 388.44,-311.5 388.44,-275.5 327.44,-275.5"/>
<text text-anchor="middle" x="357.94" y="-289.8" font-family="Sans" font-size="14.00">畠山鎮</text>
</g>
<!-- f10_c -->
<g id="node61" class="node"><title>f10_c</title>
<ellipse fill="black" stroke="black" cx="439.8" cy="-293.5" rx="0.36" ry="0.36"/>
</g>
<!-- pro_192&#45;&#45;f10_c -->
<g id="edge51" class="edge"><title>pro_192&#45;&#45;f10_c</title>
<path fill="none" stroke="black" d="M388.888,-293.5C409.896,-293.5 434.64,-293.5 439.095,-293.5"/>
</g>
<!-- pro_193 -->
<g id="node19" class="node"><title>pro_193</title>
<polygon fill="lightblue" stroke="blue" points="319.94,-220.5 319.94,-256.5 395.94,-256.5 395.94,-220.5 319.94,-220.5"/>
<text text-anchor="middle" x="357.94" y="-234.8" font-family="Sans" font-size="14.00">畠山成幸</text>
</g>
<!-- pro_207 -->
<g id="node20" class="node"><title>pro_207</title>
<polygon fill="lightblue" stroke="blue" points="319.94,-110.5 319.94,-146.5 395.94,-146.5 395.94,-110.5 319.94,-110.5"/>
<text text-anchor="middle" x="357.94" y="-124.8" font-family="Sans" font-size="14.00">久保利明</text>
</g>
<!-- pro_242 -->
<g id="node21" class="node"><title>pro_242</title>
<polygon fill="lightblue" stroke="blue" points="319.94,-55.5 319.94,-91.5 395.94,-91.5 395.94,-55.5 319.94,-55.5"/>
<text text-anchor="middle" x="357.94" y="-69.8" font-family="Sans" font-size="14.00">村田智弘</text>
</g>
<!-- pro_269 -->
<g id="node22" class="node"><title>pro_269</title>
<polygon fill="lightblue" stroke="blue" points="491.16,-605.5 491.16,-641.5 552.16,-641.5 552.16,-605.5 491.16,-605.5"/>
<text text-anchor="middle" x="521.66" y="-619.8" font-family="Sans" font-size="14.00">稲葉陽</text>
</g>
<!-- pro_273 -->
<g id="node23" class="node"><title>pro_273</title>
<polygon fill="lightblue" stroke="blue" points="483.66,-660.5 483.66,-696.5 559.66,-696.5 559.66,-660.5 483.66,-660.5"/>
<text text-anchor="middle" x="521.66" y="-674.8" font-family="Sans" font-size="14.00">渡辺正和</text>
</g>
<!-- pro_278 -->
<g id="node24" class="node"><title>pro_278</title>
<polygon fill="lightblue" stroke="blue" points="483.66,-440.5 483.66,-476.5 559.66,-476.5 559.66,-440.5 483.66,-440.5"/>
<text text-anchor="middle" x="521.66" y="-454.8" font-family="Sans" font-size="14.00">菅井竜也</text>
</g>
<!-- pro_281 -->
<g id="node25" class="node"><title>pro_281</title>
<polygon fill="lightblue" stroke="blue" points="483.66,-495.5 483.66,-531.5 559.66,-531.5 559.66,-495.5 483.66,-495.5"/>
<text text-anchor="middle" x="521.66" y="-509.8" font-family="Sans" font-size="14.00">船江恒平</text>
</g>
<!-- pro_286 -->
<g id="node26" class="node"><title>pro_286</title>
<polygon fill="lightblue" stroke="blue" points="476.16,-266.5 476.16,-302.5 567.16,-302.5 567.16,-266.5 476.16,-266.5"/>
<text text-anchor="middle" x="521.66" y="-280.8" font-family="Sans" font-size="14.00">斎藤慎太郎</text>
</g>
<!-- pro_294 -->
<g id="node27" class="node"><title>pro_294</title>
<polygon fill="lightblue" stroke="blue" points="312.44,-605.5 312.44,-641.5 403.44,-641.5 403.44,-605.5 312.44,-605.5"/>
<text text-anchor="middle" x="357.94" y="-619.8" font-family="Sans" font-size="14.00">三枚堂達也</text>
</g>
<!-- pro_296 -->
<g id="node28" class="node"><title>pro_296</title>
<polygon fill="lightblue" stroke="blue" points="319.94,-165.5 319.94,-201.5 395.94,-201.5 395.94,-165.5 319.94,-165.5"/>
<text text-anchor="middle" x="357.94" y="-179.8" font-family="Sans" font-size="14.00">宮本広志</text>
</g>
<!-- pro_304 -->
<g id="node29" class="node"><title>pro_304</title>
<polygon fill="lightblue" stroke="blue" points="483.66,-550.5 483.66,-586.5 559.66,-586.5 559.66,-550.5 483.66,-550.5"/>
<text text-anchor="middle" x="521.66" y="-564.8" font-family="Sans" font-size="14.00">都成竜馬</text>
</g>
<!-- lady_3 -->
<g id="node30" class="node"><title>lady_3</title>
<polygon fill="pink" stroke="red" points="312.44,-715.5 312.44,-751.5 403.44,-751.5 403.44,-715.5 312.44,-715.5"/>
<text text-anchor="middle" x="357.94" y="-729.8" font-family="Sans" font-size="14.00">森安多恵子</text>
</g>
<!-- lady_28 -->
<g id="node31" class="node"><title>lady_28</title>
<polygon fill="pink" stroke="red" points="319.94,-0.5 319.94,-36.5 395.94,-36.5 395.94,-0.5 319.94,-0.5"/>
<text text-anchor="middle" x="357.94" y="-14.8" font-family="Sans" font-size="14.00">村田智穂</text>
</g>
<!-- lady_44 -->
<g id="node32" class="node"><title>lady_44</title>
<polygon fill="pink" stroke="red" points="476.16,-376.5 476.16,-412.5 567.16,-412.5 567.16,-376.5 476.16,-376.5"/>
<text text-anchor="middle" x="521.66" y="-390.8" font-family="Sans" font-size="14.00">長谷川優貴</text>
</g>
<!-- lady_49 -->
<g id="node33" class="node"><title>lady_49</title>
<polygon fill="pink" stroke="red" points="476.16,-321.5 476.16,-357.5 567.16,-357.5 567.16,-321.5 476.16,-321.5"/>
<text text-anchor="middle" x="521.66" y="-335.8" font-family="Sans" font-size="14.00">山根ことみ</text>
</g>
<!-- extra_8 -->
<g id="node34" class="node"><title>extra_8</title>
<polygon fill="lightblue" stroke="blue" points="0,-283.5 0,-319.5 76,-319.5 76,-283.5 0,-283.5"/>
<text text-anchor="middle" x="38" y="-297.8" font-family="Sans" font-size="14.00">藤内金吾</text>
</g>
<!-- f11_c1 -->
<g id="node63" class="node"><title>f11_c1</title>
<ellipse fill="black" stroke="black" cx="112.36" cy="-301.5" rx="0.36" ry="0.36"/>
</g>
<!-- extra_8&#45;&#45;f11_c1 -->
<g id="edge55" class="edge"><title>extra_8&#45;&#45;f11_c1</title>
<path fill="none" stroke="black" d="M76.0513,-301.167C93.203,-301.167 110.107,-301.167 112.153,-301.167"/>
</g>
<!-- f0_c0 -->
<g id="node35" class="node"><title>f0_c0</title>
<ellipse fill="black" stroke="black" cx="276.08" cy="-843.5" rx="0.36" ry="0.36"/>
</g>
<!-- f0_c0&#45;&#45;pro_83 -->
<g id="edge4" class="edge"><title>f0_c0&#45;&#45;pro_83</title>
<path fill="none" stroke="black" d="M276.603,-843.5C280.089,-843.5 300.423,-843.5 319.886,-843.5"/>
</g>
<!-- f0_c0&#45;&#45;pro_128 -->
<g id="edge5" class="edge"><title>f0_c0&#45;&#45;pro_128</title>
<path fill="none" stroke="black" d="M276.16,-844.118C276.16,-850.16 276.16,-898.5 276.16,-898.5 276.16,-898.5 303.864,-898.5 327.022,-898.5"/>
</g>
<!-- f0_c0&#45;&#45;f0_c1 -->
<g id="edge1" class="edge"><title>f0_c0&#45;&#45;f0_c1</title>
<path fill="none" stroke="black" d="M276.16,-843.034C276.16,-837.108 276.16,-776.585 276.16,-770.924"/>
</g>
<!-- f0_c1&#45;&#45;pro_138 -->
<g id="edge6" class="edge"><title>f0_c1&#45;&#45;pro_138</title>
<path fill="none" stroke="black" d="M276.603,-770.75C280.524,-770.75 305.77,-770.75 327.109,-770.75"/>
</g>
<!-- f0_c2 -->
<g id="node37" class="node"><title>f0_c2</title>
<ellipse fill="black" stroke="black" cx="276.08" cy="-742.5" rx="0.36" ry="0.36"/>
</g>
<!-- f0_c1&#45;&#45;f0_c2 -->
<g id="edge2" class="edge"><title>f0_c1&#45;&#45;f0_c2</title>
<path fill="none" stroke="black" d="M276.16,-769.808C276.16,-765.9 276.16,-746.648 276.16,-743.072"/>
</g>
<!-- f0_c2&#45;&#45;lady_3 -->
<g id="edge7" class="edge"><title>f0_c2&#45;&#45;lady_3</title>
<path fill="none" stroke="black" d="M276.603,-742.5C279.626,-742.5 295.319,-742.5 312.126,-742.5"/>
</g>
<!-- f1_c0 -->
<g id="node38" class="node"><title>f1_c0</title>
<ellipse fill="black" stroke="black" cx="276.08" cy="-670.5" rx="0.36" ry="0.36"/>
</g>
<!-- f1_c0&#45;&#45;pro_160 -->
<g id="edge11" class="edge"><title>f1_c0&#45;&#45;pro_160</title>
<path fill="none" stroke="black" d="M276.603,-670.5C280.089,-670.5 300.423,-670.5 319.886,-670.5"/>
</g>
<!-- f1_c0&#45;&#45;f1_c1 -->
<g id="edge8" class="edge"><title>f1_c0&#45;&#45;f1_c1</title>
<path fill="none" stroke="black" d="M276.16,-669.808C276.16,-665.9 276.16,-646.648 276.16,-643.072"/>
</g>
<!-- f1_c2 -->
<g id="node40" class="node"><title>f1_c2</title>
<ellipse fill="black" stroke="black" cx="276.08" cy="-623.5" rx="0.36" ry="0.36"/>
</g>
<!-- f1_c1&#45;&#45;f1_c2 -->
<g id="edge9" class="edge"><title>f1_c1&#45;&#45;f1_c2</title>
<path fill="none" stroke="black" d="M276.16,-642.03C276.16,-639.379 276.16,-626.314 276.16,-623.888"/>
</g>
<!-- f1_c2&#45;&#45;pro_294 -->
<g id="edge12" class="edge"><title>f1_c2&#45;&#45;pro_294</title>
<path fill="none" stroke="black" d="M276.603,-623.5C279.626,-623.5 295.319,-623.5 312.126,-623.5"/>
</g>
<!-- f2_c0 -->
<g id="node41" class="node"><title>f2_c0</title>
<ellipse fill="black" stroke="black" cx="276.08" cy="-550.5" rx="0.36" ry="0.36"/>
</g>
<!-- f2_c0&#45;&#45;pro_131 -->
<g id="edge16" class="edge"><title>f2_c0&#45;&#45;pro_131</title>
<path fill="none" stroke="black" d="M276.603,-550.75C280.089,-550.75 300.423,-550.75 319.886,-550.75"/>
</g>
<!-- f2_c0&#45;&#45;f2_c1 -->
<g id="edge13" class="edge"><title>f2_c0&#45;&#45;f2_c1</title>
<path fill="none" stroke="black" d="M276.16,-549.808C276.16,-545.9 276.16,-526.648 276.16,-523.072"/>
</g>
<!-- f2_c1&#45;&#45;pro_157 -->
<g id="edge17" class="edge"><title>f2_c1&#45;&#45;pro_157</title>
<path fill="none" stroke="black" d="M276.603,-522.5C280.089,-522.5 300.423,-522.5 319.886,-522.5"/>
</g>
<!-- f2_c2 -->
<g id="node43" class="node"><title>f2_c2</title>
<ellipse fill="black" stroke="black" cx="276.08" cy="-480.5" rx="0.36" ry="0.36"/>
</g>
<!-- f2_c1&#45;&#45;f2_c2 -->
<g id="edge14" class="edge"><title>f2_c1&#45;&#45;f2_c2</title>
<path fill="none" stroke="black" d="M276.16,-522.028C276.16,-517.702 276.16,-484.988 276.16,-480.916"/>
</g>
<!-- f2_c2&#45;&#45;pro_190 -->
<g id="edge18" class="edge"><title>f2_c2&#45;&#45;pro_190</title>
<path fill="none" stroke="black" d="M276.16,-479.956C276.16,-476.568 276.16,-458.5 276.16,-458.5 276.16,-458.5 298.567,-458.5 319.923,-458.5"/>
</g>
<!-- f3_c0 -->
<g id="node44" class="node"><title>f3_c0</title>
<ellipse fill="black" stroke="black" cx="276.08" cy="-394.5" rx="0.36" ry="0.36"/>
</g>
<!-- f3_c0&#45;&#45;pro_170 -->
<g id="edge22" class="edge"><title>f3_c0&#45;&#45;pro_170</title>
<path fill="none" stroke="black" d="M276.603,-394.5C280.524,-394.5 305.77,-394.5 327.109,-394.5"/>
</g>
<!-- f3_c0&#45;&#45;f3_c1 -->
<g id="edge19" class="edge"><title>f3_c0&#45;&#45;f3_c1</title>
<path fill="none" stroke="black" d="M276.16,-393.833C276.16,-390.065 276.16,-371.499 276.16,-368.052"/>
</g>
<!-- f3_c2 -->
<g id="node46" class="node"><title>f3_c2</title>
<ellipse fill="black" stroke="black" cx="276.08" cy="-348.5" rx="0.36" ry="0.36"/>
</g>
<!-- f3_c1&#45;&#45;f3_c2 -->
<g id="edge20" class="edge"><title>f3_c1&#45;&#45;f3_c2</title>
<path fill="none" stroke="black" d="M276.16,-367.03C276.16,-364.379 276.16,-351.314 276.16,-348.888"/>
</g>
<!-- f3_c2&#45;&#45;pro_186 -->
<g id="edge23" class="edge"><title>f3_c2&#45;&#45;pro_186</title>
<path fill="none" stroke="black" d="M276.603,-348.5C280.089,-348.5 300.423,-348.5 319.886,-348.5"/>
</g>
<!-- f4_c0 -->
<g id="node47" class="node"><title>f4_c0</title>
<ellipse fill="black" stroke="black" cx="276.08" cy="-275.5" rx="0.36" ry="0.36"/>
</g>
<!-- f4_c0&#45;&#45;pro_192 -->
<g id="edge27" class="edge"><title>f4_c0&#45;&#45;pro_192</title>
<path fill="none" stroke="black" d="M276.603,-275.75C280.524,-275.75 305.77,-275.75 327.109,-275.75"/>
</g>
<!-- f4_c0&#45;&#45;f4_c1 -->
<g id="edge24" class="edge"><title>f4_c0&#45;&#45;f4_c1</title>
<path fill="none" stroke="black" d="M276.16,-275.096C276.16,-271.388 276.16,-243.347 276.16,-239.856"/>
</g>
<!-- f4_c1&#45;&#45;pro_193 -->
<g id="edge28" class="edge"><title>f4_c1&#45;&#45;pro_193</title>
<path fill="none" stroke="black" d="M276.603,-239.5C280.089,-239.5 300.423,-239.5 319.886,-239.5"/>
</g>
<!-- f4_c2 -->
<g id="node49" class="node"><title>f4_c2</title>
<ellipse fill="black" stroke="black" cx="276.08" cy="-201.5" rx="0.36" ry="0.36"/>
</g>
<!-- f4_c1&#45;&#45;f4_c2 -->
<g id="edge25" class="edge"><title>f4_c1&#45;&#45;f4_c2</title>
<path fill="none" stroke="black" d="M276.16,-239.073C276.16,-235.159 276.16,-205.561 276.16,-201.876"/>
</g>
<!-- f4_c2&#45;&#45;pro_296 -->
<g id="edge29" class="edge"><title>f4_c2&#45;&#45;pro_296</title>
<path fill="none" stroke="black" d="M276.603,-201.25C280.089,-201.25 300.423,-201.25 319.886,-201.25"/>
</g>
<!-- f5_c0 -->
<g id="node50" class="node"><title>f5_c0</title>
<ellipse fill="black" stroke="black" cx="276.08" cy="-119.5" rx="0.36" ry="0.36"/>
</g>
<!-- f5_c0&#45;&#45;pro_207 -->
<g id="edge33" class="edge"><title>f5_c0&#45;&#45;pro_207</title>
<path fill="none" stroke="black" d="M276.603,-119.5C280.089,-119.5 300.423,-119.5 319.886,-119.5"/>
</g>
<!-- f5_c0&#45;&#45;f5_c1 -->
<g id="edge30" class="edge"><title>f5_c0&#45;&#45;f5_c1</title>
<path fill="none" stroke="black" d="M276.16,-119.084C276.16,-115.274 276.16,-86.4538 276.16,-82.8662"/>
</g>
<!-- f5_c1&#45;&#45;pro_242 -->
<g id="edge34" class="edge"><title>f5_c1&#45;&#45;pro_242</title>
<path fill="none" stroke="black" d="M276.603,-82.5C280.089,-82.5 300.423,-82.5 319.886,-82.5"/>
</g>
<!-- f5_c2 -->
<g id="node52" class="node"><title>f5_c2</title>
<ellipse fill="black" stroke="black" cx="276.08" cy="-45.5" rx="0.36" ry="0.36"/>
</g>
<!-- f5_c1&#45;&#45;f5_c2 -->
<g id="edge31" class="edge"><title>f5_c1&#45;&#45;f5_c2</title>
<path fill="none" stroke="black" d="M276.16,-82.0845C276.16,-78.2736 276.16,-49.4538 276.16,-45.8662"/>
</g>
<!-- f5_c2&#45;&#45;lady_28 -->
<g id="edge35" class="edge"><title>f5_c2&#45;&#45;lady_28</title>
<path fill="none" stroke="black" d="M276.16,-44.8326C276.16,-40.6748 276.16,-18.5 276.16,-18.5 276.16,-18.5 298.567,-18.5 319.923,-18.5"/>
</g>
<!-- f6_c&#45;&#45;pro_304 -->
<g id="edge37" class="edge"><title>f6_c&#45;&#45;pro_304</title>
<path fill="none" stroke="black" d="M440.323,-568.5C443.809,-568.5 464.143,-568.5 483.606,-568.5"/>
</g>
<!-- f7_c0 -->
<g id="node54" class="node"><title>f7_c0</title>
<ellipse fill="black" stroke="black" cx="439.8" cy="-605.5" rx="0.36" ry="0.36"/>
</g>
<!-- f7_c0&#45;&#45;pro_269 -->
<g id="edge41" class="edge"><title>f7_c0&#45;&#45;pro_269</title>
<path fill="none" stroke="black" d="M440.323,-605.75C444.244,-605.75 469.49,-605.75 490.829,-605.75"/>
</g>
<!-- f7_c0&#45;&#45;f7_c1 -->
<g id="edge38" class="edge"><title>f7_c0&#45;&#45;f7_c1</title>
<path fill="none" stroke="black" d="M439.856,-604.75C440.991,-604.75 459.16,-604.75 459.16,-604.75 459.16,-604.75 459.16,-504.5 459.16,-504.5 459.16,-504.5 443.26,-504.5 440.279,-504.5"/>
</g>
<!-- f7_c1&#45;&#45;pro_278 -->
<g id="edge42" class="edge"><title>f7_c1&#45;&#45;pro_278</title>
<path fill="none" stroke="black" d="M440.16,-504.368C440.16,-501.67 440.16,-458.5 440.16,-458.5 440.16,-458.5 462.158,-458.5 483.296,-458.5"/>
</g>
<!-- f7_c2 -->
<g id="node56" class="node"><title>f7_c2</title>
<ellipse fill="black" stroke="black" cx="439.8" cy="-523.5" rx="0.36" ry="0.36"/>
</g>
<!-- f7_c1&#45;&#45;f7_c2 -->
<g id="edge39" class="edge"><title>f7_c1&#45;&#45;f7_c2</title>
<path fill="none" stroke="black" d="M440.16,-504.555C440.16,-505.634 440.16,-522.402 440.16,-523.449"/>
</g>
<!-- f7_c2&#45;&#45;pro_281 -->
<g id="edge43" class="edge"><title>f7_c2&#45;&#45;pro_281</title>
<path fill="none" stroke="black" d="M440.323,-523.5C443.809,-523.5 464.143,-523.5 483.606,-523.5"/>
</g>
<!-- f8_c&#45;&#45;pro_273 -->
<g id="edge45" class="edge"><title>f8_c&#45;&#45;pro_273</title>
<path fill="none" stroke="black" d="M440.323,-678.5C443.809,-678.5 464.143,-678.5 483.606,-678.5"/>
</g>
<!-- f9_c0 -->
<g id="node58" class="node"><title>f9_c0</title>
<ellipse fill="black" stroke="black" cx="439.8" cy="-386.5" rx="0.36" ry="0.36"/>
</g>
<!-- f9_c0&#45;&#45;lady_44 -->
<g id="edge49" class="edge"><title>f9_c0&#45;&#45;lady_44</title>
<path fill="none" stroke="black" d="M440.323,-386.5C443.346,-386.5 459.039,-386.5 475.846,-386.5"/>
</g>
<!-- f9_c0&#45;&#45;f9_c1 -->
<g id="edge46" class="edge"><title>f9_c0&#45;&#45;f9_c1</title>
<path fill="none" stroke="black" d="M440.16,-386.42C440.16,-384.829 440.16,-360.118 440.16,-358.575"/>
</g>
<!-- f9_c2 -->
<g id="node60" class="node"><title>f9_c2</title>
<ellipse fill="black" stroke="black" cx="439.8" cy="-339.5" rx="0.36" ry="0.36"/>
</g>
<!-- f9_c1&#45;&#45;f9_c2 -->
<g id="edge47" class="edge"><title>f9_c1&#45;&#45;f9_c2</title>
<path fill="none" stroke="black" d="M440.16,-358.445C440.16,-357.366 440.16,-340.598 440.16,-339.551"/>
</g>
<!-- f9_c2&#45;&#45;lady_49 -->
<g id="edge50" class="edge"><title>f9_c2&#45;&#45;lady_49</title>
<path fill="none" stroke="black" d="M440.323,-339.5C443.346,-339.5 459.039,-339.5 475.846,-339.5"/>
</g>
<!-- f10_c&#45;&#45;pro_286 -->
<g id="edge52" class="edge"><title>f10_c&#45;&#45;pro_286</title>
<path fill="none" stroke="black" d="M440.323,-293.5C443.346,-293.5 459.039,-293.5 475.846,-293.5"/>
</g>
<!-- f11_c0 -->
<g id="node62" class="node"><title>f11_c0</title>
<ellipse fill="black" stroke="black" cx="112.36" cy="-593.5" rx="0.36" ry="0.36"/>
</g>
<!-- f11_c0&#45;&#45;pro_19 -->
<g id="edge56" class="edge"><title>f11_c0&#45;&#45;pro_19</title>
<path fill="none" stroke="black" d="M112.818,-593.5C117.301,-593.5 153.16,-593.5 153.16,-593.5 153.16,-593.5 153.16,-671.86 153.16,-708.286"/>
</g>
<!-- f11_c0&#45;&#45;pro_77 -->
<g id="edge57" class="edge"><title>f11_c0&#45;&#45;pro_77</title>
<path fill="none" stroke="black" d="M113.16,-593.6C113.16,-595.653 113.16,-628.5 113.16,-628.5 113.16,-628.5 135.039,-628.5 156.064,-628.5"/>
</g>
<!-- f11_c0&#45;&#45;pro_98 -->
<g id="edge58" class="edge"><title>f11_c0&#45;&#45;pro_98</title>
<path fill="none" stroke="black" d="M113.16,-593.402C113.16,-591.408 113.16,-559.5 113.16,-559.5 113.16,-559.5 135.039,-559.5 156.064,-559.5"/>
</g>
<!-- f11_c0&#45;&#45;f11_c1 -->
<g id="edge53" class="edge"><title>f11_c0&#45;&#45;f11_c1</title>
<path fill="none" stroke="black" d="M111.91,-593.5C109.107,-593.5 94.16,-593.5 94.16,-593.5 94.16,-593.5 94.16,-301.833 94.16,-301.833 94.16,-301.833 110.156,-301.833 112.156,-301.833"/>
</g>
<!-- f11_c1&#45;&#45;pro_99 -->
<g id="edge59" class="edge"><title>f11_c1&#45;&#45;pro_99</title>
<path fill="none" stroke="black" d="M112.16,-302.14C112.16,-308.402 112.16,-358.5 112.16,-358.5 112.16,-358.5 134.643,-358.5 156.073,-358.5"/>
</g>
<!-- f11_c1&#45;&#45;pro_108 -->
<g id="edge60" class="edge"><title>f11_c1&#45;&#45;pro_108</title>
<path fill="none" stroke="black" d="M113.16,-301.457C113.16,-299.64 113.16,-241.5 113.16,-241.5 113.16,-241.5 135.039,-241.5 156.064,-241.5"/>
</g>
<!-- f11_c1&#45;&#45;pro_112 -->
<g id="edge61" class="edge"><title>f11_c1&#45;&#45;pro_112</title>
<path fill="none" stroke="black" d="M112.883,-301.5C116.804,-301.5 142.05,-301.5 163.389,-301.5"/>
</g>
<!-- f11_c2 -->
<g id="node64" class="node"><title>f11_c2</title>
<ellipse fill="black" stroke="black" cx="112.36" cy="-148.5" rx="0.36" ry="0.36"/>
</g>
<!-- f11_c1&#45;&#45;f11_c2 -->
<g id="edge54" class="edge"><title>f11_c1&#45;&#45;f11_c2</title>
<path fill="none" stroke="black" d="M112.16,-301.061C112.16,-292.367 112.16,-157.343 112.16,-148.912"/>
</g>
<!-- f11_c2&#45;&#45;pro_113 -->
<g id="edge62" class="edge"><title>f11_c2&#45;&#45;pro_113</title>
<path fill="none" stroke="black" d="M112.883,-148.5C116.369,-148.5 136.703,-148.5 156.166,-148.5"/>
</g>
<!-- f11_c2&#45;&#45;pro_125 -->
<g id="edge63" class="edge"><title>f11_c2&#45;&#45;pro_125</title>
<path fill="none" stroke="black" d="M113.16,-148.342C113.16,-145.116 113.16,-93.5 113.16,-93.5 113.16,-93.5 135.039,-93.5 156.064,-93.5"/>
</g>
</g>
</svg>
