<?xml version="1.0" encoding="UTF-8" standalone="no"?>
<!DOCTYPE svg PUBLIC "-//W3C//DTD SVG 1.1//EN"
 "http://www.w3.org/Graphics/SVG/1.1/DTD/svg11.dtd">
<!-- Generated by graphviz version 2.38.0 (20140413.2041)
 -->
<!-- Title: ShogiPlayers4 Pages: 1 -->
<svg width="233pt" height="100pt"
 viewBox="0.00 0.00 232.72 100.00" xmlns="http://www.w3.org/2000/svg" xmlns:xlink="http://www.w3.org/1999/xlink">
<g id="graph0" class="graph" transform="scale(1 1) rotate(0) translate(4 96)">
<title>ShogiPlayers4</title>
<polygon fill="white" stroke="none" points="-4,4 -4,-96 228.72,-96 228.72,4 -4,4"/>
<!-- pro_8 -->
<g id="node1" class="node"><title>pro_8</title>
<polygon fill="lightblue" stroke="blue" points="148.72,-55.5 148.72,-91.5 224.72,-91.5 224.72,-55.5 148.72,-55.5"/>
<text text-anchor="middle" x="186.72" y="-69.8" font-family="Sans" font-size="14.00">志沢春吉</text>
</g>
<!-- pro_9 -->
<g id="node2" class="node"><title>pro_9</title>
<polygon fill="lightblue" stroke="blue" points="148.72,-0.5 148.72,-36.5 224.72,-36.5 224.72,-0.5 148.72,-0.5"/>
<text text-anchor="middle" x="186.72" y="-14.8" font-family="Sans" font-size="14.00">市川一郎</text>
</g>
<!-- extra_4 -->
<g id="node3" class="node"><title>extra_4</title>
<polygon fill="lightblue" stroke="blue" points="0,-31.5 0,-67.5 76,-67.5 76,-31.5 0,-31.5"/>
<text text-anchor="middle" x="38" y="-45.8" font-family="Sans" font-size="14.00">大崎熊雄</text>
</g>
<!-- f0_c1 -->
<g id="node5" class="node"><title>f0_c1</title>
<ellipse fill="black" stroke="black" cx="112.36" cy="-49.5" rx="0.36" ry="0.36"/>
</g>
<!-- extra_4&#45;&#45;f0_c1 -->
<g id="edge3" class="edge"><title>extra_4&#45;&#45;f0_c1</title>
<path fill="none" stroke="black" d="M76.0513,-49.5C92.6312,-49.5 108.98,-49.5 111.9,-49.5"/>
</g>
<!-- f0_c0 -->
<g id="node4" class="node"><title>f0_c0</title>
<ellipse fill="black" stroke="black" cx="112.36" cy="-70.5" rx="0.36" ry="0.36"/>
</g>
<!-- f0_c0&#45;&#45;pro_8 -->
<g id="edge4" class="edge"><title>f0_c0&#45;&#45;pro_8</title>
<path fill="none" stroke="black" d="M112.835,-70.5C115.779,-70.5 131.951,-70.5 148.417,-70.5"/>
</g>
<!-- f0_c0&#45;&#45;f0_c1 -->
<g id="edge1" class="edge"><title>f0_c0&#45;&#45;f0_c1</title>
<path fill="none" stroke="black" d="M112.72,-70.4398C112.72,-69.2465 112.72,-50.7137 112.72,-49.5566"/>
</g>
<!-- f0_c2 -->
<g id="node6" class="node"><title>f0_c2</title>
<ellipse fill="black" stroke="black" cx="112.36" cy="-26.5" rx="0.36" ry="0.36"/>
</g>
<!-- f0_c1&#45;&#45;f0_c2 -->
<g id="edge2" class="edge"><title>f0_c1&#45;&#45;f0_c2</title>
<path fill="none" stroke="black" d="M112.72,-49.434C112.72,-48.1271 112.72,-27.8293 112.72,-26.562"/>
</g>
<!-- f0_c2&#45;&#45;pro_9 -->
<g id="edge5" class="edge"><title>f0_c2&#45;&#45;pro_9</title>
<path fill="none" stroke="black" d="M112.835,-26.5C115.779,-26.5 131.951,-26.5 148.417,-26.5"/>
</g>
</g>
</svg>
