<?xml version="1.0" encoding="UTF-8" standalone="no"?>
<!DOCTYPE svg PUBLIC "-//W3C//DTD SVG 1.1//EN"
 "http://www.w3.org/Graphics/SVG/1.1/DTD/svg11.dtd">
<!-- Generated by graphviz version 2.38.0 (20140413.2041)
 -->
<!-- Title: Simpsons Pages: 1 -->
<svg width="741pt" height="264pt"
 viewBox="0.00 0.00 740.50 264.44" xmlns="http://www.w3.org/2000/svg" xmlns:xlink="http://www.w3.org/1999/xlink">
<g id="graph0" class="graph" transform="scale(1 1) rotate(0) translate(4 260.44)">
<title>Simpsons</title>
<polygon fill="white" stroke="none" points="-4,4 -4,-260.44 736.5,-260.44 736.5,4 -4,4"/>
<!-- Abraham -->
<g id="node1" class="node"><title>Abraham</title>
<polygon fill="lightblue" stroke="blue" points="0,-219.94 0,-255.94 141,-255.94 141,-219.94 0,-219.94"/>
<text text-anchor="middle" x="70.5" y="-234.24" font-family="Sans" font-size="14.00">Abraham Simpson</text>
</g>
<!-- f0_p -->
<g id="node14" class="node"><title>f0_p</title>
<ellipse fill="black" stroke="black" cx="159.5" cy="-237.94" rx="0.36" ry="0.36"/>
</g>
<!-- Abraham&#45;&#45;f0_p -->
<g id="edge9" class="edge"><title>Abraham&#45;&#45;f0_p</title>
<path fill="none" stroke="black" stroke-width="2" d="M141.059,-237C151.186,-237 158.533,-237 159.412,-237"/>
</g>
<!-- Mona -->
<g id="node2" class="node"><title>Mona</title>
<polygon fill="pink" stroke="red" points="177.5,-219.94 177.5,-255.94 293.5,-255.94 293.5,-219.94 177.5,-219.94"/>
<text text-anchor="middle" x="235.5" y="-234.24" font-family="Sans" font-size="14.00">Mona Simpson</text>
</g>
<!-- Clancy -->
<g id="node3" class="node"><title>Clancy</title>
<polygon fill="lightblue" stroke="blue" points="311.5,-219.94 311.5,-255.94 431.5,-255.94 431.5,-219.94 311.5,-219.94"/>
<text text-anchor="middle" x="371.5" y="-234.24" font-family="Sans" font-size="14.00">Clancy Bouvier</text>
</g>
<!-- Mona&#45;&#45;Clancy -->
<!-- f1_p -->
<g id="node18" class="node"><title>f1_p</title>
<ellipse fill="black" stroke="black" cx="449.5" cy="-237.94" rx="0.36" ry="0.36"/>
</g>
<!-- Clancy&#45;&#45;f1_p -->
<g id="edge16" class="edge"><title>Clancy&#45;&#45;f1_p</title>
<path fill="none" stroke="black" stroke-width="2" d="M431.801,-237C441.43,-237 448.56,-237 449.414,-237"/>
</g>
<!-- Jackeline -->
<g id="node4" class="node"><title>Jackeline</title>
<polygon fill="pink" stroke="red" points="468,-219.94 468,-255.94 603,-255.94 603,-219.94 468,-219.94"/>
<text text-anchor="middle" x="535.5" y="-234.24" font-family="Sans" font-size="14.00">Jackeline Bouvier</text>
</g>
<!-- Herb -->
<g id="node5" class="node"><title>Herb</title>
<polygon fill="lightblue" stroke="blue" points="8.5,-110.22 8.5,-146.22 128.5,-146.22 128.5,-110.22 8.5,-110.22"/>
<text text-anchor="middle" x="68.5" y="-124.52" font-family="Sans" font-size="14.00">Herbert Powell</text>
</g>
<!-- Homer -->
<g id="node6" class="node"><title>Homer</title>
<polygon fill="lightblue" stroke="blue" points="146.5,-110.22 146.5,-146.22 296.5,-146.22 296.5,-110.22 146.5,-110.22"/>
<text text-anchor="middle" x="221.5" y="-124.52" font-family="Sans" font-size="14.00">Homer Jay Simpson</text>
</g>
<!-- Herb&#45;&#45;Homer -->
<!-- Marge -->
<g id="node7" class="node"><title>Marge</title>
<polygon fill="pink" stroke="red" points="333,-110.22 333,-146.22 468,-146.22 468,-110.22 333,-110.22"/>
<text text-anchor="middle" x="400.5" y="-124.52" font-family="Sans" font-size="14.00">Marjorie Simpson</text>
</g>
<!-- Homer&#45;&#45;Marge -->
<!-- f2_p -->
<g id="node22" class="node"><title>f2_p</title>
<ellipse fill="black" stroke="black" cx="314.5" cy="-128.22" rx="0.36" ry="0.36"/>
</g>
<!-- Homer&#45;&#45;f2_p -->
<g id="edge24" class="edge"><title>Homer&#45;&#45;f2_p</title>
<path fill="none" stroke="black" stroke-width="2" d="M296.569,-128C305.822,-128 312.611,-128 314.163,-128"/>
</g>
<!-- Patty -->
<g id="node8" class="node"><title>Patty</title>
<polygon fill="pink" stroke="red" points="486.5,-110.22 486.5,-146.22 598.5,-146.22 598.5,-110.22 486.5,-110.22"/>
<text text-anchor="middle" x="542.5" y="-124.52" font-family="Sans" font-size="14.00">Patty Bouvier</text>
</g>
<!-- Marge&#45;&#45;Patty -->
<!-- Selma -->
<g id="node9" class="node"><title>Selma</title>
<polygon fill="pink" stroke="red" points="616.5,-110.22 616.5,-146.22 732.5,-146.22 732.5,-110.22 616.5,-110.22"/>
<text text-anchor="middle" x="674.5" y="-124.52" font-family="Sans" font-size="14.00">Selma Bouvier</text>
</g>
<!-- Patty&#45;&#45;Selma -->
<!-- f3_c -->
<g id="node26" class="node"><title>f3_c</title>
<ellipse fill="black" stroke="black" cx="673.5" cy="-73.36" rx="0.36" ry="0.36"/>
</g>
<!-- Selma&#45;&#45;f3_c -->
<g id="edge32" class="edge"><title>Selma&#45;&#45;f3_c</title>
<path fill="none" stroke="black" d="M673.5,-109.952C673.5,-95.4897 673.5,-77.1877 673.5,-73.8832"/>
</g>
<!-- Bart -->
<g id="node10" class="node"><title>Bart</title>
<polygon fill="lightblue" stroke="blue" points="24,-0.5 24,-36.5 225,-36.5 225,-0.5 24,-0.5"/>
<text text-anchor="middle" x="124.5" y="-14.8" font-family="Sans" font-size="14.00">Bartholomew Jojo Simpson</text>
</g>
<!-- Lisa -->
<g id="node11" class="node"><title>Lisa</title>
<polygon fill="pink" stroke="red" points="243,-0.5 243,-36.5 392,-36.5 392,-0.5 243,-0.5"/>
<text text-anchor="middle" x="317.5" y="-14.8" font-family="Sans" font-size="14.00">Lisa Marie Simpson</text>
</g>
<!-- Bart&#45;&#45;Lisa -->
<!-- Maggie -->
<g id="node12" class="node"><title>Maggie</title>
<polygon fill="pink" stroke="red" points="410,-0.5 410,-36.5 603,-36.5 603,-0.5 410,-0.5"/>
<text text-anchor="middle" x="506.5" y="-14.8" font-family="Sans" font-size="14.00">Margaret Evelyn Simpson</text>
</g>
<!-- Lisa&#45;&#45;Maggie -->
<!-- Ling -->
<g id="node13" class="node"><title>Ling</title>
<polygon fill="pink" stroke="red" points="621.5,-0.5 621.5,-36.5 725.5,-36.5 725.5,-0.5 621.5,-0.5"/>
<text text-anchor="middle" x="673.5" y="-14.8" font-family="Sans" font-size="14.00">Ling Bouvier</text>
</g>
<!-- Maggie&#45;&#45;Ling -->
<!-- f0_p&#45;&#45;Mona -->
<g id="edge10" class="edge"><title>f0_p&#45;&#45;Mona</title>
<path fill="none" stroke="black" stroke-width="2" d="M159.555,-237C160.256,-237 167.58,-237 177.427,-237"/>
</g>
<!-- f0_c1 -->
<g id="node16" class="node"><title>f0_c1</title>
<ellipse fill="black" stroke="black" cx="159.5" cy="-183.08" rx="0.36" ry="0.36"/>
</g>
<!-- f0_p&#45;&#45;f0_c1 -->
<g id="edge13" class="edge"><title>f0_p&#45;&#45;f0_c1</title>
<path fill="none" stroke="black" d="M159.5,-237.324C159.5,-231.673 159.5,-188.942 159.5,-183.623"/>
</g>
<!-- f0_c0 -->
<g id="node15" class="node"><title>f0_c0</title>
<ellipse fill="black" stroke="black" cx="83.5" cy="-183.08" rx="0.36" ry="0.36"/>
</g>
<!-- f0_c0&#45;&#45;Herb -->
<g id="edge14" class="edge"><title>f0_c0&#45;&#45;Herb</title>
<path fill="none" stroke="black" d="M83.5,-182.464C83.5,-178.909 83.5,-160.675 83.5,-146.316"/>
</g>
<!-- f0_c0&#45;&#45;f0_c1 -->
<g id="edge11" class="edge"><title>f0_c0&#45;&#45;f0_c1</title>
<path fill="none" stroke="black" d="M83.9853,-183C90.1546,-183 153.165,-183 159.058,-183"/>
</g>
<!-- f0_c2 -->
<g id="node17" class="node"><title>f0_c2</title>
<ellipse fill="black" stroke="black" cx="192.5" cy="-183.08" rx="0.36" ry="0.36"/>
</g>
<!-- f0_c1&#45;&#45;f0_c2 -->
<g id="edge12" class="edge"><title>f0_c1&#45;&#45;f0_c2</title>
<path fill="none" stroke="black" d="M159.871,-183C163.156,-183 187.285,-183 191.78,-183"/>
</g>
<!-- f0_c2&#45;&#45;Homer -->
<g id="edge15" class="edge"><title>f0_c2&#45;&#45;Homer</title>
<path fill="none" stroke="black" d="M192.5,-182.464C192.5,-178.909 192.5,-160.675 192.5,-146.316"/>
</g>
<!-- f1_p&#45;&#45;Jackeline -->
<g id="edge17" class="edge"><title>f1_p&#45;&#45;Jackeline</title>
<path fill="none" stroke="black" stroke-width="2" d="M449.562,-237C450.305,-237 457.612,-237 467.679,-237"/>
</g>
<!-- f1_c1 -->
<g id="node20" class="node"><title>f1_c1</title>
<ellipse fill="black" stroke="black" cx="449.5" cy="-183.08" rx="0.36" ry="0.36"/>
</g>
<!-- f1_p&#45;&#45;f1_c1 -->
<g id="edge20" class="edge"><title>f1_p&#45;&#45;f1_c1</title>
<path fill="none" stroke="black" d="M449.5,-237.324C449.5,-231.673 449.5,-188.942 449.5,-183.623"/>
</g>
<!-- f1_c0 -->
<g id="node19" class="node"><title>f1_c0</title>
<ellipse fill="black" stroke="black" cx="415.5" cy="-183.08" rx="0.36" ry="0.36"/>
</g>
<!-- f1_c0&#45;&#45;Marge -->
<g id="edge21" class="edge"><title>f1_c0&#45;&#45;Marge</title>
<path fill="none" stroke="black" d="M415.5,-182.464C415.5,-178.909 415.5,-160.675 415.5,-146.316"/>
</g>
<!-- f1_c0&#45;&#45;f1_c1 -->
<g id="edge18" class="edge"><title>f1_c0&#45;&#45;f1_c1</title>
<path fill="none" stroke="black" d="M415.882,-183C419.267,-183 444.127,-183 448.758,-183"/>
</g>
<!-- f1_c2 -->
<g id="node21" class="node"><title>f1_c2</title>
<ellipse fill="black" stroke="black" cx="542.5" cy="-183.08" rx="0.36" ry="0.36"/>
</g>
<!-- f1_c1&#45;&#45;f1_c2 -->
<g id="edge19" class="edge"><title>f1_c1&#45;&#45;f1_c2</title>
<path fill="none" stroke="black" d="M450.094,-183C457.643,-183 534.748,-183 541.96,-183"/>
</g>
<!-- f1_c2&#45;&#45;Patty -->
<g id="edge22" class="edge"><title>f1_c2&#45;&#45;Patty</title>
<path fill="none" stroke="black" d="M542.5,-182.464C542.5,-178.909 542.5,-160.675 542.5,-146.316"/>
</g>
<!-- f1_c2&#45;&#45;Selma -->
<g id="edge23" class="edge"><title>f1_c2&#45;&#45;Selma</title>
<path fill="none" stroke="black" d="M542.879,-183C550.621,-183 674.5,-183 674.5,-183 674.5,-183 674.5,-162.396 674.5,-146.461"/>
</g>
<!-- f2_p&#45;&#45;Marge -->
<g id="edge25" class="edge"><title>f2_p&#45;&#45;Marge</title>
<path fill="none" stroke="black" stroke-width="2" d="M315.049,-128C316.966,-128 323.733,-128 332.679,-128"/>
</g>
<!-- f2_c1 -->
<g id="node24" class="node"><title>f2_c1</title>
<ellipse fill="black" stroke="black" cx="316.5" cy="-73.36" rx="0.36" ry="0.36"/>
</g>
<!-- f2_p&#45;&#45;f2_c1 -->
<g id="edge28" class="edge"><title>f2_p&#45;&#45;f2_c1</title>
<path fill="none" stroke="black" d="M314.5,-127.6C314.5,-121.533 314.5,-73 314.5,-73 314.5,-73 316.031,-73 316.414,-73"/>
</g>
<!-- f2_c0 -->
<g id="node23" class="node"><title>f2_c0</title>
<ellipse fill="black" stroke="black" cx="210.5" cy="-73.36" rx="0.36" ry="0.36"/>
</g>
<!-- f2_c0&#45;&#45;Bart -->
<g id="edge29" class="edge"><title>f2_c0&#45;&#45;Bart</title>
<path fill="none" stroke="black" d="M210.5,-72.7439C210.5,-69.1888 210.5,-50.9553 210.5,-36.5962"/>
</g>
<!-- f2_c0&#45;&#45;f2_c1 -->
<g id="edge26" class="edge"><title>f2_c0&#45;&#45;f2_c1</title>
<path fill="none" stroke="black" d="M210.577,-73C213.736,-73 313.314,-73 316.426,-73"/>
</g>
<!-- f2_c1&#45;&#45;Lisa -->
<g id="edge30" class="edge"><title>f2_c1&#45;&#45;Lisa</title>
<path fill="none" stroke="black" d="M316.5,-72.7439C316.5,-69.1888 316.5,-50.9553 316.5,-36.5962"/>
</g>
<!-- f2_c2 -->
<g id="node25" class="node"><title>f2_c2</title>
<ellipse fill="black" stroke="black" cx="421.5" cy="-73.36" rx="0.36" ry="0.36"/>
</g>
<!-- f2_c1&#45;&#45;f2_c2 -->
<g id="edge27" class="edge"><title>f2_c1&#45;&#45;f2_c2</title>
<path fill="none" stroke="black" d="M316.576,-73C319.706,-73 418.345,-73 421.426,-73"/>
</g>
<!-- f2_c2&#45;&#45;Maggie -->
<g id="edge31" class="edge"><title>f2_c2&#45;&#45;Maggie</title>
<path fill="none" stroke="black" d="M421.5,-72.7439C421.5,-69.1888 421.5,-50.9553 421.5,-36.5962"/>
</g>
<!-- f3_c&#45;&#45;Ling -->
<g id="edge33" class="edge"><title>f3_c&#45;&#45;Ling</title>
<path fill="none" stroke="black" d="M673.5,-72.7439C673.5,-69.1888 673.5,-50.9553 673.5,-36.5962"/>
</g>
</g>
</svg>
