<?xml version="1.0" encoding="UTF-8" standalone="no"?>
<!DOCTYPE svg PUBLIC "-//W3C//DTD SVG 1.1//EN"
 "http://www.w3.org/Graphics/SVG/1.1/DTD/svg11.dtd">
<!-- Generated by graphviz version 2.38.0 (20140413.2041)
 -->
<!-- Title: Simpsons Pages: 1 -->
<svg width="645pt" height="291pt"
 viewBox="0.00 0.00 645.44 291.00" xmlns="http://www.w3.org/2000/svg" xmlns:xlink="http://www.w3.org/1999/xlink">
<g id="graph0" class="graph" transform="scale(1 1) rotate(0) translate(4 287)">
<title>Simpsons</title>
<polygon fill="white" stroke="none" points="-4,4 -4,-287 641.44,-287 641.44,4 -4,4"/>
<!-- Abraham -->
<g id="node1" class="node"><title>Abraham</title>
<polygon fill="lightblue" stroke="blue" points="0,-246.5 0,-282.5 141,-282.5 141,-246.5 0,-246.5"/>
<text text-anchor="middle" x="70.5" y="-260.8" font-family="Sans" font-size="14.00">Abraham Simpson</text>
</g>
<!-- f0_p -->
<g id="node14" class="node"><title>f0_p</title>
<ellipse fill="black" stroke="black" cx="70.5" cy="-227.5" rx="0.36" ry="0.36"/>
</g>
<!-- Abraham&#45;&#45;f0_p -->
<g id="edge9" class="edge"><title>Abraham&#45;&#45;f0_p</title>
<path fill="none" stroke="black" stroke-width="2" d="M71.44,-246.434C71.44,-237.628 71.44,-228.692 71.44,-227.609"/>
</g>
<!-- Mona -->
<g id="node2" class="node"><title>Mona</title>
<polygon fill="pink" stroke="red" points="12.5,-172.5 12.5,-208.5 128.5,-208.5 128.5,-172.5 12.5,-172.5"/>
<text text-anchor="middle" x="70.5" y="-186.8" font-family="Sans" font-size="14.00">Mona Simpson</text>
</g>
<!-- Clancy -->
<g id="node3" class="node"><title>Clancy</title>
<polygon fill="lightblue" stroke="blue" points="10.5,-117.5 10.5,-153.5 130.5,-153.5 130.5,-117.5 10.5,-117.5"/>
<text text-anchor="middle" x="70.5" y="-131.8" font-family="Sans" font-size="14.00">Clancy Bouvier</text>
</g>
<!-- Mona&#45;&#45;Clancy -->
<!-- f1_p -->
<g id="node18" class="node"><title>f1_p</title>
<ellipse fill="black" stroke="black" cx="70.5" cy="-98.5" rx="0.36" ry="0.36"/>
</g>
<!-- Clancy&#45;&#45;f1_p -->
<g id="edge16" class="edge"><title>Clancy&#45;&#45;f1_p</title>
<path fill="none" stroke="black" stroke-width="2" d="M71.44,-117.434C71.44,-108.628 71.44,-99.6921 71.44,-98.6094"/>
</g>
<!-- Jackeline -->
<g id="node4" class="node"><title>Jackeline</title>
<polygon fill="pink" stroke="red" points="3,-43.5 3,-79.5 138,-79.5 138,-43.5 3,-43.5"/>
<text text-anchor="middle" x="70.5" y="-57.8" font-family="Sans" font-size="14.00">Jackeline Bouvier</text>
</g>
<!-- Herb -->
<g id="node5" class="node"><title>Herb</title>
<polygon fill="lightblue" stroke="blue" points="228.72,-239.5 228.72,-275.5 348.72,-275.5 348.72,-239.5 228.72,-239.5"/>
<text text-anchor="middle" x="288.72" y="-253.8" font-family="Sans" font-size="14.00">Herbert Powell</text>
</g>
<!-- Homer -->
<g id="node6" class="node"><title>Homer</title>
<polygon fill="lightblue" stroke="blue" points="213.72,-184.5 213.72,-220.5 363.72,-220.5 363.72,-184.5 213.72,-184.5"/>
<text text-anchor="middle" x="288.72" y="-198.8" font-family="Sans" font-size="14.00">Homer Jay Simpson</text>
</g>
<!-- Herb&#45;&#45;Homer -->
<!-- Marge -->
<g id="node7" class="node"><title>Marge</title>
<polygon fill="pink" stroke="red" points="221.22,-110.5 221.22,-146.5 356.22,-146.5 356.22,-110.5 221.22,-110.5"/>
<text text-anchor="middle" x="288.72" y="-124.8" font-family="Sans" font-size="14.00">Marjorie Simpson</text>
</g>
<!-- Homer&#45;&#45;Marge -->
<!-- f2_p -->
<g id="node22" class="node"><title>f2_p</title>
<ellipse fill="black" stroke="black" cx="288.72" cy="-165.5" rx="0.36" ry="0.36"/>
</g>
<!-- Homer&#45;&#45;f2_p -->
<g id="edge24" class="edge"><title>Homer&#45;&#45;f2_p</title>
<path fill="none" stroke="black" stroke-width="2" d="M289.44,-184.434C289.44,-175.628 289.44,-166.692 289.44,-165.609"/>
</g>
<!-- Patty -->
<g id="node8" class="node"><title>Patty</title>
<polygon fill="pink" stroke="red" points="232.72,-55.5 232.72,-91.5 344.72,-91.5 344.72,-55.5 232.72,-55.5"/>
<text text-anchor="middle" x="288.72" y="-69.8" font-family="Sans" font-size="14.00">Patty Bouvier</text>
</g>
<!-- Marge&#45;&#45;Patty -->
<!-- Selma -->
<g id="node9" class="node"><title>Selma</title>
<polygon fill="pink" stroke="red" points="230.72,-0.5 230.72,-36.5 346.72,-36.5 346.72,-0.5 230.72,-0.5"/>
<text text-anchor="middle" x="288.72" y="-14.8" font-family="Sans" font-size="14.00">Selma Bouvier</text>
</g>
<!-- Patty&#45;&#45;Selma -->
<!-- f3_c -->
<g id="node26" class="node"><title>f3_c</title>
<ellipse fill="black" stroke="black" cx="400.08" cy="-36.5" rx="0.36" ry="0.36"/>
</g>
<!-- Selma&#45;&#45;f3_c -->
<g id="edge32" class="edge"><title>Selma&#45;&#45;f3_c</title>
<path fill="none" stroke="black" d="M347.009,-36.25C372.269,-36.25 396.811,-36.25 399.78,-36.25"/>
</g>
<!-- Bart -->
<g id="node10" class="node"><title>Bart</title>
<polygon fill="lightblue" stroke="blue" points="436.44,-190.5 436.44,-226.5 637.44,-226.5 637.44,-190.5 436.44,-190.5"/>
<text text-anchor="middle" x="536.94" y="-204.8" font-family="Sans" font-size="14.00">Bartholomew Jojo Simpson</text>
</g>
<!-- Lisa -->
<g id="node11" class="node"><title>Lisa</title>
<polygon fill="pink" stroke="red" points="462.44,-135.5 462.44,-171.5 611.44,-171.5 611.44,-135.5 462.44,-135.5"/>
<text text-anchor="middle" x="536.94" y="-149.8" font-family="Sans" font-size="14.00">Lisa Marie Simpson</text>
</g>
<!-- Bart&#45;&#45;Lisa -->
<!-- Maggie -->
<g id="node12" class="node"><title>Maggie</title>
<polygon fill="pink" stroke="red" points="440.44,-80.5 440.44,-116.5 633.44,-116.5 633.44,-80.5 440.44,-80.5"/>
<text text-anchor="middle" x="536.94" y="-94.8" font-family="Sans" font-size="14.00">Margaret Evelyn Simpson</text>
</g>
<!-- Lisa&#45;&#45;Maggie -->
<!-- Ling -->
<g id="node13" class="node"><title>Ling</title>
<polygon fill="pink" stroke="red" points="484.94,-23.5 484.94,-59.5 588.94,-59.5 588.94,-23.5 484.94,-23.5"/>
<text text-anchor="middle" x="536.94" y="-37.8" font-family="Sans" font-size="14.00">Ling Bouvier</text>
</g>
<!-- Maggie&#45;&#45;Ling -->
<!-- f0_p&#45;&#45;Mona -->
<g id="edge10" class="edge"><title>f0_p&#45;&#45;Mona</title>
<path fill="none" stroke="black" stroke-width="2" d="M71.44,-227.394C71.44,-226.326 71.44,-217.372 71.44,-208.553"/>
</g>
<!-- f0_c1 -->
<g id="node16" class="node"><title>f0_c1</title>
<ellipse fill="black" stroke="black" cx="177.36" cy="-227.5" rx="0.36" ry="0.36"/>
</g>
<!-- f0_p&#45;&#45;f0_c1 -->
<g id="edge13" class="edge"><title>f0_p&#45;&#45;f0_c1</title>
<path fill="none" stroke="black" d="M71.1824,-227.5C79.8567,-227.5 168.452,-227.5 176.739,-227.5"/>
</g>
<!-- f0_c0 -->
<g id="node15" class="node"><title>f0_c0</title>
<ellipse fill="black" stroke="black" cx="177.36" cy="-254.5" rx="0.36" ry="0.36"/>
</g>
<!-- f0_c0&#45;&#45;Herb -->
<g id="edge14" class="edge"><title>f0_c0&#45;&#45;Herb</title>
<path fill="none" stroke="black" d="M178.071,-254.5C182.313,-254.5 204.895,-254.5 228.563,-254.5"/>
</g>
<!-- f0_c0&#45;&#45;f0_c1 -->
<g id="edge11" class="edge"><title>f0_c0&#45;&#45;f0_c1</title>
<path fill="none" stroke="black" d="M177.44,-253.833C177.44,-250.065 177.44,-231.499 177.44,-228.052"/>
</g>
<!-- f0_c2 -->
<g id="node17" class="node"><title>f0_c2</title>
<ellipse fill="black" stroke="black" cx="177.36" cy="-204.5" rx="0.36" ry="0.36"/>
</g>
<!-- f0_c1&#45;&#45;f0_c2 -->
<g id="edge12" class="edge"><title>f0_c1&#45;&#45;f0_c2</title>
<path fill="none" stroke="black" d="M177.44,-226.931C177.44,-223.722 177.44,-207.907 177.44,-204.97"/>
</g>
<!-- f0_c2&#45;&#45;Homer -->
<g id="edge15" class="edge"><title>f0_c2&#45;&#45;Homer</title>
<path fill="none" stroke="black" d="M178.071,-204.5C181.405,-204.5 196.071,-204.5 213.689,-204.5"/>
</g>
<!-- f1_p&#45;&#45;Jackeline -->
<g id="edge17" class="edge"><title>f1_p&#45;&#45;Jackeline</title>
<path fill="none" stroke="black" stroke-width="2" d="M71.44,-98.3939C71.44,-97.3257 71.44,-88.3715 71.44,-79.5529"/>
</g>
<!-- f1_c1 -->
<g id="node20" class="node"><title>f1_c1</title>
<ellipse fill="black" stroke="black" cx="177.36" cy="-98.5" rx="0.36" ry="0.36"/>
</g>
<!-- f1_p&#45;&#45;f1_c1 -->
<g id="edge20" class="edge"><title>f1_p&#45;&#45;f1_c1</title>
<path fill="none" stroke="black" d="M71.1824,-98.5C79.8567,-98.5 168.452,-98.5 176.739,-98.5"/>
</g>
<!-- f1_c0 -->
<g id="node19" class="node"><title>f1_c0</title>
<ellipse fill="black" stroke="black" cx="177.36" cy="-123.5" rx="0.36" ry="0.36"/>
</g>
<!-- f1_c0&#45;&#45;Marge -->
<g id="edge21" class="edge"><title>f1_c0&#45;&#45;Marge</title>
<path fill="none" stroke="black" d="M178.071,-123.5C181.869,-123.5 200.363,-123.5 221.178,-123.5"/>
</g>
<!-- f1_c0&#45;&#45;f1_c1 -->
<g id="edge18" class="edge"><title>f1_c0&#45;&#45;f1_c1</title>
<path fill="none" stroke="black" d="M177.44,-122.882C177.44,-119.393 177.44,-102.203 177.44,-99.0107"/>
</g>
<!-- f1_c2 -->
<g id="node21" class="node"><title>f1_c2</title>
<ellipse fill="black" stroke="black" cx="177.36" cy="-73.5" rx="0.36" ry="0.36"/>
</g>
<!-- f1_c1&#45;&#45;f1_c2 -->
<g id="edge19" class="edge"><title>f1_c1&#45;&#45;f1_c2</title>
<path fill="none" stroke="black" d="M177.44,-97.882C177.44,-94.3931 177.44,-77.2032 177.44,-74.0107"/>
</g>
<!-- f1_c2&#45;&#45;Patty -->
<g id="edge22" class="edge"><title>f1_c2&#45;&#45;Patty</title>
<path fill="none" stroke="black" d="M178.071,-73.5C182.554,-73.5 207.518,-73.5 232.602,-73.5"/>
</g>
<!-- f1_c2&#45;&#45;Selma -->
<g id="edge23" class="edge"><title>f1_c2&#45;&#45;Selma</title>
<path fill="none" stroke="black" d="M177.44,-72.8823C177.44,-66.8398 177.44,-18.5 177.44,-18.5 177.44,-18.5 203.548,-18.5 230.473,-18.5"/>
</g>
<!-- f2_p&#45;&#45;Marge -->
<g id="edge25" class="edge"><title>f2_p&#45;&#45;Marge</title>
<path fill="none" stroke="black" stroke-width="2" d="M289.44,-165.394C289.44,-164.326 289.44,-155.372 289.44,-146.553"/>
</g>
<!-- f2_c1 -->
<g id="node24" class="node"><title>f2_c1</title>
<ellipse fill="black" stroke="black" cx="400.08" cy="-162.5" rx="0.36" ry="0.36"/>
</g>
<!-- f2_p&#45;&#45;f2_c1 -->
<g id="edge28" class="edge"><title>f2_p&#45;&#45;f2_c1</title>
<path fill="none" stroke="black" d="M289.178,-165.5C295.286,-165.5 360.44,-165.5 360.44,-165.5 360.44,-165.5 360.44,-162.5 360.44,-162.5 360.44,-162.5 395.28,-162.5 399.635,-162.5"/>
</g>
<!-- f2_c0 -->
<g id="node23" class="node"><title>f2_c0</title>
<ellipse fill="black" stroke="black" cx="400.08" cy="-199.5" rx="0.36" ry="0.36"/>
</g>
<!-- f2_c0&#45;&#45;Bart -->
<g id="edge29" class="edge"><title>f2_c0&#45;&#45;Bart</title>
<path fill="none" stroke="black" d="M400.473,-199.5C403.013,-199.5 417.607,-199.5 436.374,-199.5"/>
</g>
<!-- f2_c0&#45;&#45;f2_c1 -->
<g id="edge26" class="edge"><title>f2_c0&#45;&#45;f2_c1</title>
<path fill="none" stroke="black" d="M400.44,-199.394C400.44,-197.291 400.44,-164.638 400.44,-162.6"/>
</g>
<!-- f2_c1&#45;&#45;Lisa -->
<g id="edge30" class="edge"><title>f2_c1&#45;&#45;Lisa</title>
<path fill="none" stroke="black" d="M400.473,-162.5C404.11,-162.5 432.471,-162.5 462.403,-162.5"/>
</g>
<!-- f2_c2 -->
<g id="node25" class="node"><title>f2_c2</title>
<ellipse fill="black" stroke="black" cx="400.08" cy="-120.5" rx="0.36" ry="0.36"/>
</g>
<!-- f2_c1&#45;&#45;f2_c2 -->
<g id="edge27" class="edge"><title>f2_c1&#45;&#45;f2_c2</title>
<path fill="none" stroke="black" d="M400.44,-162.38C400.44,-159.993 400.44,-122.927 400.44,-120.613"/>
</g>
<!-- f2_c2&#45;&#45;Maggie -->
<g id="edge31" class="edge"><title>f2_c2&#45;&#45;Maggie</title>
<path fill="none" stroke="black" d="M400.44,-120.421C400.44,-119.652 400.44,-113.5 400.44,-113.5 400.44,-113.5 417.878,-113.5 440.288,-113.5"/>
</g>
<!-- f3_c&#45;&#45;Ling -->
<g id="edge33" class="edge"><title>f3_c&#45;&#45;Ling</title>
<path fill="none" stroke="black" d="M400.473,-36.5C405.019,-36.5 448.196,-36.5 484.784,-36.5"/>
</g>
</g>
</svg>
