<?xml version="1.0" encoding="UTF-8" standalone="no"?>
<!DOCTYPE svg PUBLIC "-//W3C//DTD SVG 1.1//EN"
 "http://www.w3.org/Graphics/SVG/1.1/DTD/svg11.dtd">
<!-- Generated by graphviz version 2.38.0 (20140413.2041)
 -->
<!-- Title: Simpsons Pages: 1 -->
<svg width="732pt" height="264pt"
 viewBox="0.00 0.00 732.00 264.44" xmlns="http://www.w3.org/2000/svg" xmlns:xlink="http://www.w3.org/1999/xlink">
<g id="graph0" class="graph" transform="scale(1 1) rotate(0) translate(4 260.44)">
<title>Simpsons</title>
<polygon fill="white" stroke="none" points="-4,4 -4,-260.44 728,-260.44 728,4 -4,4"/>
<!-- Abraham -->
<g id="node1" class="node"><title>Abraham</title>
<polygon fill="none" stroke="black" points="89.5,-219.94 89.5,-255.94 230.5,-255.94 230.5,-219.94 89.5,-219.94"/>
<text text-anchor="middle" x="160" y="-234.24" font-family="Sans" font-size="14.00">Abraham Simpson</text>
</g>
<!-- f0_p -->
<g id="node14" class="node"><title>f0_p</title>
<ellipse fill="black" stroke="black" cx="249" cy="-237.94" rx="0.36" ry="0.36"/>
</g>
<!-- Abraham&#45;&#45;f0_p -->
<g id="edge9" class="edge"><title>Abraham&#45;&#45;f0_p</title>
<path fill="none" stroke="black" stroke-width="2" d="M230.559,-237C240.686,-237 248.033,-237 248.912,-237"/>
</g>
<!-- Mona -->
<g id="node2" class="node"><title>Mona</title>
<polygon fill="none" stroke="black" points="267,-219.94 267,-255.94 383,-255.94 383,-219.94 267,-219.94"/>
<text text-anchor="middle" x="325" y="-234.24" font-family="Sans" font-size="14.00">Mona Simpson</text>
</g>
<!-- Clancy -->
<g id="node3" class="node"><title>Clancy</title>
<polygon fill="none" stroke="black" points="401,-219.94 401,-255.94 521,-255.94 521,-219.94 401,-219.94"/>
<text text-anchor="middle" x="461" y="-234.24" font-family="Sans" font-size="14.00">Clancy Bouvier</text>
</g>
<!-- Mona&#45;&#45;Clancy -->
<!-- f1_p -->
<g id="node18" class="node"><title>f1_p</title>
<ellipse fill="black" stroke="black" cx="539" cy="-237.94" rx="0.36" ry="0.36"/>
</g>
<!-- Clancy&#45;&#45;f1_p -->
<g id="edge16" class="edge"><title>Clancy&#45;&#45;f1_p</title>
<path fill="none" stroke="black" stroke-width="2" d="M521.301,-247C531.572,-247 539,-247 539,-247 539,-247 539,-240.063 539,-238.329"/>
</g>
<!-- Jackeline -->
<g id="node4" class="node"><title>Jackeline</title>
<polygon fill="none" stroke="black" points="557.5,-219.94 557.5,-255.94 692.5,-255.94 692.5,-219.94 557.5,-219.94"/>
<text text-anchor="middle" x="625" y="-234.24" font-family="Sans" font-size="14.00">Jackeline Bouvier</text>
</g>
<!-- Herb -->
<g id="node5" class="node"><title>Herb</title>
<polygon fill="none" stroke="black" points="0,-110.22 0,-146.22 120,-146.22 120,-110.22 0,-110.22"/>
<text text-anchor="middle" x="60" y="-124.52" font-family="Sans" font-size="14.00">Herbert Powell</text>
</g>
<!-- Homer -->
<g id="node6" class="node"><title>Homer</title>
<polygon fill="none" stroke="black" points="138,-110.22 138,-146.22 288,-146.22 288,-110.22 138,-110.22"/>
<text text-anchor="middle" x="213" y="-124.52" font-family="Sans" font-size="14.00">Homer Jay Simpson</text>
</g>
<!-- Herb&#45;&#45;Homer -->
<!-- Marge -->
<g id="node7" class="node"><title>Marge</title>
<polygon fill="none" stroke="black" points="324.5,-110.22 324.5,-146.22 459.5,-146.22 459.5,-110.22 324.5,-110.22"/>
<text text-anchor="middle" x="392" y="-124.52" font-family="Sans" font-size="14.00">Marjorie Simpson</text>
</g>
<!-- Homer&#45;&#45;Marge -->
<!-- f2_p -->
<g id="node22" class="node"><title>f2_p</title>
<ellipse fill="black" stroke="black" cx="306" cy="-128.22" rx="0.36" ry="0.36"/>
</g>
<!-- Homer&#45;&#45;f2_p -->
<g id="edge24" class="edge"><title>Homer&#45;&#45;f2_p</title>
<path fill="none" stroke="black" stroke-width="2" d="M288.069,-128C297.322,-128 304.111,-128 305.663,-128"/>
</g>
<!-- Patty -->
<g id="node8" class="node"><title>Patty</title>
<polygon fill="none" stroke="black" points="478,-110.22 478,-146.22 590,-146.22 590,-110.22 478,-110.22"/>
<text text-anchor="middle" x="534" y="-124.52" font-family="Sans" font-size="14.00">Patty Bouvier</text>
</g>
<!-- Marge&#45;&#45;Patty -->
<!-- Selma -->
<g id="node9" class="node"><title>Selma</title>
<polygon fill="none" stroke="black" points="608,-110.22 608,-146.22 724,-146.22 724,-110.22 608,-110.22"/>
<text text-anchor="middle" x="666" y="-124.52" font-family="Sans" font-size="14.00">Selma Bouvier</text>
</g>
<!-- Patty&#45;&#45;Selma -->
<!-- f3_c -->
<g id="node26" class="node"><title>f3_c</title>
<ellipse fill="black" stroke="black" cx="665" cy="-73.36" rx="0.36" ry="0.36"/>
</g>
<!-- Selma&#45;&#45;f3_c -->
<g id="edge32" class="edge"><title>Selma&#45;&#45;f3_c</title>
<path fill="none" stroke="black" d="M665,-109.952C665,-95.4897 665,-77.1877 665,-73.8832"/>
</g>
<!-- Bart -->
<g id="node10" class="node"><title>Bart</title>
<polygon fill="none" stroke="black" points="15.5,-0.5 15.5,-36.5 216.5,-36.5 216.5,-0.5 15.5,-0.5"/>
<text text-anchor="middle" x="116" y="-14.8" font-family="Sans" font-size="14.00">Bartholomew Jojo Simpson</text>
</g>
<!-- Lisa -->
<g id="node11" class="node"><title>Lisa</title>
<polygon fill="none" stroke="black" points="234.5,-0.5 234.5,-36.5 383.5,-36.5 383.5,-0.5 234.5,-0.5"/>
<text text-anchor="middle" x="309" y="-14.8" font-family="Sans" font-size="14.00">Lisa Marie Simpson</text>
</g>
<!-- Bart&#45;&#45;Lisa -->
<!-- Maggie -->
<g id="node12" class="node"><title>Maggie</title>
<polygon fill="none" stroke="black" points="401.5,-0.5 401.5,-36.5 594.5,-36.5 594.5,-0.5 401.5,-0.5"/>
<text text-anchor="middle" x="498" y="-14.8" font-family="Sans" font-size="14.00">Margaret Evelyn Simpson</text>
</g>
<!-- Lisa&#45;&#45;Maggie -->
<!-- Ling -->
<g id="node13" class="node"><title>Ling</title>
<polygon fill="none" stroke="black" points="613,-0.5 613,-36.5 717,-36.5 717,-0.5 613,-0.5"/>
<text text-anchor="middle" x="665" y="-14.8" font-family="Sans" font-size="14.00">Ling Bouvier</text>
</g>
<!-- Maggie&#45;&#45;Ling -->
<!-- f0_p&#45;&#45;Mona -->
<g id="edge10" class="edge"><title>f0_p&#45;&#45;Mona</title>
<path fill="none" stroke="black" stroke-width="2" d="M249,-238.329C249,-240.063 249,-247 249,-247 249,-247 256.422,-247 266.627,-247"/>
</g>
<!-- f0_c1 -->
<g id="node16" class="node"><title>f0_c1</title>
<ellipse fill="black" stroke="black" cx="251" cy="-183.08" rx="0.36" ry="0.36"/>
</g>
<!-- f0_p&#45;&#45;f0_c1 -->
<g id="edge13" class="edge"><title>f0_p&#45;&#45;f0_c1</title>
<path fill="none" stroke="black" d="M249.086,-237C249.469,-237 251,-237 251,-237 251,-237 251,-189.609 251,-183.686"/>
</g>
<!-- f0_c0 -->
<g id="node15" class="node"><title>f0_c0</title>
<ellipse fill="black" stroke="black" cx="127" cy="-183.08" rx="0.36" ry="0.36"/>
</g>
<!-- f0_c0&#45;&#45;Herb -->
<g id="edge14" class="edge"><title>f0_c0&#45;&#45;Herb</title>
<path fill="none" stroke="black" d="M126.45,-183C123.024,-183 104.75,-183 104.75,-183 104.75,-183 104.75,-162.396 104.75,-146.461"/>
</g>
<!-- f0_c0&#45;&#45;f0_c1 -->
<g id="edge11" class="edge"><title>f0_c0&#45;&#45;f0_c1</title>
<path fill="none" stroke="black" d="M127,-182.518C127,-180.014 127,-170 127,-170 127,-170 240.5,-170 240.5,-170 240.5,-170 240.5,-183 240.5,-183 240.5,-183 248.539,-183 250.549,-183"/>
</g>
<!-- f0_c2 -->
<g id="node17" class="node"><title>f0_c2</title>
<ellipse fill="black" stroke="black" cx="213" cy="-183.08" rx="0.36" ry="0.36"/>
</g>
<!-- f0_c1&#45;&#45;f0_c2 -->
<g id="edge12" class="edge"><title>f0_c1&#45;&#45;f0_c2</title>
<path fill="none" stroke="black" d="M251,-182.46C251,-178.598 251,-158 251,-158 251,-158 213.333,-158 213.333,-158 213.333,-158 213.333,-180.043 213.333,-182.798"/>
</g>
<!-- f0_c2&#45;&#45;Homer -->
<g id="edge15" class="edge"><title>f0_c2&#45;&#45;Homer</title>
<path fill="none" stroke="black" d="M212.667,-182.923C212.667,-180.987 212.667,-161.584 212.667,-146.43"/>
</g>
<!-- f1_p&#45;&#45;Jackeline -->
<g id="edge17" class="edge"><title>f1_p&#45;&#45;Jackeline</title>
<path fill="none" stroke="black" stroke-width="2" d="M539.062,-237C539.805,-237 547.112,-237 557.179,-237"/>
</g>
<!-- f1_c1 -->
<g id="node20" class="node"><title>f1_c1</title>
<ellipse fill="black" stroke="black" cx="537" cy="-183.08" rx="0.36" ry="0.36"/>
</g>
<!-- f1_p&#45;&#45;f1_c1 -->
<g id="edge20" class="edge"><title>f1_p&#45;&#45;f1_c1</title>
<path fill="none" stroke="black" d="M538.914,-237C538.531,-237 537,-237 537,-237 537,-237 537,-189.609 537,-183.686"/>
</g>
<!-- f1_c0 -->
<g id="node19" class="node"><title>f1_c0</title>
<ellipse fill="black" stroke="black" cx="232" cy="-183.08" rx="0.36" ry="0.36"/>
</g>
<!-- f1_c0&#45;&#45;Marge -->
<g id="edge21" class="edge"><title>f1_c0&#45;&#45;Marge</title>
<path fill="none" stroke="black" d="M232,-183.592C232,-185.874 232,-195 232,-195 232,-195 353.75,-195 353.75,-195 353.75,-195 353.75,-166.24 353.75,-146.468"/>
</g>
<!-- f1_c0&#45;&#45;f1_c1 -->
<g id="edge18" class="edge"><title>f1_c0&#45;&#45;f1_c1</title>
<path fill="none" stroke="black" d="M231.581,-183C229.715,-183 222.25,-183 222.25,-183 222.25,-183 222.25,-207 222.25,-207 222.25,-207 259.5,-207 259.5,-207 259.5,-207 259.5,-183 259.5,-183 259.5,-183 524.145,-183 536.55,-183"/>
</g>
<!-- f1_c1&#45;&#45;Patty -->
<g id="edge22" class="edge"><title>f1_c1&#45;&#45;Patty</title>
<path fill="none" stroke="black" d="M537,-182.464C537,-178.909 537,-160.675 537,-146.316"/>
</g>
<!-- f1_c2 -->
<g id="node21" class="node"><title>f1_c2</title>
<ellipse fill="black" stroke="black" cx="612" cy="-183.08" rx="0.36" ry="0.36"/>
</g>
<!-- f1_c1&#45;&#45;f1_c2 -->
<g id="edge19" class="edge"><title>f1_c1&#45;&#45;f1_c2</title>
<path fill="none" stroke="black" d="M537.479,-183C543.567,-183 605.748,-183 611.564,-183"/>
</g>
<!-- f1_c2&#45;&#45;Selma -->
<g id="edge23" class="edge"><title>f1_c2&#45;&#45;Selma</title>
<path fill="none" stroke="black" d="M612,-182.464C612,-178.909 612,-160.675 612,-146.316"/>
</g>
<!-- f2_p&#45;&#45;Marge -->
<g id="edge25" class="edge"><title>f2_p&#45;&#45;Marge</title>
<path fill="none" stroke="black" stroke-width="2" d="M306.549,-128C308.466,-128 315.233,-128 324.179,-128"/>
</g>
<!-- f2_c1 -->
<g id="node24" class="node"><title>f2_c1</title>
<ellipse fill="black" stroke="black" cx="308" cy="-73.36" rx="0.36" ry="0.36"/>
</g>
<!-- f2_p&#45;&#45;f2_c1 -->
<g id="edge28" class="edge"><title>f2_p&#45;&#45;f2_c1</title>
<path fill="none" stroke="black" d="M306,-127.6C306,-121.533 306,-73 306,-73 306,-73 307.531,-73 307.914,-73"/>
</g>
<!-- f2_c0 -->
<g id="node23" class="node"><title>f2_c0</title>
<ellipse fill="black" stroke="black" cx="202" cy="-73.36" rx="0.36" ry="0.36"/>
</g>
<!-- f2_c0&#45;&#45;Bart -->
<g id="edge29" class="edge"><title>f2_c0&#45;&#45;Bart</title>
<path fill="none" stroke="black" d="M202,-72.7439C202,-69.1888 202,-50.9553 202,-36.5962"/>
</g>
<!-- f2_c0&#45;&#45;f2_c1 -->
<g id="edge26" class="edge"><title>f2_c0&#45;&#45;f2_c1</title>
<path fill="none" stroke="black" d="M202.077,-73C205.236,-73 304.814,-73 307.926,-73"/>
</g>
<!-- f2_c1&#45;&#45;Lisa -->
<g id="edge30" class="edge"><title>f2_c1&#45;&#45;Lisa</title>
<path fill="none" stroke="black" d="M308,-72.7439C308,-69.1888 308,-50.9553 308,-36.5962"/>
</g>
<!-- f2_c2 -->
<g id="node25" class="node"><title>f2_c2</title>
<ellipse fill="black" stroke="black" cx="413" cy="-73.36" rx="0.36" ry="0.36"/>
</g>
<!-- f2_c1&#45;&#45;f2_c2 -->
<g id="edge27" class="edge"><title>f2_c1&#45;&#45;f2_c2</title>
<path fill="none" stroke="black" d="M308.076,-73C311.206,-73 409.845,-73 412.926,-73"/>
</g>
<!-- f2_c2&#45;&#45;Maggie -->
<g id="edge31" class="edge"><title>f2_c2&#45;&#45;Maggie</title>
<path fill="none" stroke="black" d="M413,-72.7439C413,-69.1888 413,-50.9553 413,-36.5962"/>
</g>
<!-- f3_c&#45;&#45;Ling -->
<g id="edge33" class="edge"><title>f3_c&#45;&#45;Ling</title>
<path fill="none" stroke="black" d="M665,-72.7439C665,-69.1888 665,-50.9553 665,-36.5962"/>
</g>
</g>
</svg>
